<?xml version="1.0" standalone="no"?>
<!DOCTYPE svg PUBLIC "-//W3C//DTD SVG 1.1//EN" "http://www.w3.org/Graphics/SVG/1.1/DTD/svg11.dtd" >
<svg xmlns="http://www.w3.org/2000/svg">
<metadata>
This is a custom SVG webfont generated by Font Squirrel.
Copyright   : Mattox
Designer    : Mattox Shuler
</metadata>
<defs>
<font id="MathleteBulkySlant" horiz-adv-x="550" >
<font-face units-per-em="2048" ascent="1638" descent="-410" />
<missing-glyph horiz-adv-x="614" />
<glyph unicode=" "  horiz-adv-x="614" />
<glyph unicode="&#x09;" horiz-adv-x="614" />
<glyph unicode="&#xa0;" horiz-adv-x="614" />
<glyph unicode="!" horiz-adv-x="274" d="M-6 39q4 -25 26 -35q33 -14 84 10q21 13 23 27q0 2 8 39q4 8 2 12q0 16 -12 27.5t-29 9.5q-35 -4 -63 -23q-43 -31 -39 -67zM57 317q-2 -16 8.5 -28.5t26.5 -12.5q39 0 47 41l88 854q2 16 -9 28.5t-27.5 12.5t-30 -12t-15.5 -29z" />
<glyph unicode="&#x22;" horiz-adv-x="405" d="M80 926q-2 -16 9 -28.5t27.5 -12.5t30 12t15.5 29q0 12 6 69q8 103 22 152q4 16 -5 30.5t-25.5 16.5t-31.5 -8t-17 -27q-16 -66 -21 -117q-4 -33 -4 -61q-6 -40 -6 -55zM274 932q-2 -16 9.5 -28.5t28 -12.5t29.5 12t15 29q19 190 23 237q2 18 -9.5 29.5t-27.5 11.5 q-41 0 -45 -41q-4 -47 -23 -237z" />
<glyph unicode="#" horiz-adv-x="778" d="M-76 582q-4 -16 6.5 -29.5t26.5 -15.5q20 -2 68 -2q35 -2 36 -12.5t-10 -35.5q-41 -100 -49 -137q-8 -43 33 -47q39 -4 49 35q14 76 74 186q8 14 41 17q70 4 98 8q27 2 35 -10.5t-2 -34.5q-35 -80 -56 -144q-14 -39 23 -49q39 -10 53 29q43 115 78 192q12 35 47 37 q84 10 121 13q41 4 41 45q2 16 -10.5 27.5t-30.5 9.5q-2 0 -23.5 -2.5t-35.5 -4.5q-29 -2 -36 5t3 40l35 74q14 33 51 33q70 0 88 2q16 0 28.5 13.5t14.5 29.5t-10.5 27.5t-28.5 11.5q-4 0 -15.5 -1t-19.5 -1q-14 0 -23.5 2t-13.5 4t-4 7t1 8t4 12.5t5 13.5q12 29 19 51 q8 41 -31 45q-41 4 -51 -37q-4 -25 -29 -75q-18 -33 -51 -35q-74 0 -104 -2q-25 0 -30 6t5 39q4 8 11 23.5t10 21.5q18 41 -19 53q-37 14 -55 -24q-14 -29 -39 -93q-14 -33 -49 -34q-109 -14 -144 -27q-41 -14 -30.5 -53t51.5 -25q8 4 32.5 8t39.5 8q39 10 43 -5t-13 -40 q-29 -61 -47 -96q-18 -31 -57 -33q-43 0 -105 4q-16 2 -31.5 -9t-17.5 -27zM233 638q-8 13 5 36l20 45l23 49q12 35 47 35h34q18 2 54 2q27 0 33 -7t-5 -40l-38 -86q-17 -33 -50 -35l-92 -8q-23 -4 -31 9z" />
<glyph unicode="$" horiz-adv-x="671" d="M-6 809q0 -82 47 -121q31 -29 72 -37t141 -14v-1v-5v-9q0 -4 -1 -12t-1 -14q-23 -223 -45 -477q0 -25 -16.5 -34t-34.5 5q-72 63 -74 172q0 16 -12.5 26.5t-30.5 8.5q-41 -4 -41 -47q2 -92 48 -163t118 -101q31 -14 31 -47q-4 -41 -9 -119q-2 -16 10.5 -27.5t29 -11.5 t28.5 13t14 30q6 98 6 100q3 37 43 43q90 18 154 90t80 185q23 162 -18 294t-158 166q-4 2 -8.5 6.5t-11.5 16.5t-5 23l31 368q2 8 3 16.5t3 14.5t3 10t3 5t4 1q6 0 11 -4q66 -33 84 -164q8 -39 47 -28.5t32 49.5q-23 164 -120 217q-10 8 -23 10q-33 12 -33 45q4 39 8 113 q2 16 -10 27.5t-28.5 11.5t-28.5 -13.5t-14 -29.5q-4 -74 -9 -113q0 -35 -34 -47q-20 -6 -33 -14q-106 -55 -178 -171t-74 -243zM76 817q0 102 59.5 196.5t140.5 137.5q2 0 7.5 -1t11.5 -7t6 -17q-19 -221 -33 -364q-4 -45 -47 -41q-10 0 -24.5 1t-22.5 2t-12 1 q-86 14 -86 92zM287 70q6 99 45 505l6 50h4q84 -29 115.5 -134.5t11.5 -244.5q-25 -160 -141 -195q-20 -6 -31.5 0t-9.5 19z" />
<glyph unicode="%" horiz-adv-x="659" d="M-76 29q-18 -41 19 -54q37 -14 55 25q326 700 633 1167q23 41 -10 58q-14 8 -32 3t-28 -20q-303 -465 -637 -1179zM64 973q10 -49 49 -68q111 -47 174 53q35 60 6 142q-10 33 -29 47q-18 16 -26 20q-57 10 -101.5 -19.5t-64.5 -82.5q-18 -43 -8 -92zM145 999q-7 27 9 58 q8 10 17 15t14 5t8 -4l10 -10q35 -29 14.5 -67t-61.5 -17q-10 4 -11 20zM192 48.5q33 -54.5 119 -46.5t121 73.5t-20 153.5q-2 2 -5 7l-4 4q-4 2 -13 9t-15 11q-12 4 -60 -2q-23 -4 -32 -8q-25 -14 -58 -57q-66 -90 -33 -144.5zM267 93q-7 13 20 50l24 31q0 2 4 2 q35 -4 43 -26q25 -57 -45 -66q-39 -4 -46 9z" />
<glyph unicode="&#x26;" horiz-adv-x="667" d="M-53.5 311.5q-12.5 -143.5 33.5 -229.5q35 -70 95 -94.5t132 -3.5q133 35 215 168q53 84 59 219q6 43 45 43h-4q39 0 47 41q2 16 -9.5 28.5t-27.5 12.5h-81q-37 0 -86 -4q-47 -4 -84 -17q-18 -4 -28.5 -19.5t-6.5 -29.5q2 -16 22 -29q8 -2 49 6q18 3 43 7q31 2 37 -5.5 t4 -31.5q-9 -120 -49 -185q-61 -100 -159 -127q-90 -25 -132.5 49t-29.5 203q14 199 123 267q16 10 43 10h18h6q6 0 10 2q8 2 20.5 14t12.5 27q2 12 -10 31l-8 4q-12 6 -25 6q-6 0 -8 2q-43 4 -51 10q-18 16 -31 39q-20 53 -2 152q18 90 66.5 179t95.5 122q57 41 100 -31 q20 -35 24.5 -79t-9.5 -62q-8 -14 -4 -31t16 -25t29.5 -2t27.5 21q29 57 23 116q-6 63 -39 114.5t-82 68.5q-129 45 -250 -174q-59 -109 -80.5 -217.5t8.5 -188.5q8 -20 15 -29q18 -31 -7 -57q-23 -20 -47 -55q-57 -92 -69.5 -235.5z" />
<glyph unicode="'" horiz-adv-x="147" d="M18 942q-2 -16 8.5 -28.5t26.5 -12.5q39 0 47 41q4 31 6 125q3 72 13 119q6 39 -33 43t-49 -39q-10 -82 -10 -127q-8 -113 -9 -121z" />
<glyph unicode="(" horiz-adv-x="460" d="M34 344q-1 -76 32.5 -164t113.5 -190q10 -12 26.5 -14.5t29.5 10.5q14 12 18 28.5t-8 28.5q-109 145 -125 270q-10 72 5 206t52 255q91 308 230 359q39 20 28 55q-14 35 -53 22q-182 -74 -283 -419q-35 -113 -55 -275q-10 -96 -11 -172z" />
<glyph unicode=")" horiz-adv-x="468" d="M-24.5 4.5q1.5 -16.5 14.5 -24.5q35 -18 57 14q6 12 57 78l62 88l49 73q51 74 57 86l37 76q29 53 41 86q106 276 -53 537q-10 20 -26.5 44.5t-16.5 27.5q-18 29 -55 61.5t-74 46.5t-57 -24q-18 -39 20 -54q53 -20 96 -84l43 -67q137 -223 45 -467q-25 -68 -63 -129 q-29 -49 -35 -62q-20 -33 -45 -69l-47 -66l-49 -72l-51 -69q-8 -14 -6.5 -30.5z" />
<glyph unicode="*" horiz-adv-x="575" d="M100 1061q-12 -45 23 -49q35 -6 90 -27q20 -8 26.5 -13t4.5 -13.5t-17 -28.5l-61 -92q-20 -39 12 -58q35 -18 58 17l30 49q10 18 18.5 26.5t15.5 4t10 -9.5t12 -19q14 -29 24 -47q20 -33 57 -10q33 23 19 55q-27 43 -39 76q-18 27 -16 35t34 22q66 29 109 43q39 14 29 53 q-8 39 -49 24.5t-70 -26.5q-41 -20 -48 -7t5 40q4 18 16 51q18 39 -22 53q-16 4 -31.5 -4t-22.5 -24q-14 -31 -26 -88q-4 -27 -8 -32t-39 1q-55 20 -92 27q-41 10 -52 -29z" />
<glyph unicode="+" horiz-adv-x="598" d="M-29 606q4 -37 45 -33q76 16 172 17q43 0 39 -41q-8 -106 -8 -209q0 -16 12.5 -27.5t28.5 -9.5t28.5 15.5t12.5 29.5q0 98 8 197q4 45 45 41q33 0 73 -1t46 -1q16 0 29.5 12t15.5 28.5t-9 29t-28 12.5q-6 0 -22.5 1t-45 2t-53.5 1q-43 0 -36 41q8 104 14 198 q2 16 -10.5 27.5t-28.5 11.5t-28.5 -13t-14.5 -30q-4 -84 -14 -190q-6 -43 -62 -43q-96 -1 -172 -17q-41 -10 -37 -49z" />
<glyph unicode="," horiz-adv-x="223" d="M-53 -170q-16 -37 22 -53q12 -6 28.5 2t25.5 22q33 72 45 118t2.5 94t-52.5 81q-12 10 -29.5 7t-27.5 -15q-10 -14 -10 -31.5t12 -25.5q33 -31 29 -73t-45 -126z" />
<glyph unicode="-" horiz-adv-x="655" d="M-25 536.5q0 -16.5 13.5 -26.5t29.5 -8q131 18 342 10q143 -4 160 -4t30 12t15 28.5t-9 29t-28 12.5q-6 0 -153 4q-216 8 -361 -10q-16 -2 -27.5 -16.5t-11.5 -31z" />
<glyph unicode="." horiz-adv-x="249" d="M-41 12q31 -49 81 -37.5t69 86.5q5 19 -11 35v2q6 8 -2 27q-8 14 -28 18q-76 6 -107 -37t-2 -94z" />
<glyph unicode="/" horiz-adv-x="563" d="M-119 -4q-4 -16 6.5 -29.5t26.5 -15.5q39 -4 49 37q6 45 29 96q27 78 80 176q23 45 45 92q264 547 420 824q20 37 -15 55q-14 6 -31.5 0t-25.5 -23q-152 -272 -422 -827l-45 -88l-49 -96q-55 -133 -68 -201z" />
<glyph unicode="0" d="M-68 500q-4 -389 113 -506q90 -94 225 6q125 94 181 455q11 92 36 350l7 178q4 111 -31 201q-35 92 -100.5 113.5t-159.5 -46.5q-190 -154 -258 -532q-12 -94 -13 -219zM14.5 506q-0.5 147 12.5 209q61 344 223 475q96 76 135 -43q20 -49 23.5 -181.5t-0.5 -140.5 q-23 -256 -39 -366q-47 -330 -140 -393q-45 -33 -75 -33q-29 0 -48 20q-49 57 -73 193q-18 113 -18.5 260z" />
<glyph unicode="1" horiz-adv-x="471" d="M-119 -6.5q-2 -16.5 9.5 -28.5t27.5 -12q100 0 180 2t181 2q16 0 29.5 12.5t15.5 28.5t-9.5 28.5t-27.5 12.5h-109q-43 -2 -43 4q2 2 2 6q25 227 76 551q18 117 27 303q8 219 18 297v4q0 8 -10 29q0 4 -2 6q-12 12 -28.5 12t-31.5 -10q-90 -80 -147 -158q-23 -35 6 -55 q31 -23 59 10q2 2 5.5 7.5t5.5 7.5q12 16 20 24t17.5 14.5t12.5 -7t1 -46.5q0 -6 -2 -28.5t-3 -54t-3 -56.5q-10 -193 -27 -295q-57 -367 -76 -555v-12q-51 -2 -129 -2q-16 0 -29.5 -12.5t-15.5 -29z" />
<glyph unicode="2" horiz-adv-x="552" d="M-94 16q-4 -27 22 -39l13 -4q10 0 16 -2h45q76 0 223 4q14 0 45 1t43 4h49q16 0 30 12t16 28.5t-9.5 28.5t-27.5 12h-49q-12 -2 -43 -3t-48 -1q-147 -4 -221 -4v2q0 2 3 6.5t5 9.5t6.5 14t8.5 15l8 15q18 37 35.5 68.5t25.5 46.5l9 16q30 68 149 246l86 126 q160 254 137 424q-14 106 -89 164t-165 37q-96 -20 -154.5 -113.5t-54.5 -232.5q0 -16 13.5 -26.5t29.5 -8.5q41 4 41 47q-6 111 33 175.5t101 78.5q59 12 106 -25.5t59 -115.5q18 -137 -127 -367q-10 -14 -35.5 -55t-41.5 -65l-99 -144q-27 -41 -65 -117q-37 -74 -66 -127 l-28 -57q-6 -10 -12.5 -21.5t-8.5 -13.5q-4 -12 -6 -14q0 -2 -1 -5t-3 -5q0 -4 -4 -6v-9z" />
<glyph unicode="3" horiz-adv-x="499" d="M-145 223q-8 -141 71.5 -218t196.5 -50q119 25 193.5 148.5t74.5 308.5q-4 180 -141 250q-18 9 29 40q94 68 136 167.5t11 201.5q-37 121 -113.5 158t-160.5 -21q-72 -47 -118 -142.5t-44 -197.5q0 -16 12 -26.5t31 -7.5q39 4 39 47q0 80 34 155q35 72 81 103.5t83 15.5 q47 -20 76 -117q27 -90 -23.5 -177t-152.5 -132q-20 -4 -33 -6q-2 0 -7 -1t-7 -1q-14 -2 -39 -14q-31 -23 -27 -57t37 -40q18 0 29 2q18 2 35 -4q14 -4 51 -20q100 -51 100 -185q2 -156 -55 -253t-141 -117q-78 -18 -130.5 35t-45.5 159q2 16 -10.5 27.5t-29 11.5t-28.5 -13 t-14 -30z" />
<glyph unicode="4" d="M-72 643q-14 -39 19 -49l8 -4h16q4 2 17 2q2 2 39 8q47 12 88 16q84 8 141 7q43 0 37 -43q-76 -465 -86 -566q-2 -16 9 -28.5t27.5 -12.5t30 12.5t15.5 28.5q10 94 86 564q6 43 47 38h4q16 0 30.5 11.5t16.5 28t-8.5 29.5t-26.5 13h-2q-41 4 -35 43q4 33 9 52q2 16 16 97 t18 114q16 111 17 210q-4 20 -12 27q-14 12 -33 8q-8 0 -37 -18q-6 -4 -10 -10.5t-32 -42t-95.5 -120.5t-132.5 -169l-123 -160l-41 -55q-14 -23 -17 -31zM91 719q-9 12 3 26l78 99l143 180q18 25 35 19.5t12 -33.5q-6 -47 -18 -115q-16 -102 -25 -150q-6 -41 -47 -40 q-66 2 -157 -7q-4 2 -9.5 5.5t-14.5 15.5z" />
<glyph unicode="5" horiz-adv-x="581" d="M-78 231q2 16 15.5 28.5t30 12.5t27.5 -12t9 -29q-12 -111 27 -163t108 -45q72 4 137.5 62t92.5 148q45 129 13 256t-126 148q-14 2 -49 -2h-6l-62 -12l-57 -13q-12 -2 -23 -2q-2 -2 -8 -2h-6q-33 0 -39 41v19l6 43q0 16 6 41q0 6 1 11t3 8l1 3q0 4 4 53t8 78 q6 133 35 215q27 78 71 90q61 16 183 2q102 -16 168 -20q39 -4 32 -43q-4 -18 -17 -29.5t-32 -9.5l-28 3q-28 3 -50 7q-193 25 -237 12v-2q-10 -16 -13 -28q-8 -27 -34 -199q-4 -102 -9 -129q0 -4 -6 -29q0 -4 -1 -8t-1 -6q2 -33 33 -27q102 18 115 19q80 -6 135 -55.5 t75.5 -123t19.5 -158.5t-25 -167q-37 -117 -125 -193.5t-187 -82.5q-109 -8 -169 69.5t-46 220.5z" />
<glyph unicode="6" horiz-adv-x="555" d="M-51 502q-23 -444 157 -508q80 -29 150 6t115 117q82 141 82 327q2 90 -24 157t-77 89q-125 57 -307 -186q-8 -10 -14 -10v12q9 163 43 313q66 283 233 346q35 10 58 -4q35 -25 49 -86q8 -14 4 -53l-2 -23q-4 -20 -2 -26q0 -4 -1 -12.5t-1 -10.5q0 -16 12 -27.5 t28.5 -9.5t29 15.5t12.5 29.5q0 20 2 37l4 29q4 55 -4 80q-27 92 -81.5 127t-125.5 10q-104 -37 -205 -176q-49 -72 -87 -232.5t-48 -330.5zM35 297q2 12 3 20.5t1 10.5q14 61 79.5 147t127.5 125q76 45 106 -41q16 -53 17 -125q3 -163 -68 -282q-68 -115 -162 -80 q-45 14 -74.5 103t-29.5 122z" />
<glyph unicode="7" horiz-adv-x="552" d="M-68 -2q35 94 88 209q78 170 90.5 198.5t96.5 256.5q49 135 106 256l80 163q2 4 21 47q2 4 6 12.5t5 11.5t2 9t-3 8t-13.5 4.5t-23.5 2.5q-84 0 -137 4q-49 2 -111 2h-2q-37 0 -37 -2q-6 -16 -4 -43q-2 -25 6 -84q10 -39 -30 -52q-41 -14 -49 27q-20 102 -3 166 q16 47 50 63q10 6 34 7h41q66 0 117 -2q20 -2 80 -2q31 -2 76 -3q19 -2 39 -2h2l12 5q39 6 57 -21q6 -9 7 -25l-3 -10q0 -8 -4 -14q-2 -12 -16 -37l-45 -100l-78 -164q-66 -143 -104 -250q-80 -213 -99 -256l-94 -205q-33 -74 -84 -201q-14 -39 -51 -28q-39 10 -25 49z" />
<glyph unicode="8" horiz-adv-x="587" d="M-92 172q-2 -129 78 -186.5t198 -30.5q111 25 193 112t92 199q12 150 -66 246q-59 72 -124 123q-29 25 -3 57q10 12 26.5 35t21.5 27q25 35 61.5 118.5t48.5 120.5l12 43q27 94 -27 171t-140 67q-84 -8 -159 -78t-110 -176q-20 -63 -21 -116.5t15 -96.5t40 -75t58 -64 q29 -25 2 -58q-61 -70 -73 -88q-120 -163 -123 -350zM-10 180q4 162 106 299q19 27 68 82q29 35 57 8q72 -57 115 -108q61 -80 51 -195q-8 -82 -69.5 -147.5t-145.5 -83.5q-80 -18 -132 18.5t-50 126.5zM72 890q-6 52 18 114q25 80 79 132t107 56q80 12 99 -86q4 -35 0 -51 q-2 -27 -45 -123t-72 -133l-43 -56q-29 -37 -57 -8q-39 37 -59.5 70t-26.5 85z" />
<glyph unicode="9" horiz-adv-x="534" d="M17.5 827.5q7.5 -63.5 35 -101.5t70.5 -50q102 -33 223 86q6 6 15 16q18 21 21 10q2 -9 -1 -34q-20 -190 -45 -473q-2 -25 -27 -244q-2 -16 9.5 -28.5t27.5 -12.5t29.5 12t15.5 29q31 287 51 500q31 334 50 489v4l2 17v32l-5 39q-6 39 -38.5 74t-69.5 45 q-82 23 -182.5 -59t-151.5 -201q-37 -86 -29.5 -149.5zM106 803q-25 55 16.5 148t115.5 157q141 125 168 -51q2 -10 2 -31v-6q-18 -78 -73.5 -155t-123.5 -105q-70 -25 -105 43z" />
<glyph unicode=":" horiz-adv-x="313" d="M6 301q-8 29 10 57.5t47 38.5q111 39 115 -30q2 -4 -4 -19l-14 -43q-10 -18 -60 -45q-76 -31 -94 41zM78 805q6 39 51 49q8 2 16 2h-24l45 4h10q51 -12 70.5 -39.5t-10.5 -66.5q-18 -20 -50 -28.5t-57 3.5q-66 25 -51 76z" />
<glyph unicode=";" horiz-adv-x="399" d="M61 313q8 35 29 65t43 34q8 2 28.5 0t24.5 -2q70 -4 90 -74q18 -53 -8 -123q-4 -12 -12 -49q-16 -51 -47 -101q-8 -14 -23.5 -20t-29.5 2q-37 18 -17 55q4 8 13.5 24.5t13.5 25.5q4 10 8 34q-4 12 -37 17q-43 4 -62.5 38.5t-13.5 73.5zM107.5 775q15.5 42 58.5 69 q37 27 82 18.5t57 -55.5q6 -33 -24 -68q-4 -4 -11.5 -12t-9.5 -12q-4 -7 -16 -19q-29 -33 -61.5 -37t-61.5 31q-29 43 -13.5 85z" />
<glyph unicode="&#x3c;" horiz-adv-x="405" d="M-63 350q-6 45 47 125q23 39 102 146l59 75l58 72q47 63 69 100q18 37 56 23q35 -20 16 -53q-25 -43 -35 -56l-43 -59l-61 -76q-43 -57 -53 -72q-82 -109 -101 -137q-6 -10 -14 -22q-12 -12 -12 -23q-8 -25 -2 -51q25 -68 90 -149l37 -48l40 -51q41 -49 60 -94 q6 -14 0 -30.5t-20.5 -24.5t-31 -4t-22.5 18l-26 41q-12 20 -29 41l-37 49l-39 47q-100 133 -108 213z" />
<glyph unicode="=" horiz-adv-x="729" d="M-47 360q12 -39 51 -22q76 31 176.5 36t403.5 5q16 0 29.5 12t15.5 28.5t-9.5 29t-27.5 12.5q-221 0 -299 -1t-165.5 -12t-150.5 -36q-14 -6 -22 -21.5t-2 -30.5zM14 725q-2 -16 9.5 -28.5t27.5 -12.5q156 0 281 2h280q39 0 47 41q2 16 -9 28.5t-27 12.5h-281 q-125 -2 -281 -2q-39 0 -47 -41z" />
<glyph unicode="&#x3e;" horiz-adv-x="591" d="M-57 8q-4 -18 14 -33q14 -12 37 -4q16 6 35 33q23 23 34 37l111 106l107 111q84 84 153 162q35 41 47 61q27 49 19 72q-6 9 -13 12l-4 4l-2 2q-2 2 -4 2t-8 4.5t-10 6.5l-49 26l-52 29q-22 10 -26 14l-135 92q-84 63 -150 103q-35 18 -57 -14q-8 -14 -6 -31t14 -25 q37 -23 149 -102l132 -92q6 -2 32 -19l54 -28l8 -5q37 -20 18 -40q-4 -8 -18 -23q-55 -66 -148 -158l-106 -106l-111 -113q-31 -31 -39 -41q-25 -25 -26 -43z" />
<glyph unicode="?" horiz-adv-x="546" d="M20 889q-6 -41 35 -45q37 -4 45 37q6 27 13 71q8 74 24 121q27 90 109 96q94 6 137 -63q43 -59 33 -161.5t-82 -164.5q-10 -10 -45 -35q-82 -63 -121 -118q-37 -51 -57.5 -137.5t-22.5 -159.5v-49v6q-2 -16 10.5 -27.5t28.5 -11.5t28.5 13t14.5 30q0 205 63 295 q33 39 99 94l53 41q68 57 95.5 139t19.5 158t-45 135q-68 102 -183.5 100t-173.5 -84q-23 -33 -35 -71q-23 -59 -32 -148q-4 -18 -7.5 -38.5t-3.5 -22.5zM63 35q8 -43 51.5 -41t55.5 51q7 41 -16 72q-6 8 -16 12l-9 4q-2 0 -4 1t-4 1q-37 4 -53 -33q-10 -43 -5 -67z" />
<glyph unicode="@" horiz-adv-x="778" d="M-37 461q27 317 205 559q68 92 149.5 143t145 49t110.5 -38q113 -104 132 -345q8 -125 -15.5 -222t-116.5 -208q-2 -4 -13 -16t-14 -15t-12.5 -13.5t-13.5 -13.5t-12 -10t-14.5 -9.5t-14.5 -5.5t-16 -4t-19 -1q-25 0 -47 17q-27 23 -49 -2q-80 -96 -176 -66 q-55 14 -82 86q-23 78 15 203t108 215q86 109 162 86q80 -27 90 -207v-12q-2 -6 -6 -37q-2 -39 -17 -82l-6 -43q4 -43 8 -55l33 -6q8 8 35 41q78 96 98.5 179t12.5 187q-4 53 -15.5 106.5t-33 108.5t-60.5 83t-90 13q-104 -31 -196.5 -153.5t-143.5 -296.5 q-53 -166 -40 -312.5t89 -207.5q47 -37 136 -52.5t153 2.5q45 14 80 35q80 39 96 43q41 14 49 -24q10 -39 -29 -54q-27 -8 -83 -38q-72 -33 -97 -39q-82 -25 -191.5 -6.5t-168.5 67.5q-66 55 -96.5 155.5t-18.5 215.5zM172 379q2 -12 13.5 -25.5t19.5 -15.5q61 -23 127 100 q8 20 12 33q10 20 12 51q0 10 4.5 40t6.5 50v27q0 27 8 35l-21 -19q27 23 21 54q-4 14 -13 34q0 2 -2 5.5t-4 6.5t-2 5q-2 4 -10 5t-14 0l-6 -1q-23 -12 -48 -47q-57 -74 -89.5 -178.5t-14.5 -159.5z" />
<glyph unicode="A" horiz-adv-x="499" d="M-100 25q-2 -16 10 -27.5t28.5 -11.5t30 13t15.5 30q14 260 65 567q6 39 41 43q4 0 62 6q18 2 44.5 5t30.5 3q20 2 30.5 -7t8.5 -28q-2 -12 -6 -40q-36 -230 -36 -370v-8q1 -142 57 -210q11 -12 27 -14q3 0 5 -1q13 0 23 11q14 12 18 28.5t-8 28.5q-27 35 -34 105 q-4 35 -4 76q1 40 4 88q7 96 30 263q33 217 34 368q0 9 -1 17q-2 156 -58 242q-45 67 -93 67q-7 1 -13 -1q-55 -10 -98 -84t-72 -199q-118 -548 -141 -960zM78 764q55 297 104 385q16 27 24 33q4 3 8 3t8 -2q9 -5 24 -30q45 -68 45 -227q0 -65 -8 -146q-4 -41 -45 -41h32 q-20 -2 -114 -12q-16 0 -45 -4h-6q-15 0 -21 8q-7 8 -6 25v8z" />
<glyph unicode="B" horiz-adv-x="514" d="M-57 8q2 -27 8 -39q0 -4 10 -10q7 -4 22 -4q19 0 50 6q76 14 104 29q82 35 142 100q127 139 129 309v7q0 71 -36 149q-38 82 -93 129q-27 23 -3 53q43 49 56 117q17 85 17 158q0 69 -15 127q-41 147 -160 147q-31 0 -68 -10q-18 -4 -26 -19q-8 -10 -8 -22v-55 q-8 -27 -17 -80q-16 -92 -18 -209q-2 -23 -3 -45.5t-2 -32.5t-1 -14v-14q0 -84 -39 -382q-43 -334 -49 -395zM33 88q4 27 13 107.5t17 136.5q29 188 33 272q4 33 35 31q15 -3 37 0q15 2 25 2h6q51 -29 98 -127q29 -55 29 -117t-29 -133q-59 -141 -186 -197q-14 -8 -35 -10 q-8 -2 -15 -3q-12 0 -19 8q-9 9 -9 24v6zM109 719l4 84q3 15 6 98q2 80 6 115q4 74 25 147q4 21 15 31q8 8 15 7q3 0 6 -1q12 -6 21 -12q31 -20 45 -78q13 -47 13 -107q0 -64 -15 -141q-12 -63 -55 -98q-10 -10 -25 -16q-10 -6 -19.5 -10.5t-11.5 -6.5t-5 -2t-5 -2l-8 -2 q-2 0 -4 -2q-4 0 -8 -4z" />
<glyph unicode="C" horiz-adv-x="495" d="M-46 453q1 -265 52 -371q32 -68 88 -92q24 -10 48 -10q32 0 65 18q53 25 94 76t55 110q1 7 1 14q0 30 -31 33q-18 2 -34 -8t-18 -26q-8 -41 -36 -76q-14 -18 -33 -32.5t-40.5 -23t-44 6t-38.5 51.5q-45 98 -45 354q2 451 129 651q51 74 113 91q8 2 15 2q44 1 69 -61 q16 -40 16 -80q0 -31 -10 -62q-7 -41 29 -47q5 -1 10 -1q29 0 43 31q11 34 10 73q0 60 -25 132q-37 96 -123 97q-22 0 -47 -7q-102 -25 -170 -131q-68 -113 -106 -297q-36 -146 -36 -401v-14z" />
<glyph unicode="D" horiz-adv-x="528" d="M-35 14q0 -14 17 -24q8 -8 22 -8q12 0 28 4l15 4q8 0 16 4q115 55 229 260t157 430q22 108 22 201q0 134 -46 233q-77 168 -294 168q-16 0 -29.5 -12t-15.5 -29q0 -25 -6 -45q-27 -88 -43 -272q-18 -176 -27 -334q-2 -35 -4 -65.5t-3 -44t-1 -15.5q0 -6 -25 -221 q-13 -110 -13 -187q0 -25 1 -47zM47 139q4 49 12 107q25 221 25 227q2 6 8 127q6 119 12 170q4 55 13 152q10 139 35 241q4 17 18 27q9 6 18 6q6 0 13 -2q123 -31 166 -161q22 -67 22 -155q0 -84 -20 -188q-37 -174 -113 -333.5t-158 -239.5q-14 -14 -27 -14q-5 0 -9 2 q-15 7 -15 29v5z" />
<glyph unicode="E" horiz-adv-x="512" d="M-68 59q0 10 3.5 39t3.5 43q2 10 5 38t7 46q4 51 6 54l2 19q2 19 6 66.5t8 100.5q6 72 17.5 185.5t13.5 127.5q25 205 39 295q8 57 23 105q8 51 38 71q29 14 80 15q35 2 74 2q59 0 127 -4q16 0 32.5 -1t26 -2.5t13.5 -1.5q16 0 27.5 -12t9.5 -28q-8 -41 -45 -41 q-4 0 -13.5 1t-27 2t-33.5 1q-69 4 -125 4q-38 0 -70 -2h-16q-4 0 -9 -5.5t-9 -9.5l-3 -4q-14 -51 -20 -94q-18 -109 -37 -291v-12q-1 -5 -1 -10q0 -31 36 -31q8 2 18 2q25 2 51 2q16 0 28.5 -11t10.5 -28q-8 -43 -45 -43q-27 0 -53 -2q-6 0 -16.5 -1t-14.5 -1 q-29 0 -32 -41q-12 -100 -17 -180q-2 -35 -5 -70t-5 -52t-2 -21q-2 -2 -6 -54q-4 -18 -7 -45.5t-6 -38.5q-4 -65 -4 -75l2 26q-3 -37 13 -37q16 -1 38.5 -1t51.5 1q57 0 96 2h62q16 0 27 -12t9 -28.5t-15 -29t-30 -12.5h-61q-37 -2 -94 -2q-30 -2 -54.5 -2t-42.5 2 q-25 0 -34 2l-4 1l-5 1l-5 1q-5 1 -10 3.5t-11 8.5q-8 6 -12 22q-2 4 -3 15v14q0 10 -2 18z" />
<glyph unicode="F" horiz-adv-x="536" d="M-78 32q0 -14 10 -24q12 -12 27.5 -12t29 12t15.5 29q2 27 37 459q0 8 8 102q0 39 39 43q33 4 59 4q16 0 29.5 12.5t16 28.5t-8 28.5t-26.5 12.5q-37 0 -56 -2q-43 0 -36 39q15 98 30 184q0 2 4 31q6 47 9 55q2 14 8 60l16 82q0 8 41 8h-16q229 8 315 8q16 0 29.5 12.5 t15.5 28.5v5q0 14 -8 24q-10 12 -27 12q-84 0 -321 -8h-39q-6 -2 -14 -2h-11l-16 -11l-4 -2q-6 -6 -17 -26l-1 -4l-1 -4q-2 -4 -4 -15.5t-4 -17.5q-10 -53 -14 -86q-4 -39 -8 -58q0 -2 -9 -55q-2 -8 -4 -17.5t-2 -11.5q-39 -211 -55 -462q-9 -112 -19 -230t-14 -167.5 t-4 -64.5z" />
<glyph unicode="G" horiz-adv-x="479" d="M-45 299q10 -182 75 -272q44 -59 100 -59q30 0 63 16q68 31 116.5 131t63.5 207q2 20 2 37q0 25 -4 42q-8 47 -38 61q-23 10 -65 10q-12 0 -26 -1q-16 0 -37 -2q-14 -2 -29 -2q-16 0 -29.5 -12.5t-15.5 -28.5t9.5 -28.5t27.5 -12.5q20 0 35 2q10 0 26.5 1t22.5 1 q35 4 35 -4l1 -2q1 -2 1 -4q6 -18 2 -57q-12 -80 -49 -164q-47 -102 -95 -102q-32 0 -65 44q-37 55 -44 211q-1 33 -1 68q0 127 20 274q31 197 86.5 335t118.5 169q18 10 34 10q23 0 40 -22q24 -29 24 -73q0 -12 -2 -25q-2 -16 8.5 -29.5t27 -13.5t30.5 11t16 27q2 19 2 36 q0 72 -39 122q-38 54 -92 54q-33 0 -73 -21q-105 -55 -172 -225q-57 -145 -88 -344q-25 -158 -25 -296q0 -35 2 -69z" />
<glyph unicode="H" horiz-adv-x="471" d="M-86 3q0 -13 9 -23q11 -12 28 -13q37 0 45 41q6 70 26.5 273.5t32.5 320.5q4 43 43 43q12 2 40 3t42 1q51 4 84 6q20 2 30.5 -9t8.5 -32q-49 -408 -67 -587q-2 -16 8 -28.5t26 -12.5q39 0 47 41q29 270 70 608q43 371 68 604v5q1 14 -9 24q-12 12 -28.5 12t-29.5 -12.5 t-15 -28.5q-12 -115 -54 -461q-4 -41 -43 -43q-29 -2 -89 -5t-76 -3q-38 0 -38 32q0 4 1 9q12 152 45 465q2 16 -8.5 28.5t-26.5 12.5q-39 0 -47 -41q-25 -236 -62 -612q-10 -105 -27 -246t-25.5 -227.5t-8.5 -144.5z" />
<glyph unicode="I" horiz-adv-x="454" d="M-117 8q1 -14 11 -24q12 -12 28 -11q76 4 155.5 4.5t164.5 -4.5q16 0 30.5 11.5t16.5 28t-8.5 29.5t-26.5 13q-16 2 -47 2q-14 0 -23.5 1t-13.5 3t-2 7v10v18q0 73 14 185q10 76 11 94q2 14 10 83.5t14 121.5q4 35 9 78q4 42 8 70l6 44q18 190 24 332q4 41 40 41h7h76 q16 0 29 12q14 13 16 29v4q0 12 -9 24q-11 12 -28 13q-47 0 -100 2h-43q-125 0 -199 -10q-39 -9 -39 -42v-6q4 -39 43 -34q51 8 86 10q39 0 39 -33v-6q-8 -184 -24 -336q-2 -16 -5 -44t-8.5 -71t-9.5 -77q-6 -51 -14 -121t-10 -84q0 -12 -11 -90q-14 -120 -14 -200v-19 q-3 -3 0 -7q-57 0 -160 -4q-16 0 -28 -13q-7 -7 -11 -15.5t-4 -18.5z" />
<glyph unicode="J" d="M-94 274q0 -129 57 -206q39 -57 97 -60h4q56 0 122 60q49 45 107 229q106 356 121 723q0 100 -2 137v8q0 37 37 37h40q16 0 29.5 12.5t15.5 29.5q1 2 1 5q0 13 -9 23q-12 12 -28 12l-154 -4h-40q-58 0 -107 4h-5q-13 0 -26 -9q-16 -11 -19 -28q-4 -16 6.5 -29.5 t26.5 -15.5q31 -4 105 -4q37 0 43 -35q4 -28 4 -76q0 -32 -2 -73q-18 -379 -117 -703q-12 -41 -43 -125q-23 -49 -35 -61q-43 -35 -63.5 -35t-40.5 29q-41 60 -41 155v9q0 16 -12.5 27.5t-29 9t-29.5 -15.5t-13 -30z" />
<glyph unicode="K" horiz-adv-x="534" d="M-49 18q20 383 47 650v12q4 16 6 35q31 305 80 508q2 17 18 27q12 8 25 8q4 0 8 -1q31 -3 31 -31q0 -7 -2 -16q-35 -145 -49 -266q-4 -31 -4 -47t2 -20.5t7 1t11 14.5t13.5 22.5t13.5 19.5q143 203 254 297q16 10 32.5 10t26.5 -12q8 -10 8 -23v-6q-4 -20 -16 -31 q-137 -113 -318 -393q-23 -33 13 -51q92 -51 106 -289q0 -66 2 -117q4 -207 27 -241l22 -15h15h22q16 0 27.5 -12t9.5 -28.5t-15.5 -28.5t-29.5 -12h-16q-14 -2 -45 2q-25 2 -50 30q-10 12 -18 27.5t-13 38t-9.5 40t-5.5 46.5t-2 45t-1 50v46q-4 233 -37 303q-14 25 -26 37 q-2 2 -8.5 7t-8.5 6.5t-7 3.5t-7 -1.5t-5 -8.5t-5 -15t-4 -27q-16 -160 -43 -589q-2 -16 -14.5 -29.5t-29 -13.5t-28.5 11t-10 27z" />
<glyph unicode="L" horiz-adv-x="428" d="M-59 0q2 -2 4 -8t4 -10q14 -20 67 -25q12 -2 40 -3t42 -1h138q16 0 30 12q16 14 15 33q1 14 -9 24q-12 12 -28 13h-135q-12 0 -39 1t-37 3q-6 0 -8 2v16l10 103l8 73l6 62l4 35q2 39 31 268q44 329 44 533q0 32 -1 61q1 16 -11 26q-10 9 -24 9h-6q-41 -4 -41 -47 q1 -24 1 -49q0 -207 -44 -529q-23 -174 -31 -272l-4 -35l-6 -62l-8 -73l-10 -105q0 -27 -2 -35q0 -10 2 -14z" />
<glyph unicode="M" horiz-adv-x="733" d="M-63 33q-1 13 -1 29q0 56 11 149q10 76 10 78q20 184 43 332q20 147 41 331q14 129 14 226v2q-4 4 -4 16q-1 8 -1 15q0 33 30 51q14 8 27 7q21 0 40 -20l3 -2l4 -4q2 -10 8 -14q27 -29 59 -105q37 -96 72 -141q25 -43 43 -16q107 157 201 247v3q2 2 8 14q12 14 20 20 q15 11 30 11q10 0 21 -5q8 -4 19 -18v-5q0 -3 2 -5q4 -16 4 -37v-4q0 -47 -2 -82q0 -20 -6 -137q-6 -141 -19 -291q-24 -338 -24 -582v-53q0 -41 -39 -45h-7q-36 0 -36 37v32q0 215 24 605q10 154 19 293q6 117 6 135v14l-19 -13q-19 -17 -34 -38q-59 -72 -103 -137l-14 -19 q-18 -33 0 -57q46 -71 74 -117q5 -11 5 -21q0 -20 -24 -34q-34 -20 -55 10q-8 16 -47 76q-11 20 -24 20q-15 0 -33 -24q-10 -14 -70 -86q-17 -20 -34 -20q-13 0 -25 12q-16 15 -16 30q0 14 14 27q31 35 92 115q20 29 2 59q-45 66 -72 119l2 -2q-12 27 -28.5 22.5 t-18.5 -35.5l-6 -49q-20 -184 -41 -331q-23 -147 -43 -332q-3 -25 -6 -68q-4 -20 -10 -67q-5 -43 -5 -80q0 -23 2 -43q2 -16 -8 -30.5t-26 -18.5q-6 -1 -12 -1q-16 0 -25 9q-8 8 -12 43z" />
<glyph unicode="N" horiz-adv-x="608" d="M-53 50q0 -14 9 -24q11 -13 27.5 -12.5t30 13t15.5 28.5q20 176 41 324q12 96 31.5 261t27.5 245q4 37 9 52t13.5 6t12.5 -18.5t12 -29.5l-22 59l231 -565q10 -27 10 -49q-14 -209 -14 -324q1 -16 13 -28q10 -9 22 -9q3 1 6 1q16 2 28.5 15t12.5 30q0 137 43 731 q3 49 18 147q27 179 27 286q0 26 -2 48q-7 34 -37 34q-5 0 -10 -1q-37 -6 -37 -49q2 -21 2 -47q0 -100 -25 -265q-20 -141 -26 -237q-7 -68 -19 -68h-1q-6 1 -27 55l-138 332q-12 31 -26 62q-20 51 -25 65q-23 55 -26 117q0 17 -14 27q-11 9 -26 8h-6q-18 -2 -30 -19 q-10 -16 -10 -34q-4 -4 -5 -13q-3 -224 -43 -571q-1 -6 -25 -133t-36 -232.5t-12 -217.5z" />
<glyph unicode="O" horiz-adv-x="575" d="M-50 312q5 -101 23.5 -178t70.5 -121t136 -44q96 0 166 64q43 47 70 166q63 214 98 630q0 8 1 15.5t2 11.5l1 4l1 2q1 2 1 4q3 40 3 76q0 100 -21 166q-28 96 -100 133q-49 25 -99 25q-24 0 -48 -6q-75 -18 -126 -68q-152 -152 -176 -662q-5 -72 -5 -138q0 -41 2 -80z M37 535q20 471 149 604q40 43 109 43h12q132 -2 132 -242q0 -23 -1 -49v-8q-8 -166 -53 -430q-29 -168 -47 -242q-16 -55 -27 -84q-12 -31 -20 -37q-35 -39 -103 -39q-115 0 -145 170q-11 53 -11 156q0 68 5 158z" />
<glyph unicode="P" horiz-adv-x="417" d="M-63 4q0 -16 13 -26q11 -9 26 -9h6q38 4 38 45v10.5v10t-0.5 10.5t-0.5 11v11v11q0 201 42 536q0 11 31 29l49 25q33 14 78 47q88 59 127 151q27 69 27 130q0 40 -11 77q-26 99 -110 157q-78 55 -176 54h-13q-16 0 -28 -13.5t-15 -29.5q0 -6 -2 -10q2 -8 9.5 -23.5 t7.5 -27.5q-6 -172 -55 -564q-44 -334 -44 -559q0 -27 1 -53zM82 780q25 193 35 367q2 25 15 34q7 5 16 5q8 0 18 -4q80 -39 110 -118q14 -36 14 -74q0 -47 -20 -99q-35 -80 -141 -141q-13 -8 -24 -8q-7 0 -13 4q-11 8 -11 24q0 5 1 10z" />
<glyph unicode="Q" d="M-66 201q0 -119 41 -197q27 -57 80 -76q22 -8 47 -8q35 0 74 16q68 27 96 91q10 25 20.5 29.5t17 -1.5t18.5 -20l8 -8q8 -12 29 -13q41 0 45 41q2 12 -7 29l-47 55q-18 23 -10 54q12 39 21.5 77.5t17.5 98t12 97.5t14.5 133t16.5 149l16 122q4 46 4 86q0 188 -94 269 q-53 50 -114 50q-23 0 -47 -7q-89 -25 -148 -140q-112 -225 -112 -842q0 -42 1 -85zM16 209q-1 44 -1 87q0 598 106 804q45 91 103 91q34 0 73 -32q37 -33 57.5 -66.5t23.5 -75.5q2 -25 2 -47q0 -15 -1 -28q-2 -33 -11.5 -94.5t-11.5 -99.5q-10 -121 -22 -206t-24.5 -153 t-14.5 -80q-7 -45 -23 -45q-13 0 -32 29q-31 47 -35 53q-6 14 -23.5 18.5t-29.5 -6.5q-16 -10 -20.5 -27.5t3.5 -29.5q47 -82 90 -137q20 -27 6 -55q-39 -70 -79 -93q-24 -13 -44 -13q-36 0 -57 44q-31 61 -35 162z" />
<glyph unicode="R" horiz-adv-x="565" d="M-55 27v-5q0 -14 8 -24q10 -12 27 -12q39 0 47 41q6 70 67 563q6 37 39 49q27 10 47 -12q52 -60 52 -200q0 -15 -1 -30q0 -41 -4 -82q-2 -23 -2 -53v-43q0 -106 23 -164q25 -63 74 -65h4q47 0 86 49q15 15 15 30q0 14 -13 29q-12 11 -25 11q-16 0 -33 -17l-28 -10 q2 2 -2 10q-18 52 -18 105q0 14 1 28v90l4 88q0 10 1 19q0 146 -44 227q-18 33 9 49q6 4 16 9.5t16 7.5q131 76 168 203q13 45 13 87q0 50 -19 94q-35 81 -119 126q-91 53 -188 53q-76 0 -156 -33q-16 -6 -24.5 -22.5t-1.5 -30.5q4 -14 20 -21.5t31 0.5l11 5q7 4 16.5 -5.5 t7.5 -35.5q-14 -223 -80 -723q-37 -299 -45 -385zM115 764q28 218 37 387q4 40 36 40q4 0 9 -1q68 -10 110 -37q102 -58 102 -154q0 -31 -10 -65q-20 -74 -78.5 -119t-158.5 -84q-11 -4 -19 -4q-10 0 -17 5q-11 8 -11 26v6z" />
<glyph unicode="S" horiz-adv-x="591" d="M-16 231q-1 -11 -1 -22q0 -22 5 -43q14 -61 14 -64q30 -62 94 -86q40 -15 86 -15q27 0 56 5q72 14 131 60.5t82 109.5q28 70 28 136q0 17 -2 34q-8 61 -49 131q-41 60 -86 105l-51 45l-12 12q-90 78 -138 143q-36 49 -36 111q0 29 8 61q29 106 96 165q63 55 130 55h9 q72 -6 104 -73q17 -35 17 -82q0 -44 -14 -99q-4 -16 5 -31t25 -17q18 -2 34 8.5t18 26.5q16 64 15 118q0 72 -28 127q-50 95 -159 103h-15q-98 -1 -186 -73q-94 -78 -131 -215q-10 -34 -10 -71q0 -16 2 -32q8 -86 67 -159q51 -61 119 -123l22 -19q37 -33 48 -43l41 -45 q27 -31 34 -45q33 -51 39 -104q1 -8 1 -17q0 -52 -21 -112q-14 -39 -55 -70t-91 -41q-27 -6 -49 -6q-73 0 -98 63q-15 31 -14 101q0 39 4 90l2 16q2 16 -9.5 28.5t-28 12.5t-29.5 -12t-15 -29l-2 -26l-4 -31q0 -4 -1 -28.5t-1 -33.5z" />
<glyph unicode="T" horiz-adv-x="542" d="M18 1191q0 -13 10 -23q12 -12 29 -11q33 2 111 2q20 2 30.5 -8t6.5 -31q-35 -256 -82 -727q-4 -51 -33 -344q-2 -16 9.5 -28.5t27.5 -12.5t29.5 12.5t15.5 28.5q29 293 33 344q47 479 82 729q6 39 45 39h39q47 -2 106 -2q16 0 29.5 12.5t15.5 28.5v5q0 13 -9 24 q-11 12 -28 12q-389 0 -424 -2q-17 1 -29 -13q-14 -16 -14 -35z" />
<glyph unicode="U" horiz-adv-x="518" d="M1 146q1 -74 30.5 -123.5t93.5 -63.5q22 -4 43 -4q105 0 160 115q27 55 53 194q100 631 100 940q0 16 -12 27.5t-28.5 9.5t-29 -15.5t-12.5 -29.5q-4 -313 -100 -928q-18 -119 -45 -170q-27 -60 -81 -59q-11 0 -23 2q-50 11 -60 71q-7 39 -6 111q0 42 2 94q4 127 39 461 q35 380 39 441q2 16 -10.5 27t-28.5 11t-28.5 -13t-14.5 -30q-4 -53 -39 -438q-33 -330 -41 -463q-1 -63 -1 -116v-51z" />
<glyph unicode="V" horiz-adv-x="643" d="M47 1212q16 34 44 34q4 0 9 -1q30 -5 30 -35q0 -6 -1 -14q-2 0 -2 -31q0 -12 3 -39.5t3 -38.5q18 -199 47 -374l19 -148q9 -58 12 -80q4 -51 31 -225q5 -14 11 -14q13 0 28 69l4 15q41 125 98 334q78 281 80 289t16.5 45.5t24.5 70.5q6 20 18.5 58t16.5 55q2 16 17 26.5 t34 8.5q30 -3 30 -32q0 -7 -2 -16q-10 -49 -36 -120q-35 -94 -39 -113q-6 -25 -34 -120t-48 -169q-51 -190 -96 -334q-39 -117 -70 -219q-2 -8 -3 -14t-2 -9l-1 -3l-2 -19q-2 -41 -32 -57q-14 -7 -26 -7q-13 0 -22 9l-10 10q0 4 -2 6q0 6 -2 8v6q0 4 -3 9l-8 45l-20 143 q-33 229 -35 248q0 14 -10 80l-19 143l-20 154q-10 72 -29 225q-5 58 -5 96q0 28 3 45zM229 313q7 -39 9 -45z" />
<glyph unicode="W" horiz-adv-x="911" d="M27 1237q2 16 15 28.5t29.5 12.5t28 -12.5t9.5 -28.5q-3 -28 -3 -63q0 -62 9 -150q12 -139 12 -168q2 -8 2 -59q0 -12 1 -26.5t1 -23t2 -12.5v-57q0 -10 1 -24.5t2 -22.5t1 -15q0 -8 4 -57t4 -59l7 -58q2 -10 5 -29.5t5 -29.5l10 -55q0 -2 2 -11.5t5 -29t7 -39.5 q4 -25 24 -7q16 16 21 42q0 4 1 8t2 7l2 3l90 344q6 31 4 53q-33 289 -33 514q4 41 43 45q16 2 28.5 -9t12.5 -27q0 -121 2 -185q3 -82 13 -85h1q10 0 35 85l55 193q12 34 44 34q5 0 10 -1q16 -2 23 -17.5t3 -32.5q-98 -342 -143 -512q-6 -33 -2 -51l39 -336q2 -27 16 -86 q6 -32 30 -19q16 8 23 34q10 37 58 227l55 207l51 180q55 209 113 367q12 37 20 45q17 10 35 10h6q16 -2 22 -18q3 -9 4 -18q0 -8 -3 -15l-57 -183q-33 -102 -62 -204l-49 -178q-49 -188 -53 -205l-49 -187q-2 -8 -10.5 -35.5t-18.5 -58.5t-21 -63q-8 -27 -28 -84 q-6 -20 -13 -29l-4 -12l-8 -8q-12 -16 -35 -17q-16 0 -22 8l-6 6q0 2 -2 4l-2 3h-2v8l-11 31l-20 81q-29 113 -41 193l-4 33q-12 94 -16.5 94t-30.5 -96l-11 -39q-2 -2 -14 -62q-27 -117 -47 -180q-12 -31 -31 -53q-16 -14 -37 -14q-18 0 -28 12q-6 6 -8 10q0 4 -3.5 14.5 t-5.5 20.5l-1 2q-1 2 -1 4q-10 43 -16 84l-31 176q-2 10 -7 33.5t-7 36.5l-10 61q0 6 -2.5 30.5t-4.5 43.5l-4 63q0 6 -1 16.5t-2 28t-1 29.5q-2 35 -2 64q0 2 -4 69q-2 39 -2 66q0 12 -12 162q-10 94 -10 159q0 42 4 72z" />
<glyph unicode="X" horiz-adv-x="514" d="M-92 0q6 -16 20 -23q10 -5 19 -5q22 0 37 28q47 90 145 309q31 72 33 72t18 -74q39 -178 84 -309q4 -14 20 -20q7 -3 14 -3q9 0 19 5q29 10 29 35q0 9 -4 20q-70 184 -115 475q-3 28 9 53l106 264q25 66 39 113q55 156 102 225q6 11 6 24v7q-2 16 -14 25q-12 6 -23 6 q-20 0 -34 -21q-51 -72 -115 -250q-8 -23 -16 -47t-13.5 -37.5t-7.5 -19.5l-28 -68q-29 -72 -34 -74q-4 -2 -6 9q-2 7 -10 67l-6 35q-16 100 -37 191q-23 100 -34 182q-3 34 -33 34q-6 0 -12 -1q-37 -6 -37 -49q4 -47 37 -193q31 -135 36 -184l33 -238q2 -27 -8 -53 q-117 -279 -217 -481q-5 -8 -5 -16q0 -6 3 -13z" />
<glyph unicode="Y" horiz-adv-x="620" d="M37 1219q4 -41 24 -146q31 -139 70 -274q29 -100 35 -131q2 -4 4 -10.5t6 -20.5t2 -23q-31 -127 -47 -399q-10 -154 -14 -182q-2 -16 9 -28.5t27.5 -12.5t30 12t15.5 29q4 35 14 194q10 156 20 240q12 104 26.5 152.5t59.5 134.5q49 94 146.5 267t130.5 212q11 17 11 30 q0 16 -17 27q-11 8 -22 8l-36 -20q-37 -49 -182 -303l-104 -191q-8 -19 -23 4q-3 5 -6 13q0 2 -10 47l-29 102l-20 88q-18 68 -37 197q-5 34 -35 34q-5 0 -12 -1q-37 -6 -37 -49z" />
<glyph unicode="Z" horiz-adv-x="602" d="M-74 25q0 -4 1 -10.5t1 -10.5q10 -18 29 -24q4 -2 10 -3.5t10 -1.5q12 -2 52 -2q111 0 237 11q61 4 96 6q25 2 52 2q16 0 29.5 12t15.5 28.5t-9.5 29t-27.5 12.5q-27 0 -51 -2q-40 -3 -99 -6q-137 -10 -235 -11q-14 0 6 47l14 29l127 262l135 273q80 154 82 155 q96 158 152 332q10 35 10 60q0 34 -18 49q-6 4 -19 8q-4 0 -9 1t-7 1t-5 -1l-3 -1q-16 0 -29 -2q-9 -3 -43 -6q-95 -15 -189 -15q-77 0 -153 10q-18 2 -33.5 -8t-17.5 -26q-1 -7 -1 -14q0 -30 32 -33q85 -11 169 -11q99 0 197 15q33 6 41 6h4l-6 -17q-12 -46 -43 -116 q-68 -147 -98 -195q-27 -45 -84 -162l-137 -274l-127 -262l-39 -88q-4 -8 -11 -27l-4 -8l-2 -4z" />
<glyph unicode="[" horiz-adv-x="479" d="M-39.5 9q12.5 -40 70.5 -54q47 -14 252 -14q16 0 29.5 12t15.5 28.5t-9.5 29t-27.5 12.5q-143 0 -156 2q-53 4 -74 10l-2 1q-2 1 -6 5t-6 8t-4 10.5t-2 12.5q4 37 10 59q29 121 29 123q10 70 37 362q20 270 26 320q0 2 4 65q-4 100 13 142q20 18 43 20q18 2 73 -2 q96 -6 125 -14q35 -10 54 29q14 39 -25 49q-41 12 -139 18q-61 4 -82 2q-53 0 -82 -16.5t-45 -67.5q-18 -55 -19 -170q0 -49 -2 -55q-6 -49 -26 -320q-27 -294 -37 -362l-27 -113q-23 -92 -10.5 -132z" />
<glyph unicode="\" d="M35 1204q2 -70 35 -225q4 -18 8 -39.5t7 -35t5 -21.5q47 -291 101.5 -495t138.5 -382q14 -33 53 -14q14 8 20.5 24.5t-0.5 30.5q-139 295 -233 856q-8 55 -20 103q-31 143 -31 211q0 16 -12.5 26t-30.5 8q-41 -4 -41 -47z" />
<glyph unicode="]" horiz-adv-x="415" d="M-65.5 -4q-2.5 -16 10 -27.5t28.5 -11.5q14 0 31 2q33 0 53 2q84 0 137.5 12.5t71.5 40.5l6 19v10l4 27q0 4 1.5 15t3.5 30.5t2 40.5q6 71 18 258q31 422 35 434q0 4 2 13t5 26.5t5 32.5q4 25 17 86q20 123 8 170q-10 35 -72 47q-86 14 -258 0q-41 -4 -41 -43 q-2 -18 10.5 -29.5t30.5 -9.5q80 8 154 8q52 -3 79 -6q20 -16 21 -39q-2 -35 -29 -178q-14 -68 -14 -74q-4 -14 -35 -440l-10 -148q-6 -88 -8 -112q0 -20 -2 -40t-3 -31t-1 -13q-4 -14 -7 -15h-4q-43 -10 -125 -10q-18 -2 -51 -2q-16 -2 -31 -2q-16 0 -28 -13.5t-14.5 -29.5 z" />
<glyph unicode="^" horiz-adv-x="512" d="M-37 680q-23 -33 6 -55q31 -20 60 10q133 178 225 344q4 6 10 18.5t9 17.5t8.5 9t8.5 0t6 -16.5t5 -34.5q14 -139 57 -301q10 -39 50 -25q41 14 30 53q-43 164 -59 349v36l-1 5q-1 4 -1 6v47q0 35 -2 47q-8 31 -10 35q-12 16 -34 17t-44 -23q0 -2 -2 -2q-12 -18 -13 -31 v-6v-4l-4 -5q-125 -248 -305 -491z" />
<glyph unicode="_" horiz-adv-x="892" d="M-117 -23q4 -39 47 -28q72 18 211 12q94 -4 101 -4q25 0 229 4q102 2 231 2q16 0 29.5 12.5t16 28.5t-8 28.5t-26.5 12.5q-129 0 -234 -2q-205 -4 -229 -4q-6 0 -18.5 1t-35 2t-42.5 1q-121 6 -213 -10q-39 -10 -45 -17q-12 -16 -13 -39z" />
<glyph unicode="`" horiz-adv-x="348" d="M74 1173.5q4 -16.5 16 -22.5q39 -18 74 -57l39 -39l35 -39q14 -10 30 -10q39 0 43 43q4 16 -10 28l-35 35l-41 43q-31 39 -90 70q-39 18 -57 -19q-8 -16 -4 -32.5z" />
<glyph unicode="a" horiz-adv-x="522" d="M-100 14q-1 -5 -1 -10q0 -10 6 -20q9 -14 25.5 -16.5t31.5 8t18 26.5q14 55 51 264q14 82 35.5 198t25.5 136q5 37 40 37h7q102 -4 152 -8q41 -4 39 -41q-6 -292 -37 -584q-2 -16 9 -28.5t27.5 -12.5t30 12.5t15.5 28.5q38 347 38 706q0 127 -5 255v43q0 78 -11 145 q-14 73 -53 101q-19 14 -47 13q-28 0 -64 -14q-63 -29 -122 -217q-55 -182 -162 -764q-43 -230 -49 -258zM125 764q41 178 65 256q18 66 46 119q16 35 36 47q5 2 10 2q16 0 25 -25q14 -35 19 -92q2 -48 2 -77.5t-2 -41.5l6 -196q0 -41 -40 -41h-7q-86 4 -125 4q-36 2 -36 35 q0 5 1 10z" />
<glyph unicode="b" horiz-adv-x="600" d="M-45 11q0 -13 9 -23q11 -13 28 -13l39 2q7 -3 12 -3q2 0 4 1q260 53 374 217q78 113 78 235q0 56 -16 114q-23 78 -69.5 134t-108.5 77q-2 2 -7 2t-7 2q-29 6 -29 23q0 11 12 26q8 14 24.5 40.5t25.5 41.5q39 75 39 145q0 65 -33 127q-34 65 -96 97q-43 22 -94 22 q-23 0 -48 -4q-39 -10 -39 -49q2 -2 2 -6.5t-4 -8.5q-16 -86 -16 -219v-39v-38v-23q-6 -119 -19 -248q0 -10 -3 -23.5t-3 -19.5q2 -20 0 -41q-3 -32 -17.5 -125.5t-26 -203t-11.5 -219.5zM47 104q31 289 43 461q2 29 25 51q59 63 121 63q18 0 36 -5q43 -14 79 -57.5 t50 -104.5q13 -47 13 -92q0 -90 -52 -173q-78 -124 -272 -177q-9 -2 -17 -3q-11 0 -18 6q-9 7 -9 21q0 4 1 10zM113 817q6 80 6 152v35q-1 22 -1 42q0 61 5 107q8 39 35 39q7 0 14 -2q51 -14 82 -74q25 -46 25 -94q0 -50 -27 -102q-39 -76 -84 -123q-15 -19 -29 -19 q-5 0 -9 2q-17 7 -17 32v5z" />
<glyph unicode="c" horiz-adv-x="559" d="M-16 137q27 -86 83 -131q46 -37 101 -37q12 0 25 2q68 10 122 69.5t76 149.5q4 16 -5 31t-25.5 17t-32 -8.5t-17.5 -26.5q-37 -135 -121 -150q-7 -1 -13 -1q-33 0 -61 24q-34 28 -55 94q-15 47 -15 131q0 201 87 608q23 113 82 194t121 99q13 4 24 4q30 0 50 -28 q27 -40 27 -130q0 -30 -3 -65q-2 -16 9.5 -28.5t27.5 -12.5t29.5 12.5t15.5 28.5q4 37 4 71q0 112 -42 175q-40 61 -106 60q-23 0 -50 -7q-90 -27 -166 -128t-105 -236q-85 -410 -85 -624q0 -100 18 -157z" />
<glyph unicode="d" horiz-adv-x="497" d="M-33 20q6 -25 35 -28q31 0 47 4q4 2 23 14q229 242 317 537q43 140 43 261q0 183 -100 320q-45 63 -90 94t-111 35h-2q-41 0 -45 -38v-5q-37 -342 -74 -589q-40 -353 -43 -596v-9zM92 623q33 233 62 489q4 25 19 34q6 4 12 4q10 0 20 -9q25 -18 59 -66q84 -117 85 -277 v-5q0 -158 -64 -314q-65 -158 -176 -303q-15 -22 -30 -22q-4 0 -8 2q-18 6 -18 29q0 20 1 43t2 44t3.5 50t5 51.5t6 58t6.5 58.5t7.5 65.5t7.5 67.5z" />
<glyph unicode="e" horiz-adv-x="518" d="M-31 133q4 145 49 438q4 39 13.5 100.5t9.5 69.5q2 14 12 93v13q0 11 1 30.5t1 42.5q4 176 21 268q20 82 55 102q12 6 39 10h35h98q114 -4 147 -4h13q18 2 29.5 -9t11.5 -27q0 -18 -12 -31q-10 -10 -29 -15h-13q-35 0 -157 5h-88q-35 0 -35 -2q-4 -6 -12 -37 q-18 -82 -19 -252q-4 -92 -4 -94l-8 -70q-1 -5 -1 -10q0 -33 36 -33q37 0 53 2q16 0 28.5 -11.5t10.5 -27.5t-14.5 -29.5t-28.5 -13.5q-16 -2 -61 -2q-41 0 -48 -41q-47 -330 -51 -459q0 -70 2 -80q0 -2 1 -4t1 -4q0 -8 31 -14q10 -1 31 -1q41 0 123 5q61 4 69 4 q16 0 26.5 -12.5t8.5 -28.5t-15.5 -28.5t-29.5 -12.5q-4 0 -61 -4q-74 -4 -78 -4q-20 -1 -39 -1q-73 0 -113 19q-29 12 -37 68q-4 17 -4 47q0 20 2 45z" />
<glyph unicode="f" horiz-adv-x="552" d="M-35 18q0 -16 13 -27q10 -9 23 -9h5q39 4 43 45v10q0 173 64 586q10 41 43 43q53 4 75 4q16 0 28.5 13t14.5 29.5t-10 28t-28 11.5q-33 0 -56 -2h-4q-12 -2 -26.5 10t-10.5 31q0 6 2 16t3 18.5t1 14.5q6 39 19 190q8 98 8 117q6 41 47 41h98q113 0 168 -6q16 -2 31.5 9 t18.5 28q1 4 1 9q0 11 -8 20q-10 14 -26 16q-58 6 -178 6h-50q-71 0 -116 4h-5q-17 0 -29 -12q-15 -15 -24 -35q-2 -2 -2 -13q0 -8 -16 -188q-10 -145 -49 -381l-33 -219q-27 -174 -35 -408z" />
<glyph unicode="g" horiz-adv-x="509" d="M-18 643q-8 -98 -8 -186q0 -101 10 -189q18 -180 88 -258q44 -49 95 -49q30 0 62 16q61 33 105.5 124.5t60.5 195.5q7 43 7 76q0 43 -12 67q-21 43 -87 47q-10 2 -41 2l-29 -2q-16 0 -29.5 -12t-15.5 -28.5t9.5 -28.5t27.5 -12q12 0 33 2q51 0 57 -9q6 -12 6 -37 q0 -27 -7 -68q-13 -81 -46 -151q-37 -78 -70 -93q-8 -4 -17 -4q-26 0 -58 32q-43 45 -59 202q-9 80 -9 173q0 89 8 190q14 205 58.5 354.5t99.5 186.5q28 17 52 17q33 0 59 -30q30 -34 30 -72q0 -27 -14 -55q-7 -13 -7 -23q0 -20 24 -30q10 -5 19 -5q20 0 34 26q25 52 25 99 q0 62 -44 116q-49 57 -112 57q-48 0 -105 -35q-86 -53 -137 -239q-47 -156 -63 -367z" />
<glyph unicode="h" horiz-adv-x="573" d="M-10 15q0 -13 9 -23q11 -12 27.5 -12t30 12t15.5 28q18 160 34 429q2 29 6.5 81t6.5 74q4 41 43 41h188q36 0 36 -31q0 -6 -1 -12q-10 -90 -18 -143q-26 -214 -26 -339q0 -64 7 -104q5 -30 31 -30q7 0 16 2q34 9 34 39q0 5 -1 10q-5 37 -5 90q0 123 26 330q14 113 32 235 q6 53 15.5 126t11.5 91q0 6 2 15.5t3 25t3 27.5q4 18 7 45t5 37q3 32 3 61q0 51 -9 94q-12 28 -34 28q-7 0 -15 -3q-35 -13 -35 -39q0 -6 2 -14q7 -25 8 -74q0 -24 -2 -53q0 -8 -2 -19.5t-4 -28t-4 -28.5q-4 -23 -10 -74q-12 -96 -16 -141q-10 -41 -48 -41h-192 q-38 0 -37 32v9q4 41 23 182q20 137 28 252q2 16 -9 27.5t-28 11.5q-41 0 -45 -43q-8 -109 -28 -246q-23 -158 -54 -559q-4 -73 -17 -201t-13 -177z" />
<glyph unicode="i" horiz-adv-x="221" d="M-8 -7q0 -13 9 -23q11 -12 27.5 -12.5t30 12t15.5 28.5q6 65 18 276q6 119 25 269q64 436 80 686v4q-1 13 -11 23q-12 12 -28.5 12t-28.5 -13.5t-14 -29.5q-14 -231 -80 -678q-18 -152 -25 -277q-3 -48 -6.5 -97.5t-6 -79.5t-4 -57.5t-1.5 -42.5z" />
<glyph unicode="j" horiz-adv-x="602" d="M-80 352q2 -6 2 -51v-65l4 -56q10 -76 35 -121q39 -74 95 -87q12 -3 24 -3q43 0 86 35q80 63 119 193q43 133 79 449q33 286 33 467v38q0 43 41 43q18 0 53 1t52 3q16 0 29 14q14 15 14 33q0 14 -10 23q-13 12 -29 12q-127 -6 -361 -6q-39 0 -47 -41q-2 -16 9.5 -28.5 t27.5 -12.5h98q41 0 41 -37v-37q0 -171 -31 -458q-36 -318 -79 -447q-31 -101 -86 -147q-20 -14 -35 -13q-25 4 -47 51q-23 39 -29 95q-4 82 -4 108v53q0 18 -12 28.5t-29 8.5q-43 -4 -43 -45z" />
<glyph unicode="k" horiz-adv-x="528" d="M-45 18q0 -14 9 -24q11 -12 27.5 -12t30 12t15.5 29q10 76 41 428q8 79 21 79q9 1 25 -45q4 -10 5 -14q31 -86 45 -143q29 -86 33 -111l15 -47q15 -47 20 -61l16 -48q14 -39 47 -92q13 -18 29 -18q12 0 26 10q22 17 22 36q0 11 -7 21q-2 4 -8.5 15.5t-10.5 19.5l-16 33 q-4 8 -16 43l-15 39q-2 8 -14 49q-2 8 -5 18.5t-5 16.5t-2 8q-4 8 -15.5 49t-11.5 47q-55 187 -104 277q-18 27 2 55q49 82 84 141q135 231 235 342q16 16 16 31q0 14 -14 29q-12 11 -25 11q-16 0 -32 -17q-25 -25 -90 -111q-74 -102 -152 -235l-6 -15q-35 -58 -37 -59 q-12 -10 -13 18q-1 7 -1 16q0 23 4 60q20 176 43 328q2 16 -8.5 29.5t-26.5 13.5q-41 0 -47 -39q-51 -348 -92 -830q-6 -61 -14.5 -147t-13.5 -140q-1 -14 -3.5 -34.5t-4 -35t-1.5 -26.5z" />
<glyph unicode="l" horiz-adv-x="450" d="M-57 141q-1 -20 -1 -37q0 -103 40 -124q40 -19 124 -19h23q47 3 77.5 3t43.5 -3q8 -2 15 -2q27 0 38 31q4 10 4 19q0 23 -28 30q-23 6 -74 6q-31 0 -72 -2q-12 -1 -24 0q-24 0 -50 2q-29 2 -32 14v11q-2 14 -2 33t2 42q-2 8 12 148q14 119 29 293q40 426 71 639 q2 16 -8 29.5t-26.5 13.5t-31 -11.5t-16.5 -27.5q-33 -229 -71 -641q-14 -174 -29 -295q-14 -150 -14 -152z" />
<glyph unicode="m" horiz-adv-x="681" d="M-55 8q6 164 45 447q35 279 45 440q0 6 2 34.5t4 51.5q2 109 10 186l4 29q0 12 6 21q2 12 23 24q13 5 25 5q23 0 41 -21l2 -3q2 -3 4 -5q2 4 0 6q2 -6 5 -12.5t8 -14.5t7 -14q49 -78 96 -203l41 -96q6 -15 13 -37q7 -21 27 8q8 11 14 27l12 24q92 225 139 299l2 4l2 4 l2 5q0 14 15 28l2 2q21 17 40 17h7q22 -4 33 -27q0 -6 4 -18q0 -4 1 -16.5t1 -20.5q0 -80 -19 -275l-16 -149l-17 -160q-4 -31 -14 -146.5t-14 -154.5q-8 -111 -12 -299q0 -16 -12.5 -29.5t-28.5 -15.5h-5q-13 0 -24 9q-12 11 -12 28q4 190 12 301q10 141 29 307l16 162 l16 147q2 27 6 84q1 14 1 24q0 18 -5 17q-11 0 -47 -86q-18 -49 -28 -65l-60 -144q-4 -12 -10 -26.5t-8 -18.5l-4 -8q0 -2 -3 -7t-3 -7q-4 -2 -5 -4q-4 -10 -20 -17q-23 -6 -41 8q-4 4 -6 9l-6 12q-4 4 -4 14l-13 47q-8 35 -34 107q-2 4 -46 108q-16 45 -30 72q-2 4 -6 12.5 t-8.5 16.5t-7.5 15t-6 11l-3 4q-2 -31 -6 -100q-3 -65 -6 -86q-10 -176 -47 -446q-37 -291 -43 -441q-2 -16 -14.5 -29.5t-28.5 -13.5q-18 0 -29.5 11.5t-9.5 27.5z" />
<glyph unicode="n" horiz-adv-x="536" d="M-68 10q-1 16 -1 36q0 76 12 210q12 111 41 313q16 113 32 244q10 82 21 141q18 133 18 136l11 92v2v4q-2 6 -3 14q0 41 29 58q14 8 35 2q31 -8 35 -50q2 -4 2 -16v-4q0 -2 6 -27q0 -6 2 -15t6 -22.5t6 -23.5q6 -20 19 -90q0 -4 12 -93.5t25.5 -193.5t32 -221t32.5 -176 l-12 63q17 -73 33 -96l4 33q4 29 22 276q31 408 84 627q9 35 44 35h7q32 -3 32 -33q0 -6 -1 -14q-53 -219 -82 -611q-16 -197 -24 -280l-17 -162q-2 -16 -7 -46l-7 -42q-2 -6 -5 -16.5t-3 -12.5q-10 -29 -33 -39t-47 6q-4 4 -4 9q-6 6 -8 16q0 4 -5 25l-18 73l-33 164 q-33 125 -57 344q-14 100 -25 182l-26 117q-12 -89 -19 -135q-14 -133 -35 -264q-27 -182 -36 -275q-9 -92 -13 -251q0 -43 -39 -48h-6q-15 1 -25 9q-12 10 -12 26z" />
<glyph unicode="o" horiz-adv-x="514" d="M-44 484q7 -148 28 -269q25 -131 67 -188q39 -54 92 -54q36 0 78 25q80 47 125 182q74 186 109 684q11 91 11 160q0 75 -13 125q-36 148 -152 148q-20 0 -43 -5q-49 -10 -98 -48t-78 -83q-76 -123 -104 -325q-23 -163 -23 -291q0 -32 1 -61zM39 495q-1 27 -1 56 q0 123 20 277q26 188 94 296q16 31 50 56.5t62 29.5q12 3 22 3q62 0 87 -91q12 -49 12 -111q0 -23 -2 -48q0 -20 -21.5 -234.5t-31.5 -279.5q-49 -322 -146 -381q-14 -8 -27 -8q-21 0 -40 20q-29 43 -54 158q-18 113 -24 257z" />
<glyph unicode="p" horiz-adv-x="446" d="M-35 44q0 -13 9 -24q12 -12 28 -12t29.5 12.5t15.5 28.5q10 102 23 391q0 25 1 73t3 69q0 33 16 36q8 1 14 7l54 26q59 33 67 39q70 43 105 92q51 61 67 140q5 27 5 54q0 108 -80 206q-45 53 -116 74q-35 10 -71 10q-38 0 -76 -11q-18 -4 -26 -18q-8 -10 -8 -31 q2 -10 9 -24.5t9 -22.5q2 -14 3 -29.5t1 -35.5v-32q0 -13 -3 -38t-4 -37t-6 -44t-6 -43t-7.5 -48t-8.5 -49q-2 -20 -6 -49t-6 -47.5t-2 -32.5q0 -6 -12 -285q-2 -62 -11.5 -177t-9.5 -168zM87 723v7q0 9 1 20q0 8 3 25.5t3 23.5q4 20 13.5 81.5t10.5 73t8 64.5t4 58t-3 57 q0 25 13 37q8 8 19 8q6 0 13 -2q29 -10 57 -29q89 -70 89 -177q0 -13 -1 -26q-8 -63 -47 -117q-16 -16 -26 -24q-27 -27 -60 -45l-30 -19q-9 -6 -37 -18q-12 -8 -17 -10q-3 -1 -5 -1q-7 0 -8 13z" />
<glyph unicode="q" horiz-adv-x="626" d="M18 385q4 -51 31 -143t62 -158q33 -59 73 -93q35 -30 75 -30h9q45 4 82 57q8 10 14.5 17.5t11.5 9.5t8 4t7 -2t5 -4t6 -9l6 -9l2 -2q15 -16 30 -16q13 0 27 11q20 16 20 33q0 12 -10 25l-33 49q-20 23 -8 55q53 150 92 382q34 200 34 343q0 22 -1 43q-4 12 -4 15 q-14 186 -106 288q-47 58 -108 58q-20 0 -43 -7q-87 -26 -161 -159q-63 -115 -95 -339q-27 -189 -27 -357q0 -31 1 -62zM102 397q-2 37 -2 77q0 147 24 318q30 218 85 318q59 102 106 115q7 2 14 2l56 -33q39 -45 65 -127q25 -76 25 -146v-10q4 -25 4 -43q-4 -86 -19.5 -186 t-43 -237.5t-31.5 -163.5q-10 -43 -25 -43q-6 0 -12 6l-20 20q-10 10 -28.5 8t-31.5 -14q-13 -17 -13 -31q0 -16 15 -28q23 -16 41 -41q23 -25 13 -41q-4 -10 -11 -17q-33 -49 -58 -49q-3 0 -7 1q-27 7 -64 77q-33 57 -57.5 142t-24.5 126z" />
<glyph unicode="r" horiz-adv-x="548" d="M-33 35q1 -15 13 -27q11 -10 24 -10h4q16 2 28.5 15.5t12.5 29.5q4 109 19 199q10 61 16 110q4 25 8 58.5t6 42.5q0 6 3 22.5t5 24.5q4 41 10.5 58t14.5 4t11 -18t14 -32q37 -86 96 -303q33 -115 63 -178q10 -22 29 -22q11 0 25 7q26 13 26 34q0 10 -6 22q-29 63 -55 168 q-47 164 -53 178q-35 109 -72 188q-3 10 -3 18q0 24 25 38q100 51 181 141q78 87 95 189q4 26 5 50q0 70 -37 123q-75 123 -233 123q-57 0 -125 -16q-34 -9 -34 -39q0 -5 1 -10q0 -2 1 -7.5t3 -7.5q-6 -301 -70 -751q0 -2 -5 -36t-9 -65l-18 -110q-18 -115 -19 -211z M137 760q25 236 31 403q4 43 43 43h16q124 0 179 -88q24 -32 24 -81q0 -19 -4 -40q-10 -72 -75.5 -148.5t-157.5 -119.5q-25 -12 -54 -12l2 -2q-5 0 -5 20q0 10 1 25z" />
<glyph unicode="s" horiz-adv-x="571" d="M-41 330q-3 -32 -3 -62q0 -118 50 -200q64 -102 174 -113q12 -1 23 -1q98 0 170 79q78 86 79 230q0 4 -1 7q0 141 -74 244q-51 68 -141 164q-98 98 -130 162q-20 40 -19 87q0 29 7 62q20 91 86 145q64 53 137 52h5q72 0 100 -56q12 -25 12 -62q0 -47 -20 -112 q-8 -41 28 -47q5 -1 10 -1q29 0 42 32q23 71 24 130q0 60 -26 106q-48 90 -162 92h-5q-99 0 -189 -73q-92 -75 -122 -194q-10 -42 -10 -81q0 -78 41 -144q47 -80 129 -158q82 -84 131 -153q64 -91 64 -205q-1 -112 -51 -170q-46 -54 -108 -54q-6 0 -13 1q-76 6 -122 85 q-36 63 -36 157q0 25 2 51q2 16 -9.5 28.5t-27.5 12.5t-29.5 -12.5t-15.5 -28.5z" />
<glyph unicode="t" horiz-adv-x="563" d="M12 1208q0 -18 11.5 -29.5t29.5 -9.5q31 4 109 5q38 0 38 -32q0 -4 -1 -9l2 -79q2 -1 4 19q-2 -14 -5 -47t-5 -43q-6 -29 -13 -90q-4 -37 -32 -256q-51 -341 -51 -541q0 -25 1 -47q0 -17 14 -27q11 -9 24 -8h6q16 2 27 16.5t11 30.5q-1 24 -1 51q0 192 50 519 q20 150 33 262q0 4 3 30.5t7 51.5q12 92 13 153q0 41 39 41h4q56 -2 98.5 -2t71.5 2q16 -1 28 13q15 16 15 35q1 13 -9 23q-12 11 -30 11q-30 -2 -72 -2q-62 0 -147 4q-63 2 -113 2q-75 0 -119 -4q-41 -4 -41 -43z" />
<glyph unicode="u" horiz-adv-x="479" d="M-49 63q23 -113 133 -113q18 0 37 3q76 12 121 58t77 128q33 72 41 172q2 12 5.5 42t5.5 48q2 57 6 76q0 14 33 258q24 204 24 248v8q0 6 1 43t1 70v12.5t0.5 12.5t0.5 12t0.5 12t1 12.5t1 12.5t0.5 12v12.5v12.5q0 13 -9 23q-11 12 -27.5 12.5t-30 -11.5t-15.5 -29 q-4 -57 -4 -114q0 -31 -1 -68t-1 -41q0 -45 -24 -254q-33 -246 -33 -256q-6 -49 -6 -80q-2 -18 -6 -46.5t-4 -39.5q-10 -92 -33 -147q-27 -63 -56.5 -93t-72.5 -36q-10 -1 -18 -1q-54 0 -66 54q-4 23 -4 54q0 49 10 116q22 123 43 485q22 322 53 476q1 5 1 10q0 31 -34 35 h-7q-35 0 -42 -37q-31 -160 -53 -488q-18 -322 -41 -477q-13 -82 -13 -139q0 -34 5 -60z" />
<glyph unicode="v" horiz-adv-x="540" d="M27 1219q14 -109 16 -248q0 -90 2 -119q0 -4 3 -51t7 -106.5t12.5 -167t16.5 -224.5q2 -55 18 -164q10 -74 11 -76q6 -15 6 -24q0 -2 1 -5t3 -5l2 -9l2 -4q12 -12 23 -14h7q18 0 36 12q18 23 26 49q4 10 27 84q4 12 78 347q31 147 84 350q45 180 108 342q5 12 5 22 q0 22 -25 31q-8 2 -16 2q-28 0 -40 -31q-68 -166 -114 -354q-53 -213 -82 -354q-31 -137 -39 -168l-8 -47l-16 -37q-6 -6 -9 14q-4 23 -4 55q-39 528 -39 545q0 10 -1 27.5t-2 42t-1 45.5q0 162 -19 260q-5 31 -32 31q-7 0 -15 -2q-33 -8 -33 -38q0 -5 1 -11z" />
<glyph unicode="w" horiz-adv-x="819" d="M49 1036q4 -37 4 -80q0 -10 1 -40.5t2 -87t1 -111.5v-307q2 -170 11 -248q6 -71 12 -111q0 -8 2 -18t2 -13l4 -12l2 -8q6 -9 12 -12q12 -6 23 -6q7 0 13 2q16 6 24 18q0 4 4 8l4 8l8 25q2 6 10.5 30.5t12.5 43.5l67 223l47 172q16 51 23.5 63.5t12.5 -1t11 -62.5 q33 -193 95 -403q14 -43 26 -72q12 -20 15 -23q14 -14 41 -8q31 10 39 41q0 4 10 37q18 82 26 252q31 475 183 862q4 7 4 15q0 7 -3 15q-7 16 -24 21q-14 4 -30.5 -5t-22.5 -25q-158 -395 -189 -887q0 -6 -1 -13.5t-4 -23.5t-8 -21.5t-14 7t-20 49.5q-43 141 -61 387 q0 23 -6 65q0 23 -2 29q-4 18 -10 25q-8 12 -27 16h-4q-36 0 -56 -31q-10 -16 -16 -69q-2 -16 -8 -41q0 -4 -109 -357q-18 -81 -33 -82q-9 -1 -12 43v103l-4 307v240q0 18 -4 88q-3 49 -3 88q0 52 5 84q6 39 -33 43h-6q-33 0 -43 -39q-8 -40 -8 -99q0 -42 4 -94z" />
<glyph unicode="x" horiz-adv-x="626" d="M-99 12q7 -16 23 -20q14 -6 30.5 2t22.5 24q25 58 80 154q43 72 81 146.5t55 101.5q8 14 20 36q14 25 17 24t10 -35q4 -17 6 -27l14 -74q45 -231 105 -346q12 -19 29 -19q12 0 28 9q31 20 16 55q-53 96 -98 330l-33 162l-16 55q-8 27 6 55q197 408 303 557q6 11 6 24v6 q-2 16 -14 25q-13 6 -24 6q-19 0 -33 -20q-92 -125 -246 -438q-4 -7 -10 -19q-19 -39 -24 -39.5t-16 40.5q-3 13 -6 20q-102 365 -110 407q-16 37 -49 25q-35 -13 -35 -40q0 -6 2 -13q25 -102 86 -316l63 -227q8 -26 -6 -53l-110 -230q-15 -34 -86 -153q-53 -92 -86 -164 q-4 -9 -4 -17q0 -7 3 -14z" />
<glyph unicode="y" horiz-adv-x="581" d="M-32 8q7 -16 24 -20q7 -3 14 -3q9 0 18 5q15 8 21 24l88 215l94 236l88 207q58 141 101 227l39 88q59 131 96 176q10 15 10 29q0 16 -16 29q-12 8 -23 8q-19 0 -37 -21q-45 -63 -106 -196q-10 -27 -23.5 -54.5t-13.5 -29.5l-41 -86q-10 -23 -18.5 -32t-14.5 -5t-10 11 t-10 24q-4 10 -21.5 54t-27.5 73q-57 137 -93 258q-7 28 -31 28q-9 0 -20 -4q-14 -6 -23 -22.5t-5 -30.5q27 -94 94 -266q55 -137 96 -258q0 -6 4 -10q0 -2 -28.5 -72t-90 -222.5t-133.5 -328.5q-4 -9 -4 -17q0 -7 3 -14z" />
<glyph unicode="z" horiz-adv-x="579" d="M-68 20v5l5 4v6q0 4 2 8l14 27l41 92l129 280q180 387 219 465q4 0 86 158q23 47 35 82q-4 12 -14 12h-138q-217 4 -243 12q-27 7 -27 30q0 9 4 20q10 23 27 28q3 2 11 2q7 0 15 -1q20 -3 23 -3q31 0 55.5 -2t72.5 -3t73 -1h204q2 -2 6 -2l9 -4q12 -12 16 -29q1 -7 1 -15 q0 -25 -15 -56q-12 -40 -43 -99l-51 -100q-33 -57 -33 -62q-43 -82 -217 -458l-131 -281l-19 -43q-24 -47 -8 -47q38 -3 76 -2h37q119 2 200 14q18 2 31.5 -8t11.5 -26q0 -16 -11 -31t-28 -17q-114 -17 -219 -17q-58 0 -114 5q-76 4 -91 41q0 4 -1 10z" />
<glyph unicode="{" horiz-adv-x="557" d="M-33.5 543.5q-1.5 23.5 17.5 38.5q4 4 8 6q2 2 14 6l25 12q111 41 151 72q6 2 15 10q-4 4 -7 8l-13 20q-9 13 -15 21q-37 53 -52.5 86t-25.5 83t10 91q25 72 90.5 125.5t153.5 79.5q83 25 160 25q16 0 27.5 -12.5t9 -29t-15.5 -28.5t-30 -12q-147 0 -249 -80 q-104 -80 -56 -205q0 -2 47 -72q23 -29 29 -45l12 -18q2 -4 9 -27q2 -45 -54 -86l41 29q-50 -35 -47 -35q68 -10 76 -61t-43 -113q-10 -10 -41 -47t-35 -41q-53 -61 -57 -115q-4 -37 18.5 -82t59.5 -67q37 -16 116 -29q16 -2 24.5 -16.5t4.5 -30.5q-2 -16 -17.5 -26.5 t-31.5 -8.5q-102 14 -152.5 45t-85.5 107q-57 131 60 272l41 47q55 63 57 82q-2 2 -10 2q-41 2 -117 -10q-53 -10 -76 -8q-12 0 -24 4q-20 10 -21.5 33.5zM268 641q4 2 11.5 7t11.5 9z" />
<glyph unicode="|" horiz-adv-x="258" d="M33 37q-2 -16 9 -28.5t27.5 -12.5t30 12t15.5 29q47 457 63 866q-2 8 8 119q9 129 7 156q-6 39 -45 32.5t-39 -49.5q4 -57 -3 -139l-12 -123q-14 -428 -61 -862z" />
<glyph unicode="}" horiz-adv-x="450" d="M-74 -27q23 -33 56 -8q156 109 252 229.5t49 217.5q-8 20 -88 90q-39 31 12 55q49 20 100 41l25 10l12 4q4 2 10 9q33 20 17 55q-8 20 -33 24h-16q-5 0 -10 -1t-7 -1q-6 0 -8 -2q-4 -2 -8 -2h-4q-23 0 -47.5 -2t-55.5 -2q-2 0 -7 1t-14 3t-15.5 5t-6.5 6l6 6q2 4 70 98 q150 209 139 303q-8 84 -125.5 105.5t-210.5 -23.5q-37 -20 -22 -53q14 -37 53 -21q66 31 170 15q53 -6 53 -39q6 -59 -122 -244q-43 -59 -76 -109l-4 -6q-8 -10 -11 -12q-20 -29 -11 -59.5t48 -44.5q10 -4 23 -9q8 -5 8 -6l-6 -6q-57 -33 -62 -70q-2 -23 33 -53 q12 -12 47 -41q23 -18 45 -41q2 -2 5.5 -4t5.5 -4q20 -25 20 -39q4 -57 -78 -149.5t-196 -167.5q-35 -25 -15 -58z" />
<glyph unicode="~" horiz-adv-x="735" d="M-90 276q-2 -16 9 -28t27.5 -12t30 12t15.5 28q2 23 24 64q43 86 99 102q47 14 57 -32q16 -43 27 -58q57 -74 138 -76t155.5 49.5t138.5 135.5q23 35 -6 57q-31 20 -60 -12q-70 -96 -146.5 -131t-135.5 12q-16 16 -23 37q-2 2 -4 8t-4 10q-16 45 -39 62 q-53 35 -107.5 20.5t-99.5 -65.5q-86 -83 -96 -183z" />
<glyph unicode="&#xa1;" horiz-adv-x="174" d="M-115 -319q-2 -16 9.5 -28.5t28 -12.5t29.5 12t15 29q45 422 64 530q31 154 41 211q23 117 6 213q-6 39 -47 29q-39 -10 -33 -50q10 -73 -8 -188l-23 -111q-4 -25 -10 -58.5t-8 -41.5q-18 -106 -64 -534zM-14 836q0 -27 24 -37q27 -6 53 6q14 6 23 22l14 33q2 4 4 6t2 4 t2.5 7.5t2.5 9.5q2 20 -15.5 32.5t-40.5 2.5q-10 -3 -14 -11l-14 -14l-27 -31q-14 -14 -14 -30z" />
<glyph unicode="&#xa2;" horiz-adv-x="534" d="M-66 328q-35 -227 93 -332q25 -23 12 -53q-45 -129 -47 -136q-8 -41 28 -47q39 -6 52 31q8 23 22.5 66t20.5 61q12 33 51 33q92 0 207 74q37 25 18 57q-16 31 -55 12q-66 -41 -125 -57q-27 -6 -35 2t2 43l82 205l41 98q27 64 35 82l24 49q0 -10 -1 -19.5t-2 -14.5t-1 -10 v-7q0 -16 11.5 -27.5t29.5 -9.5q41 4 41 45l4 43q6 68 -14 115q-16 29 -6 53l37 100q16 39 -23 50q-37 10 -51 -29l-27 -64q-10 -25 -18 -27.5t-32.5 -0.5t-59.5 -4q-61 -10 -123 -49t-98 -91q-74 -109 -93 -241zM13.5 326.5q17.5 115.5 78.5 201.5q27 37 72 64 q57 35 108 39q31 2 34 -12.5t-9 -34.5l-113 -273q-68 -162 -80 -196q-20 -63 -49 -21q-12 16 -22 39q-37 78 -19.5 193.5z" />
<glyph unicode="&#xa3;" horiz-adv-x="819" d="M-102 498q8 -41 47 -27q59 16 182 35q40 3 43 -12q0 -2 1 -8.5t1 -10.5q12 -154 -111 -303l-45 -53q-12 -18 -34 -37l-11 -10q-47 -43 -51 -72q-2 -27 17.5 -40t46.5 3q12 8 16 14q10 10 18 22l2 3l5 4q4 6 15 17.5t15 17.5q4 4 27 18q96 55 168 13q2 0 51 -29 q100 -57 168 -63h14h43q2 0 8.5 2t10.5 2l37 8q2 0 13 3t19 5l31 10q14 2 29 21q23 33 -10 55q-12 8 -66 -6q-8 -4 -17.5 -7t-11.5 -3q-49 -10 -57 -9h-27q-61 9 -133 52l-59 32q-47 23 -88 25q-41 6 -21 43q82 133 70 279q-2 14 8 22t33 10q71 6 111 13q16 2 27 16t11 30.5 t-13 27t-30 7.5q-8 -2 -145 -16q-35 -4 -45 16l-12 19q-35 45 -54 63q-20 20 -22 27q-41 43 -53 90q-14 45 14.5 131t77.5 139q121 139 207 39q41 -45 51 -126.5t-17 -163.5q-8 -41 29 -48q37 -8 51 31q31 94 19 203q-14 104 -72.5 168.5t-144.5 56.5q-88 -8 -167 -92 t-118 -205q-27 -100 -11.5 -159.5t70.5 -120.5l33 -39q14 -18 7 -33.5t-31 -17.5q-80 -12 -140 -31q-41 -12 -30 -51z" />
<glyph unicode="&#xa4;" horiz-adv-x="604" d="M-45 328q-23 -33 6 -56q31 -20 59 11q8 12 31 41q20 29 55 16q6 0 17.5 -3t17.5 -5q72 -12 125 4q39 10 43 -2q4 -4 7 -8l3 -4l15 -17l24 -26q10 -12 26.5 -12.5t30 12t15.5 28.5q4 16 -10 29l-23 26l-10 11q-6 35 6 55q68 94 62 213q0 33 20 53l4 4l5 3q5 3 15.5 10.5 t20.5 15.5q35 27 15 59q-27 31 -58 7q-43 -29 -47 -35l-2 -2q-2 -2 -4 -2q-6 -6 -33 18q-66 51 -151 41q-35 -2 -72 -18q-33 -14 -55 8l-39 45q-14 10 -29 10q-41 0 -45 -41q0 -20 10 -31l31 -32q23 -27 -2 -57.5t-47 -71.5q-57 -115 -4 -201q18 -29 -2 -57 q-4 -6 -14.5 -18.5t-16.5 -20.5zM51 555q14 63 70.5 117.5t118.5 60.5q35 0 82 -18l22 -19q2 -2 6 -7t6 -7q8 -8 9 -18q0 -2 4 -7q2 -2 2 -8q10 -53 -9 -114q-23 -70 -72.5 -104t-123.5 -17q-143 27 -115 141z" />
<glyph unicode="&#xa5;" horiz-adv-x="593" d="M-49 518.5q0 16.5 12 29.5t29 15q80 6 168 4q53 0 61 39l15 60q2 10 -1.5 17t-10.5 10t-11 4t-15.5 0t-13.5 -1q-111 3 -184 0q-16 0 -28.5 11.5t-10.5 28t14.5 29.5t28.5 13q33 2 109 2q25 0 35 13.5t-1 35.5q-109 227 -131 359q-6 39 35 49q39 10 45 -29 q12 -66 63.5 -193.5t104.5 -226.5l14 22q13 22 17 32q8 16 42 78.5t60 109.5q57 94 97 174q18 41 53 27q39 -14 22 -51q-20 -47 -102 -187q-59 -98 -96 -176l2 4q-16 -47 28 -47h58q16 0 27.5 -12t9.5 -28.5t-15.5 -29t-29.5 -12.5h-84q-39 2 -50 -35q-8 -23 -14 -53 q-6 -41 35 -45q23 0 59.5 -1t48.5 -1q16 0 27.5 -12.5t9.5 -28.5t-15 -28.5t-30 -12.5q-12 0 -50 1t-64 1q-41 4 -48 -39q-12 -111 -32 -413q-2 -16 -14.5 -29.5t-29 -13.5t-28.5 11t-10 27q14 231 33 422q6 39 -35 43q-92 2 -168 -4q-16 -2 -28.5 9.5t-12.5 28z" />
<glyph unicode="&#xa6;" horiz-adv-x="217" d="M-45 45q-2 -16 8 -28.5t27 -12.5q39 0 47 41q2 18 37 258q24 166 30 262q2 16 -10 27.5t-28.5 11.5t-28.5 -13t-14 -30q-8 -121 -31 -254q-31 -201 -37 -262zM53 776q-2 -16 9.5 -28.5t27.5 -12.5t29.5 12.5t15.5 28.5q5 58 60 400q2 16 -8.5 29.5t-27 13.5t-30.5 -11.5 t-16 -27.5q-55 -365 -60 -404z" />
<glyph unicode="&#xa7;" horiz-adv-x="565" d="M-115 150q10 -109 82 -160q68 -51 158 -51t166 45q80 47 99.5 133t-48.5 164q-27 27 2 57q84 78 115 139q39 82 2 140.5t-137 113.5q-29 16 -78 41q-45 23 -90 47q-27 15 -35 17l-33 14q-27 14 -35 33q-12 16 21 100q39 96 104.5 139t129 29t92 -79.5t1.5 -162.5 q-6 -39 31 -45q35 -6 49 33q33 127 -9 219t-138 114.5t-190.5 -37.5t-145.5 -185q-14 -37 -23 -74q-12 -61 2.5 -95t67.5 -63q20 -10 37 -16l8 -5q5 -11 -29 -40q-68 -57 -88 -119q-39 -111 4 -173.5t162 -119.5q94 -43 131 -74q49 -43 37 -114q-4 -37 -54 -64.5t-116 -30.5 q-72 -2 -118 36t-50 110q-6 39 -45 33t-39 -49zM45 566.5q25 72.5 119 119.5q28 14 57 2l55 -29q82 -43 105 -75q25 -33 2 -78q-27 -55 -117 -131q-27 -27 -55 -10q-14 6 -29 14q-98 45 -121 76q-41 39 -16 111.5z" />
<glyph unicode="&#xa8;" horiz-adv-x="444" d="M32 1100.5q9 -19.5 29 -27.5q66 -25 93 47q10 31 16 47q6 12 0 23q-2 20 -20 24q-29 10 -54 -2q-2 0 -6 -4q-16 -10 -41 -34q-2 -4 -8 -11.5t-8 -11.5q-10 -31 -1 -50.5zM303 1133l4 -4q4 -3 6 -5q4 -4 10.5 -11t8.5 -11q8 -12 28 -12q34 -1 46 28q2 4 6 21.5t8 27.5 q4 8 0 25q-12 37 -49 25q-20 -6 -29 -9q-12 -4 -14 -6q-51 -23 -25 -69z" />
<glyph unicode="&#xa9;" horiz-adv-x="722" d="M-14 317q12 -77 61 -159q53 -92 126 -142.5t149 -33.5q176 37 272 413q88 327 63 563l-6 62q-25 66 -149.5 138.5t-210.5 55.5q-199 -37 -287 -348q-76 -268 -18 -549zM66 342q-53 264 18 508q72 256 213 285q133 26 266 -144q18 -20 19 -47q8 -174 -40 -416.5 t-124 -367.5q-90 -158 -203 -68q-51 37 -94 109.5t-55 140.5zM105 576.5q-5 -97.5 26 -184.5t100 -107q47 -14 76 -3t58 60q22 45 36 94l11 37q16 39 -23 49q-37 10 -51 -28q-6 -10 -21 -58q-10 -23 -12 -39q-6 -12 -18 -30q0 -2 -2 -5.5t-2 -5.5q-12 4 -23 6 q-63 18 -70 154q-6 119 31 236.5t88 160.5q35 29 66 -10q37 -47 33 -104q-2 -16 10 -27.5t28.5 -11.5t28.5 13t14 30q8 84 -49 153q-33 45 -79 52.5t-99 -33.5q-76 -59 -125 -217q-27 -84 -32 -181.5z" />
<glyph unicode="&#xaa;" horiz-adv-x="557" d="M2 1018q41 131 143 186q152 80 203 -26q25 -57 19 -213q-6 -164 2 -193q4 -25 16 -28t45 10q41 18 55 -19q4 -16 -4 -32.5t-22 -22.5q-70 -31 -113 -10q-25 12 -33 22q-12 -2 -37 -14q-147 -72 -217.5 -39t-38.5 145q27 82 91.5 158t136.5 109q37 16 35 49q-8 31 -11 37 q-8 14 -22 18q-23 4 -67 -19.5t-64 -50.5q-20 -29 -35 -84q-16 -37 -53 -30.5t-29 47.5zM102 770q-14 -51 2 -57q43 -16 172 53q2 2 5 2q0 12 -2 35q-2 53 6 158q0 2 -1 4t-1 4q-2 2 -7.5 2t-17.5 -5t-25 -14q-102 -76 -131 -182z" />
<glyph unicode="&#xab;" horiz-adv-x="620" d="M39 571q-37 88 27 119q27 8 47 25q16 12 51 39q37 33 84 59q14 8 30.5 4t22.5 -18.5t0 -30.5t-20.5 -24.5t-69.5 -51.5q-20 -16 -46 -35.5t-32 -23.5l-12 -6l-6 -21q7 -24 30 -63q35 -59 72 -109q10 -14 8 -28q-2 -16 -16 -27.5t-31 -11.5q-18 0 -26 14q-90 111 -113 190 zM66 690q2 2 5 2t5 2zM228 604.5q5 22.5 24 46.5q12 18 92 68q80 45 148 100q30 29 59 -4q23 -31 -12 -57q-63 -51 -156 -109q-43 -27 -49 -31q-27 -14 -21 -43l2 -2q10 -31 78 -135q20 -31 -14 -57q-35 -25 -57 8q-39 59 -57.5 93t-30 67t-6.5 55.5z" />
<glyph unicode="&#xac;" horiz-adv-x="765" d="M-39 627q0 -16 12.5 -27.5t28.5 -9.5t129 11t195 15q51 4 115.5 9.5t80.5 5.5q53 4 64 4q18 0 14 -35q0 -4 -2 -11t-3 -13.5t-1 -12.5l-10 -47q-6 -31 -13 -43q-4 -16 6.5 -29.5t27 -15.5t31.5 9.5t17 27.5q16 66 23 88q14 66 6 104.5t-45 55.5q-12 4 -16 4h-29 q-10 0 -68 -4q-4 0 -216 -16.5t-304 -24.5q-39 -4 -43 -45z" />
<glyph unicode="&#xad;" horiz-adv-x="655" d="M-25 536.5q0 -16.5 13.5 -26.5t29.5 -8q131 18 342 10q143 -4 160 -4t30 12t15 28.5t-9 29t-28 12.5q-6 0 -153 4q-216 8 -361 -10q-16 -2 -27.5 -16.5t-11.5 -31z" />
<glyph unicode="&#xae;" horiz-adv-x="735" d="M-51.5 475.5q-14.5 251.5 100.5 448.5q100 182 199.5 257.5t234.5 26.5q45 -16 94.5 -59t59.5 -68q2 -3 27 -77q12 -37 8 -157t-27 -233q-63 -313 -160 -495q-59 -119 -130.5 -146.5t-149.5 17.5q-61 27 -105 76q-137 158 -151.5 409.5zM33 486.5q12 -228.5 131 -363.5 q33 -37 85 -60.5t85 -13.5q33 8 80 101q90 176 149 471q2 14 14.5 65t14.5 68.5t8 61.5t3 66.5t-9 58.5t-22.5 64.5t-41.5 57.5l-10 13q-10 13 -22.5 24.5t-20.5 15.5q-10 8 -31 14q-92 35 -164.5 -23t-162.5 -216q-98 -176 -86 -404.5zM135 418q-10 82 6 194q14 117 15 170 q-2 2 -4 2q-29 25 -7 58q31 41 85.5 73.5t109.5 42.5q70 12 116 -20.5t48 -108.5q2 -102 -139 -178l8 4q-35 -18 -25 -32l21 -45q18 -41 31.5 -56.5t45.5 -32.5q35 -18 15 -53q-23 -37 -58 -20q-45 23 -66.5 47t-41.5 74q-4 8 -12.5 23t-10.5 22q-12 18 -30 22q-2 0 -6 1 l-5 1q-2 0 -4 -2t-4 -8t-3 -14.5t-3 -20.5q-6 -78 0 -127q0 -41 -35 -47q-43 -8 -47 31zM233 698q6 0 11 2q16 0 18 2q70 10 129 64q31 27 31 60.5t-23 43.5q-16 12 -53 9q-43 -6 -82 -35q-31 -20 -26 -31q0 -2 1 -4t1 -4q0 -45 -7 -107z" />
<glyph unicode="&#xaf;" horiz-adv-x="438" d="M6 1175.5q-2 -16.5 8.5 -28.5t26.5 -12q181 0 326 -7q16 0 30.5 11.5t16.5 28t-8.5 29.5t-26.5 13q-148 7 -328 7q-16 0 -29.5 -12.5t-15.5 -29z" />
<glyph unicode="&#xb0;" horiz-adv-x="477" d="M25 937q4 -26 30 -69q45 -76 128 -96t149 25q68 39 92.5 105.5t-4.5 146.5q-10 25 -14 47q-10 41 -37 73q-59 78 -154 91q-88 10 -145 -70q-20 -23 -31 -74q-8 -57 -8 -74q0 -6 -1 -12t-2 -10l-1 -4q-6 -53 -2 -79zM104.5 960q-2.5 13 4.5 56l4 33l4 30q0 14 4 25 q2 27 14 45q33 43 94.5 20.5t87.5 -84.5q8 -23 9 -34q0 -4 4 -13q55 -119 -33 -172q-35 -27 -87 -13.5t-85 65.5q-18 29 -20.5 42z" />
<glyph unicode="&#xb1;" horiz-adv-x="473" d="M-137 -20q-4 -16 6 -29.5t27 -16.5q61 -4 100 -4q68 0 94 2q37 0 193 9q16 0 28.5 13t14.5 29.5t-9.5 28t-29.5 11.5q-12 0 -127 -7q-117 -6 -125 -4q-4 0 -18.5 1t-44 2t-60.5 1q-16 2 -31.5 -9t-17.5 -27zM-68 651q0 -16 12.5 -26.5t28.5 -8.5q64 9 107 11q41 0 41 -37 q4 -43 16 -121q8 -41 49 -27q16 4 26.5 19.5t6.5 32.5q-12 57 -12 88q-2 20 10 32.5t33 10.5q27 0 57.5 -1t34.5 -1q16 0 29.5 12t15.5 28.5t-9 29t-28 12.5q-2 0 -14 1t-39 2t-53 1q-45 0 -39 39q0 35 8 120q2 16 -9 28.5t-27.5 12.5t-30 -12t-15.5 -29q-4 -41 -8 -118 q-6 -41 -45 -41q-45 -2 -109 -11q-41 -10 -37 -47z" />
<glyph unicode="&#xb2;" horiz-adv-x="438" d="M-5 1043.5q-7 15.5 1 31.5q18 45 57 86t82 58q57 25 98 -3t50 -100q8 -69 -111 -231l-63 -78q4 -23 30 -23h33q18 0 96 4q37 2 66 3q16 0 27.5 -12.5t9.5 -29t-15.5 -28.5t-29.5 -12q-29 0 -68 -2q-78 -4 -92 -5q-49 0 -94 5q-61 12 -74 38q-6 15 0 37q4 8 8 21l27 35 l73 92q100 129 95 170q-2 12 -6 28q-2 8 -10.5 12.5t-16.5 4.5h-8q-55 -25 -88 -94q-6 -16 -21.5 -24.5t-32.5 -2.5q-16 4 -23 19.5z" />
<glyph unicode="&#xb3;" horiz-adv-x="370" d="M-6 1106q-14 -39 22 -49q39 -10 54 28q10 29 34.5 53.5t49.5 32.5q2 0 3 1l3 2q23 8 39 -17q6 -25 6 -27q12 -70 -90 -137q-25 -16 -54 -16l15 -4q-2 0 -4 -1t-4 -1q-43 -16 -45 -47q-4 -18 10 -33q23 -27 65 -10q25 10 45 10q33 0 47 -6q66 -35 23 -84q-61 -68 -160 -78 q-41 -4 -41 -43q0 -18 11.5 -29.5t29.5 -9.5q59 4 122 35t99 76q49 55 39 112.5t-80 93.5q-8 20 13 48q53 70 39 145q-10 68 -52.5 93.5t-99.5 4.5q-45 -16 -84 -56t-55 -87z" />
<glyph unicode="&#xb4;" horiz-adv-x="327" d="M47 1016q-2 -16 9.5 -28.5t27.5 -12.5t31 12l176 160q12 12 16 29q2 16 -9 28.5t-28 12.5q-18 0 -30 -13l-177 -160q-12 -10 -16 -28z" />
<glyph unicode="&#xb5;" horiz-adv-x="626" d="M-258 -272q-18 -39 20 -54q37 -14 56 25q61 131 127 293q16 43 55 22q98 -41 186 -2q31 12 60 35q39 33 45 0q0 -20 6 -39q8 -39 49 -24.5t31 53.5q-4 14 -8 43q-2 39 2 86v51v2q4 6 14 25q49 115 80 209q66 176 82 213q20 39 -19 53q-37 14 -55 -25q-14 -29 -84 -221 q-51 -154 -102 -244q-57 -106 -117.5 -138t-146.5 5q-29 18 -17 54l10 24q123 309 197 469q18 41 -18 53q-37 14 -56 -24q-61 -133 -200 -475q-139 -346 -197 -469z" />
<glyph unicode="&#xb6;" horiz-adv-x="864" d="M10 776q20 -90 95 -136t153 -38q20 4 30.5 -4.5t8.5 -28.5l-66 -635q-2 -16 9.5 -28t28 -12t29.5 12t15 28q6 65 25 240q4 51 9 102.5t10 98.5t8 65q18 176 65 488q10 61 14 137q3 40 7 68q6 37 45 43q4 0 11 1t11 1q39 0 39 -39q-4 -119 -27 -244q-8 -39 -16 -88 t-10 -62q-29 -238 -45 -393q-35 -301 -51 -407q-2 -16 8 -29.5t26.5 -13.5t30.5 11t16 28q16 106 52 407q16 156 45 393q20 113 26 144q18 115 27 252q0 47 45 43q39 -2 109 -11q18 -2 33.5 8.5t17.5 26.5q4 16 -5.5 30.5t-25.5 16.5q-258 37 -477 -24q-23 -10 -43 -19 q-68 -25 -129 -80q-80 -70 -126 -165t-28 -187z" />
<glyph unicode="&#xb7;" horiz-adv-x="243" d="M-6 559q2 -35 29.5 -48t74.5 3q20 8 29 14q23 14 30 37t-10 41q-16 14 -28 41q-8 18 -31 19q-16 0 -31 -11l-4 -4l-12 -8q-47 -33 -47 -84z" />
<glyph unicode="&#xb8;" horiz-adv-x="428" d="M-96 -137q-6 -23 8 -36t31 -11h12q14 0 25 2q100 14 143 14h18q29 -4 39 -20q0 -8 -10 -21q-23 -31 -72 -57q-27 -16 -45 -17q-41 -20 -26 -53q12 -37 51 -24q3 3 12 6q8 2 8 4l29 10q68 35 109 88q31 37 25.5 80t-50.5 68q-31 18 -98 18q-59 0 -45 14l16 17q29 31 0 59 q-27 23 -59 -6q0 -4 -11 -12l-24 -23q-8 -10 -23 -24l-18 -19q-23 -23 -31 -33q-4 -4 -8 -12z" />
<glyph unicode="&#xb9;" horiz-adv-x="403" d="M-6 712.5q2 16.5 17.5 28t31.5 9.5q12 -2 35 -2q35 -4 35 2q0 61 26 208q6 25 15 66q2 12 -3.5 19.5t-10.5 8.5l-5 1q-8 -14 -25.5 -18.5t-29.5 3.5q-14 8 -17.5 24.5t7.5 31.5q2 2 10 13t19.5 25.5t25.5 30.5l35 39q8 10 14 15l4 8q18 12 33 10h4q45 -4 41 -53l-2 -19 l-2 -8q-4 -80 -31 -205q-27 -137 -26 -192l4 26q-7 -39 34 -39h60q16 0 27.5 -12t9.5 -28.5t-15.5 -28.5t-29.5 -12q-199 0 -260 4q-16 2 -24.5 15t-6.5 29.5z" />
<glyph unicode="&#xba;" horiz-adv-x="524" d="M-14 897q-10 -72 21.5 -137.5t98.5 -93.5q113 -49 209.5 9t141.5 179q31 66 27.5 149t-44.5 136q-10 10 -22 41q-6 8 -17 14q-117 58 -227 0q-154 -78 -188 -297zM70 846q-12 78 28.5 159.5t108.5 116.5q27 16 55 19q25 2 37 -11q8 -4 12 -4q66 -18 84 -90 q18 -74 -15.5 -161t-92.5 -125q-63 -43 -135 -12.5t-82 108.5z" />
<glyph unicode="&#xbb;" horiz-adv-x="737" d="M20 348q25 -29 58 4q45 45 121 111q74 68 94 102q45 74 -12 123q-46 39 -177 64q-41 4 -51 -33q-10 -39 27 -49q117 -23 143 -47q12 -8 0 -21q-16 -27 -76 -80q-90 -78 -124 -116q-31 -29 -3 -58zM269.5 762.5q-5.5 -17.5 0.5 -31.5t54 -22l63 -15q88 -18 166 -41 q23 -6 18 -20q-6 -6 -10 -15q-20 -33 -78 -100q-53 -57 -170 -174q-31 -31 0 -57q25 -27 56 4l9 9q9 9 26.5 25.5t35.5 34.5q143 145 191 220q43 78 22 116q-8 12 -35 25q-20 8 -34 12q-68 18 -170 41l-62 12q-28 6 -30 7q-20 4 -33 -5q-14 -8 -19.5 -25.5z" />
<glyph unicode="&#xbc;" horiz-adv-x="710" d="M-86 20.5q-4 16.5 4 30.5l471 762q39 61 66 109q94 168 157 237q31 35 60 8q29 -29 0 -57q-66 -74 -148 -221q-10 -18 -24.5 -43t-23.5 -41.5t-17 -28.5l-471 -762q-10 -14 -27.5 -20t-30 2t-16.5 24.5zM63 784q4 41 43 45q55 6 64 9q-3 3 0 6v78q3 54 -15 51l-8 -4 q-33 -33 -57 -6q-31 25 -4 55l76 82q20 25 45 14q2 2 8 2q43 4 43 -37l1 -1q0 -167 -3 -185q-2 -20 8.5 -30.5t30.5 -8.5h8q16 0 28.5 -11.5t10.5 -27.5t-14.5 -29.5t-28.5 -13.5q-66 -6 -94 -10q-16 -2 -99 -14q-18 -2 -30.5 9t-12.5 27zM217 303q4 8 12 16q6 8 27 29 q45 43 164 133q8 6 19.5 20.5t21.5 22.5q12 8 24 8h7q20 0 28 -4q37 -12 23 -45q-2 -6 -11.5 -23.5t-9.5 -29.5q-2 -18 -6 -59q-2 -14 4 -25.5t12 -16.5l7 -5q16 2 28.5 -9.5t12.5 -28t-12.5 -29.5t-28.5 -15q-6 -2 -23 -2q-27 -2 -35 -41q-4 -20 -8 -55t-6 -48 q-2 -16 -15.5 -28.5t-29.5 -12.5t-27.5 12.5t-9.5 29t14 93.5q6 43 -18 43q-58 -3 -92 0q-6 0 -17.5 1.5t-17.5 3.5l-14 4q-43 16 -23 61zM387 315h16q17 0 27 41q4 16 -13 15q-12 -1 -30 -13q-39 -43 0 -43z" />
<glyph unicode="&#xbd;" horiz-adv-x="792" d="M-87 10.5q3 -16.5 17 -24.5q37 -18 58 18q35 51 96 133q27 35 42 56.5t31.5 48t23.5 38t33 56.5t42 74l78 139l72 119q74 121 83 135l78 115q76 102 97 126l94 107q29 29 2 59q-27 25 -58 -6q-98 -102 -196 -243l-82 -117q-16 -23 -88 -139l-72 -123l-80 -140 q-18 -33 -34.5 -62.5t-25.5 -45t-11 -19.5q-10 -20 -90 -133q-77 -95 -105 -141q-8 -14 -5 -30.5zM119 831q-4 -16 6 -29.5t27 -15.5q57 -4 163 -4q16 0 29.5 12.5t15.5 29t-8 28.5t-26 12h-25q-29 0 -25 39q2 10 3.5 36t1.5 38q4 49 4 121q-4 23 -11 24q-16 20 -47 23 q-8 0 -24 -8l-43 -27q-35 -25 -17 -57q16 -31 56 -13l2 -29v-3v-16q0 -13 -2 -19q0 -10 -1 -31.5t-3 -30.5q0 -45 -15 -45q-8 0 -12 2q-16 2 -31.5 -9t-17.5 -28zM240.5 124q-7.5 -18 3.5 -42q12 -23 65 -27q39 -2 154 2q31 2 53 2q16 0 29.5 12.5t15.5 29t-9 28.5t-28 12 q-23 0 -53.5 -2t-75.5 -2q-2 0 13 15l16 16q63 72 100 152.5t4 134.5q-33 47 -79 39q-37 -6 -69 -36t-81 -104q-10 -14 -7 -30.5t17 -24.5q12 -8 29.5 -4t26.5 18q43 63 65 84l25 13l1 -2l1 -2q14 -23 -19 -84q-65 -117 -143 -158l-14 -6q-10 -2 -15 -8q-18 -8 -25.5 -26z " />
<glyph unicode="&#xbe;" horiz-adv-x="745" d="M-115 12q98 207 369 592q135 193 174 256l78 107q109 152 139 231q14 39 51 29q39 -10 25 -49q-31 -94 -150 -256q-49 -66 -73 -103l-179 -258q-272 -383 -360 -577q-18 -39 -55 -25t-19 53zM31 788q-6 14 1 31t23 25q14 8 30.5 2t23.5 -21q8 -23 19 -31t22.5 -2.5 t20.5 14.5t15 21q10 23 4 47q0 2 -1 8.5t-3 8.5q-4 -2 -10 -2q-16 0 -30.5 12t-13.5 33.5t18 38.5q8 8 24 14q4 0 8 4q33 35 35 64q3 12 0 18q-4 4 -2 6q-16 6 -31 -14q-8 -8 -12 -37q-2 -16 -15.5 -28.5t-29.5 -12.5t-27.5 12.5t-9.5 28.5q6 53 37 89t76 42 q45 8 74.5 -23.5t21.5 -80.5q-8 -43 -29 -76q-14 -23 -4 -57q4 -12 4 -23q12 -53 -11.5 -101t-68.5 -73q-45 -27 -91 -8.5t-68 71.5zM178 258q8 23 41 51q137 113 207 156q39 18 55 -12q8 -12 4 -31q-7 -16 -3 -17q2 0 7 3q-27 -14 -26 -50q0 -6 -1 -18t-1 -21q0 -12 4 -22 t9 -14l5 -4q16 0 28.5 -11.5t10.5 -27.5q-8 -43 -45 -43h-6q-29 -10 -35 -41v-2q-9 -52 -12 -80q-2 -16 -15.5 -28.5t-30 -12.5t-27.5 12t-9 29q2 12 6 40.5t6 45.5q2 10 -8 15t-33 3h-10q-74 -4 -104.5 16.5t-16.5 63.5zM305 260q20 0 33 2q35 4 41 39q0 8 -11.5 8 t-23.5 -4l-12 -4q-10 -8 -17.5 -18.5t-8.5 -16.5z" />
<glyph unicode="&#xbf;" horiz-adv-x="473" d="M-86 -59q-4 -74 26.5 -140.5t84.5 -101.5q53 -45 129.5 -27.5t138.5 92.5q12 14 11 32t-13 28q-12 8 -30.5 5t-27.5 -15q-84 -98 -159 -47q-37 27 -58.5 75.5t-19.5 102.5q12 197 86 225q8 2 72 12q61 10 92 45q10 14 22 84q21 199 21 318q2 16 -11.5 27.5t-30 9.5 t-28.5 -15.5t-12 -29.5q-4 -147 -21 -308q0 -8 -2 -12l-6 -27v-4q-6 -4 -26 -6q-70 -8 -93 -18q-129 -49 -145 -305zM201.5 910.5q-11.5 -29.5 1 -54.5t47.5 -27q41 -6 100 41q27 25 25 52q-4 20 -43 32q-22 7 -31 7q-49 2 -61 -7q-27 -14 -38.5 -43.5z" />
<glyph unicode="&#xc0;" horiz-adv-x="542" d="M-76 41q-4 -16 6.5 -29.5t26.5 -15.5t31.5 9t17.5 28q4 27 64 307q12 63 31.5 155.5t25.5 122.5q10 35 39 44q70 20 129 26q20 4 31.5 -6t9.5 -31q-4 -61 -12 -174q-25 -303 -9 -465q6 -37 45 -30.5t39 47.5q-16 141 7 450q25 317 20 465q-6 119 -14 172q-14 137 -80 168 q-55 23 -101.5 -10t-74.5 -100q-31 -70 -47 -179q-25 -186 -119 -655zM160 788q29 190 30 207q12 80 41 152q16 41 35 57q25 20 47 -26q10 -25 17 -82q16 -109 12 -281q4 -37 -47 -47q-41 -4 -96 -16q-23 -4 -33 5t-6 31zM233 1509q-29 -31 3 -57q22 -15 55 -49 q39 -37 59 -53q29 -27 60 8q29 29 -2 57q-17 12 -58 51l-59 52q-27 23 -58 -9z" />
<glyph unicode="&#xc1;" horiz-adv-x="620" d="M-66 41q14 66 56 242q51 236 55 258q6 34 18 116q37 213 48 254q18 59 30.5 93t45 88.5t79.5 103.5q53 55 103.5 67.5t93.5 -36.5q28 -39 24 -207l-5 -119q-5 -119 -9 -229q-25 -514 4 -604q14 -37 -26 -54q-16 -6 -32 0t-20 21q-35 102 -8 624q-23 10 -41 9 q-39 -2 -127 -21q-10 -2 -24.5 -5t-18.5 -3q-37 -6 -43 -43q-2 -6 -5 -27.5t-5 -31.5q-10 -59 -57 -261q-8 -41 -21.5 -97t-21 -90t-11.5 -56q-2 -16 -17 -27.5t-31.5 -9.5t-27 15.5t-6.5 29.5zM162 764q-4 -23 2 -34t20 -9q8 2 29 6q61 12 121 21q6 0 16 1t15 1q33 4 32 43 q8 193 9 219q-1 89 -5 116l-2 19q0 8 -6 16t-12 14l-6 5q-25 -6 -53 -39q-66 -68 -93 -131q-33 -78 -67 -248zM240 1354q0 16 14 26q90 80 168 133q37 20 55.5 -12.5t-18.5 -56.5q-61 -39 -154 -121q-13 -12 -31 -12q-41 0 -34 43z" />
<glyph unicode="&#xc2;" horiz-adv-x="630" d="M-78 33q12 89 49 227l52 221q2 8 7 37t16 96.5t22 126.5q33 186 67.5 293t97.5 174q53 61 111.5 54t104.5 -86q29 -55 36 -138.5t0.5 -170.5t-26.5 -273q-27 -205 -24 -339t46 -198q23 -31 -12 -57q-35 -25 -57 8q-53 80 -58.5 219.5t23.5 368.5v4q2 20 -8.5 30.5 t-30.5 8.5q-66 -8 -174 -23q-35 -6 -41 -43q-8 -51 -74 -325q-31 -121 -45 -219q-2 -16 -16.5 -27.5t-30.5 -11.5t-26.5 13t-8.5 30zM150 737q-2 -20 7 -29.5t31 -5.5q109 16 162 21q39 4 45 43q29 274 -22 364q-25 47 -45 50q-16 4 -35 -23q-86 -90 -143 -420zM172 1354 q37 86 60.5 125t54.5 55q47 23 80.5 -10t68.5 -113q6 -14 0 -30.5t-20 -24.5q-39 -18 -54 14q-14 35 -30 57q-8 4 -17.5 4.5t-14.5 -0.5l-5 -1q-8 -14 -49 -101q-18 -38 -53 -26q-37 14 -21 51z" />
<glyph unicode="&#xc3;" horiz-adv-x="632" d="M-94 12q-6 -41 28 -47q37 -6 52 31q40 135 98 473q14 61 25 125q6 39 47 39q82 4 116 10q45 8 45 -33q-4 -106 -4 -147q0 -414 107 -488q33 -20 59 13q25 31 -6 57q-35 23 -57 143q-18 123 -21 283q0 111 15 401q0 23 1 52.5t2 45t1 23.5q2 8 4 51t2 54q-4 80 -27 121 q-47 78 -119 24q-70 -47 -155 -295q-63 -174 -115 -473q-61 -340 -98 -463zM84 1294q-25 -39 14 -53q37 -18 56 21q37 66 59.5 75t62.5 -14q61 -35 124 -13.5t124 120.5q8 14 4 30.5t-18 24.5q-12 8 -29.5 2t-27.5 -21q-39 -68 -68 -79t-70 12q-63 35 -121.5 14t-109.5 -119 zM145 760q49 203 125 352q14 25 17 27q6 12 14 21t13 12.5t5 1.5q2 -2 3 -5q14 -25 14 -79q0 -72 -4 -105q0 -14 -4 -95t-6 -118q0 -37 -31 -43q-50 -9 -111 -12q-20 -2 -29.5 9t-5.5 34z" />
<glyph unicode="&#xc4;" horiz-adv-x="552" d="M-96 14q-8 -41 33 -45q39 -4 49 37q29 143 75 465q2 12 7.5 51t9.5 58q6 38 47 38h172q41 0 35 -43q-6 -49 -17 -110q-37 -303 13 -465q4 -14 19 -21.5t32 1.5q41 14 27 53q-45 150 -9 430q6 37 25 160q18 137 31 307v65q2 51 0 90q-10 127 -74 156q-39 12 -71 12 t-61.5 -25.5t-52 -53t-44 -70.5t-37 -81t-29.5 -81q-55 -162 -102 -467q-53 -342 -78 -461zM109 743q27 109 51 179q41 121 88 191.5t90 53.5q10 -6 20 -28q14 -39 15 -150q-2 -10 -2 -37v-30q0 -61 -17 -181q-4 -41 -45 -41h-166q-41 0 -34 43zM240 1437.5 q-2 -16.5 9 -28.5t27.5 -12t29.5 12t15 28.5t-10 28.5q-10 12 -26.5 12.5t-29.5 -12t-15 -29zM387 1448q-2 -16 8.5 -28.5t26.5 -12.5q39 0 47 41q0 19 -10 29q-12 12 -27 12q-16 0 -29.5 -12.5t-15.5 -28.5z" />
<glyph unicode="&#xc5;" horiz-adv-x="598" d="M-82 66q-20 -39 19 -54q37 -14 55 25q39 82 65 233q18 92 19 95l51 235q6 33 41 43q61 14 156 23q23 2 34 -4.5t9 -22.5q-2 -6 -3.5 -17.5t-1.5 -17.5q-10 -68 -12 -96q-29 -303 27 -473q4 -14 19.5 -20.5t31.5 -0.5q41 16 27 54q-47 152 -23 440q4 47 14 115 q12 117 15 127q12 113 8 233q-2 18 -4 55t-3 51.5t-4 43t-6 40t-9.5 32t-13.5 29.5t-18.5 21.5t-25.5 18.5t-33 10q-41 10 -74.5 -3t-54 -36.5t-39 -71t-29 -84t-22.5 -98.5l-43 -194l-53 -228l-43 -196l-19 -99q-27 -145 -57 -208zM166 770l49 213q27 123 43 156 q18 41 37 57q14 14 33 10q31 -8 49 -88q14 -184 4 -321q0 -41 -43 -45q-100 -14 -135 -21q-23 -4 -33 6t-4 33zM219 1495q-4 -41 4 -57q16 -55 58.5 -79t85.5 -5q45 16 69.5 72.5t3.5 101.5q-23 47 -70.5 59t-93.5 -20q-8 -7 -18 -17q-27 -27 -33 -34q-6 -18 -6 -21z M309 1487q2 2 5 6t12.5 10t17.5 4q14 -4 20.5 -18t-3 -34.5t-19.5 -27.5q-2 -2 -10 5q-13 6 -21 14q-12 18 -2 41z" />
<glyph unicode="&#xc6;" horiz-adv-x="864" d="M-113 8q-10 -41 27 -47q41 -8 53 31q4 12 8.5 30.5t11.5 47t13 49.5q27 113 51 178q14 35 47 37h142q43 0 36 -41q-2 -31 -6 -77t-4 -58q0 -14 -4 -29q-6 -37 -6 -43q-12 -63 -2 -92q12 -37 86 -49.5t246 -1.5q20 0 39.5 1t30 2t14.5 1q39 0 47 41q2 16 -9.5 28.5 t-27.5 12.5q-4 0 -14.5 -1t-31 -2t-42.5 -1q-98 -4 -123 -5q-55 0 -109 5l-28 30q0 4 2 12.5t2 12.5q0 2 1 7t2 14.5t3 19.5q6 25 6 37q2 14 5 52t7.5 80t6.5 85q14 162 14 172q3 40 43 43h194q39 0 48 41q2 16 -9.5 28.5t-27.5 12.5h-197q-20 -2 -29.5 8t-7.5 31 q20 227 47 440q10 39 45 39q57 2 179 -4q18 0 39.5 -1t34 -2t18.5 -1q16 0 29.5 12t15.5 28.5t-9.5 29t-27.5 12.5q-6 0 -17.5 1t-33 2t-39.5 1q-158 10 -223 4q-66 -4 -96.5 -20.5t-61.5 -69.5q-39 -68 -109 -273q-37 -111 -116 -323q-82 -221 -117 -328q-6 -18 -33 -127 q-13 -60 -33 -123zM111 461l36 104q98 264 119 328q47 139 60 168l10 11q14 5 4 -79q-12 -104 -49 -534q-3 -43 -43 -43h-107q-49 0 -30 45z" />
<glyph unicode="&#xc7;" horiz-adv-x="573" d="M-31 301q12 -76 48 -159t83 -130q10 -10 17 -14q29 -25 8 -57l2 4l-27 -43q-8 -10 -14 -41q0 -6 2 -11q6 -27 37 -32q2 0 6 -1t10 -2t11 -1q6 0 15 -1t13 -1q29 0 35 -2q2 -2 6 -2.5t6 -2.5q0 -6 -6 -14q0 -2 -33 -29q-12 -8 -77 -41q-37 -18 -23 -55t55 -18q56 28 93 53 l6 4q4 4 12 10t10 9l6 6q2 0 27 32q47 111 -74 132q-23 0 -29 6t-1.5 11t14.5 17q25 27 37 29q88 16 157 137q23 43 35 101q2 4 3 12t1 12q2 6 4 13.5t2 9.5q2 18 11 39q4 18 -4 30q-8 14 -24.5 17.5t-31.5 -4.5q-23 -14 -32 -76q0 -4 -9 -45q-10 -47 -24 -72 q-49 -82 -91 -93t-79 34q-84 92 -113 250q-23 141 31 421q6 27 16 82.5t17 75.5q47 188 123 275q47 57 104 44.5t66 -79.5q4 -4 -3 -37q-2 -12 -5 -28.5t-3 -20.5q-2 -16 9.5 -28.5t28 -12.5t29.5 12t15 29q0 6 6 26q0 12 4 41q0 6 1 18.5t1 16.5q-10 78 -64 118t-126 25 q-127 -25 -213 -229q-49 -121 -86 -319q-55 -297 -31 -451z" />
<glyph unicode="&#xc8;" horiz-adv-x="477" d="M-41 63q4 -16 6 -22q18 -29 72 -33q59 -8 231 10q16 2 28.5 15.5t12.5 29.5q2 16 -11 27.5t-30 9.5q-92 -8 -139 -12q-55 0 -74 2q-10 0 -14 2l2 14l8 78q4 27 9.5 70t7.5 59q25 156 38 285q3 37 44 43q49 6 92 23q41 14 30.5 53t-51.5 24q-10 -4 -29.5 -9t-27.5 -7 q-20 -4 -31.5 5t-9.5 32q14 139 16 246q0 23 -2 43q-2 68 0 98q4 14 15 16q2 0 6 1t6 1q123 25 246 15q16 -2 31.5 9t17.5 28q4 16 -6.5 29.5t-26.5 15.5q-133 10 -270 -17q-23 -2 -41 -10q-51 -23 -60 -88q-2 -14 -2 -57l4 -54v-34q-16 -303 -69 -687q-8 -47 -19 -131 l-8 -82q-4 -23 -2 -28v-13zM178 1491q-2 -12 6 -29q2 -2 35 -41l35 -28q2 -2 37 -33l37 -29q10 -10 28 -8q37 4 41 47q0 4 -1 8t-3 8.5t-4 6.5t-7 6t-9 7t-11.5 9t-13.5 10q-25 22 -37 31l-28 27q-14 12 -31 33q-8 14 -27 14q-16 0 -30.5 -11.5t-16.5 -27.5z" />
<glyph unicode="&#xc9;" horiz-adv-x="540" d="M-59 74q0 14 8 96q12 141 59 473q15 108 25 178q4 20 6 38t4 32t2 18l2 29q6 55 8 63q4 98 13 162l4 33q2 6 2 12l2 6q2 14 20 29l4 2q2 0 5.5 1t5.5 3h8q4 2 14 2h41q121 0 244 -10q53 -2 76 -8q39 -10 24 -51q-12 -23 -33 -29q-10 -2 -26.5 2t-20.5 4t-15 1t-20 1 q-49 2 -120 6q-37 2 -97 2q-37 0 -36 -6q-8 -63 -13 -162q-2 -8 -8 -63l-2 -29q-6 -39 -23 -170q-2 -18 13.5 -29.5t23.5 -11.5h2q18 0 86 7q16 2 29.5 -9.5t11.5 -27.5q0 -16 -12 -29.5t-29 -15.5q-74 -6 -88 -7q-6 0 -14 -1t-14 -1q-27 -2 -33 -43q-2 -12 -7 -56t-10 -66 q-29 -231 -32 -277q-8 -78 -8 -94q0 -2 1 -5t1 -5t6 -6.5t13 -6.5l7 -2q35 -6 96 -6q68 0 111 2t72 2q16 0 27.5 -12t9.5 -28.5t-15.5 -29t-29.5 -12.5q-29 0 -72 -2q-45 -2 -113 -2q-63 0 -106 6q-63 4 -80 35q-14 20 -10 68zM305 1389q2 14 17 28q41 33 139 105 q14 10 30.5 8t26.5 -14q23 -33 -14 -60q-100 -72 -131 -100q-17 -10 -31 -10q-41 0 -37 43z" />
<glyph unicode="&#xca;" horiz-adv-x="530" d="M-53 53q-3 3 0 13l2 26l8 76q2 20 14 98q0 6 1 13.5t1 9.5q0 4 3.5 33.5t7.5 56.5q2 53 16 186q2 31 8 98.5t8 98.5q4 43 10.5 106.5t10.5 104.5t8 71l10 95l2 28l4 9v6q4 10 9 14q8 14 45 29q39 8 43 8q152 20 317 16q16 0 26.5 -13t8.5 -29.5t-16.5 -28t-30.5 -11.5 q-150 4 -301 -16q-2 0 -6 -1t-6 -1q-12 0 -13 -12l-10 -93q-2 -16 -29 -282l2 12q-4 -41 0 -41h2q65 -12 136 -6q16 2 28.5 -9t12.5 -28q-4 -41 -43 -45q-52 -3 -105 0q-41 4 -47 -41l-29 -315q0 -2 -1 -10.5t-1 -14.5q-12 -76 -14 -98l-4 -37q-6 -41 12 -41q78 -10 287 -10 q16 0 27.5 -12.5t9.5 -29t-15.5 -28.5t-29.5 -12q-215 0 -293 10q-6 0 -19.5 1t-19.5 3q-2 0 -8 1t-9 3h-6q-12 0 -20 19q-4 6 -4 20zM109.5 1338.5q-5.5 15.5 5.5 31.5q53 102 100 146.5t100 29.5q33 -10 82 -59l35 -37q18 -20 49 -51q29 -29 0 -58q-35 -31 -59 -4 q-30 27 -53 52l-35 38q-20 20 -31 29q-16 12 -41 0v-2q-27 -25 -78 -117q-8 -14 -23.5 -20t-29.5 0q-16 6 -21.5 21.5z" />
<glyph unicode="&#xcb;" horiz-adv-x="567" d="M-29 193q-10 -127 2 -162q14 -37 80 -47q68 -10 223 -7q45 2 72 3q16 0 29.5 12t15.5 28.5t-9 28.5t-28 12q-27 0 -71 -2q-154 -4 -209 7q-2 0 -3 1t-6.5 3t-9.5 5t-6 6t-2 7v16q0 12 4 91q14 164 45 407q4 37 41 41q27 4 90 4q39 0 47 41q2 16 -9 28.5t-27 12.5 q-57 0 -82 -2q-23 -2 -32 8t-7 31q4 35 9 73t7 56t2 25q4 16 0 149v78q4 25 17 27q2 0 8 1t10 1q66 8 250 8q47 -2 84 -2q16 0 28.5 13t14.5 29.5t-10.5 28t-28.5 11.5h-213q-92 -4 -127 -9q-82 -12 -100 -45q-18 -29 -15 -151v-139q0 -6 -3 -31t-8 -69t-11 -91 q-35 -242 -62 -536zM170 1431.5q-2 -16.5 9 -28.5t27.5 -12t30 12t15.5 29q0 18 -10 28q-10 12 -26.5 12.5t-30 -12t-15.5 -29zM346 1433.5q-2 -16.5 9.5 -28.5t27.5 -12t29.5 12t15.5 29q0 18 -10 28q-8 12 -27 13q-16 0 -29.5 -12.5t-15.5 -29z" />
<glyph unicode="&#xcc;" horiz-adv-x="399" d="M-96 45q-2 -16 8 -28.5t27 -12.5q76 0 137 -2q119 -4 135 -4t29.5 12.5t15.5 28.5t-9 28.5t-28 12.5h-53q-39 2 -39 41q16 539 88 1026q6 41 47 41q45 0 70 -2q16 0 30.5 11t16.5 27.5t-8.5 30t-26.5 13.5q-144 6 -276 0q-16 0 -28.5 -13.5t-14.5 -30t10 -27.5t28 -11 q6 0 17.5 1t15.5 1q43 0 37 -43q-72 -481 -88 -1018q-4 -43 -43 -41h-53q-16 0 -29.5 -12.5t-15.5 -28.5zM98 1522q-25 -33 4 -58q10 -6 50 -41q27 -27 55 -47q12 -10 30.5 -7t28.5 17q10 12 9 30t-13 26l-51 43q-25 27 -55 49q-33 18 -58 -12z" />
<glyph unicode="&#xcd;" horiz-adv-x="419" d="M-39 20q2 16 17.5 26.5t31.5 8.5q6 -2 18.5 -2t18.5 -2q39 0 33 43q-8 258 55 752q25 205 37 291q2 20 -6 30.5t-23 8.5q-45 -4 -45 36q4 41 41 45q114 16 209 7q16 -2 26.5 -15.5t6.5 -29.5q-2 -16 -17.5 -27.5t-31.5 -9.5q-6 0 -18.5 1t-18.5 1q-37 4 -41 -39 q-2 -18 -14.5 -119.5t-24.5 -183.5q-20 -168 -41 -379l1 -164q-1 -69 -2 -183q-1 -30 -1 -32q-6 -37 35 -41q6 0 17.5 -1t15.5 -1q16 -2 26 -15.5t6 -29.5q-2 -16 -17 -27.5t-32 -9.5q-35 4 -112 6q-4 0 -117 8q-41 4 -33 47zM213 1393q0 14 14 28q82 61 119 99 q14 14 30.5 14t29 -11.5t10.5 -27.5q-4 -18 -15 -29q-4 -6 -61 -57q-58 -46 -61 -49q-14 -10 -31 -10q-18 0 -28.5 12t-6.5 31z" />
<glyph unicode="&#xce;" horiz-adv-x="536" d="M-35 -14.5q-4 16.5 6.5 32t26.5 19.5q35 10 70 16q43 4 38 45q0 92 27 285q14 127 16.5 139.5t32.5 321.5q23 260 25 274q4 37 -37 41q-51 0 -74 -2q-18 0 -29.5 11.5t-9.5 27.5t14.5 29.5t28.5 13.5q31 2 174 -2q33 0 73 -1t60.5 -2t32.5 -1q16 0 27.5 -12.5t9.5 -28.5 t-15 -28.5t-30 -12.5q-8 0 -41 1t-57 1q-41 2 -47 -39q-6 -57 -25 -272q-18 -212 -31 -320q-2 -25 -16 -145q-2 -12 -14 -98q4 15 3 -21q-2 -95 -9 -160q-2 -39 34 -39q6 0 21.5 -1t23.5 -1q37 -2 80 -2q16 0 27.5 -12t9.5 -28.5t-15.5 -29t-29.5 -12.5q-49 0 -86 2 q-131 4 -166 0q-41 -6 -80 -16q-16 -6 -30.5 2t-18.5 24.5zM160 1343l57 97q35 51 72 49q29 0 61 -37q12 -14 25.5 -29.5t20.5 -23.5t10 -10q12 -12 10 -29q-4 -43 -43 -43q-18 0 -31 12q-16 16 -35 37q-26 27 -51 -14l-27 -45q-20 -37 -55 -19q-35 16 -14 55z" />
<glyph unicode="&#xcf;" horiz-adv-x="542" d="M-57 -24.5q0 -16.5 13 -26.5t30 -8q209 29 356 -2q43 -4 53 32q10 39 -28 49q-53 10 -136 15q-37 2 -38 39q-12 227 34 522q18 152 29 287q0 2 4 137q0 84 4 117q0 43 47 39h47q37 0 45 41q2 16 -9 28t-27 12q-35 0 -70 3h-80q-70 -1 -156 -15q-39 -10 -34 -49 q0 -37 43 -33q14 4 73 13q20 2 29.5 -9.5t7.5 -31.5q-2 -18 -3 -60.5t-1 -64.5q-4 -129 -4 -131q-6 -117 -27 -277q-47 -289 -34 -524q2 -41 -41 -45q-25 -2 -88 -10q-16 -2 -27.5 -16.5t-11.5 -31zM104 1419.5q-2 -16.5 9.5 -29t28 -12.5t29.5 12.5t15 28.5q2 15 -8 29 q-12 12 -28.5 12t-30 -12t-15.5 -28.5zM299 1427q-2 -16 9 -28.5t27.5 -12.5t30 12.5t15.5 28.5q4 17 -8.5 29t-26.5 12q-39 0 -47 -41z" />
<glyph unicode="&#xd0;" horiz-adv-x="688" d="M-66 633q0 -37 43 -33q33 8 74 12q20 2 30.5 -8.5t8.5 -30.5l-8 -69q-2 -23 -13.5 -119t-15.5 -133q-16 -129 -12 -250q4 -20 14 -27q20 -20 54 0q6 6 18 21.5t20 21.5q166 119 307.5 307.5t157.5 340.5q12 106 -8 219.5t-72 199.5q-59 106 -157.5 148.5t-220.5 5.5 q-18 -4 -27 -18q-14 -20 -4 -41q2 -6 9 -16.5t9 -17.5t2 -18q-6 -90 -37 -389q-2 -39 -45 -43q-61 -8 -92 -14q-39 -10 -35 -49zM127 164q6 104 23 213q2 25 7 69t7 58l8 74q4 41 45 40q55 0 105 5q41 4 40 45q2 16 -10 27.5t-30.5 9t-94.5 -2.5q-20 -2 -30.5 9.5t-8.5 31.5 q31 299 37 390q6 45 45 41q117 -8 191 -134q94 -164 69 -374q-12 -117 -115.5 -262.5t-236.5 -260.5q-20 -18 -36.5 -12t-14.5 33z" />
<glyph unicode="&#xd1;" horiz-adv-x="624" d="M-63 61q-2 -16 9 -28.5t27.5 -12.5t29.5 12.5t15 28.5q2 14 6.5 47t12.5 95.5t16 115.5q68 473 76 648q3 37 30 -18q2 -4 5 -12q8 -17 12 -24q14 -37 53 -116q117 -243 166 -338q2 -2 4 -7.5t5.5 -17.5t3.5 -20q-18 -256 -11 -394q6 -39 47 -32q37 6 37 45 q-12 172 17 473q20 209 22 457q0 154 8 229q2 16 -9 28.5t-27 12.5q-37 0 -46 -41q-10 -98 -10 -238q-4 -246 -4 -264q-8 -100 -51 -10l-76 158q-101 215 -160 313q-47 70 -79 57q-16 -8 -24.5 -24.5t-2.5 -30.5q14 -43 8 -190q-8 -172 -76 -644q-8 -53 -16 -115.5t-12 -95 t-6 -47.5zM84 1242.5q6 -15.5 22 -19.5q39 -14 54 26q23 53 34 58.5t50 -13.5q57 -35 122.5 -22.5t135.5 90.5q29 29 0 57q-29 27 -60 -8q-45 -51 -80.5 -58t-76.5 17q-61 35 -111.5 16.5t-87.5 -112.5q-8 -16 -2 -31.5z" />
<glyph unicode="&#xd2;" horiz-adv-x="587" d="M-25 588q-12 -242 29 -417t141 -222q78 -39 151 36.5t110 178.5q59 156 95.5 403.5t22.5 413.5q2 70 -14 145q-43 176 -191 177q-47 0 -67.5 -6.5t-52.5 -32.5q-88 -70 -146.5 -256.5t-77.5 -419.5zM59 592q14 209 66.5 383t120.5 227q20 14 27.5 16.5t37.5 2.5 q90 0 119 -121q4 -10 8 -66q0 -8 1 -76.5t1 -80.5v-54q-4 -158 -35.5 -341t-74.5 -298q-29 -70 -73 -122t-73 -39q-70 35 -105.5 193.5t-19.5 375.5zM233 1503.5q3 -16.5 15 -24.5q23 -12 57 -39q55 -39 62 -43q12 -8 30.5 -4t26.5 18q10 14 7 30.5t-17.5 25t-53.5 40.5 q-43 33 -63 45q-39 18 -59 -16q-8 -16 -5 -32.5z" />
<glyph unicode="&#xd3;" horiz-adv-x="587" d="M-35.5 456.5q-3.5 -145.5 43.5 -272.5t142 -172q100 -51 172 6q90 78 153 439q33 182 62 458q0 10 -3.5 54.5t-11.5 110t-18 94.5q-35 86 -99.5 112.5t-162.5 -18.5q-182 -96 -254 -516q-20 -150 -23.5 -295.5zM56.5 343q-27.5 206 13.5 405q55 371 206 450 q102 53 154 -61q16 -47 17 -178.5t-3 -137.5q-53 -440 -108 -608q-33 -102 -66 -133q-20 -20 -80 6q-106 51 -133.5 257zM221 1403q-2 -16 9.5 -28.5t27.5 -12.5q15 0 31 12q61 55 131 105q37 27 14 59q-10 12 -26.5 14t-30.5 -8q-86 -65 -139 -112q-12 -10 -17 -29z" />
<glyph unicode="&#xd4;" horiz-adv-x="653" d="M-23 596q-33 -219 7 -354q37 -143 139 -222q59 -49 133 -41.5t139 76.5q84 88 125 273.5t74 511.5q16 291 -74 393q-45 57 -143 50t-178 -85q-66 -70 -97 -123q-49 -100 -59 -137q-4 -16 -10 -37.5t-8 -28.5q-18 -51 -27 -141q-6 -29 -21 -135zM59 592q0 18 9 61 q8 59 8 64q8 68 22 119q4 10 15 55q6 32 16 55l23 53q12 31 26 52q43 61 76 90q57 57 125 61q41 2 68.5 -28.5t40 -85t18.5 -104.5t3 -113.5t-4 -86t-3 -43.5q-55 -522 -162 -632q-82 -84 -162 -23q-88 68 -115 184q-31 131 -4 322zM192 1335.5q3 -16.5 17 -24.5 q37 -18 57 18q59 96 74 113q2 2 5 3t11.5 4t10.5 -1l10 -10q66 -66 86 -82q27 -27 59 6q27 26 0 55l-53 49q-6 6 -13 12.5t-10.5 10.5t-6.5 7l-3 3q-41 41 -76 41q-37 0 -64.5 -29.5t-81.5 -117.5q-3 -4 -4 -6.5t-4 -6.5t-5 -7t-4 -7q-8 -14 -5 -30.5z" />
<glyph unicode="&#xd5;" horiz-adv-x="696" d="M-4 514q-8 -119 12.5 -217t78.5 -174t153 -98q109 -23 168 16q106 63 170 362q25 113 55 388q0 4 2 6v178v57q-10 72 -25 101q-86 197 -260 135q-66 -27 -127 -88.5t-102 -141.5q-106 -197 -125 -524zM78 518q14 303 112 488q33 66 86 118q47 49 96.5 66.5t84.5 -0.5 q84 -43 94 -164q2 -35 -1 -153.5t-5 -143.5q-43 -369 -107 -516q-33 -84 -66.5 -104.5t-105.5 -2.5q-104 23 -151 136.5t-37 275.5zM164 1312.5q4 -16.5 16 -24.5q33 -18 58 19q41 66 73 77q18 6 58 -8q61 -31 113.5 -22.5t101.5 73.5q25 37 -6 58q-29 20 -58 -12 q-25 -37 -51 -37q-14 0 -66 18q-63 29 -120.5 5t-114.5 -116q-8 -14 -4 -30.5z" />
<glyph unicode="&#xd6;" horiz-adv-x="665" d="M-29 567q-18 -203 19 -354.5t135 -216.5q94 -63 176 -41q150 39 236 412q29 119 47 261t16 201q0 12 -8 76t-28.5 155t-45.5 128q-68 102 -162 104t-188 -116q-70 -96 -124 -263.5t-73 -345.5zM53 567q18 166 68.5 324t109.5 242q113 156 218 4q43 -66 61 -173.5 t6 -209.5q-14 -180 -53 -351.5t-86 -263.5q-45 -94 -88 -106q-18 -4 -53 6t-58 27q-162 106 -125 501zM281 1441.5q-2 -16.5 9 -28.5t27.5 -12t29.5 12t15 29q2 14 -8 28q-12 12 -28.5 12.5t-29.5 -12t-15 -29zM416 1450q-2 -16 9 -28.5t28 -12.5q37 0 45 41q-1 19 -11 29 q-10 12 -26.5 12t-29.5 -12.5t-15 -28.5z" />
<glyph unicode="&#xd7;" horiz-adv-x="542" d="M47 477q-29 -33 2 -57q29 -25 57 8l99 115q31 35 59 0q43 -61 105 -133q14 -10 30 -11q39 0 43 43q0 18 -10 29q-43 47 -115 147q-23 29 5 58l88 104q29 31 -2 58q-29 25 -58 -9l-71 -81q-31 -35 -60 -5q-43 53 -80 84q-31 25 -59 -8q-29 -31 2 -57q33 -27 88 -88 q21 -29 -4 -60z" />
<glyph unicode="&#xd8;" horiz-adv-x="649" d="M-6 174q29 -82 77 -137t109 -70q70 -18 137.5 23t120.5 135q74 129 121 438.5t0 446.5q-6 57 -38 119.5t-77 103.5q-53 51 -123.5 48t-136.5 -73q-125 -137 -190 -508q-61 -354 0 -526zM51 483q2 78 25 211q57 342 168 461q39 41 75 45q70 0 127 -113q23 -47 28 -76.5 t3 -101.5q0 -29 -24 -51q-18 -18 -56 -59l-84 -99l-65 -79l-94 -99l-54 -55q-20 -23 -35.5 -16.5t-13.5 32.5zM59 260q-6 31 11 53q25 33 123 140q135 139 204 225q40 49 52 61q18 23 33.5 14.5t13.5 -36.5q-14 -150 -49 -313.5t-80 -245.5q-78 -133 -158 -113 q-41 10 -78 53q-53 63 -72 162z" />
<glyph unicode="&#xd9;" horiz-adv-x="540" d="M13.5 745.5q-25.5 -362.5 0.5 -499.5q16 -98 90 -183q117 -127 220 -24q49 47 86 221q25 132 49 350q2 29 8 97.5t12 133t10 130.5q12 166 21 243q2 16 -9.5 28.5t-27.5 12.5t-29.5 -12t-15.5 -29q-8 -78 -20 -243q-4 -66 -10.5 -130.5t-12.5 -133t-8 -97.5 q-25 -215 -49 -342q-14 -57 -31 -118q-29 -82 -70 -72q-29 10 -57 43q-61 72 -76 145q-25 125 0 477.5t68 454.5q18 39 -23 53q-16 4 -31.5 -4t-21.5 -24q-47 -115 -72.5 -477.5zM213 1446q0 -20 10 -31q2 -2 39 -51q16 -23 47 -53q27 -27 62 4q29 29 0 57q-16 16 -47 55.5 t-35 45.5q-12 12 -29 12q-41 0 -47 -39z" />
<glyph unicode="&#xda;" horiz-adv-x="530" d="M-10 223q14 -86 55 -155q63 -111 159.5 -87.5t150 158.5t77.5 330q14 98 25 287q8 166 30 325q16 129 19 162q2 16 -9.5 28.5t-27.5 12.5t-29.5 -12t-15.5 -29q-4 -41 -18 -164q-20 -135 -23 -194q0 -4 -7 -128t-9 -159q-18 -176 -43 -268q-37 -145 -60.5 -200.5 t-66.5 -68.5q-41 -10 -76 45.5t-51 141.5q-14 78 7 359.5t44 428.5q16 88 22 109q7 39 17 53q20 39 -13 57q-37 14 -57 -20q-25 -41 -49 -195q-25 -158 -47.5 -443.5t-3.5 -373.5zM233 1370q-29 -33 5 -57q25 -23 55 8q49 59 160 143q33 27 12 58q-27 31 -57 4 q-118 -84 -175 -156z" />
<glyph unicode="&#xdb;" horiz-adv-x="544" d="M16 563q-12 -178 17 -323q16 -131 68.5 -213t148.5 -50q47 16 76 66q35 53 61 176q4 41 14 66q25 115 33 182q14 96 53 418q0 10 11 76q4 20 10 90q10 96 10 163q0 16 -13 26.5t-32 8.5q-16 -2 -27.5 -16t-11.5 -31q2 -55 -8 -151q-8 -72 -10 -86q-10 -66 -10 -80 q-2 -12 -9.5 -71.5t-13.5 -108.5q-27 -246 -64 -412q0 -10 -12 -66q-23 -102 -51 -147q-2 -2 -2 -4t-2 -4q-16 -23 -41 -19q-70 14 -98 207q-23 131 -15 309q10 154 31 314q4 35 7 67.5t5 54t2 27.5q0 2 4 101q3 49 11 90q4 16 -6.5 29.5t-26.5 15.5q-39 4 -49 -37 q-8 -49 -10 -105q-4 -92 -5 -94q0 -6 -2 -26.5t-5 -53t-7 -67.5q-20 -160 -31 -322zM186 1358q-8 -43 31 -47q16 -2 31.5 8t17.5 27q4 12 4 16q17 42 31 43l12 -12l17 -21q16 -20 30 -41q25 -33 56 -4q14 10 17 27.5t-7 29.5l-47 66q-37 39 -60 47q-55 16 -90 -31 q-29 -39 -43 -108z" />
<glyph unicode="&#xdc;" horiz-adv-x="526" d="M14 309q12 -98 35 -174q43 -137 131 -145q94 -8 158 137q66 147 108 487q29 244 46 592q2 16 -10.5 27.5t-29 11.5t-28.5 -13t-14 -30q-4 -51 -9.5 -156.5t-9.5 -148.5q-23 -334 -80 -586q-16 -86 -49 -157q-14 -37 -39 -66q-33 -37 -61 6q-16 20 -33 72q-22 65 -31 160 q-40 370 58 886q10 41 -31 45.5t-49 -36.5q-100 -530 -62 -912zM199 1419.5q-2 -16.5 9 -29t27.5 -12.5t30 12.5t15.5 28.5q1 15 -9 29q-12 12 -28.5 12t-29.5 -12t-15 -28.5zM324 1427q-2 -16 9 -28.5t27.5 -12.5t29.5 12.5t16 28.5q4 17 -8.5 29t-26.5 12q-39 0 -47 -41z " />
<glyph unicode="&#xdd;" horiz-adv-x="587" d="M-2 -18q-4 -16 5 -30.5t26 -17.5q41 -4 51 35q12 49 72 162q37 68 86 178l57 125q62 119 119 264l53 131q33 80 49 140q43 135 51 225q2 16 -8 28.5t-27 12.5q-39 0 -47 -41q-12 -133 -114 -391q-6 -18 -16.5 -25.5t-21.5 -3.5t-20 19q-47 98 -73 159q-74 176 -127 265 q-6 14 -23.5 18t-32 -6t-19.5 -27.5t3 -30.5q40 -65 123 -258q82 -184 117 -245q4 -6 7 -11.5t5 -8.5t4 -5q2 0 3 -2l3 -2q-37 -83 -184 -399q-4 -6 -9.5 -16.5t-14.5 -28t-15 -29.5q-63 -111 -82 -184zM326 1321q-14 -39 22 -49q39 -10 53 28q15 31 29 54l14 22 q31 43 45 58q23 35 -6 57q-31 20 -59 -12l-21 -27q-6 -8 -13 -17.5t-9 -13.5l-19 -28q-23 -31 -36 -72z" />
<glyph unicode="&#xde;" horiz-adv-x="659" d="M25 35q0 -16 12 -27.5t28.5 -9.5t28.5 15.5t12 29.5q5 151 15 309q6 39 16 39q2 0 7.5 1t7.5 1q41 12 90 25q66 14 102 26q137 41 199 109q43 47 37 131q-8 96 -64.5 141t-135.5 43t-173 -16q-20 -4 -31.5 6t-9.5 31q8 213 4 303q2 16 -11.5 26.5t-31.5 8.5 q-16 -2 -27.5 -16.5t-11.5 -30.5q6 -205 -25 -568q-39 -449 -38 -577zM135 508q2 6 3 18.5t1 18.5q4 49 6 69q10 92 11 109q2 37 41 45q129 33 209.5 12.5t89.5 -112.5q4 -47 -15 -66q-10 -12 -24.5 -22.5t-25.5 -17.5t-30.5 -15t-30 -12.5t-36 -11.5t-33.5 -9t-38 -8 t-34 -8q-37 -9 -51 -13q-20 -6 -32.5 0.5t-10.5 22.5z" />
<glyph unicode="&#xdf;" horiz-adv-x="733" d="M-39 -6q-2 -16 9.5 -28.5t27.5 -12.5t29.5 12t15.5 29q22 212 37 565q0 47 4 94q2 104 12 181q27 137 129.5 244.5t208.5 88.5q80 -14 108.5 -101t-18.5 -169q-25 -45 -73 -90t-95 -68q-18 -10 -57 -18q-18 -4 -25 -8q-29 -10 -36 -33q-6 -20 6 -37q27 -37 92 -20 q8 2 20 6q29 6 50 -4q49 -18 75 -58q61 -76 62 -200q0 -127 -73 -198t-237 -106q-39 -10 -34 -49q2 -37 43 -32q193 43 282 131q98 94 101.5 253.5t-76.5 254.5q-33 39 -64 57q-33 25 2 53q72 61 109 133q27 57 33 115q10 63 -8 117q-14 57 -58.5 99t-103.5 54 q-152 27 -283 -106t-162 -305q-12 -100 -14 -193v-43q0 -20 -1 -31.5t-1 -15.5q-14 -352 -37 -561z" />
<glyph unicode="&#xe0;" horiz-adv-x="581" d="M-68 16q14 80 45 308q59 453 123 677q31 104 99 195q33 47 69.5 67.5t73.5 6t59 -69.5q23 -53 27 -120.5t-2 -147.5t-29 -273q-2 -22 -4 -35.5t-4 -34t-4 -38.5q-25 -217 -20 -336q6 -143 55 -176q31 -27 6 -57q-25 -33 -57 -13q-74 51 -85.5 195.5t19.5 386.5l4 37 q6 41 -2 41q-102 0 -158 8q-43 3 -49 -37q-8 -47 -39 -266q-31 -236 -45 -322q-6 -41 -47 -37q-39 0 -35 41zM125 764q-6 -41 31 -45q47 -8 131 -8q35 2 41 41q37 313 -4 411q-2 2 -4.5 8.5t-4.5 8.5q-12 25 -39 -11q-2 -2 -6 -7t-8 -9q-55 -78 -82 -168q-20 -68 -55 -221z M250 1452q-20 31 16 57q29 25 53 -8q35 -51 89 -86q12 -8 14 -24.5t-6 -30.5q-23 -32 -58 -14q-70 45 -108 106z" />
<glyph unicode="&#xe1;" horiz-adv-x="552" d="M-59 4q8 -39 47 -28.5t32 49.5q-10 63 15 192l16 96l33 279q4 45 47 41q70 -6 172 4q20 2 30.5 -9.5t8.5 -31.5q-25 -219 -31 -298t-4 -160t23 -138q4 -14 19.5 -21.5t31.5 1.5q41 14 27 53q-16 51 -17.5 127t5.5 161t32 322q27 221 17.5 372.5t-70.5 215.5 q-98 98 -211 -17q-74 -76 -98 -182q-23 -104 -54 -360q-10 -90 -19 -169t-15.5 -129t-6.5 -57q0 -2 -2 -14t-6 -31.5t-8 -42.5q-27 -147 -14 -225zM102 760q16 133 45 264q14 74 74 137q51 51 90 8q74 -72 45 -407q-4 -39 -55 -45q-92 -6 -164 0q-39 2 -35 43zM201 1368 q23 -35 57 -6l55 39l66 49l55 43q14 14 15 31q4 16 -6.5 28.5t-26.5 12.5q-18 0 -33 -11q-47 -43 -117 -90q-10 -8 -28.5 -22.5t-26.5 -18.5q-33 -29 -10 -55z" />
<glyph unicode="&#xe2;" horiz-adv-x="542" d="M-63 18q6 -37 49 -30q35 6 34 47q-2 55 3 88q0 12 14 92q23 102 41 254q4 25 10 67t8 58q6 39 47 39h136q41 0 36 -41q-47 -428 4 -572q4 -14 20.5 -20t33.5 2q39 14 24 55q-27 109 -23.5 222.5t29.5 388.5q29 244 27 373.5t-49 181.5q-57 51 -110.5 35.5t-92.5 -80.5 q-68 -104 -125 -363q-20 -88 -55 -338q-10 -80 -23 -160q0 -6 -3 -18t-6 -33.5t-7 -40.5q-16 -68 -20 -104q-2 -20 -2 -103zM123 758q57 274 123 383q23 35 35 39t36 -19q31 -29 32 -135t-17 -268q-4 -43 -45 -43h-129q-41 0 -35 43zM179 1403q3 -17 18 -25q12 -8 29.5 -2 t27.5 21q23 41 43 57q8 8 20 -2q2 -2 5.5 -6t5.5 -6q14 -10 47 -56q12 -12 31 -12q39 0 45 41q-1 19 -9 29l-51 59q-31 31 -61 37q-70 18 -146 -104q-8 -14 -5 -31z" />
<glyph unicode="&#xe3;" d="M-88 31q-2 -16 6 -29.5t24.5 -15.5t32 9t17.5 28q23 96 67 469q9 55 13 98q10 39 39 45q61 20 182 24q20 2 29.5 -8t7.5 -33q-12 -168 -15 -186q-16 -272 9 -434q6 -39 47 -29q39 10 32 49q-31 219 13 629q20 207 22 297q10 319 -147 330q-162 10 -234 -309 q-43 -186 -77 -471q-43 -338 -68 -463zM96 1362q-20 -39 15 -53q39 -16 55 20q29 51 47 57.5t47 -16.5q39 -27 68.5 -34t63.5 16.5t61 83.5q16 37 -19 53q-35 14 -57 -25q-2 -10 -10 -18q-14 -31 -39 -21q-6 6 -19 13q-51 45 -107.5 29.5t-105.5 -105.5zM98 762 q45 258 90 350q27 53 57.5 71.5t57.5 -3t41 -78.5q23 -90 2 -318q-2 -39 -70 -43q-86 -4 -137 -14q-23 -6 -34 3t-7 32z" />
<glyph unicode="&#xe4;" horiz-adv-x="540" d="M-97 11.5q7 -15.5 23 -19.5q16 -6 31.5 2t22.5 24q35 72 53 230q6 72 12 94q2 10 6 41t12.5 90t16.5 121q6 43 43 45q66 6 156 6q43 0 38 -43q-16 -119 -16 -125q-37 -326 21 -438q6 -14 22 -18.5t30.5 4t20.5 25t0 30.5q-49 100 -12 395q4 55 14 121q4 33 10.5 78 t6.5 51q14 106 10 211v68q0 57 -6 90q-12 125 -84 153q-88 33 -160 -57t-108 -211q-47 -188 -76 -436q-2 -10 -27 -197q-6 -31 -12 -100q-18 -135 -47 -203q-8 -16 -1 -31.5zM102 762q16 100 45 205q20 80 68.5 147.5t81.5 54.5q43 -16 43 -174q0 -66 2 -71q2 -57 -6 -156 q-6 -41 -57 -41q-126 -4 -140 -6q-20 -2 -29.5 9t-7.5 32zM211 1419.5q-2 -16.5 9 -29t27.5 -12.5t30 12.5t15.5 28.5q2 15 -8 29q-12 12 -28.5 12t-30 -12t-15.5 -28.5zM338 1431.5q-2 -16.5 9 -28.5t27.5 -12t30 12t15.5 29q0 18 -10 28q-10 12 -26.5 12.5t-30 -12 t-15.5 -29z" />
<glyph unicode="&#xe5;" horiz-adv-x="602" d="M-86 4q6 47 29 168q23 98 32 160q25 182 76 456q2 6 9.5 50.5t10.5 55.5t11 50t14 56.5t17.5 50t22.5 54t27.5 47.5t35.5 46q51 63 110.5 70.5t116.5 -51.5q43 -51 53 -132t1 -173.5t-42 -276.5q-51 -309 -37 -426q12 -96 52 -150q20 -31 -13 -57q-31 -25 -57 4 q-98 143 -61 406q10 66 30 204q-4 29 -37 29h-170q-39 -4 -45 -41q-23 -172 -43 -276q0 -4 -32 -164q-14 -68 -29 -160q-2 -16 -15.5 -28.5t-30 -12.5t-27.5 12.5t-9 28.5zM129 768q-4 -20 5 -31.5t32 -9.5h168q39 0 45 41q53 311 -17 391q-31 31 -52 29t-52 -39 q-84 -100 -129 -381zM270 1440l2 12v4q0 8 4 25q27 109 111 118q45 6 79 -23.5t40 -80.5q4 -61 -38 -103t-97 -44q-57 -2 -86 41q-9 15 -13 36q0 2 -1 6.5t-1 8.5zM354 1454q-4 -25 23 -24q20 0 33.5 15t11.5 38q2 16 -9.5 26.5t-23.5 8.5t-24 -23q0 -4 -3 -6q-4 -8 -4 -12 t-2 -10.5t-2 -10.5v-2z" />
<glyph unicode="&#xe6;" horiz-adv-x="847" d="M-50 499.5q3 -16.5 17 -24.5q12 -8 29.5 -4t26.5 18q6 10 13 19.5t11 14.5t7 10.5t5 8.5l2 3q16 23 64.5 56.5t101.5 33.5q88 0 76 -162q-2 -43 -47 -37q-57 8 -119 -35q-76 -51 -126 -153.5t-40 -184.5q12 -90 99.5 -111.5t169.5 25.5q39 18 53 -16q-3 9 1 9 q-1 0 38 -15q37 -16 88 -10q94 8 156.5 56t111.5 142q18 35 -18 54q-14 6 -31.5 -1.5t-26.5 -23.5q-33 -70 -77 -104q-41 -33 -105.5 -40.5t-77.5 17.5q-25 35 2 213q8 41 49 35q98 -12 181 35q106 61 156.5 169.5t-1.5 188.5q-33 47 -100.5 54.5t-131 -13t-112.5 -55.5 q-31 -23 -53 4q-41 41 -106 41q-94 0 -168 -62q-51 -43 -62.5 -55.5t-48.5 -69.5q-10 -14 -7 -30.5zM55 84q-8 55 31 135t92 117q47 33 82 8l6 -6q4 -4 9.5 -16.5t3.5 -24.5q-20 -150 -23 -184q0 -31 -33 -31q14 0 -13 -25q-22 -19 -46 -26q-43 -10 -75 5t-34 48zM375 393 l1 3q1 3 2 9.5t1 14.5q6 37 10 98q0 31 4 35t4 8q35 59 127 86q111 31 146 -10t-8 -121q-37 -74 -107 -115t-145 -22q-35 8 -35 14z" />
<glyph unicode="&#xe7;" horiz-adv-x="552" d="M-51 379q-18 195 39 475q16 72 70.5 176.5t115.5 173.5q59 68 115.5 90.5t109 -8.5t84.5 -121q33 -84 19 -166q-10 -41 -49 -36q-16 2 -26.5 15t-6.5 30q10 51 -14 125q-20 59 -46 78.5t-56 4t-71 -60.5q-53 -59 -102 -154.5t-61 -154.5q-55 -266 -41 -451 q12 -121 38.5 -187.5t86.5 -115.5q39 -31 61 -37h10q20 0 33 11q8 8 12 14q31 35 84 186q2 16 18.5 25.5t33.5 5.5q16 -2 23 -18.5t1 -32.5q-59 -168 -96 -215q-29 -35 -68 -51q-31 -12 -49 -33l-14 -23l20 27q-8 -14 -7 -25.5t6 -18.5l5 -7q115 -33 95 -115 q-8 -33 -25.5 -54.5t-46.5 -30.5t-55.5 -13t-65.5 -4q-16 0 -28.5 11t-10.5 27.5t14.5 29.5t28.5 13q59 4 78 9q25 6 31 20q0 6 -4 10q-16 16 -91 29q-4 0 -11 1t-11 3q-2 0 -3 1l-3 1q-16 0 -25 19q-12 14 0 34q0 7 2 11l13 20q2 2 24 39q14 31 -14 49q-12 8 -21 17 q-74 63 -106.5 142t-42.5 210z" />
<glyph unicode="&#xe8;" horiz-adv-x="534" d="M-18 84q2 33 18 172q2 12 4 23.5t3 18.5t2 12t1 7q12 135 15 326q6 256 14 334q0 2 6 51q3 46 6 80q6 55 15 82q10 51 40 72q23 12 82 12q143 4 285 -17q39 -12 29 -47q-10 -39 -49 -34q-135 23 -273 16h-33v-8q-6 -12 -8 -31q-4 -20 -6 -45q-3 -34 -6 -80q-6 -49 -6 -51 q-10 -147 -12 -201q0 -39 38 -39h78q16 0 27.5 -12t9.5 -28.5t-15.5 -29t-29.5 -12.5h-70q-41 0 -41 -4q-2 -190 -14 -334q0 -2 -2 -9t-4 -22.5t-4 -29.5q-18 -145 -19 -162q2 -8 7.5 -16t9.5 -12l4 -5q31 -4 199 0q41 2 69 2q16 0 27.5 -12t9.5 -28.5t-15.5 -28.5 t-29.5 -12q-2 0 -174 -7q-65 0 -104 7q-61 4 -80 34q-10 23 -4 68zM167 1513.5q7 22.5 26.5 30.5t39.5 -4q4 -2 10.5 -7t15.5 -12.5t15 -13.5l37 -32q47 -33 78 -43q37 -14 18.5 -53.5t-55.5 -24.5q-63 29 -94 55q-18 10 -43 33l-37 33q-18 16 -11 38.5z" />
<glyph unicode="&#xe9;" horiz-adv-x="540" d="M-47 18q25 -55 174 -51q4 0 127 6q18 2 34.5 2t29 13.5t14.5 30t-10.5 27.5t-29 11t-34.5 -2q-117 -6 -125 -6q-41 0 -82 4q-12 2 -17 6t-3 13q-2 14 4 41q2 10 5 29.5t6 33.5t3 19q27 154 41 372q2 4 3 14.5t1 16.5q2 41 45 41q6 0 20.5 1t22.5 1q16 0 28.5 13.5 t14.5 29.5t-10 27.5t-29 11.5q-8 0 -23.5 -1t-21.5 -1q-39 0 -35 43q4 41 9.5 105.5t5.5 68.5q4 12 4 59q2 18 5 49t3 35q2 45 10 78q8 23 19 23q4 2 14 2q51 6 191 6q30 -2 67 -2h45q16 0 28.5 13t14.5 29.5t-9 28t-30 11.5q-35 0 -80 2q-170 0 -227 -6q-66 -4 -90 -33 q-16 -20 -25 -68q-8 -43 -10 -86q-4 -27 -8 -82q0 -47 -4 -59q-6 -55 -31 -373q-20 -250 -41 -366q0 -4 -3 -18.5t-6 -35t-5 -28.5q-10 -68 0 -99zM205 1372q6 -8 11 -13t12.5 -6t12.5 -1t14 6l12 8q3 2 13.5 10t12.5 10l33 23q22 19 55 33l33 16q39 18 28 53q-14 37 -53 21 q-27 -10 -76 -37q-41 -25 -63 -43l-31 -22q-35 -25 -14 -58z" />
<glyph unicode="&#xea;" horiz-adv-x="528" d="M-37 61q0 19 2 31l8 86q2 18 8.5 60.5t8.5 50.5l4 28q8 88 20 181q8 59 23 209q8 57 16 178q0 4 1 17t1 22q-4 72 -2 114q0 117 19 160q14 41 92 53q84 14 311 4q16 0 26.5 -13t6.5 -30q-2 -16 -16.5 -27t-30.5 -11q-143 6 -187 4q-63 0 -106 -7q-2 0 -6 -1t-6 -1 q-14 -4 -19 -39v-4q-4 -86 -2 -137q0 -12 1 -32.5t1 -28.5t-1 -21.5t-1 -17.5q-4 -84 -10 -127q-4 -41 37 -41h106q16 0 27.5 -12.5t9.5 -28.5t-15.5 -28.5t-29.5 -12.5h-106q-41 0 -48 -41q-2 -10 -14 -126t-16 -155l-4 -28q0 -4 -7.5 -49t-9.5 -64l-8 -82l2 19 q0 -10 5 -21.5t11 -16.5l5 -5q43 -8 90 -11q35 -2 166 -2q16 0 27.5 -12t9 -28.5t-15.5 -29t-30 -12.5q-201 0 -270 15q-61 12 -76 37q-8 10 -8 34zM119 1382l84 101q49 49 76 49q35 0 59 -49q49 -84 51 -88q20 -33 -14.5 -57.5t-57.5 8.5q-2 4 -10 17t-19.5 31.5 t-21.5 39.5q-15 -14 -35 -39l-51 -62q-33 -35 -59 -8q-31 29 -2 57zM287 1454l16 14q-2 -2 -8 -7t-8 -7z" />
<glyph unicode="&#xeb;" horiz-adv-x="528" d="M-41 27l2 41l4 47q25 203 29 239q6 57 12 90q0 8 1 18.5t2 16.5t1 8q0 4 2 21.5t4 55.5t7 77q29 360 47 467q2 16 5 30.5t6 30t5 21.5q20 51 45 63q35 18 180 9q139 -10 174 -23q37 -14 18.5 -53t-54.5 -25q-53 23 -246 23h-19q-14 0 -18 -10q-10 -41 -14 -72 q-16 -100 -35 -330q-2 -20 8 -30.5t31 -6.5q4 0 15 2t21.5 3t20.5 3q18 2 31.5 -8t13.5 -26q-4 -43 -41 -47q-14 -2 -37.5 -5.5t-34.5 -5.5q-39 -6 -45 -45q-6 -111 -8 -119q0 -2 -1 -8t-2 -16t-1 -19q-23 -178 -25 -190q-4 -35 -9 -81t-7 -58v4q0 -12 3 -22.5t7 -14.5l4 -4 q111 -14 269 6q16 2 28.5 -8t12.5 -27q-4 -43 -43 -47q-158 -20 -281 -6q-25 0 -43 6q-28 8 -12 -38q1 -2 2 -5l4 -12q-33 83 -39 80zM166 1419.5q2 16.5 15.5 28.5t29.5 12t29 -12q10 -14 8 -29q-2 -16 -15.5 -28.5t-30 -12.5t-27.5 12.5t-9 29zM330 1427q8 41 47 41 q14 0 26.5 -12t8.5 -29q-2 -16 -15.5 -28.5t-30 -12.5t-27.5 12.5t-9 28.5z" />
<glyph unicode="&#xec;" horiz-adv-x="518" d="M-82 26.5q-2 -16.5 8.5 -28.5t26.5 -12q68 0 317 12q16 0 28.5 13.5t14.5 29.5t-10 27.5t-29 11.5q-8 -2 -28.5 -3t-30.5 -1q-45 -4 -45 2q0 4 2 6q8 88 41 334q8 84 22.5 194.5t16.5 137.5l10 133q6 152 33 252l10 26v4q84 -2 148 -2q16 0 29.5 12.5t15.5 29t-9.5 28.5 t-27.5 12q-57 0 -101 2h-92q-117 2 -198 -6q-16 -2 -28.5 -15.5t-12.5 -29.5q-2 -16 11 -27.5t30 -9.5q39 2 106 6q43 0 33 -45q-20 -90 -31 -246q-2 -25 -4 -53t-3 -44.5t-1 -26.5q-2 -29 -15.5 -139.5t-23.5 -192.5q-33 -246 -41 -334q-16 -14 -43 -16h-84 q-16 0 -29.5 -12.5t-15.5 -29zM182 1464q-29 -33 2 -59l29 -25q25 -16 35 -22l35 -21q12 -8 30.5 -2t26.5 21q23 37 -12 55l-33 19q-15 8 -25 16l-28 24q-29 25 -60 -6z" />
<glyph unicode="&#xed;" horiz-adv-x="421" d="M-109 18q-6 -41 33 -45q172 -12 314 9q16 2 28.5 16t12.5 30.5t-13.5 27t-32.5 7.5q-12 -2 -37.5 -5t-37.5 -5q-20 -2 -29.5 8.5t-9.5 32.5q18 227 31 344q2 25 45 387q6 59 20 180t18 169q6 39 48 40q46 3 86 7q39 4 39 47q0 16 -12.5 26.5t-31.5 8.5q-55 -8 -133 -9 q-43 0 -73 2h-70q-16 0 -29.5 -12t-15.5 -28.5t9.5 -29t27.5 -12.5h39q41 0 35 -40q-4 -47 -18.5 -168t-20.5 -181q-43 -362 -45 -387q-12 -117 -31 -344q-4 -45 -47 -41q-33 0 -49 2q-41 4 -50 -37zM186 1427q-4 -43 37 -43q15 1 31 11l90 75q14 14 14 29q2 16 -8 29.5 t-26 13.5q-14 0 -31 -10l-90 -76q-14 -14 -17 -29z" />
<glyph unicode="&#xee;" horiz-adv-x="546" d="M-53 53.5q-2 -16.5 8 -30t27 -13.5q178 -9 380 0q16 0 28.5 13.5t15 30t-10 27.5t-28.5 11q-18 0 -57.5 -1t-57.5 -3q-43 0 -43 6v8q2 14 8 63.5t16.5 141.5t22.5 189q35 313 39 389q0 8 2 42t4 60q2 68 6 96q0 23 8 54q6 41 50 41q68 -2 114 -2q37 0 45 41q2 16 -9 28 t-28 12q-362 0 -391 -2q-37 0 -45 -43q-2 -16 10.5 -27t28.5 -11q16 2 53 3t56 1q43 0 32 -43l-8 -58q0 -8 -2 -42t-4 -58q-4 -90 -4 -92q-4 -72 -39 -391q-10 -94 -22.5 -187.5t-17.5 -141.5t-7 -63q0 -10 2 -14l-135 4q-16 0 -30.5 -11t-16.5 -27.5zM131 1362 q-2 -18 9.5 -29.5t29.5 -11.5q15 0 31 12l67 68q33 33 58 0l-13 16q33 -43 93 -92q12 -10 31.5 -7t29.5 17q10 12 8 29.5t-12 26.5q-55 45 -82 79l-21 27q-12 16 -26 25q-35 16 -86 -31l-103 -100q-10 -10 -14 -29z" />
<glyph unicode="&#xef;" horiz-adv-x="507" d="M-80 49.5q-2 -16.5 9.5 -29t27.5 -12.5q250 0 324 6q41 4 41 45q0 16 -11.5 27.5t-29.5 9.5q-8 -2 -22.5 -3t-22.5 -1q-20 -2 -30.5 8.5t-8.5 32.5l-4 -33q4 121 16 236q6 63 14 113q4 33 10.5 77.5t6.5 51.5q4 37 13 139t15 166q14 197 23 256q4 37 45 41q76 0 110 2 q16 0 28.5 13t15 29.5t-10 28t-28.5 11.5q-137 -6 -365 -7q-16 0 -29.5 -12t-15.5 -28.5t9 -28.5t28 -12h94q41 0 35 -41q-4 -47 -21 -252q-6 -63 -15 -166t-13 -139q0 -4 -6.5 -49.5t-10.5 -77.5q-4 -25 -6 -48.5t-4 -42t-2 -22.5q-18 -144 -18 -246q0 -2 -43 -2h-103 q-16 0 -29.5 -12t-15.5 -28.5zM106.5 1402.5q-2.5 -16.5 9 -28.5t28 -12t29.5 12t15 29q2 15 -8 29q-12 12 -28.5 12t-29.5 -12.5t-15.5 -29zM309 1419.5q-2 -16.5 9.5 -29t27.5 -12.5t29.5 12.5t15.5 28.5q2 15 -8 29q-12 12 -28.5 12t-30 -12t-15.5 -28.5z" />
<glyph unicode="&#xf0;" horiz-adv-x="610" d="M-48.5 162.5q21.5 -107.5 81.5 -180.5q106 -123 230 -89.5t181 170.5q80 188 54 500q-12 141 -46 249t-118 235q-20 31 14 55q12 10 45 31q14 8 20.5 25.5t-1.5 31.5q-8 12 -25.5 15t-30.5 -7q-37 -23 -57 -39q-33 -20 -59 4q-76 72 -150 86q-39 4 -49 -32 q-14 -39 25 -50q47 -8 106 -57q29 -29 -4 -59q-23 -25 -64 -78q-25 -37 9 -55q39 -18 57 14q29 37 45 55q31 35 49 10q88 -133 123 -264q2 -8 6 -28q12 -45 -41 -46q-182 12 -297 -100q-72 -72 -98.5 -180.5t-5 -216zM25 272q2 156 98 242t274 57h11q6 0 12 -36 q6 -125 -2 -226q-27 -291 -146 -329q-100 -31 -172.5 58t-74.5 234z" />
<glyph unicode="&#xf1;" horiz-adv-x="518" d="M-66 4q-2 -16 9.5 -28.5t28 -12.5t29.5 12.5t15 28.5q14 127 50 414q12 106 27.5 246.5t17.5 164.5q0 2 6 -25.5t13 -64.5t11 -51l-18 100q88 -455 90 -481q4 -41 29 -180l16 -82q0 -4 1 -13t3 -14l4 -8v-8q0 -2 2 -3l2 -3q12 -12 25 -14q49 -8 70 49q4 14 14 114v15v10 v6q4 45 12 127q14 190 17 236q6 127 16 231q6 90 27 231q10 84 43 230q4 16 -4.5 30.5t-24.5 16.5q-18 2 -33.5 -8t-17.5 -27q-33 -137 -45 -237q-18 -141 -27 -236q-10 -98 -16 -235q-2 -27 -4.5 -52.5t-3.5 -40t-1 -20.5q0 -2 -1 -6t-2 -14.5t-3 -20.5t-3 -23.5t-3 -24.5 t-3 -20.5t-2 -14.5l-1 -5q0 6 -1 16t-1 15q-8 45 -92 489q-31 152 -51 274q-2 20 -7 54v47q0 23 3 33q0 6 -3 10q2 6 -2 18q-4 10 -16 17q-25 14 -47 -6q-10 -10 -12 -17q-6 -12 -11 -49q2 -18 2 -31q0 -2 2 -4l-6 -57l-28 -273q-2 -25 -17.5 -165t-27.5 -246 q-35 -287 -50 -414zM66 1372q-29 -33 2 -57q29 -25 57 8q43 51 68 51q8 0 53 -22q51 -37 118.5 -18.5t149.5 106.5q27 29 0 59q-27 23 -59 -6q-68 -74 -107 -82q-25 -4 -59 14q-43 25 -73 31t-68.5 -13.5t-81.5 -70.5z" />
<glyph unicode="&#xf2;" horiz-adv-x="548" d="M-39 623q-10 -291 17.5 -425.5t154.5 -189.5q106 -49 178 33q57 63 95 199.5t47.5 216.5t24.5 254q1 27 3 39q16 303 0 358q-33 104 -96 142t-143 3q-63 -29 -119.5 -96t-87.5 -147q-65 -163 -74 -387zM44 615.5q15 240.5 67 373.5q27 70 69 119q92 109 158 72 q40 -25 61 -105q11 -18 7 -69v-134q0 -12 -3.5 -43.5t-3.5 -50.5q-8 -117 -28 -293q-41 -307 -119 -395q-14 -18 -30.5 -19t-49.5 11q-102 47 -127 227q-16 66 -1 306.5zM248 1458q72 -70 121 -96q35 -18 57.5 18.5t-12.5 55.5q-44 23 -107 84q-25 29 -57 -4q-31 -29 -2 -58 z" />
<glyph unicode="&#xf3;" horiz-adv-x="604" d="M-43 578q-4 -195 47 -377q25 -90 61.5 -143.5t94 -70t129.5 35.5q104 68 182 405q59 252 76 434l2 2v4q18 170 -31 283t-184 113q-70 0 -117 -33q-109 -74 -181.5 -274.5t-78.5 -378.5zM39 582q8 162 71.5 344t149.5 239q25 16 66 17q88 0 121.5 -86.5t19.5 -227.5v-4 l-2 -2q-16 -174 -74 -424q-35 -145 -69 -229q-39 -96 -83 -128t-83 5q-43 41 -74 145q-23 86 -35 190.5t-8 160.5zM252 1366q6 -14 23.5 -18.5t31.5 4.5q37 20 88 53q23 14 50.5 31.5t33.5 21.5q37 25 18.5 57.5t-55.5 12.5l-86 -55q-82 -51 -84 -52q-14 -8 -20 -24.5 t0 -30.5z" />
<glyph unicode="&#xf4;" horiz-adv-x="571" d="M-53 195q8 -68 51 -127q98 -135 229 -82q147 57 219 356q31 137 42.5 312.5t5.5 273.5q-2 8 -3.5 48t-5.5 78t-12 54q-51 125 -162 147q-125 23 -211 -118q-78 -127 -128 -454t-25 -488zM27 215q-23 154 25 463t118 422q53 84 120.5 73.5t104.5 -102.5q12 -29 15 -49 q6 -55 6 -221q0 -240 -54 -461q-37 -147 -94 -228t-135 -51q-86 39 -106 154zM137 1349.5q27 -26.5 60 4.5q6 6 20 21.5t21 23.5q4 4 7 8t6 7l5 5q2 2 3 4l1 2l16 11q2 0 5 -2l59 -60q10 -10 29 -10q39 0 43 43q2 14 -9 29q-47 49 -67 63q-41 29 -69.5 23t-63.5 -45 q-11 -11 -23 -27l-41 -43q-29 -31 -2 -57.5z" />
<glyph unicode="&#xf5;" horiz-adv-x="641" d="M-22.5 380q18.5 -147 106.5 -282q113 -182 244 -88q82 61 153 269q53 162 80 358.5t10 271.5q-18 148 -73 242q-53 92 -129 110.5t-172 -55.5q-123 -102 -189 -407q-49 -272 -30.5 -419zM61 385q-25 164 33 423t150 337q106 88 182 -39q68 -115 68 -330 q-12 -119 -15 -129q-27 -199 -82 -364.5t-114 -208.5q-27 -16 -47 -8q-41 16 -80 81q-72 111 -95 238zM109 1327q-20 -37 18 -53q14 -6 29.5 0t23.5 20q33 63 56.5 69.5t66.5 -24.5q66 -45 121 -17t96 148q8 43 -28.5 49.5t-51.5 -32.5q-27 -84 -47 -94q-9 -3 -43 18 q-37 20 -64.5 28.5t-58 3.5t-60 -34t-58.5 -82z" />
<glyph unicode="&#xf6;" horiz-adv-x="657" d="M-25 604q-29 -229 8 -396t144 -218q131 -66 240 65q76 94 137 287q45 147 70.5 319t23.5 295q6 117 -47 211q-49 86 -126 108.5t-177 -38.5q-98 -66 -172 -243t-101 -390zM57 602q27 199 91.5 358.5t140.5 210.5q119 82 190 -49q60 -108 33 -309q-27 -254 -83 -443.5 t-122 -265.5q-66 -74 -141 -41q-76 39 -105.5 186.5t-3.5 352.5zM246 1441.5q-2 -16.5 9 -28.5t27.5 -12t30 12t15.5 29q1 14 -9 28q-12 12 -28.5 12.5t-29.5 -12t-15 -29zM436 1450q-2 -16 9.5 -28.5t27.5 -12.5q37 0 45 41q0 19 -10 29q-10 12 -26.5 12t-30 -12.5 t-15.5 -28.5z" />
<glyph unicode="&#xf7;" horiz-adv-x="704" d="M-12 641q-2 -16 9 -28.5t28 -12.5q113 0 278.5 8t278.5 8q16 0 29.5 12.5t15.5 29t-9.5 28.5t-27.5 12q-113 0 -277 -8q-169 -8 -280 -8q-16 0 -29.5 -12.5t-15.5 -28.5zM213 469q-2 -16 9 -28.5t27.5 -12.5t30 12.5t15.5 28.5q2 15 -8 29q-12 12 -28.5 12t-30 -12.5 t-15.5 -28.5zM235.5 884.5q-2.5 -16.5 9 -28.5t27.5 -12q37 0 45 41q0 18 -10 28q-8 12 -26 13q-16 0 -29.5 -12.5t-16 -29z" />
<glyph unicode="&#xf8;" horiz-adv-x="593" d="M-36 239.5q32 -216.5 138 -262.5q82 -35 172 37q139 102 195 346q18 76 33 193q2 14 5 48t5 50q3 58 6 80l4 49q18 172 17 240l-7 47q-23 160 -151 193q-145 39 -250.5 -125t-153.5 -439q-45 -240 -13 -456.5zM37 452.5q-2 12.5 0 28.5q20 377 145 588q51 86 111.5 106.5 t103.5 -16.5t54 -110q4 -25 4 -39q0 -2 -6 -9q-61 -66 -138 -190q-59 -96 -112 -170q-64 -84 -113 -166q-18 -29 -29.5 -38t-14.5 -3t-5 18.5zM45 272v9q176 262 219 315q34 46 117 178l12 19q8 14 14.5 23t15.5 18.5t12 5.5t7 -15.5t-2 -44.5l-4 -49q-2 -20 -6 -82 q-2 -16 -5 -49t-5 -45q-12 -98 -31 -184q-49 -209 -162 -295q-47 -35 -84 -21q-73 31 -98 217z" />
<glyph unicode="&#xf9;" horiz-adv-x="520" d="M0 285q-4 -84 9.5 -148.5t56.5 -112t116 -42.5q45 2 75 20t49.5 58t29.5 79t24 110q2 7 2 10t2.5 9t2.5 11q59 289 106 727q0 6 14 102q10 68 13 113q0 16 -12.5 27.5t-28.5 8.5q-39 -4 -43 -45q0 -33 -10 -98q-4 -35 -9.5 -69.5t-5.5 -38.5q-41 -393 -106 -719 q-29 -135 -46.5 -178t-52.5 -46q-59 -2 -83.5 61t-20.5 165l20 481q20 334 70 451q16 39 -20 53q-41 10 -56 -29q-45 -102 -60.5 -255.5t-28.5 -526.5q-5 -115 -7 -178zM207 1466q-23 -39 16 -53q12 -6 64 -33q12 -6 24.5 -12t22.5 -11l14 -7q33 -18 60 20q8 14 2.5 30.5 t-21.5 22.5l-61 31q-51 27 -64 33q-37 16 -57 -21z" />
<glyph unicode="&#xfa;" horiz-adv-x="518" d="M1 145.5q1 -73.5 30.5 -123t93.5 -63.5q137 -27 203 111q27 55 53 194q100 631 100 940q0 16 -12 27.5t-28.5 9.5t-29 -15.5t-12.5 -29.5q-4 -313 -100 -928q-18 -119 -45 -170q-33 -72 -104 -57q-49 10 -59.5 70.5t-4.5 205.5q4 127 39 461q35 380 39 441q2 16 -10.5 27 t-28.5 11t-28.5 -13t-14.5 -30q-4 -53 -39 -438q-33 -330 -41 -463q-2 -94 -1 -167.5zM207 1339q-2 -16 9 -28.5t27.5 -12.5t28.5 13q55 49 131 108q33 27 13 58q-27 31 -60 4q-76 -60 -135 -113q-14 -14 -14 -29z" />
<glyph unicode="&#xfb;" horiz-adv-x="481" d="M-2 211q4 -180 61 -227q59 -47 115.5 -41t99.5 59q61 72 78 197q57 451 88 997q2 16 -10 27.5t-29 11.5q-37 0 -45 -43q-29 -551 -86 -993q-12 -98 -55 -150q-23 -23 -41 -24q-25 -4 -48.5 16t-33.5 61q-10 51 -10 119q-8 180 41 600q37 313 35 387q0 18 -12.5 28.5 t-28.5 8.5q-41 -4 -41 -45q0 -82 -35 -377q-49 -424 -43 -612zM121 1355.5q2 -16.5 14 -26.5t30.5 -7t27.5 17q33 39 47 58q2 2 4 5t2 5q25 31 33 23l2 -2l2 -1q18 -14 57 -67q25 -33 57 -4q14 10 17.5 27.5t-6.5 29.5q-35 51 -66 78q-74 63 -147 -27l-17 -18 q-18 -25 -22 -31l-25 -31q-12 -12 -10 -28.5z" />
<glyph unicode="&#xfc;" horiz-adv-x="499" d="M31 211q4 -180 61 -227q59 -47 115.5 -41t99.5 59q61 72 78 197q57 451 88 997q2 16 -10 27.5t-29 11.5q-37 0 -45 -43q-29 -551 -86 -993q-12 -98 -55 -150q-23 -23 -41 -24q-25 -4 -48.5 16t-33.5 61q-10 51 -10 119q-8 180 41 600q36 313 34 387q0 18 -12 28.5 t-28 8.5q-41 -4 -41 -45q0 -82 -35 -377q-49 -424 -43 -612zM213 1396.5q-2 -16.5 9 -28.5t27.5 -12t30 12t15.5 29q0 18 -10 28q-10 12 -26.5 12.5t-30 -12t-15.5 -29zM330 1402.5q-2 -16.5 9 -28.5t27.5 -12t30 12t15.5 29q1 15 -9 29q-12 12 -28.5 12t-29.5 -12.5 t-15 -29z" />
<glyph unicode="&#xfd;" horiz-adv-x="604" d="M31 1212q23 -51 67 -168q96 -252 176 -352q18 -27 7 -55l-17 -33l-28 -67q-10 -18 -31 -64l-29 -67l-26 -66q-12 -29 -29 -70q-29 -68 -49 -135l-21 -65q-2 -8 -9 -33t-9 -37q-8 -43 33 -47q39 -4 49 35q23 90 61 194q44 121 150 369l80 174q27 59 90 258q51 168 88 246 q18 41 -19 53q-37 14 -55 -25q-43 -89 -92 -258q-29 -94 -60 -182q-10 -25 -27.5 -28t-29.5 18q-55 88 -127 283q-37 98 -68 163q-18 33 -55 15q-14 -8 -20 -24.5t0 -31.5zM250 1354q-2 -18 9 -29.5t29.5 -11.5t26.5 12q52 49 99 86q16 12 16 29q2 16 -8 29.5t-27 13.5 q-14 0 -28 -10q-35 -28 -103 -91q-14 -14 -14 -28z" />
<glyph unicode="&#xfe;" horiz-adv-x="688" d="M-35 -211q-2 -16 9.5 -28.5t27.5 -12.5t29.5 12.5t15.5 28.5q10 84 21 268q2 27 14 32t31 -15q96 -109 233 -70q90 27 151.5 111t75.5 200q18 145 -8 306t-98 223q-82 63 -156.5 51t-142.5 -84q-7 -8 -10 9q-6 28 0 87q20 181 20 269q0 41 -43 36q-41 -4 -41 -45 q-6 -145 -12 -217q-6 -66 -31 -219q-45 -276 -61 -586q-15 -273 -25 -356zM104 506v4l2 4q2 2 3 4v6q27 139 116 234q90 100 185 20q51 -45 73.5 -190.5t8.5 -272.5q-10 -90 -55.5 -151.5t-104.5 -79.5q-61 -18 -117.5 15.5t-91.5 117.5q-39 103 -19 289z" />
<glyph unicode="&#xff;" horiz-adv-x="559" d="M-18 8q-16 -39 22 -49q35 -10 53 29l318 864q12 31 88 186q59 129 80 201q4 16 -5.5 30.5t-25.5 16.5q-41 4 -51 -35q-14 -68 -72 -184q-88 -186 -90 -195q-12 -28 -41 23l-2 4q-63 152 -135 340q-6 14 -20.5 20.5t-30.5 -2.5q-41 -18 -27 -55q96 -252 188 -450 q10 -25 0 -54zM205 1396.5q-2 -16.5 9 -28.5t27.5 -12t30 12t15.5 29q-1 18 -11 28q-10 12 -26.5 12.5t-29.5 -12t-15 -29zM330 1402.5q-2 -16.5 9 -28.5t27.5 -12t30 12t15.5 29q1 15 -9 29q-12 12 -28.5 12t-29.5 -12.5t-15 -29z" />
<glyph unicode="&#x152;" horiz-adv-x="1087" d="M507 59q0 10 3.5 39t3.5 43q2 10 5 38t7 46q4 51 6 54l2 19q2 19 6 66.5t8 100.5q6 72 17.5 185.5t13.5 127.5q25 205 39 295q8 57 23 105q8 51 38 71q29 14 80 15q35 2 74 2q59 0 127 -4q16 0 32.5 -1t26 -2.5t13.5 -1.5q16 0 27.5 -12t9.5 -28q-8 -41 -45 -41 q-4 0 -13.5 1t-27 2t-33.5 1q-69 4 -125 4q-38 0 -70 -2h-16q-4 0 -9 -5.5t-9 -9.5l-3 -4q-14 -51 -20 -94q-18 -109 -37 -291v-12q-1 -5 -1 -10q0 -31 36 -31q8 2 18 2q25 2 51 2q16 0 28.5 -11t10.5 -28q-8 -43 -45 -43q-27 0 -53 -2q-6 0 -16.5 -1t-14.5 -1 q-29 0 -32 -41q-12 -100 -17 -180q-2 -35 -5 -70t-5 -52t-2 -21q-2 -2 -6 -54q-4 -18 -7 -45.5t-6 -38.5q-4 -65 -4 -75l2 26q-3 -37 13 -37q16 -1 38.5 -1t51.5 1q57 0 96 2h62q16 0 27 -12t9 -28.5t-15 -29t-30 -12.5h-61q-37 -2 -94 -2q-30 -2 -54.5 -2t-42.5 2 q-25 0 -34 2l-4 1l-5 1l-5 1q-5 1 -10 3.5t-11 8.5q-8 6 -12 22q-2 4 -3 15v14q0 10 -2 18zM-50 312q5 -101 23.5 -178t70.5 -121t136 -44q96 0 166 64q43 47 70 166q63 214 98 630q0 8 1 15.5t2 11.5l1 4l1 2q1 2 1 4q3 40 3 76q0 100 -21 166q-28 96 -100 133 q-49 25 -99 25q-24 0 -48 -6q-75 -18 -126 -68q-152 -152 -176 -662q-5 -72 -5 -138q0 -41 2 -80zM37 535q20 471 149 604q40 43 109 43h12q132 -2 132 -242q0 -23 -1 -49v-8q-8 -166 -53 -430q-29 -168 -47 -242q-16 -55 -27 -84q-12 -31 -20 -37q-35 -39 -103 -39 q-115 0 -145 170q-11 53 -11 156q0 68 5 158z" />
<glyph unicode="&#x153;" horiz-adv-x="1032" d="M483 133q4 145 49 438q4 39 13.5 100.5t9.5 69.5q2 14 12 93v13q0 11 1 30.5t1 42.5q4 176 21 268q20 82 55 102q12 6 39 10h35h98q114 -4 147 -4h13q18 2 29.5 -9t11.5 -27q0 -18 -12 -31q-10 -10 -29 -15h-13q-35 0 -157 5h-88q-35 0 -35 -2q-4 -6 -12 -37 q-18 -82 -19 -252q-4 -92 -4 -94l-8 -70q-1 -5 -1 -10q0 -33 36 -33q37 0 53 2q16 0 28.5 -11.5t10.5 -27.5t-14.5 -29.5t-28.5 -13.5q-16 -2 -61 -2q-41 0 -48 -41q-47 -330 -51 -459q0 -70 2 -80q0 -2 1 -4t1 -4q0 -8 31 -14q10 -1 31 -1q41 0 123 5q61 4 69 4 q16 0 26.5 -12.5t8.5 -28.5t-15.5 -28.5t-29.5 -12.5q-4 0 -61 -4q-74 -4 -78 -4q-20 -1 -39 -1q-73 0 -113 19q-29 12 -37 68q-4 17 -4 47q0 20 2 45zM-44 484q7 -148 28 -269q25 -131 67 -188q39 -54 92 -54q36 0 78 25q80 47 125 182q74 186 109 684q11 91 11 160 q0 75 -13 125q-36 148 -152 148q-20 0 -43 -5q-49 -10 -98 -48t-78 -83q-76 -123 -104 -325q-23 -163 -23 -291q0 -32 1 -61zM39 495q-1 27 -1 56q0 123 20 277q26 188 94 296q16 31 50 56.5t62 29.5q12 3 22 3q62 0 87 -91q12 -49 12 -111q0 -23 -2 -48q0 -20 -21.5 -234.5 t-31.5 -279.5q-49 -322 -146 -381q-14 -8 -27 -8q-21 0 -40 20q-29 43 -54 158q-18 113 -24 257z" />
<glyph unicode="&#x178;" horiz-adv-x="620" d="M398 1453.5q9 -19.5 29 -27.5q66 -25 93 47q10 31 16 47q6 12 0 23q-2 20 -20 24q-29 10 -54 -2q-2 0 -6 -4q-16 -10 -41 -34q-2 -4 -8 -11.5t-8 -11.5q-10 -31 -1 -50.5zM669 1486l4 -4q4 -3 6 -5q4 -4 10.5 -11t8.5 -11q8 -12 28 -12q34 -1 46 28q2 4 6 21.5t8 27.5 q4 8 0 25q-12 37 -49 25q-20 -6 -29 -9q-12 -4 -14 -6q-51 -23 -25 -69zM37 1219q4 -41 24 -146q31 -139 70 -274q29 -100 35 -131q2 -4 4 -10.5t6 -20.5t2 -23q-31 -127 -47 -399q-10 -154 -14 -182q-2 -16 9 -28.5t27.5 -12.5t30 12t15.5 29q4 35 14 194q10 156 20 240 q12 104 26.5 152.5t59.5 134.5q49 94 146.5 267t130.5 212q11 17 11 30q0 16 -17 27q-11 8 -22 8l-36 -20q-37 -49 -182 -303l-104 -191q-8 -19 -23 4q-3 5 -6 13q0 2 -10 47l-29 102l-20 88q-18 68 -37 197q-5 34 -35 34q-5 0 -12 -1q-37 -6 -37 -49z" />
<glyph unicode="&#x2c6;" horiz-adv-x="512" d="M-37 680q-23 -33 6 -55q31 -20 60 10q133 178 225 344q4 6 10 18.5t9 17.5t8.5 9t8.5 0t6 -16.5t5 -34.5q14 -139 57 -301q10 -39 50 -25q41 14 30 53q-43 164 -59 349v36l-1 5q-1 4 -1 6v47q0 35 -2 47q-8 31 -10 35q-12 16 -34 17t-44 -23q0 -2 -2 -2q-12 -18 -13 -31 v-6v-4l-4 -5q-125 -248 -305 -491z" />
<glyph unicode="&#x2dc;" horiz-adv-x="614" d="M-331 162q-2 -16 9 -28t27.5 -12t30 12t15.5 28q2 23 24 64q43 86 99 102q47 14 57 -32q16 -43 27 -58q57 -74 138 -76t155.5 49.5t138.5 135.5q23 35 -6 57q-31 20 -60 -12q-70 -96 -146.5 -131t-135.5 12q-16 16 -23 37q-2 2 -4 8t-4 10q-16 45 -39 62 q-53 35 -107.5 20.5t-99.5 -65.5q-86 -83 -96 -183z" />
<glyph unicode="&#x2000;" horiz-adv-x="800" />
<glyph unicode="&#x2001;" horiz-adv-x="1600" />
<glyph unicode="&#x2002;" horiz-adv-x="800" />
<glyph unicode="&#x2003;" horiz-adv-x="1600" />
<glyph unicode="&#x2004;" horiz-adv-x="533" />
<glyph unicode="&#x2005;" horiz-adv-x="400" />
<glyph unicode="&#x2006;" horiz-adv-x="266" />
<glyph unicode="&#x2007;" horiz-adv-x="266" />
<glyph unicode="&#x2008;" horiz-adv-x="200" />
<glyph unicode="&#x2009;" horiz-adv-x="320" />
<glyph unicode="&#x200a;" horiz-adv-x="88" />
<glyph unicode="&#x2010;" horiz-adv-x="655" d="M-25 536.5q0 -16.5 13.5 -26.5t29.5 -8q131 18 342 10q143 -4 160 -4t30 12t15 28.5t-9 29t-28 12.5q-6 0 -153 4q-216 8 -361 -10q-16 -2 -27.5 -16.5t-11.5 -31z" />
<glyph unicode="&#x2011;" horiz-adv-x="655" d="M-25 536.5q0 -16.5 13.5 -26.5t29.5 -8q131 18 342 10q143 -4 160 -4t30 12t15 28.5t-9 29t-28 12.5q-6 0 -153 4q-216 8 -361 -10q-16 -2 -27.5 -16.5t-11.5 -31z" />
<glyph unicode="&#x2012;" horiz-adv-x="655" d="M-25 536.5q0 -16.5 13.5 -26.5t29.5 -8q131 18 342 10q143 -4 160 -4t30 12t15 28.5t-9 29t-28 12.5q-6 0 -153 4q-216 8 -361 -10q-16 -2 -27.5 -16.5t-11.5 -31z" />
<glyph unicode="&#x2013;" horiz-adv-x="671" d="M-92 463q0 -18 11 -29.5t28 -9.5q29 2 184 16q266 23 401 23q16 0 29.5 12t16 28.5t-9 29t-27.5 12.5q-135 0 -406 -23q-151 -14 -184 -16q-43 -4 -43 -43z" />
<glyph unicode="&#x2014;" horiz-adv-x="1406" d="M-67.5 461q6.5 -39 44.5 -29q133 35 649.5 49.5t630.5 -14.5q35 -10 54 29q14 39 -25 49q-127 31 -653.5 16.5t-667.5 -51.5q-39 -10 -32.5 -49z" />
<glyph unicode="&#x2018;" horiz-adv-x="256" d="M8 1008q-8 -41 29 -47q37 -8 51 30q55 173 135 234q35 27 13 57q-29 33 -60 4q-98 -76 -168 -278z" />
<glyph unicode="&#x2019;" horiz-adv-x="217" d="M51 1268q0 -18 10 -29q70 -80 25 -252q-4 -16 5 -30.5t24 -16.5q18 -2 33.5 8t17.5 27q55 212 -41 321q-12 12 -28.5 12.5t-30 -12t-15.5 -28.5z" />
<glyph unicode="&#x201a;" horiz-adv-x="266" d="M-82 107.5q6 -17.5 23 -23.5q31 -12 53 -37q18 -20 30.5 -43.5t8.5 -51.5t-33 -44q-35 -27 -14 -58q16 -31 53 -12q53 35 70.5 90.5t-3.5 98.5q-33 92 -129 135q-14 6 -31.5 -1t-25.5 -21.5t-2 -32z" />
<glyph unicode="&#x201c;" horiz-adv-x="479" d="M57 924q-10 -41 33 -45q39 -4 47 36q29 144 107 236q29 29 0 57q-29 27 -60 -8q-96 -106 -127 -276zM227 946q-16 -39 21 -53q33 -12 53 25q71 157 141 223q12 20 13 30q2 16 -10.5 27.5t-29 11.5t-28.5 -12q-25 -23 -70 -84q-51 -80 -90 -168z" />
<glyph unicode="&#x201d;" horiz-adv-x="438" d="M90 1081q15 -22 25 -43q12 -43 16 -71q4 -37 12 -45q12 -12 37 -9q16 2 26.5 17.5t8.5 32.5q-8 61 -8 63q-16 62 -51 109q-10 12 -26.5 14t-29.5 -8q-35 -31 -10 -60zM248 1145q35 -45 46 -99.5t9 -146.5q0 -16 12.5 -27.5t28.5 -9.5q18 2 30.5 15.5t12.5 29.5 q-2 106 -15.5 170t-56.5 121q-10 12 -26.5 14t-30.5 -8q-35 -31 -10 -59z" />
<glyph unicode="&#x201e;" horiz-adv-x="387" d="M-41 119q51 -92 2 -211q-14 -39 25 -49q37 -10 51 28q61 158 -2 277q-23 33 -58 12q-35 -23 -18 -57zM137 -61q-16 -37 21 -54q14 -6 30.5 2.5t24.5 22.5q55 127 16 274q-10 39 -51 25t-31 -53q33 -119 -10 -217z" />
<glyph unicode="&#x2022;" horiz-adv-x="366" d="M70 621l4 -9q18 -47 62 -52t81 26l4 2q4 2 9.5 5t11.5 7q4 2 18 12q37 41 29 90q-4 35 -27.5 53.5t-52.5 17.5t-62 -13l-6 -4l-26 -13q-4 -2 -12 -7l-7 -5q-63 -47 -26 -110z" />
<glyph unicode="&#x2026;" horiz-adv-x="710" d="M-100 16q4 -10 13 -18l9 -8q0 -2 1 -4q-1 -3 1 -4q8 -12 25 -17q27 -4 43 12q12 14 24 43q8 8 7 21v4q2 8 2 23q-6 37 -68 24l-18 -6l-9 -4q-10 -4 -12 -8q-16 -12 -16 -29q-2 -2 -2 -8v-10v-11zM160 -8q51 -51 112 -8q47 57 47 75q-2 29 -24 42.5t-51 9.5 q-20 -2 -54 -13q-51 -20 -30 -106zM441.5 5.5q2.5 -19.5 21.5 -28.5h2q8 -2 49 -2h6q16 0 29.5 12.5t15.5 28.5v15q-2 4 -4 16t-6 23q-10 20 -33 20q-6 0 -30 -12l-25 -15q-4 -4 -18 -24q-10 -14 -7.5 -33.5z" />
<glyph unicode="&#x202f;" horiz-adv-x="320" />
<glyph unicode="&#x2039;" horiz-adv-x="354" d="M-82 430q-2 16 8 37q0 2 5.5 7t7.5 7q6 8 30 33q47 47 88 82q37 37 77 73t56.5 52t20.5 20q29 33 59 9q31 -27 2 -58q-14 -16 -163 -153q-18 -14 -42 -37t-30 -29q-16 -31 14 -43q2 0 8.5 -4t10.5 -4q72 -33 100 -43q35 -18 18 -51q-20 -41 -55 -27q-53 20 -106 47 l-64 35q-39 20 -45 47z" />
<glyph unicode="&#x203a;" horiz-adv-x="399" d="M-43 258q25 -33 57 -6q51 35 172 158q70 70 90 96q20 29 29 43q33 68 -49 98q-12 6 -27 10l-30 11q-72 27 -105 82q-25 33 -55 8q-37 -27 -16 -58q47 -74 141 -108q6 -4 31 -12.5t45 -18.5l-15 6q-2 -2 -5 -7t-5 -7q-61 -68 -84 -90q-111 -109 -164 -150q-33 -29 -10 -55 z" />
<glyph unicode="&#x205f;" horiz-adv-x="400" />
<glyph unicode="&#x20ac;" horiz-adv-x="614" d="M-217 500q6 -39 45 -29q14 4 42 10t42 8q23 2 33 -7t6 -31q-10 -160 31 -267q68 -166 176 -196q70 -18 127 22.5t86 110.5q6 10 13 32.5t12 39t5 18.5q6 15 0 31q-6 14 -23.5 18t-31.5 -4q-16 -8 -35 -68q-29 -82 -53 -102q-68 -55 -143 35q-74 94 -82 194q-2 45 4 148 q0 43 41 43q63 4 229 4q59 -2 121 -2q16 0 29.5 12t15.5 28.5t-9 29t-28 12.5q-57 0 -112 2q-164 0 -232 -4q-43 0 -39 41q4 16 6 22q2 37 45 41h310q16 0 29.5 12.5t15.5 29t-9.5 28.5t-27.5 12h-297q-20 -2 -29.5 10.5t-5.5 34.5q27 102 56.5 152.5t76.5 97.5 q100 98 170 68q61 -29 76 -142q4 -18 4 -45q2 -4 2 -10v-10q2 -66 19 -78q15 -9 30 -6q41 8 37 47q0 4 -1 21.5t-1 29.5q0 8 -1 15.5t-2 11.5t-1 8v6q-12 176 -123 227q-115 53 -262 -88q-61 -59 -97 -124.5t-67 -194.5q-8 -37 -47 -43q-66 -8 -96 -12q-41 -10 -37 -48 q4 -39 43 -34q45 8 68 10q20 2 31.5 0t8.5 -10v-17l-6 -37q-10 -37 -43 -43q-49 -4 -112 -22q-39 -10 -33 -49z" />
<glyph unicode="&#x2122;" horiz-adv-x="712" d="M-16 1241q-2 -16 10 -27.5t29 -11.5q14 2 57 2q39 0 39 -41q-12 -233 -33 -348q-8 -39 35 -43q16 -2 30.5 9.5t16.5 29.5q20 121 33 352q0 43 30 43q20 0 29 2q41 4 45 45q0 16 -11 27.5t-30 9.5q-61 -4 -125 -4q-89 0 -112 -2q-16 0 -28.5 -13.5t-14.5 -29.5zM264 825 q-2 -16 9.5 -27.5t29.5 -11.5q16 0 28.5 13.5t14.5 29.5q4 41 14 86q2 10 8.5 28t11.5 36t11 34.5t9 26.5l3 11l9 -74q10 -41 49 -25q25 10 47 64q6 14 35 82q0 -22 6 -56l10 -124q10 -76 14 -89q16 -37 54 -20q37 14 26 53q-4 18 -10 74l-12 123l-17 119q-4 16 -14 43 q-12 35 -45 34q-10 0 -16 -2q-8 -4 -13.5 -8t-9.5 -8l-6 -6q-4 -4 -4 -8q-2 1 -29 -41l-6 18q-14 43 -47 51q-23 4 -39 -12q-6 -4 -10 -10t-19 -47q-4 -8 -9 -25.5t-7 -26.5l-10 -40q0 -4 -3 -12.5t-5 -14.5q-19 -49 -21 -59l-16 -56q-16 -59 -21 -123z" />
<glyph unicode="&#xe000;" horiz-adv-x="1265" d="M0 1265h1265v-1265h-1265v1265z" />
<glyph unicode="&#xfb01;" horiz-adv-x="773" d="M544 -7q0 -13 9 -23q11 -12 27.5 -12.5t30 12t15.5 28.5q6 65 18 276q6 119 25 269q64 436 80 686v4q-1 13 -11 23q-12 12 -28.5 12t-28.5 -13.5t-14 -29.5q-14 -231 -80 -678q-18 -152 -25 -277q-3 -48 -6.5 -97.5t-6 -79.5t-4 -57.5t-1.5 -42.5zM-35 18q0 -16 13 -27 q10 -9 23 -9h5q39 4 43 45v10q0 173 64 586q10 41 43 43q53 4 75 4q16 0 28.5 13t14.5 29.5t-10 28t-28 11.5q-33 0 -56 -2h-4q-12 -2 -26.5 10t-10.5 31q0 6 2 16t3 18.5t1 14.5q6 39 19 190q8 98 8 117q6 41 47 41h98q113 0 168 -6q16 -2 31.5 9t18.5 28q1 4 1 9 q0 11 -8 20q-10 14 -26 16q-58 6 -178 6h-50q-71 0 -116 4h-5q-17 0 -29 -12q-15 -15 -24 -35q-2 -2 -2 -13q0 -8 -16 -188q-10 -145 -49 -381l-33 -219q-27 -174 -35 -408z" />
<glyph unicode="&#xfb02;" horiz-adv-x="1002" d="M495 141q-1 -20 -1 -37q0 -103 40 -124q40 -19 124 -19h23q47 3 77.5 3t43.5 -3q8 -2 15 -2q27 0 38 31q4 10 4 19q0 23 -28 30q-23 6 -74 6q-31 0 -72 -2q-12 -1 -24 0q-24 0 -50 2q-29 2 -32 14v11q-2 14 -2 33t2 42q-2 8 12 148q14 119 29 293q40 426 71 639 q2 16 -8 29.5t-26.5 13.5t-31 -11.5t-16.5 -27.5q-33 -229 -71 -641q-14 -174 -29 -295q-14 -150 -14 -152zM-35 18q0 -16 13 -27q10 -9 23 -9h5q39 4 43 45v10q0 173 64 586q10 41 43 43q53 4 75 4q16 0 28.5 13t14.5 29.5t-10 28t-28 11.5q-33 0 -56 -2h-4 q-12 -2 -26.5 10t-10.5 31q0 6 2 16t3 18.5t1 14.5q6 39 19 190q8 98 8 117q6 41 47 41h98q113 0 168 -6q16 -2 31.5 9t18.5 28q1 4 1 9q0 11 -8 20q-10 14 -26 16q-58 6 -178 6h-50q-71 0 -116 4h-5q-17 0 -29 -12q-15 -15 -24 -35q-2 -2 -2 -13q0 -8 -16 -188 q-10 -145 -49 -381l-33 -219q-27 -174 -35 -408z" />
<glyph unicode="&#xfb03;" horiz-adv-x="1325" d="M1096 -7q0 -13 9 -23q11 -12 27.5 -12.5t30 12t15.5 28.5q6 65 18 276q6 119 25 269q64 436 80 686v4q-1 13 -11 23q-12 12 -28.5 12t-28.5 -13.5t-14 -29.5q-14 -231 -80 -678q-18 -152 -25 -277q-3 -48 -6.5 -97.5t-6 -79.5t-4 -57.5t-1.5 -42.5zM517 18q0 -16 13 -27 q10 -9 23 -9h5q39 4 43 45v10q0 173 64 586q10 41 43 43q53 4 75 4q16 0 28.5 13t14.5 29.5t-10 28t-28 11.5q-33 0 -56 -2h-4q-12 -2 -26.5 10t-10.5 31q0 6 2 16t3 18.5t1 14.5q6 39 19 190q8 98 8 117q6 41 47 41h98q113 0 168 -6q16 -2 31.5 9t18.5 28q1 4 1 9 q0 11 -8 20q-10 14 -26 16q-58 6 -178 6h-50q-71 0 -116 4h-5q-17 0 -29 -12q-15 -15 -24 -35q-2 -2 -2 -13q0 -8 -16 -188q-10 -145 -49 -381l-33 -219q-27 -174 -35 -408zM-35 18q0 -16 13 -27q10 -9 23 -9h5q39 4 43 45v10q0 173 64 586q10 41 43 43q53 4 75 4 q16 0 28.5 13t14.5 29.5t-10 28t-28 11.5q-33 0 -56 -2h-4q-12 -2 -26.5 10t-10.5 31q0 6 2 16t3 18.5t1 14.5q6 39 19 190q8 98 8 117q6 41 47 41h98q113 0 168 -6q16 -2 31.5 9t18.5 28q1 4 1 9q0 11 -8 20q-10 14 -26 16q-58 6 -178 6h-50q-71 0 -116 4h-5q-17 0 -29 -12 q-15 -15 -24 -35q-2 -2 -2 -13q0 -8 -16 -188q-10 -145 -49 -381l-33 -219q-27 -174 -35 -408z" />
<glyph unicode="&#xfb04;" horiz-adv-x="1554" d="M1047 141q-1 -20 -1 -37q0 -103 40 -124q40 -19 124 -19h23q47 3 77.5 3t43.5 -3q8 -2 15 -2q27 0 38 31q4 10 4 19q0 23 -28 30q-23 6 -74 6q-31 0 -72 -2q-12 -1 -24 0q-24 0 -50 2q-29 2 -32 14v11q-2 14 -2 33t2 42q-2 8 12 148q14 119 29 293q40 426 71 639 q2 16 -8 29.5t-26.5 13.5t-31 -11.5t-16.5 -27.5q-33 -229 -71 -641q-14 -174 -29 -295q-14 -150 -14 -152zM517 18q0 -16 13 -27q10 -9 23 -9h5q39 4 43 45v10q0 173 64 586q10 41 43 43q53 4 75 4q16 0 28.5 13t14.5 29.5t-10 28t-28 11.5q-33 0 -56 -2h-4 q-12 -2 -26.5 10t-10.5 31q0 6 2 16t3 18.5t1 14.5q6 39 19 190q8 98 8 117q6 41 47 41h98q113 0 168 -6q16 -2 31.5 9t18.5 28q1 4 1 9q0 11 -8 20q-10 14 -26 16q-58 6 -178 6h-50q-71 0 -116 4h-5q-17 0 -29 -12q-15 -15 -24 -35q-2 -2 -2 -13q0 -8 -16 -188 q-10 -145 -49 -381l-33 -219q-27 -174 -35 -408zM-35 18q0 -16 13 -27q10 -9 23 -9h5q39 4 43 45v10q0 173 64 586q10 41 43 43q53 4 75 4q16 0 28.5 13t14.5 29.5t-10 28t-28 11.5q-33 0 -56 -2h-4q-12 -2 -26.5 10t-10.5 31q0 6 2 16t3 18.5t1 14.5q6 39 19 190 q8 98 8 117q6 41 47 41h98q113 0 168 -6q16 -2 31.5 9t18.5 28q1 4 1 9q0 11 -8 20q-10 14 -26 16q-58 6 -178 6h-50q-71 0 -116 4h-5q-17 0 -29 -12q-15 -15 -24 -35q-2 -2 -2 -13q0 -8 -16 -188q-10 -145 -49 -381l-33 -219q-27 -174 -35 -408z" />
</font>
</defs>
</svg>
