<?xml version="1.0" standalone="no"?>
<!DOCTYPE svg PUBLIC "-//W3C//DTD SVG 1.1//EN" "http://www.w3.org/Graphics/SVG/1.1/DTD/svg11.dtd" >
<svg xmlns="http://www.w3.org/2000/svg">
<metadata>
This is a custom SVG webfont generated by Font Squirrel.
Copyright   : Mattox
Designer    : Mattox Shuler
</metadata>
<defs>
<font id="MathleteSkinnySlant" horiz-adv-x="565" >
<font-face units-per-em="2048" ascent="1638" descent="-410" />
<missing-glyph horiz-adv-x="614" />
<glyph unicode=" "  horiz-adv-x="614" />
<glyph unicode="&#x09;" horiz-adv-x="614" />
<glyph unicode="&#xa0;" horiz-adv-x="614" />
<glyph unicode="!" horiz-adv-x="286" d="M6 55q-4 -18 6.5 -31.5t28.5 -13.5q35 0 55.5 19.5t24.5 35t4 25.5q2 12 -8.5 20.5t-20.5 6.5q-72 -4 -90 -62zM70 317q-4 -29 24.5 -29t32.5 29l88 854q4 29 -24.5 29t-32.5 -29z" />
<glyph unicode="&#x22;" horiz-adv-x="417" d="M92 926q-4 -29 25 -29t33 29l12 114q4 72 16 109q8 29 -20 33q-31 4 -35 -25q-16 -57 -21 -115q-4 -33 -4 -61q-6 -40 -6 -55zM287 932q-2 -12 6 -20.5t20 -8.5q27 0 31 29q19 190 23 237q4 31 -25 31q-33 -4 -33 -31q-4 -47 -22 -237z" />
<glyph unicode="#" horiz-adv-x="790" d="M-61 580q-4 -12 3 -21.5t19 -9.5q49 -4 82 -4q47 -4 29 -47q-45 -92 -56 -150q-8 -29 21 -33q31 -4 37 25q12 61 76 188q10 20 43 23q53 2 124 12q35 4 41.5 -2t-8.5 -43q-39 -86 -63 -162q-8 -31 18 -34q31 -4 37 22q55 143 80 201q12 34 49 37q74 8 127 12q27 0 31 31 q0 12 -8.5 20t-20.5 6q-29 -2 -82 -6q-37 -2 -41 7.5t12 37.5l60 127q0 2 35 2q18 0 40.5 1t35 2t20.5 1q29 0 33 31q0 31 -31 27h-51q-35 0 -38 6t11 39q18 57 21 63q8 31 -21 35q-10 0 -22 -6q-8 -4 -11.5 -11.5t-6.5 -17.5t-5 -16q-6 -16 -29 -62q-12 -27 -25 -31 q-9 -3 -26 -3h-57q-37 0 -51 -3h-11q-27 -2 -32.5 5.5t2.5 40.5q25 55 26 59q10 29 -15.5 38t-37.5 -18q-6 -14 -20.5 -47.5t-22.5 -50.5q-8 -25 -16 -29t-31 -6q-90 -8 -150 -26q-16 -6 -20 -22.5t6 -28t29 -7.5q31 12 90 19q33 4 41 -2t-6 -43l-8 -15q-15 -37 -50 -104 q-20 -33 -59 -33q-72 -4 -115 2q-29 4 -32 -26zM218 625.5q-7 13.5 3 36.5q12 25 28.5 63.5t22.5 50.5q4 10 8.5 16.5t7.5 10.5t8 6t7 3t9 1h10q16 2 54 3t58 1q29 2 35 -3t-4 -42l-51 -110q0 -2 -3 -7.5t-4 -6.5t-3.5 -5t-4.5 -5t-5 -3t-7 -3t-10 -2t-15 -3 q-25 -4 -62.5 -7.5t-49.5 -5.5q-25 -2 -32 11.5z" />
<glyph unicode="$" horiz-adv-x="684" d="M6 811q-2 -74 41 -115q23 -20 52.5 -29.5t57 -12.5t97.5 -7q16 0 10 -41q-8 -90 -24.5 -266t-22.5 -242q-4 -41 -18.5 -44t-32.5 14q-94 66 -96 192q-4 29 -31 25q-29 -4 -29 -33q2 -94 47 -161.5t119 -96.5q31 -14 31 -45q-4 -43 -8 -129q-2 -12 6 -20.5t22 -6.5 q29 0 29 31q2 18 4 55t4 55q0 37 43 43q88 12 151.5 82t80.5 183q10 100 4 190t-51.5 163t-120.5 97h-2q-10 2 -22.5 15.5t-10.5 29.5q31 338 35 396q2 23 9 36t15 9q8 -2 17 -9q69 -35 92 -170q0 -27 33 -22q25 4 24 35q-20 158 -117 211q-10 4 -26 12q-35 8 -35 43 q4 41 8 123q2 12 -6 20.5t-20 8.5q-31 -4 -31 -33q-4 -82 -8 -121q-2 -35 -39 -47q-2 -2 -39 -17q-100 -53 -172 -166.5t-70 -234.5zM63 815q2 106 62.5 204.5t146.5 141.5q6 4 13.5 8.5t18.5 -3t9 -38.5q-2 -35 -34 -380q-7 -41 -17 -41q-61 2 -102 8q-94 12 -97 100z M272 57q15 168 50 535q4 47 16 47q2 0 5 -2t5 -2q88 -27 121 -137.5t12 -251.5q-31 -182 -170 -207q-18 -4 -29.5 1t-9.5 17z" />
<glyph unicode="%" horiz-adv-x="671" d="M-68 25q-10 -29 16.5 -38.5t39.5 17.5q311 666 633 1170q10 16 1.5 30.5t-23.5 14.5t-28 -17q-311 -477 -639 -1177zM75 977q9 -43 44 -62q106 -47 157 48q18 31 19.5 79t-19.5 78q-33 33 -43 35q-51 10 -91 -17.5t-58 -76.5q-18 -41 -9 -84zM133 997q-10 51 27 82 q27 23 49 1.5t24 -48.5q4 -35 -17 -60.5t-66 -2.5q-10 4 -17 28zM202.5 55q28.5 -49 108.5 -43q80 8 111 66.5t-21 144.5q-24 25 -36 27q-10 4 -50 -4q-35 -2 -82 -62q-59 -80 -30.5 -129zM257 87q-11 19 22 65l28 34l8 2h2q8 2 20.5 1t14.5 -3q33 -55 19.5 -82.5 t-58.5 -31.5t-56 15z" />
<glyph unicode="&#x26;" horiz-adv-x="679" d="M-41 312.5q10 142.5 68 228.5q27 37 53 63.5t6 52.5q-6 6 -20 35q-29 78 -7.5 184.5t78.5 213.5q113 207 236 167q47 -16 77.5 -65t36.5 -109q4 -63 -22 -108q-10 -16 -26.5 -16.5t-23.5 12t1 28.5q16 27 11 72t-28 84q-47 80 -114 33q-47 -35 -97.5 -126t-70.5 -183 q-18 -102 4 -158q12 -35 41 -47q12 -6 47 -10h8q2 0 8 -1t8 -4q4 0 7 -2q4 -2 10 -8q8 -18 -4 -37q-12 -8 -19 -10h-10h-20q-27 0 -41 -10q-49 -31 -80 -80q-47 -72 -57.5 -199t24.5 -194q49 -95 154 -68q98 27 165 133q47 82 54 232l-2 4q0 6 -41 2q-57 -8 -82 -14 q-31 -4 -33 20q-4 27 23 37q29 8 45 10l39 4q31 6 129 6q63 -2 63 -30q-4 -29 -33 -29h-10q-41 0 -41 -6q-3 -169 -61 -264q-82 -127 -205 -162q-147 -41 -215 92q-43 84 -33 226.5z" />
<glyph unicode="'" horiz-adv-x="159" d="M31 942q-4 -29 24.5 -29t32.5 29q0 2 8 125q4 86 10 119q8 29 -22 33q-31 0 -35 -29q-10 -84 -12 -127q-4 -94 -6 -121z" />
<glyph unicode="(" horiz-adv-x="473" d="M45 347q-2 -75 32 -161t111 -188q12 -14 28.5 -10t23 18t-1.5 29q-74 96 -105 173t-29 147.5t13 160.5q12 115 37.5 228.5t92 238.5t156.5 162q30 11 22 38.5t-36 14.5q-180 -70 -278 -412q-41 -137 -54 -270q-10 -94 -12 -169z" />
<glyph unicode=")" horiz-adv-x="481" d="M-8 29q-20 -25 4 -40t41 11l51 68l51 71l45 66l49 74l39 65q45 76 66 139q105 273 -49 527l-45 71q-53 80 -125 105q-16 8 -29.5 -3.5t-13.5 -26.5t16 -23q31 -12 58 -39q33 -29 86 -117q141 -231 49 -477q-4 -12 -14.5 -34t-12.5 -30q-45 -88 -76 -131l-45 -69l-43 -64 l-53 -74z" />
<glyph unicode="*" horiz-adv-x="587" d="M111 1059q-8 -33 18 -37q66 -16 100 -31q29 -10 31 -18t-16 -37l-25 -37l-43 -68q-10 -16 -2 -30.5t23.5 -13t27.5 15.5l43 67q20 35 29.5 35t26.5 -35q6 -16 34 -63q10 -14 25.5 -13t26 15t0.5 31q-33 66 -45 88q-18 43 63 73q4 2 32.5 14.5t45.5 18.5q18 4 22 20.5 t-7 28t-29 4.5q-55 -16 -86 -32q-35 -16 -41.5 -10t-2.5 45q4 29 21 71q12 23 -14 37q-29 10 -41 -20q-18 -39 -29 -101q-4 -31 -10 -35t-35 5q-18 4 -53 16t-54 16q-33 4 -36 -20z" />
<glyph unicode="+" horiz-adv-x="610" d="M-20 608q4 -27 32 -22q86 16 189 16q29 0 35 -6t4 -35q-10 -215 -11 -219q-2 -12 7.5 -20.5t21.5 -6.5q10 0 19.5 10.5t9.5 20.5q0 27 5 97.5t5 113.5q0 33 5 38t40 5q39 0 84 -2t47 -2q27 0 31 28.5t-25 28.5q-57 0 -133 4q-27 2 -33 8.5t-4 34.5q4 35 15 209 q2 12 -7.5 20.5t-21.5 8.5q-29 -4 -29 -33q-6 -100 -16 -203q-2 -29 -12.5 -36t-49.5 -7q-114 0 -182 -16q-27 -4 -26 -35z" />
<glyph unicode="," horiz-adv-x="237" d="M-43 -174q-10 -29 15.5 -38t39.5 17q31 70 43.5 114t4 90t-49.5 77q-23 16 -42 -7.5t3 -41.5q37 -35 32 -80t-46 -131z" />
<glyph unicode="-" horiz-adv-x="667" d="M-12.5 538.5q0.5 -28.5 30.5 -24.5q113 16 344 10q143 -4 160 -4q31 0 31 29q4 29 -25 29q-8 0 -155 4q-238 9 -357 -11q-29 -4 -28.5 -32.5z" />
<glyph unicode="." horiz-adv-x="262" d="M-31 18q25 -43 70 -32.5t57 75.5q4 9 0 19q0 2 -2 12t-4 18.5t-9 14.5t-18 6q-66 6 -93 -32t-1 -81z" />
<glyph unicode="/" horiz-adv-x="575" d="M-106 -6q-4 -12 3 -21.5t19 -9.5q31 -4 35 27q14 74 61 182l49 94l45 90q264 547 420 824q8 16 1 28.5t-24.5 12.5t-27.5 -17q-182 -328 -420 -827q-31 -55 -47 -88l-47 -96q-51 -115 -67 -199z" />
<glyph unicode="0" d="M-55 500q0 -385 106 -498q45 -41 94 -41q66 2 128.5 55.5t105.5 176.5q47 139 82 446q2 27 8 85t8 81q2 31 2 174q6 113 -26 199q-33 88 -93.5 108.5t-148.5 -43.5q-188 -150 -254 -524q-12 -72 -12 -219zM2.5 506q-2.5 149 11.5 209q61 352 230 483q106 82 151 -45 q20 -51 23.5 -182.5t-0.5 -139.5q-22 -261 -37 -374q-53 -336 -148 -402q-47 -35 -81 -35q-29 0 -54 25q-51 51 -75 199q-18 113 -20.5 262z" />
<glyph unicode="1" horiz-adv-x="483" d="M-107 -6q-4 -29 25 -29q100 0 182 2q80 2 181 2q27 0 30.5 29t-24.5 29h-121q-14 0 -22.5 -1t-14.5 0t-7 3t-1 6q29 252 80 565q14 90 28 303q7 209 17 297q0 8 -2 10q0 31 -29 31q-8 0 -22 -10q-86 -74 -146 -154q-12 -16 -5 -30.5t22.5 -15.5t29.5 13q20 29 33 41 q29 37 42 34t9 -52q-2 -23 -5 -81t-5 -87q-6 -184 -25 -295q-57 -371 -75 -555q-2 -25 -45 -26h-35h-38h-26q-27 0 -31 -29z" />
<glyph unicode="2" d="M-82 16q0 -23 16 -28l9 -1q8 -1 18 -3t19 -2h22q74 0 131 2q27 2 95.5 5t86.5 3h50q27 0 30.5 28.5t-24.5 28.5h-49q-23 -2 -91 -2q-16 0 -47.5 -1t-46.5 -3q-55 -2 -129 -2h-10l-8 2l39 76q20 37 37.5 68.5t25.5 46.5l8 16q20 47 60 110l92 138l84 125q160 250 137 415 q-14 104 -84 158.5t-160 36.5q-92 -20 -146 -110.5t-50 -223.5q4 -29 30 -25q29 4 29 33q-6 113 36 183.5t110 85.5q63 12 114 -28t62 -122q18 -143 -127 -375l-82 -123q-104 -152 -160 -258q0 -6 -68 -129l-40 -78l-13 -26l-4 -8l-2 -6v-7z" />
<glyph unicode="3" horiz-adv-x="512" d="M-133 223q-8 -137 67.5 -209.5t186.5 -48.5q115 27 188.5 146.5t69.5 300.5q2 80 -34 143t-99 96q-57 12 10 49q104 57 147 159t13 208q-37 117 -110 151.5t-148 -18.5q-70 -49 -114 -140t-42 -190q0 -29 31 -24q27 4 26 33q-2 82 35 158.5t92 113.5q47 37 95.5 11.5 t76.5 -118.5q29 -96 -25 -188t-161 -137l-18 -4l-11 -2q-45 -12 -53 -17q-25 -16 -24.5 -40.5t22.5 -28.5q20 -2 55 2q16 -4 72 -31q102 -49 107 -195q0 -160 -59.5 -260t-149.5 -120q-80 -18 -137.5 38t-51.5 166q2 12 -7 20.5t-21 8.5q-29 -4 -29 -33z" />
<glyph unicode="4" horiz-adv-x="563" d="M-61 641l6 8q4 12 8 19l39 55l127 160l260 331q2 6 8 9q23 14 35 14q14 0 16 -4q8 -8 8 -21q6 -88 -12 -208q-9 -43 -18 -111q-18 -92 -27 -162q-4 -29 3 -35t32 -8l12 -2q12 0 20.5 -9t6.5 -22q-8 -31 -37 -26h-14q-29 0 -35 -7.5t-12 -31.5q-78 -473 -89 -576 q-4 -29 -32.5 -28.5t-24.5 28.5q4 41 16.5 120t33 209t36.5 247q6 31 -1 37t-34 6q-80 2 -155 -4q-10 -2 -90 -17q-12 -4 -21 -4l-33 -6h-6q-2 -2 -14 2q-18 14 -12 37zM41 690l16 21q-18 -26 12 -28q10 -1 27 1q4 0 9.5 1t7.5 1q100 8 170 6q16 0 23 1t14.5 10.5t9.5 29.5 q2 10 5 31.5t5 32.5q2 31 18.5 114.5t18.5 112.5l2 23q0 51 -11.5 49t-35.5 -35l-168 -211zM57 711q9 12 15 18z" />
<glyph unicode="5" horiz-adv-x="595" d="M-66 231q-14 -137 43.5 -212.5t161.5 -67.5q94 8 179 83t118 185q25 80 27 163t-18.5 155.5t-73 120t-127.5 51.5q-18 2 -111 -17l-8 -2q-41 -6 -43 8q0 6 3 21.5t3 25.5l4 27q0 4 4 53t8 78q6 125 33 199q2 18 13 33l6 6q40 12 153 0q92 -14 170 -21q27 -4 35 27 q4 31 -25 31q-2 0 -29.5 3t-49.5 7q-25 4 -88 10q-125 14 -177 0q-43 -12 -65 -82q-12 -39 -27 -125l-10 -90q-4 -45 -4 -76q0 -12 -1 -24.5t-2 -19.5t-1 -9l-1 -3q-1 -3 -2 -8t-1 -11q-10 -61 -13 -101q2 -16 10.5 -24.5t18.5 -6.5h4q6 2 14.5 3.5t14.5 1.5l57 12 q16 4 62 10l10 2q23 4 49 2q102 -23 136 -153.5t-13 -264.5q-29 -94 -97.5 -154.5t-144.5 -66.5q-74 -6 -116.5 51.5t-30.5 169.5q4 29 -24.5 29t-33.5 -29z" />
<glyph unicode="6" horiz-adv-x="569" d="M-39 502q-20 -436 148 -498q154 -49 251 117q82 143 80 321q4 199 -96 238q-115 49 -289 -182q-10 -16 -19 -26.5t-20 1.5q2 10 2 33q10 166 45 315q70 293 242 355q82 29 123 -97q2 -14 2 -57l-2 -23l-4 -26v-10q-4 -18 8 -31q6 -6 21 -6q29 0 28 30l4 39l4 29 q0 57 -6 76q-51 180 -192 131q-104 -34 -197 -172q-51 -68 -88 -226.5t-45 -330.5zM25 291l4 39q16 63 83.5 151t129.5 129q45 29 75 17q66 -33 66 -191q-4 -172 -72 -289q-74 -125 -176 -86q-51 18 -80.5 96.5t-29.5 133.5z" />
<glyph unicode="7" d="M-57 -6q-8 -31 18 -35q31 -4 37 23q49 125 86 200l92 205q20 49 98 256q55 152 103 250l80 164l47 100q2 8 7 19.5t5 15.5q4 10 8 22q-4 12 -8 19q-6 12 -20 14q-10 2 -41 0t-39 -2q-45 0 -76 2q-131 4 -197 4q-68 0 -71 -4q-25 -14 -41 -55q-14 -55 2 -160q6 -25 35 -18 q25 6 24 35q-10 53 -8 88v20q2 18 4 29q2 8 10 8h39q63 0 115 -2q123 -6 158 -6h39q-10 -39 -46 -109l-77 -164q-39 -74 -107 -256q-86 -229 -188 -454q-45 -90 -88 -209z" />
<glyph unicode="8" horiz-adv-x="600" d="M-80 174q-2 -125 74 -180t186 -29q106 25 187.5 110t89.5 191q12 113 -37 201q-35 63 -119 135l-39 31q-31 27 -2 57q12 14 29.5 38t23.5 32q25 31 57.5 99.5t53 119.5t20.5 53q27 106 -26 173t-139 59q-80 -8 -152 -76t-107 -170q-31 -80 -18.5 -147.5t39.5 -110.5 t78 -90q27 -25 0 -58q-53 -63 -78 -96q-115 -150 -121 -342zM-23 178q2 164 109 307q12 16 76 93q30 33 59 8l37 -31q84 -72 109 -119q39 -84 32 -170q-8 -88 -72.5 -155.5t-154.5 -87.5q-84 -18 -138 21.5t-57 133.5zM61.5 884.5q-8.5 55.5 16.5 121.5q29 84 85 138t113 60 q92 12 111 -100q2 -12 -6 -51q-55 -178 -113 -260q-33 -45 -53 -68q-31 -33 -57 -6q-43 39 -65.5 74.5t-31 91z" />
<glyph unicode="9" horiz-adv-x="546" d="M45 768q59 -127 186 -72q86 37 148 121q7 8 15 19q4 5 5 6v-6q0 -6 -1 -18.5t-2 -26t-3 -29.5q0 -8 -9 -104.5t-17 -165.5q-10 -119 -27.5 -286t-17.5 -169q-2 -12 6 -20.5t20 -8.5q27 0 31 29q31 287 51 502q12 129 29.5 300t19.5 187v4l-6 57q-23 117 -99.5 137.5 t-176.5 -65.5q-94 -80 -142.5 -196.5t-9.5 -194.5zM96 797q-29 59 13.5 155.5t123.5 165.5q156 135 183 -63q4 -19 4 -35q-49 -199 -205 -270q-80 -31 -119 47z" />
<glyph unicode=":" horiz-adv-x="327" d="M18 305q8 -45 54 -41q14 2 39 15q33 20 46 46.5t7.5 47t-21.5 24.5q-23 8 -77 -12q-25 -6 -40.5 -30.5t-7.5 -49.5zM90 805q-12 -41 43 -66q23 -10 50.5 -3t43.5 26q25 31 7.5 54.5t-60.5 31.5h-4h-12q-4 0 -6 -2q-2 0 -5 -2q-10 0 -18 -2q-37 -10 -39 -37z" />
<glyph unicode=";" horiz-adv-x="411" d="M74 312q-8 -40 12 -66q23 -33 61 -33q43 -4 43 -6v-6l-2 -2l-2 -23q-4 -25 -36 -82q-8 -16 -1 -28.5t24 -12.5t28 17q25 43 43 96q8 35 14 49q20 63 8 117q-14 49 -84 65q-35 8 -47 6q-8 0 -20 -12q-33 -39 -41 -79zM117.5 772q-13.5 -37 11.5 -74q25 -31 53.5 -27.5 t53.5 31.5q2 2 4 5.5t4 5.5q2 4 18 20q8 8 10 12q27 35 21 58q-8 43 -46 49t-77 -18.5t-52.5 -61.5z" />
<glyph unicode="&#x3c;" horiz-adv-x="417" d="M-53 352q12 -82 108 -207l37 -47l39 -49q41 -53 55 -84q10 -14 25.5 -14t26 13t2.5 30q-16 35 -60 92l-41 51l-35 47q-90 117 -98 181q-2 4 6 26q4 12 29 51q31 47 100 140q6 8 25.5 31.5t32.5 39.5l57 76l45 59l21 31q20 31 14 45q-4 16 -24.5 17.5t-30.5 -19.5 q-25 -45 -70 -100l-57 -74q-35 -41 -58 -74q-68 -86 -104 -145q-49 -82 -45 -117z" />
<glyph unicode="=" horiz-adv-x="741" d="M-39.5 378.5q-3.5 -16.5 9 -27.5t30.5 -3q78 31 183.5 37t400.5 6q29 0 32 29q2 12 -6 20.5t-20 8.5h-305q-217 -10 -303 -48q-18 -6 -21.5 -22.5zM27 725q0 -29 26 -29q156 0 281 2h280q29 0 33 29q0 29 -26 29h-281q-125 -2 -281 -2q-29 0 -32 -29z" />
<glyph unicode="&#x3e;" horiz-adv-x="604" d="M-44 -5q-5 13 5 30q25 29 57 61l111 111q209 213 254 264q18 22 31 37q12 18 8 22l-49 27l-51 28q-8 4 -15.5 8.5t-11.5 7.5t-6 3l-133 92q-100 74 -148 102q-16 8 -13 25.5t16.5 25t29.5 -0.5q74 -45 152 -101l133 -94l80 -43l51 -27q6 -8 16 -10q2 -2 3 -2q3 0 3 -2 q2 -2 4 -2q2 -2 6 -10q10 -20 -16 -60q-12 -20 -47 -61q-35 -43 -150 -160l-108 -110l-109 -107q-27 -27 -51 -57q-12 -16 -29.5 -13t-22.5 16z" />
<glyph unicode="?" horiz-adv-x="559" d="M33 887q-4 -12 3 -21.5t19 -9.5q31 -4 35 27l12 86q14 111 52 166q20 29 65 42t95.5 -2.5t78.5 -62.5q45 -61 35 -168.5t-86 -171.5q-2 -2 -47 -37q-82 -63 -117 -114q-39 -55 -59.5 -148.5t-18.5 -167.5q-4 -27 9 -39q6 -6 20 -6q29 0 29 31q0 203 67 301q33 47 101 96 l53 41q63 55 90 135t18.5 154t-43.5 129q-66 96 -174 94t-161 -78q-43 -57 -56 -139q-20 -135 -20 -137zM80 100q-25 -96 35 -96q31 4 39 35t-4 61q0 6 -9 11q-12 8 -18 10l-4 2q-31 4 -39 -23z" />
<glyph unicode="@" horiz-adv-x="790" d="M-29 461q-10 -113 19.5 -211t91.5 -152q57 -47 166.5 -65.5t183.5 6.5q25 6 94 39q57 29 86 41q30 11 22 38t-36 15q-39 -12 -92 -41q-41 -20 -84 -35q-66 -20 -158 -3.5t-139 54.5q-80 61 -94.5 214t39.5 317q51 174 146 301t204 158q57 16 99 -11.5t63.5 -87t33 -114 t13.5 -109.5q16 -203 -90 -375q-39 -59 -68 -59q-10 0 -16 18q-8 16 -13 68q4 29 11 47q12 53 14 82q-2 119 -24.5 175t-75.5 69q-23 6 -45.5 -4.5t-37 -26.5t-42.5 -53q-68 -88 -106 -208t-15 -196q25 -68 74 -82q90 -27 170 68q2 2 5 7l27 32q-2 -2 0 -4q22 -49 68 -49 q59 0 131 118.5t88 219.5q12 63 5 163.5t-32 182.5q-76 233 -249 186q-133 -41 -236 -180q-174 -236 -201 -553zM176 373q-16 61 17.5 168.5t93.5 183.5q31 37 49 49l2 2q2 2 4 2q25 12 41 -12q12 -25 20 -59q3 -11 3 -95l-19 -94l-12 -49q-6 -16 -17 -35q-31 -61 -68.5 -90 t-72.5 -16q-31 12 -41 45z" />
<glyph unicode="A" horiz-adv-x="512" d="M-88 25q0 -12 8 -20.5t21 -6.5q12 0 21 9t9 22q14 244 68 577q10 37 43 43q23 4 72 8q80 8 120 13q6 0 11 2q-6 -31 -13 -94q-34 -223 -34 -363v-12q2 -142 51 -205q9 -11 21 -11q4 0 8 1q16 4 22 18t-2 29q-29 37 -36 109q-4 36 -4 77t4 88q7 94 28 266q31 231 31 371 q-1 10 -1 20q-2 144 -51 230q-45 60 -88 60h-11q-48 -8 -87 -76q-45 -76 -70 -195q-116 -538 -141 -960zM66 750q55 315 106 405q25 41 41 43h2q16 0 41 -39q46 -71 46 -244q0 -66 -7 -147q-6 -41 -12 -41h-11q-53 -6 -118 -10q-19 -2 -52 -6h-8q-17 0 -24 7q-6 6 -6 17 q0 7 2 15z" />
<glyph unicode="B" horiz-adv-x="526" d="M-45 8q2 -25 0 -43l4 23q0 -24 24 -24q3 0 7 1q6 2 43 8q51 8 100 27q80 35 137 98q121 127 127 299q0 86 -49 177.5t-115 125.5q-3 4 -2 7q4 2 7 4q63 53 81 145q17 81 17 153q0 66 -14 126q-36 140 -153 139q-29 0 -63 -8q-10 -2 -18 -15q-4 -8 -4 -14q-2 -10 1 -26.5 t-1 -26.5q-20 -78 -31 -174q-10 -113 -10 -211v-5q0 -62 -39 -391q-43 -334 -49 -395zM20 76q4 29 13.5 98.5t13.5 112.5q39 305 53 516q3 12 6 98q4 84 7 115q12 124 39 192v4q7 2 14 2q13 0 29 -6q49 -16 69 -94q14 -51 14 -112q0 -65 -16 -142q-12 -65 -61 -104 q-20 -16 -51 -31q-2 0 -8.5 -4t-10.5 -4l-6 -2q-2 -2 -4 -2l-2 -2q-2 0 -4 -2l-9 -7q-8 -12 -6 -26q9 -31 57 -31h11q14 2 25 2q10 2 10 0q53 -31 106 -131q29 -57 29 -121q0 -65 -30 -139q-60 -145 -193 -203q-12 -4 -54 -14q-7 -1 -12 -2q-14 0 -21 8q-8 8 -8 24v7z" />
<glyph unicode="C" horiz-adv-x="507" d="M-34 454q1 -260 50 -366q28 -66 82 -86q23 -9 47 -9q30 0 60 15q49 23 87 72t52 106q8 29 -22 33q-29 4 -35 -24q-8 -43 -39 -80q-16 -20 -37 -37t-46.5 -25t-50 7.5t-42.5 56.5q-45 98 -45 360q0 455 129 656q49 78 120 96q11 3 22 3q50 0 75 -64q18 -44 18 -87 q0 -32 -10 -65q-4 -33 20 -35q31 -4 37 23q12 37 12 76q0 57 -24 120q-33 92 -115 92q-21 0 -45 -6q-94 -27 -160 -125q-66 -102 -104 -293q-36 -150 -36 -400v-14z" />
<glyph unicode="D" horiz-adv-x="540" d="M-23 16q-2 26 -2 53q0 79 13 177q6 53 12 105t10 81t4 37q0 2 1 16.5t3 45t5 65.5q10 190 24 334q16 182 51 293v22q4 29 33 29q209 0 283 -164q43 -97 43 -228q0 -91 -21 -198q-43 -223 -154.5 -425t-224.5 -255q-6 -4 -14 -4q-6 0 -15.5 -3t-19.5 -3q-3 -1 -7 -1l-13 5 q-6 4 -11 18zM35 55q2 0 4 2q94 45 195.5 233.5t144.5 399.5q22 107 22 195q0 91 -24 161q-47 136 -182 162q-8 2 -14 2q-27 0 -36 -32q-23 -76 -39 -248q-18 -176 -26 -328q-6 -125 -8 -129q2 -12 -25 -227q-12 -94 -12 -191z" />
<glyph unicode="E" horiz-adv-x="524" d="M-55 29v30q0 10 3 39t3 43q2 10 5 38t7 46q4 51 6 54l2 19q2 19 6.5 66.5t8.5 100.5q39 422 67 608q8 55 23 103q16 53 35 63q16 10 73 14h103q16 0 57 -2t71.5 -4t39.5 -2q27 0 26 -28q-4 -14 -10 -21q-10 -8 -22 -8q-25 0 -173 6q-30 2 -54 2t-42 -2h-22l-25 -29 q-14 -49 -20 -96q-16 -90 -39 -291l-2 -24q-2 -20 7 -30.5t30 -8.5q33 2 79 2q27 4 31 -27q-4 -31 -33 -31q-6 -2 -55 -2q-6 0 -18.5 -1t-16.5 -1q-35 0 -39 -41q-10 -98 -18 -190q-12 -133 -12 -145q-2 -2 -7 -54q-4 -18 -7 -45.5t-5 -38.5q0 -14 -3 -40.5t-3 -37.5 q2 -6 2 -18h12q4 0 15.5 -1t21.5 -1h66q57 0 98 2h62q29 0 24.5 -28.5t-31.5 -28.5q-25 0 -63 -2q-37 -2 -94 -2q-72 0 -95 2h-18q-27 0 -39 8q-2 0 -6 4q-12 12 -12 31z" />
<glyph unicode="F" horiz-adv-x="559" d="M-55 32q0 -10 6 -16q8 -9 20 -8q27 0 31 29q2 27 37 459q2 23 5 60.5t3 51.5q8 39 41 45q37 4 72 4q31 0 30 29q4 29 -24 29q-12 0 -33.5 -1t-30.5 -1q-20 -4 -30.5 6t-8.5 31q4 37 14.5 101t12.5 75q4 18 8 39q0 2 1 6t1 8q6 47 9 55q6 55 16 119q2 6 3 12t2 9.5t2 6.5 t1 5v8q10 2 35 2q238 8 317 8q31 0 31 29v7q0 22 -24 22q-141 0 -320 -7q-16 -2 -39 -2h-12h-4q-4 -2 -6 -2t-11 -4q-18 -12 -18 -26v-7q-2 -4 -4 -14t-4 -16q-14 -59 -23 -146q-8 -31 -8 -55q-2 -8 -4 -17.5t-2 -11.5q-39 -197 -57 -460q-8 -102 -21 -257 q-14 -165 -14 -205z" />
<glyph unicode="G" horiz-adv-x="479" d="M-45 301q-2 35 -2 72q0 136 23 289q30 196 87 342q33 82 77 139t87 79q33 18 64 18q10 0 20 -2q41 -7 70 -46q37 -49 37 -115q0 -17 -2 -35q-4 -31 -35 -26q-12 0 -19.5 9t-3.5 22q2 13 2 26q0 50 -26 83q-19 23 -46 23q-19 0 -42 -12q-68 -33 -125.5 -174t-85.5 -340 q-23 -148 -23 -282q0 -32 1 -63q7 -161 48 -216q37 -50 73 -50q54 0 106 112q39 82 49 168q4 31 0 53q-10 29 -37 28q-8 -2 -28.5 -3t-30.5 -1q-14 -2 -35 -2q-12 0 -20.5 8.5t-6.5 20.5q4 29 33 29q37 0 67 6h16q45 0 66 -9q25 -12 33 -53q4 -17 4 -42q0 -16 -2 -35 q-12 -100 -60 -199.5t-112 -128.5q-30 -14 -57 -14q-54 0 -95 57q-63 86 -69 264z" />
<glyph unicode="H" horiz-adv-x="483" d="M-74 8v-7q0 -22 24 -22l1 1q29 0 33 28q4 51 25.5 252t35.5 354q2 16 4 23.5t11.5 13.5t27.5 6q14 0 92 5q16 0 48 1t46 3q25 2 33 -5.5t6 -33.5q-14 -135 -36.5 -336t-28.5 -264q-4 -29 24.5 -29t32.5 29q29 270 70 608q10 85 29 221t28.5 227t9.5 161q0 10 -6 16 q-8 8 -20 8q-27 0 -31 -29q-6 -59 -24.5 -216t-28.5 -255q-2 -23 -9.5 -32t-11.5 -9t-24 -2q-41 -2 -103 -6q-37 -2 -88 -2h-10h-9q-1 0 -8.5 1t-5 4t-3 7t-2.5 11.5t1 17.5q12 117 29.5 292t17.5 183q4 29 -24.5 29t-32.5 -29q-25 -236 -61 -612q-41 -422 -62 -613z" />
<glyph unicode="I" horiz-adv-x="466" d="M-102 12q-2 -12 6 -20q6 -6 15 -6h5q77 3 157 3t163 -3h7q23 0 30 26q2 12 -6.5 21.5t-20.5 9.5q-18 2 -59 2q-12 0 -18.5 1t-11.5 1t-6 3t-2 5t0 9.5t1 11.5q10 154 16 205q2 18 4 40.5t3 34t1 19.5q2 14 10.5 83.5t14.5 121.5q4 35 9 77.5t8 70.5t5 44q25 238 27 344 v18q0 14 2 15.5t12.5 5.5t32.5 4h45q20 0 32 -1l11 -1q27 1 31 29v6q0 22 -25 22q-47 0 -100 3h-40q-127 0 -202 -11q-29 -4 -28 -32q4 -29 30 -25q12 2 27.5 3t38 3t37.5 4q18 2 27.5 -2t10.5 -10t1 -19v-8q-6 -162 -27 -348q-2 -16 -5 -44t-8 -71t-9 -77 q-6 -51 -14.5 -121t-10.5 -84q0 -14 -10 -92q-4 -37 -19 -215q-4 -20 -45 -21q-20 -2 -62.5 -3t-62.5 -1q-29 0 -28 -31z" />
<glyph unicode="J" horiz-adv-x="563" d="M-82 276q0 -125 53 -202q42 -57 93 -57q52 0 114 59q55 49 105 223q104 362 118 721q1 20 1 39q0 58 -5 110v11v10q0 2 1 8t4.5 7t7.5 4t12 4t18 1h52q30 0 30 34q0 9 -6 16q-8 8 -20 6h-154q-26 -1 -51 -1q-51 0 -98 3h-4q-8 0 -17 -6q-10 -9 -12 -21t5 -21.5t19 -9.5 q29 -4 109 -4q29 0 35 -7t10 -27q5 -39 5 -86q0 -35 -3 -74q-14 -362 -115 -707q-18 -55 -43 -127q-23 -49 -41 -65q-40 -39 -70 -39q-28 0 -48 33q-47 68 -46 170q0 12 -9 20t-19 8q-12 -2 -21.5 -12t-9.5 -21z" />
<glyph unicode="K" horiz-adv-x="546" d="M-37 18q-3 -12 7 -20q8 -6 17 -6h5q12 0 21.5 9t6.5 22q27 440 46 608q4 40 28 40q8 0 19 -5q27 -14 45 -50q37 -76 37 -309q0 -14 1 -62t3 -69.5t6 -56.5t13 -57.5t24 -38.5q6 -10 20 -19q25 -12 45 -12q25 2 31 2h8q31 0 31 29q4 28 -25 28h-45l-8 4q-14 12 -20 29 q-18 39 -27 231q0 92 -2 119q-12 242 -109 285q-37 20 -14 51q186 289 330 410q12 10 12 22q0 4 -1 6q-3 16 -17.5 19.5t-30.5 -6.5q-121 -104 -281 -334q-27 -38 -38 -38q-8 0 -8 20q0 12 3 30q35 221 56 313q8 29 -21 33q-4 1 -7 1q-23 0 -28 -25q-53 -217 -82 -506 l-4 -45q-27 -268 -47 -652z" />
<glyph unicode="L" horiz-adv-x="440" d="M-49 -4q0 10 2 24.5t2 24.5v12q8 92 8 103q0 6 10 73q6 43 7 62l4 35q8 98 30 272q43 353 43 548v32q0 29 29 33h7q22 0 22 -25q2 -31 1 -67q0 -192 -44 -523q-29 -227 -31 -270l-4 -35l-6 -62l-8 -73q-9 -87 -9 -103l-2 -26q4 -2 11 -2q2 0 30 -4h53q10 -2 136 -2 q12 -1 20 -9q6 -7 6 -15q0 -16 -8.5 -25t-23.5 -9h-136q-41 0 -82 4q-51 4 -59 21q-3 3 -6 12v2z" />
<glyph unicode="M" horiz-adv-x="745" d="M-49 14q0 -23 25 -23q5 0 10 1q25 4 24 35q-3 34 -3 65.5t3 61.5q6 47 10 67q3 43 7 68q20 184 43 332q20 147 41 331q8 70 8 97q8 82 15 82q3 0 7 -9q0 -2 5.5 -13t7.5 -17q45 -106 106 -193q2 -4 6 -10q13 -21 7 -31q-2 -3 -8 -9l-7 -9q-94 -121 -96 -123 q-14 -16 -8 -31.5t21 -16.5t28 11q4 4 80 100q16 23 23 28t13.5 1t20.5 -27q35 -49 57 -88q10 -14 25.5 -13t26 15.5t2.5 30.5q-10 16 -37 56t-41 65q-19 27 -19 29q1 3 19 28l18 27q57 82 123 162q35 35 51 35q2 0 4 -1v-28q-3 -18 -6 -135q-10 -102 -18 -291 q-26 -365 -26 -567q0 -39 1 -72q-2 -12 8.5 -19.5t22.5 -5.5q12 0 20.5 10.5t6.5 22.5v32q0 213 24 601q12 135 19 293q8 155 8 202v15v28q-2 6 -2 13l-2 8q-6 10 -15 12q-10 6 -19 6q-20 0 -36 -28q-4 -8 -6 -11l-4 -4q0 -2 -2 -2q-82 -82 -199 -247q-10 -14 -15 -21.5 t-11.5 -7.5t-7.5 1t-8 12t-11 18q-45 61 -80 157q-33 68 -43 82q-16 23 -23 29q0 4 -6 10q-17 17 -35 17q-10 0 -22 -6q-30 -16 -21 -54q0 -8 2 -10l3 -6q2 -2 2 -4q0 -96 -15 -226q-20 -184 -41 -331q-23 -147 -43 -332q0 -2 -10 -78q-12 -85 -12 -142q0 -32 4 -55z" />
<glyph unicode="N" horiz-adv-x="620" d="M-41 50q0 -9 6 -15q8 -8 21 -8q27 0 30 28q20 176 41 324q23 172 64 555q5 59 19 59q12 0 30 -47l-6 12l231 -565q10 -20 11 -49q-12 -238 -13 -326q-3 -12 7 -20q8 -6 17 -6h5q12 0 21.5 9t7.5 22q0 84 12 313q2 20 12 173t19 247q10 82 20 147q25 168 25 279 q0 29 -2 53q-3 23 -25 23q-4 0 -8 -1q-27 -4 -27 -34q2 -23 2 -50q0 -102 -24 -266q-20 -129 -31 -284q-6 -92 -15 -93q-6 -1 -21 47q-7 22 -11 33l-156 377l-26 60q-8 18 -17.5 40.5t-9.5 24.5q-27 88 -29 121q0 25 -20 25q-4 0 -8 -1q-6 0 -19 -8q-6 -6 -14 -32 q-4 -8 -2 -11q-4 -236 -45 -573q-6 -33 -31 -254q-3 -24 -9 -59t-11 -65.5t-10.5 -65t-8 -70.5t-2.5 -69z" />
<glyph unicode="O" horiz-adv-x="587" d="M-35 252q4 -122 56.5 -196t158.5 -74q94 0 158 59q39 37 70 160q69 295 98 655l2 10q2 36 2 68q0 98 -18 168q-28 92 -96 128q-47 25 -95 25q-22 1 -44 -5q-71 -16 -120 -66q-147 -150 -172 -654q-2 -78 -2 -147.5t2 -130.5zM24 274q-2 49 -3 105q0 72 4 156 q23 477 153 612q51 47 129 47q145 -2 145 -262q0 -20 -1 -41v-8q-8 -166 -54 -430q-25 -150 -49 -244q-4 -12 -12 -43t-12 -43q-16 -33 -27 -41q-14 -18 -49 -30.5t-62 -12.5q-80 0 -118.5 62.5t-43.5 172.5z" />
<glyph unicode="P" horiz-adv-x="430" d="M-49 6q0 -25 21 -25q4 1 8 1q28 4 28 32q-1 24 -1 50q0 204 42 550q0 18 35 35q80 41 125 74q80 53 127 145q26 65 26 126q0 38 -10 75q-27 97 -107 153q-72 51 -164 51q-10 0 -20 -1q-12 0 -20 -8q-12 -12 -8 -25q0 -10 7 -26.5t7 -26.5q-10 -180 -55 -572 q-42 -345 -42 -556q0 -27 1 -52zM66 760q31 221 40 403q0 23 14 33q7 6 17 6q8 0 17 -4q92 -33 130 -121q18 -42 18 -87q0 -49 -21 -101q-39 -90 -166 -160q-14 -7 -25 -7q-6 0 -12 3q-12 7 -13 26q0 4 1 9z" />
<glyph unicode="Q" horiz-adv-x="563" d="M-53 201q0 -115 39 -191q27 -51 73 -71q20 -7 41 -7q32 0 68 16q61 27 104 97q18 33 27 34t29 -24l18 -20q10 -12 26.5 -8t22.5 18t-4 31l-47 59q-18 23 -10 53q45 139 82 560l8 88l8 36q8 71 8 123q0 59 -10 95q-18 69 -82 124q-50 49 -109 49q-21 0 -43 -7 q-83 -23 -139 -132q-111 -207 -111 -795q0 -62 1 -128zM4 209q-1 45 -1 88q0 604 106 807q54 101 117 101q38 0 79 -36q80 -70 80 -157v-16q0 -57 -11 -134q-14 -90 -16 -114q-34 -340 -59 -467q-9 -45 -25 -45q-13 0 -32 32q-16 27 -45 72q-14 25 -41 8.5t-13 -41.5 q49 -78 95 -139q20 -27 6 -55q-39 -78 -86 -107q-27 -14 -50 -14q-42 0 -69 49q-35 74 -35 168z" />
<glyph unicode="R" horiz-adv-x="577" d="M-43 27q10 123 47 391q10 78 25.5 200.5t22.5 179t15.5 150.5t14.5 201q2 31 -10.5 38t-32.5 -3q-2 0 -3 -1l-3 -1q-18 -8 -29.5 2t-9.5 26.5t20 24.5q76 32 150 32q94 0 184 -53q82 -46 115 -122q18 -41 17 -86q0 -41 -13 -86q-35 -121 -162 -195q-16 -10 -39 -20 q-33 -18 -12 -52q49 -82 49 -252q0 -45 -4 -86q-2 -48 -2 -87.5t2 -71.5q8 -49 16 -70q4 -10 11 -16q2 -2 2 -7q18 4 28 15q4 4 9 6q12 14 28.5 11t19.5 -17.5t-7 -30.5q-38 -44 -80 -44h-2q-43 1 -66 58q-22 57 -22 150v8q2 12 3 46t1 50q4 41 4 82v20q0 160 -60 222 q-18 20 -55 8l-6 -2q-34 -12 -37 -49q-70 -526 -72 -569q-4 -29 -32 -29q-25 0 -25 22v7zM102 748q-1 -5 -1 -10q0 -15 10 -22q7 -5 17 -5q9 0 19 4q117 43 178.5 90t86.5 127q10 35 10 67q0 102 -107 164q-57 35 -127 41h-7q-38 0 -38 -41q-14 -213 -41 -415z" />
<glyph unicode="S" horiz-adv-x="604" d="M-6 231q2 -4 2 -14v-16q-2 -31 8 -62l10 -30q27 -61 90 -82q43 -16 86 -16q86 0 170 63q84 61 103 194q2 20 1 39q0 58 -18 105q-27 63 -69 112q-45 49 -94 94l-5 5l-10 8q-92 82 -137 145q-38 53 -38 119q0 29 7 61q28 110 100 172q65 56 136 57q7 0 14 -1 q78 -4 113 -76q19 -38 19 -89q0 -45 -15 -101q-8 -29 22 -33q29 -4 35 24q16 61 17 114q0 67 -28 119q-48 92 -153 101q-9 1 -19 1q-90 0 -172 -70q-91 -76 -124 -209q-10 -34 -10 -69q0 -15 2 -30q8 -86 65 -155q45 -57 119 -119q12 -14 21 -21l45 -43q20 -18 45 -45 q41 -51 59 -98q13 -38 13 -86q0 -16 -1 -33q-2 -20 -18 -73q-35 -92 -156 -117q-28 -6 -52 -7q-78 0 -107 68l-7 19q0 6 -4 18q-2 4 -3 10t-1 11q0 14 -2 20v43q0 2 1 5t2 9.5t1 10.5v20l2 25l2 22q4 29 -24.5 29t-32.5 -29l-2 -26l-4 -29l-2 -31q-3 -18 -3 -27q0 -4 1 -6z " />
<glyph unicode="T" horiz-adv-x="555" d="M33 1196q-2 -12 6 -20.5t20 -6.5q37 2 123 2q39 0 39 -28q0 -6 -2 -13q-31 -236 -82 -735q-6 -63 -33 -346q-4 -29 25 -29t33 29q2 23 13 136.5t22 209.5q51 500 82 738q10 38 47 38h153q10 0 17.5 3.5t11.5 11.5t4 19q0 9 -6 15q-8 8 -21 9q-389 0 -424 -2 q-12 0 -21 -9.5t-7 -21.5z" />
<glyph unicode="U" horiz-adv-x="540" d="M27 311q10 -86 32 -172q43 -135 121 -137h9q78 0 139 129q33 76 53 172q39 190 53 311q29 244 45 592q2 12 -6 20.5t-20 8.5q-31 -4 -31 -33q-16 -242 -21 -305q-20 -307 -77 -586q-20 -96 -50 -161q-25 -51 -45 -70q-14 -20 -39 -21q-43 4 -71 103q-18 57 -33 162 q-12 110 -12 231q0 296 71 659q4 29 -24 33q-29 0 -33 -28q-73 -384 -73 -682q0 -120 12 -226z" />
<glyph unicode="V" horiz-adv-x="655" d="M59 1210q5 24 29 24q4 0 8 -1q29 -4 21 -35q-2 -2 -2 -35q0 -10 3 -36.5t3 -41.5q6 -88 24 -223l23 -153l20 -146q11 -66 11 -80l28 -215q4 -23 6.5 -34t8.5 -24t15 2t22 56q6 18 18 60q40 117 98 331q53 209 80 291l39 117q27 76 37 113q7 28 35 24q22 -4 22 -21 q0 -5 -2 -12q-8 -43 -37 -118q-10 -29 -39 -115q-31 -102 -77 -289q-66 -229 -101 -334q-10 -31 -35.5 -116.5t-45 -140t-27.5 -58.5q-5 -4 -12 -4q-8 0 -17 6l-6 8q-2 2 -2 6l-4 4q0 8 -2 15l-8 47l-19 143q-29 215 -35 246q0 12 -10 78l-20 147l-21 154q-14 98 -27 223 q-6 64 -6 99q0 28 4 38z" />
<glyph unicode="W" horiz-adv-x="923" d="M39 1237q4 29 31 29q12 0 20 -8.5t6 -20.5q-3 -29 -3 -66q0 -62 9 -149q12 -141 13 -168l4 -59l4 -62v-57q2 -74 8 -119q4 -55 6 -61l6 -56q4 -39 9 -59l10 -57l2 -15q2 -14 8 -49t12 -72l27 -43q14 61 20 93q8 33 9 36q4 18 14 50l84 321q6 31 4 53q-31 268 -31 471v45 q-2 10 7.5 20.5t21.5 12.5q12 0 21.5 -8t7.5 -20q0 -162 8 -250q1 -16 3 -44q5 -64 10 -66q3 -2 9 15q5 15 22 76q3 11 5 17l74 260q6 27 37 22q25 -2 20 -35q-115 -395 -145 -514q-6 -33 -2 -51l39 -338q6 -61 38 -182l-10 49q16 -51 29 -49q45 139 94 338l55 209l52 180 q41 150 59 205l59 182q5 24 31 24q4 0 8 -1q19 -3 19 -22q0 -6 -2 -13l-60 -184q-16 -55 -36.5 -127t-43 -151t-30.5 -105l-54 -205l-49 -187q-10 -39 -47 -157q-4 -12 -10 -30.5t-10 -31t-9 -20.5q-6 -20 -12 -29l-1 -2q-1 -2 -1 -4l-8 -12q-10 -10 -25 -11q-9 0 -18 7 l-4 4q0 2 -1 3l-1 3v2l-2 2l-2 6l-27 107q-33 123 -39 190l-12 94q-12 112 -16 112q-1 0 -4 -7t-7 -21.5t-9.5 -35t-12.5 -48.5l-27 -102q0 -6 -12 -62q-27 -117 -41 -157q-14 -37 -19 -47q-2 0 -2 -4.5t-2 -4.5q-14 -25 -39 -24q-14 0 -22 8q-2 0 -2 4v4q-2 2 -6 10 q-2 8 -6 29l-17 82q-27 143 -29 153.5t-5 25t-3 22.5q-4 29 -8 45l-8 63q-6 55 -8 70l-4 65q0 6 -2 31t-5 43q-2 35 -2 64l-6 110v49q-2 10 -3 30t-4 51.5t-5 56.5q-7 94 -7 157q0 43 3 72z" />
<glyph unicode="X" horiz-adv-x="526" d="M-80 25q-4 -8 -4 -15q0 -8 5 -14q8 -12 21 -12h4q16 2 25 20q90 168 162 344q23 55 29 55t22 -55q14 -51 43 -171t47 -173q6 -16 23.5 -17t29 12t5.5 30q-72 190 -117 481q-4 29 8 53l109 268l41 111q53 160 100 229q9 11 9 21q0 11 -13 19q-9 5 -17 5q-14 0 -24 -16 q-55 -78 -113 -246q-8 -20 -16 -45.5t-13 -39t-10 -21.5l-43 -107q-16 -45 -25 -56t-14.5 1t-11.5 57l-10 74q-9 65 -37 191q-28 120 -37 184q0 23 -21 23q-4 0 -9 -1q-27 -2 -27 -34q6 -63 35 -191q29 -115 39 -184l32 -242q2 -27 -8 -53q-121 -297 -219 -485z" />
<glyph unicode="Y" horiz-adv-x="632" d="M49 1221q10 -119 55 -275l39 -143l31 -109q0 -2 6 -19.5t8 -31.5t0 -25q-31 -141 -47 -399q-6 -137 -12 -186q-4 -29 24.5 -29t32.5 29q2 20 7.5 85.5t9.5 106.5q10 156 20 242q10 104 25.5 154.5t60.5 136.5q193 371 279 481q8 10 8 20q0 5 -3 11q-7 14 -23 15h-2 q-14 0 -27 -13q-37 -47 -181 -301l-104 -191q-2 -2 -3 -6t-7 -9t-11.5 -6t-12.5 6t-13 28l-14 51l-39 139q-41 184 -50 250q0 27 -30 22q-27 -4 -27 -34z" />
<glyph unicode="Z" horiz-adv-x="614" d="M-61 25q-1 -2 -1 -4q0 -5 3 -11q2 -12 16 -18t47 -6q6 -2 25 -2q49 0 141 6l98 6q55 2 94 6q25 2 52 2q29 0 32 29q2 12 -6 20t-20 8q-27 0 -51 -2q-45 -4 -97 -6q-129 -10 -237 -10q-1 3 -27 6q16 41 39 86l127 262l137 273q41 84 82 157q41 66 88 172.5t60 155.5 q11 31 11 56q0 12 -3 22q-4 16 -17 22q-2 2 -8 2q-2 3 -8 3h-12q-4 0 -6 -3q-8 0 -22.5 -1t-22.5 -3q-4 0 -11.5 -2t-11.5 -2q-100 -14 -194 -14q-79 0 -152 10q-29 4 -35 -24q-8 -29 21 -33q78 -12 161 -12q97 0 201 16q2 0 8 1t9 1q8 0 16 1t12 2t8 1q2 0 9 2 q-4 -20 -9 -33q-14 -49 -45 -116q-61 -139 -98 -199q-23 -33 -84 -160l-135 -274l-129 -262q-25 -51 -39 -88q0 -2 -4 -5l-10 -26v-6z" />
<glyph unicode="[" horiz-adv-x="491" d="M-25 12q14 -47 150 -59h160q27 0 30.5 28.5t-24.5 28.5q-143 0 -156 2q-60 5 -80 11l-16 6l-8 4q-6 27 10 100q27 109 27 121q18 126 36 362q20 270 27 320l4 63q0 106 15 146q8 23 15 27t40 4q139 0 201 -19q29 -4 38 21q6 27 -16 36q-80 20 -219 21q-51 -2 -75.5 -16.5 t-39.5 -59.5q-16 -45 -20 -166q4 -47 0 -57q-6 -49 -27 -320q-27 -295 -37 -362l-3 -12q-3 -12 -10 -41t-15 -60q-18 -89 -7 -129z" />
<glyph unicode="\" horiz-adv-x="563" d="M47 1206q2 -84 35 -223q12 -68 18 -98q55 -309 106.5 -506t133.5 -367q8 -14 23.5 -15t26.5 13.5t1 30.5q-80 170 -131 367.5t-102 492.5q0 6 -19 100q-33 154 -33 213q-4 29 -30 25q-29 -4 -29 -33z" />
<glyph unicode="]" horiz-adv-x="428" d="M-51 -4q0 12 9 21.5t22 9.5q4 2 30 2q39 0 105 4q4 0 67 8q25 8 27 27q0 4 1 15t3 30.5t2 40.5q6 71 18 258q31 426 35 440q0 6 15 74q35 178 24 219q0 2 -2 2q-9 3 -24 6q-28 6 -80 6q-66 0 -158 -6q-12 -2 -20.5 6t-6.5 21q0 31 29 30q84 8 162 9q61 0 92 -9 q57 -12 63 -39q16 -43 -6 -163q-4 -23 -16 -87.5t-14 -72.5q-14 -104 -52 -694q-3 -61 -6 -86l-4 -25v-8q-2 -6 -6 -15q-12 -20 -65 -36q-61 -12 -134 -13q-18 -2 -53 -2h-29q-12 -2 -21 6.5t-7 20.5z" />
<glyph unicode="^" horiz-adv-x="524" d="M-35 643.5q6 -14.5 21.5 -15.5t29.5 13q137 186 236 358l51 95l2 -31q12 -194 62 -387q4 -16 20 -18.5t28.5 9t10.5 29.5q-45 160 -61 351q0 8 -1.5 23t-1.5 26q4 59 -2 90q0 18 -8 31q-10 10 -20 12q-26 5 -46 -36q0 -1 -24 -50q-117 -231 -291 -469q-12 -16 -6 -30.5z " />
<glyph unicode="_" horiz-adv-x="905" d="M-109 -18q0 -27 33 -23q66 16 217 12q49 -2 101 -2q25 0 229 4q102 2 231 2q31 0 31 29q4 29 -24 29q-129 0 -232 -2q-205 -4 -229 -4q-6 0 -18.5 1t-35 2t-42.5 1q-152 5 -234 -15q-27 -4 -27 -34z" />
<glyph unicode="`" horiz-adv-x="360" d="M84 1185.5q0 -14.5 14 -24.5q47 -29 76 -59l39 -39l35 -39q20 -18 41.5 3.5t3.5 41.5l-35 35l-41 43q-37 41 -88 67q-16 8 -30.5 -3t-14.5 -25.5z" />
<glyph unicode="a" horiz-adv-x="534" d="M-88 12q-2 -6 -2 -12q0 -18 22 -20q31 -4 35 24q18 61 53 264q57 311 64 344q5 37 40 37h7q117 -4 174 -10q37 0 37 -39q-3 -301 -37 -596q0 -29 27 -29q31 0 30 29q39 349 39 723q0 117 -4 236v2v6v9v11v15q0 94 -12 143q-22 111 -90 111q-26 0 -59 -17 q-55 -29 -113 -209q-10 -31 -17.5 -55.5t-15.5 -57t-13 -53t-14.5 -63.5t-14.5 -67.5t-17.5 -88t-18.5 -99.5t-23.5 -128t-27.5 -150q-37 -209 -49 -260zM111 752q14 102 69 270q23 82 45 121q6 18 17 28q14 25 41 27h3q14 0 24 -14q12 -16 18 -53t10 -130q4 -155 4 -224 v-36q-2 -31 -11 -37q-7 -4 -24 -5q-6 0 -12 1q-52 5 -150 9q-23 0 -31 8q-5 5 -5 17q0 8 2 18z" />
<glyph unicode="b" horiz-adv-x="612" d="M-33 12q1 -9 7 -16q8 -8 20 -8q5 -1 13 -1q16 0 46 3q253 50 361 208q74 107 73 226q0 55 -16 113q-23 78 -65 129q-59 74 -146 84q-41 2 -16 34q33 41 69 107q36 73 36 140q0 63 -32 122q-31 63 -90 93q-40 20 -88 20q-22 0 -47 -4q-27 -4 -26 -35l-1 -8q-1 -8 -2 -11 q-16 -86 -16 -215v-102q-2 -29 -8 -114t-10 -136q-6 -61 -22.5 -181t-28 -232.5t-11.5 -215.5zM33 43l-1 -1q-3 0 -2 11q0 12 3 39q37 342 47 477q2 29 22 52q65 71 130 71q22 0 44 -8q45 -14 83 -59t55 -109q13 -48 13 -95q1 -103 -65 -195q-96 -134 -321 -181zM98 776 l6 119q2 27 2 106v13q0 107 15 186v4q7 2 17 2t24 -2q68 -12 104 -82q26 -47 26 -97q0 -54 -30 -110q-47 -90 -115 -159q-19 -26 -34 -26h-1q-14 1 -14 36v10z" />
<glyph unicode="c" horiz-adv-x="571" d="M-4 143q27 -84 79 -127q41 -34 90 -34q12 0 25 2q63 8 114.5 64t74.5 145q8 29 -21 32q-31 4 -34 -24q-18 -70 -54.5 -112t-79.5 -46q-7 -1 -13 -1q-35 0 -67 26q-38 30 -59 96q-15 50 -15 136q0 204 85 609q27 117 88 205q61 80 121 98q17 5 32 6q37 0 58 -34 q29 -44 29 -137q0 -29 -3 -64q-4 -29 25 -29t33 29q4 38 4 71q0 106 -39 164q-38 58 -100 59q-21 0 -45 -7q-84 -23 -159 -122t-102 -230q-85 -408 -85 -621q0 -98 18 -154z" />
<glyph unicode="d" horiz-adv-x="509" d="M-20 31q-2 -10 8 -21q6 -6 12 -6q8 0 47 4q6 0 16 10q227 233 316 533q42 137 42 255q0 179 -97 314q-47 63 -89.5 93t-105.5 32h-2q-31 0 -31 -26v-5q-4 -41 -18.5 -151.5t-20.5 -167.5q-31 -231 -34 -270q-39 -352 -43 -594zM41 156q14 238 41 469q2 20 13 106t20 156 q23 190 28 246q4 40 26 40q11 0 26 -10q40 -25 79 -80q85 -118 85 -273v-18q-5 -166 -74.5 -333.5t-188.5 -319.5q-12 -16 -26 -22q-5 -2 -9 -2q-7 0 -13 6q-7 8 -7 26v9z" />
<glyph unicode="e" horiz-adv-x="530" d="M-20 133q-1 -14 -1 -29q0 -30 3 -61q8 -51 30 -59q47 -19 139 -19h9q8 0 40.5 3t60.5 5t40 2q31 0 31 29q4 29 -25 29q-37 0 -67 -2q-84 -6 -127 -6q-26 0 -37 2q-31 6 -27 39q-1 -2 -2 -8q-3 -12 -4 -11l-1 4q-1 4 -1 6q-3 26 -3 53q0 13 1 27q6 172 55 473 q4 29 13.5 35t33.5 6q51 0 72 2q27 0 31 31q0 12 -8.5 20.5t-20.5 6.5q-16 -2 -63 -2q-25 0 -33 8t-4 37q6 47 12 172q4 180 20 256q0 6 5 14q2 12 6 24l2 5q0 2 2 4h6q6 2 31 2q43 0 94 -2q68 -2 143 -2q37 0 47 10q6 4 11 20q0 12 -9.5 20.5t-21.5 6.5q-2 0 -20.5 1 t-58.5 2t-83 1q-51 2 -98 2t-66 -10q-31 -18 -49 -92q-16 -80 -20 -266q-4 -121 -15 -181q-2 -18 -11 -74.5t-13 -95.5q-45 -293 -49 -438z" />
<glyph unicode="f" d="M-23 20q-2 -12 7 -20q8 -6 17 -6h5q12 0 21.5 9t7.5 22q2 199 67 610q2 14 5.5 22.5t11.5 12.5t11 4t17 2q78 6 84 6q29 0 33 31q0 12 -9 20t-22 6q-33 0 -59 -2h-12q-23 -4 -32 4.5t-5 34.5q2 10 4 31.5t4 32.5q12 70 31 319q0 41 38 41h7q31 -2 110 -2q94 0 168 -4 q15 -2 26 6t11 25q0 8 -6 16q-8 10 -20 10q-55 6 -174 6q-96 1 -170 5q-14 0 -19 -5q-16 -12 -22 -32q-2 -2 -2 -11q0 -6 -17 -188q-4 -41 -9 -102.5t-7 -79.5q-2 -6 -66 -416q-35 -258 -35 -408z" />
<glyph unicode="g" horiz-adv-x="524" d="M-6 270q18 -178 84 -252q41 -46 89 -46q28 0 58 16q59 31 101.5 119t56.5 190q6 41 6 72q0 41 -11 63q-18 39 -75 45h-39l-31 -2q-29 0 -32 -29q-2 -12 6 -20t20 -8h33q10 1 18 1q39 0 48 -16q5 -12 5 -36q0 -29 -7 -75q-15 -83 -45 -153q-48 -103 -101 -103 q-31 0 -63 34q-45 45 -62 213q-8 80 -8 169q0 92 9 194q16 200 57 351q31 102 73.5 159.5t81.5 59.5h3q37 0 73 -38q31 -35 31 -76q0 -30 -15 -62q-10 -18 -0.5 -31.5t25.5 -11.5t25 19q23 51 23 95q0 60 -42 108q-43 54 -101 54q-46 0 -100 -32q-82 -53 -133 -233 q-43 -150 -61 -361q-8 -107 -8 -202q0 -93 8 -175z" />
<glyph unicode="h" horiz-adv-x="585" d="M2 15q0 -9 6 -15q8 -8 21 -8q27 0 30 28q20 178 39 437q8 139 11 159q0 18 6 27.5t13.5 11.5t23.5 2h210q16 0 23.5 -1t11.5 -10t2 -30q-4 -45 -20 -157q-27 -210 -27 -338q0 -59 6 -101q0 -27 35 -22q25 4 25 35q-6 40 -6 99q0 123 26 327q6 77 31 233q6 53 15.5 126 t11.5 91q0 6 3 30l5 40q4 16 7 44t5 36q3 31 3 59q0 50 -9 92q-4 16 -20.5 18.5t-28.5 -9t-10 -29.5q9 -37 9 -92q0 -18 -1 -39q-8 -43 -21 -150q-16 -129 -20 -153.5t-14.5 -32.5t-32.5 -8h-215q-16 0 -23.5 2t-11.5 11t-2 28q2 20 5 49t9 72t10 73q20 137 29 252 q2 12 -7 20.5t-22 8.5q-29 -4 -28 -33q-4 -70 -29 -246q-27 -193 -53 -559q-4 -74 -17.5 -201.5t-13.5 -176.5z" />
<glyph unicode="i" horiz-adv-x="233" d="M4 -7q0 -9 6 -15q8 -8 21 -9q27 0 30 29q6 59 19 274q6 123 24 271q62 418 80 686q2 12 -6 20t-20 8q-31 -4 -31 -32q-20 -295 -80 -678q-15 -89 -24 -277q-6 -101 -15 -217q-4 -50 -4 -60z" />
<glyph unicode="j" horiz-adv-x="614" d="M-68 352q0 -23 2 -51q0 -72 7 -119q2 -70 32 -116q37 -68 87 -82q13 -3 25 -3q38 0 75 31q74 61 112 187q43 133 81 457q34 292 34 469v36q-2 41 41 45q20 0 58 1t57 3q29 0 32 31q0 12 -9 21q-7 6 -17 6h-4q-125 -6 -361 -6q-29 0 -32 -29q0 -29 26 -29h109q37 0 35 -39 l-4 -249q1 1 4 38q-6 -90 -23 -249q-37 -354 -82 -494q-34 -108 -92 -154q-23 -20 -45 -16q-29 8 -55 57q-2 8 -7.5 22.5t-9.5 20.5q-14 54 -14 105v59q0 6 -1 16.5t-1 14.5q0 37 -8 45q-10 6 -23 6q-29 -4 -29 -35z" />
<glyph unicode="k" horiz-adv-x="540" d="M-33 23q0 -29 27 -29q31 0 31 29q14 143 20 184q2 41 21 215q2 31 6 84q8 53 23.5 50t29.5 -36q37 -100 61 -188l4 -17q4 -16 9 -30l12 -49l16 -48q12 -41 15 -49l16 -41q10 -33 18 -45q24 -51 38 -75q8 -14 20 -15q8 -1 20 7q26 17 13 40q-12 14 -19 35l-18 37l-17 41 l-14 41q-2 4 -7 20.5t-9 28.5l-13 43l-14 51q-12 43 -14 45q-53 193 -105 281q-16 29 2 55q72 117 86 143q139 238 242 349q8 10 8 21q0 5 -1 9q-5 16 -19.5 17.5t-28.5 -10.5q-104 -113 -240 -340q-6 -12 -18 -32t-16 -28q-21 -35 -33 -35q-8 0 -12 17l-1 57q6 63 48 371 q8 29 -23 33q-31 0 -35 -29q-29 -180 -49 -377t-43 -453q-6 -61 -14 -147t-13.5 -140.5t-9.5 -90.5z" />
<glyph unicode="l" horiz-adv-x="462" d="M-49 141q0 -135 37 -151q36 -18 103 -18q18 0 38 1q43 3 72 3q39 0 53 -5q4 -1 8 -1q24 0 29 24q2 7 2 13q0 19 -21 22q-19 5 -76 5q-28 0 -65 -1q-13 -1 -27 -1q-28 0 -59 3q-27 6 -31 20q-4 8 -2 13q-2 14 -2 33.5t2 43.5q-2 6 13 148q14 119 28 293q6 57 12.5 118.5 t12.5 129t10 100.5q14 152 37 291q8 29 -23 32q-31 0 -34 -28q-16 -106 -39 -293q-6 -57 -16.5 -176t-16.5 -174q-15 -174 -29 -293z" />
<glyph unicode="m" horiz-adv-x="694" d="M-43 8q-2 -12 6 -20t21 -6q12 0 21 9t9 21q8 145 43 441q35 285 47 446q4 33 13 184l7 23q7 9 17 -10q6 -8 21 -43l47 -111l37 -92q18 -35 35 -107l14 -47v-8q0 -4 2 -6l2 -6l4 -4l2 -2q2 -2 2 -4q20 -18 45 6l4 4l2 6q0 2 3 6q4 5 4 8.5t3 10t7 16.5t8 18l61 144 q14 35 56 133q28 61 53 86v-14q0 -10 -2 -13q-10 -158 -12 -170l-17 -147q-16 -127 -16 -162q-6 -43 -12 -143q-14 -115 -17 -164q-12 -164 -12 -299q-2 -12 6 -20q6 -7 16 -7h5q12 0 21 9.5t9 21.5q0 4 2 63.5t4 92.5l9 143q4 92 26 305l17 160l16 147q18 195 18 273 q-2 14 -2 37q0 2 -1 7t-3 7q-4 18 -22 21h-6q-16 0 -31 -13q-10 -10 -12 -20l-2 -4q-3 -3 -4 -5t-1 -6l-2 -4q-51 -80 -139 -297l-22 -55q-23 -47 -30 -47t-24 45q-6 16 -20 55t-29 72q-68 164 -110 221l-2 4q-2 4 -5.5 9t-5.5 10q-23 29 -53 14q-12 -6 -18 -19v-6l-4 -12 l-3 -27q-4 -31 -10 -184q-6 -66 -6 -88q-10 -162 -45 -440q-39 -283 -45 -447z" />
<glyph unicode="n" horiz-adv-x="548" d="M-55 12q0 -25 22 -25q4 0 8 1q27 4 27 32q0 41 2 76t3 60.5t4 61.5t4 52.5t7.5 60.5t8.5 60.5t9 74.5t11 83q18 125 35 264q4 43 20 137l19 92q8 -41 8 -47q2 -14 47 -344q25 -212 56 -344l36 -162l15 -75l5 -15l3 -8l2 -10q0 -2 2 -4l2 -2q2 -2 2 -4q6 -6 16 -7 q16 -2 33 15q4 8 8 14q0 2 2.5 8t4.5 12.5t2 12.5q10 53 14 86l16 162q2 18 27 280q29 406 80 613q2 6 2 11q0 18 -23 21q-4 1 -7 1q-24 0 -29 -25q-53 -219 -84 -623q-10 -178 -23 -278l-4 -37l-4 -53q-3 -23 -18 17q-13 35 -19 67l-2 4q-14 59 -32.5 176t-32 221 t-25.5 193.5t-12 93.5q-13 63 -19 88l-22 110q-6 33 -29 41q-14 4 -29 -2q-20 -12 -26 -159q-2 -25 -21 -138q-4 -35 -10 -81t-8 -58q-14 -117 -33 -246q-29 -193 -41 -309q-11 -132 -11 -208q0 -21 1 -38z" />
<glyph unicode="o" horiz-adv-x="528" d="M-32 486q7 -152 26 -267q25 -123 65 -184q38 -50 86 -50q33 0 72 23q72 45 121 174q75 213 104 682q8 96 8 164q0 76 -10 117q-33 140 -140 140q-20 0 -42 -5q-45 -10 -92 -45t-74 -78q-74 -121 -102 -321q-23 -160 -23 -289q0 -31 1 -61zM28 495q-2 32 -2 65 q0 122 21 270q27 188 94 298q20 33 56 61t67 34q13 3 25 3q71 0 94 -102q13 -46 13 -123q0 -19 -1 -40q-35 -403 -53 -515q-51 -328 -154 -389q-19 -10 -35 -10q-26 0 -44 27q-33 45 -56 162q-17 113 -25 259z" />
<glyph unicode="p" horiz-adv-x="458" d="M-23 49v-7q0 -22 25 -22q29 0 33 29q14 143 20 336l8 215q0 8 3.5 14.5t5.5 7.5t13 5t15 6q2 -1 41 22l52 29q8 4 45 29q57 37 86 75q46 61 61 136q6 29 6 57q0 102 -78 190q-43 51 -111 72q-36 11 -73 11q-34 0 -68 -9q-10 -2 -20 -12q-14 -29 4 -41q0 -2 2 -2 q11 -37 11 -98.5t-11 -147.5q-4 -18 -19.5 -124.5t-17.5 -145.5q0 -6 -12 -285q-6 -193 -21 -340zM72 682l2 51q0 8 3 31l5 37q6 37 11 70.5t8 51t3 21.5q12 89 12 160q0 23 -1 43q-2 23 9 35q9 10 25 10h5q51 -8 92 -42t61 -79q24 -55 24 -105q0 -77 -55 -145 q-27 -33 -69.5 -61.5t-83.5 -50.5q-15 -6 -25 -13q-24 -12 -26 -14z" />
<glyph unicode="q" horiz-adv-x="638" d="M31 387q2 -47 28.5 -138t61.5 -159q35 -63 76 -93q27 -20 57 -20q15 0 31 5q47 16 90 86l6 5q12 1 33 -34l6 -8q10 -14 26.5 -11t23.5 17t-1 31l-37 55q-20 23 -8 55q51 135 88 372q33 213 33 367v33v4q-4 80 -33 161t-70 128q-44 56 -100 56q-19 0 -40 -7 q-81 -26 -152 -153q-63 -111 -95 -337q-26 -182 -26 -338q0 -39 2 -77zM88 395q-1 31 -1 63q0 156 25 336q29 218 87 320q61 108 116 123q6 1 12 1q33 0 68 -36q78 -86 92 -289v-2q0 -143 -28.5 -330.5t-69.5 -322.5q-10 -41 -17 -42q-8 -2 -24 13q-8 8 -29 25 q-14 12 -29.5 4t-19.5 -22.5t9 -26.5q20 -14 47 -49q23 -23 10 -45l-12 -19q-32 -56 -66 -56q-41 0 -84 83q-33 57 -57.5 142t-28.5 130z" />
<glyph unicode="r" horiz-adv-x="563" d="M-20 37q0 47 6 108q12 129 28 213q8 66 17 99q61 420 67 729q0 4 -3 25.5t1 25.5q2 2 2 5t2 5q8 12 19 15q65 15 120 15q154 0 228 -118q35 -50 35 -118q0 -24 -4 -49q-16 -99 -95 -183q-92 -105 -215 -156l-4 -2l-2 -14q49 -100 140 -401q31 -104 59 -170q6 -16 -5 -31 t-27.5 -15t-24.5 17q-31 70 -60 176q-98 354 -141 403l-2 2q-2 2 -4 5q-12 -43 -15 -64q-2 -16 -7 -52t-9 -54q0 -12 -14 -99q-14 -84 -27 -207q-2 -29 -8 -106q0 -31 -29 -31h-4q-10 0 -18 6q-7 6 -7 15q0 3 1 6zM123 743v-10q0 -33 12 -33l31 7q23 8 29 12 q94 45 161.5 123t79.5 154q3 20 4 38q0 51 -26 90q-53 96 -187 96q-14 0 -28 -1q-37 -2 -43 -45q-4 -190 -33 -431z" />
<glyph unicode="s" horiz-adv-x="583" d="M-29 330q-3 -33 -3 -63q0 -115 48 -193q60 -100 166 -109q9 -1 18 -1q98 0 166 78q73 83 72 221v7v7q0 123 -73 231q-47 68 -138 162q-86 86 -121 145q-32 52 -32 114q0 30 8 62q23 94 93.5 150.5t148.5 56.5q78 -2 108 -62q13 -28 13 -68q0 -48 -19 -114q-8 -31 18 -34 q33 -4 39 22q24 71 24 128q0 56 -23 99q-46 86 -154 88q-100 0 -189.5 -72.5t-113.5 -185.5q-11 -43 -11 -82q0 -73 37 -135q43 -70 127 -155q84 -82 135 -154q66 -92 66 -211q-3 -116 -57 -180q-49 -57 -114 -58q-7 0 -15 1q-81 6 -131 88q-38 63 -38 157q0 29 3 60 q4 29 -25 28.5t-33 -28.5z" />
<glyph unicode="t" horiz-adv-x="575" d="M27 1208q-2 -12 7 -20t21 -6q48 3 87 3q19 0 36 -1q41 0 41 -8v-11q1 -14 1 -30q0 -58 -11 -154q-4 -20 -12 -88q-4 -37 -33 -256q-50 -339 -50 -527q0 -32 1 -59q0 -25 22 -25q4 0 8 1q27 4 27 32q-1 22 -1 48q0 181 50 526q18 137 33 260q2 12 12 84q12 78 13 133 q0 25 -3 45v29q86 -4 151 -4q43 0 77 2q12 0 21.5 9t9.5 21.5t-8.5 20.5t-20.5 6q-12 -1 -40 -1q-57 0 -181 3q-66 3 -117 3q-68 0 -111 -5q-12 0 -21 -9t-9 -22z" />
<glyph unicode="u" horiz-adv-x="491" d="M-37 68q8 -55 45 -82q31 -23 80 -23q16 0 34 2q73 10 116 58q70 78 98 206q14 78 22 172q2 57 7 76q0 14 32 258q27 227 25 256q4 41 4 111q-1 18 -1 36q0 36 3 72v7q0 22 -24 22q-28 0 -33 -29q-4 -57 -4 -112q0 -31 -1 -68t-1 -43q-4 -63 -27 -254q-6 -57 -14.5 -118.5 t-12.5 -93.5t-4 -44q-6 -49 -6 -80q-2 -18 -6 -46.5t-4 -39.5q-8 -86 -37 -151q-49 -125 -137 -137q-10 -1 -19 -1q-63 0 -78 62q-5 21 -5 51q0 49 12 123q27 145 45 485q18 324 51 478q6 29 -23 32q-31 0 -34 -28q-35 -172 -54 -486q-18 -322 -41 -477q-15 -78 -15 -132 q0 -37 7 -62z" />
<glyph unicode="v" horiz-adv-x="552" d="M37 1221q0 31 26 36q4 1 7 1q15 0 26 -21q16 -121 17 -258q2 -51 2 -117q10 -127 41 -545q2 -16 5 -54t5 -54q2 -12 5 -25.5t4 -19.5l1 -6q6 20 78 342q29 135 84 354q45 174 113 352q15 27 39 21q18 -5 18 -23q0 -6 -2 -14q-66 -162 -111 -346l-43 -164 q-10 -41 -39 -184q-10 -45 -22 -100.5t-17 -69.5q-10 -43 -19 -85t-13 -63.5t-6 -27.5q-14 -53 -17 -58q-14 -39 -18 -49q0 -2 -2 -3l-2 -3q-2 -8 -13 -14q-10 -10 -23 -10q-3 0 -7 1q-8 0 -19 11l2 2q-2 0 -2 4q0 2 -2 4l-4 8l-2 25l-14 73q-14 125 -17 164 q-39 529 -39 549l-4 117q-8 186 -16 250z" />
<glyph unicode="w" horiz-adv-x="831" d="M63 1038q2 -37 3 -82v-239q4 -461 14 -553q8 -98 10 -109q4 -29 4 -30l4 -11q0 -2 2 -4t2 -4l7 -8q9 -6 17 -6q7 0 13 4q4 2 15 12q0 4 2 6t2 9q2 4 10 22q2 6 10 30.5t12 43.5l66 223q10 35 23.5 84t22.5 83t17 58q20 57 32.5 57t17.5 -57q18 -184 100 -452 q10 -39 25 -72l12 -20q12 -10 29 -7q8 2 32 33q0 4 2 8t3 7.5t2 9.5t4 10q2 10 5 41t7 51q6 65 12 160q31 481 184 864q2 8 2 14q0 19 -18 23q-29 6 -39 -20q-156 -399 -186 -885q-2 -51 -15 -154q-2 -34 -21 19q-8 21 -15 51q-61 233 -82 467q0 23 -6 65q0 6 -1.5 16.5 t-1.5 12.5q-4 18 -6 20q-18 18 -47 9q-25 -14 -33 -56q-25 -111 -118 -430l-21 -69q-20 -64 -32 -64t-15 66q-2 59 -2 133l-4 307v240q0 16 -4 86q-3 51 -3 90q0 52 5 84q8 29 -23 32q-31 0 -34 -28q-7 -34 -7 -91q0 -43 4 -100z" />
<glyph unicode="x" horiz-adv-x="638" d="M-88 39q-1 -6 -1 -11q0 -19 17 -24q29 -8 39 19q12 33 80 155q100 178 148 273q21 41 34.5 41t18.5 -41l6 -37l14 -60q53 -252 107 -350q8 -15 21 -15q10 1 20 7q26 16 12 41q-55 94 -100 334q-25 129 -33 159l-16 60q-8 27 6 55q197 412 305 563q9 11 9 20q0 12 -14 20 q-9 6 -17 5q-13 0 -23 -16q-113 -154 -260 -465q-25 -49 -32 -49t-24 51q-31 88 -55 173t-35.5 132t-19.5 89l-8 42q-4 16 -20.5 18.5t-29 -9t-10.5 -29.5q25 -102 86 -316l66 -231q8 -26 -6 -53l-111 -234q-6 -10 -34.5 -60t-53.5 -93q-45 -74 -86 -164z" />
<glyph unicode="y" horiz-adv-x="593" d="M-20 35q-2 -7 -2 -13q0 -18 18 -22q5 -1 10 -1q19 0 29 19l180 451q10 25 23.5 56.5t33 75.5t31.5 75l103 227q2 4 16 34t24 54q51 121 95 178q8 11 8 21q0 5 -2 10q-6 14 -21.5 15.5t-29.5 -13.5q-51 -68 -105 -194q-10 -27 -23.5 -54.5t-13.5 -29.5q-8 -20 -26.5 -58.5 t-26.5 -56.5q-10 -20 -16 -28.5t-16.5 -3.5t-20.5 30q-10 23 -60 156q-66 166 -94 258q-4 18 -20 20h-5q-14 0 -24 -11q-12 -13 -6 -30q18 -76 92 -264q78 -197 96 -260q6 -20 -4 -43q-12 -31 -44 -107.5t-88 -216t-111 -274.5z" />
<glyph unicode="z" horiz-adv-x="591" d="M-55 0q2 -8 11 -13t17.5 -7.5t25.5 -3.5t28 -3q44 -1 84 -1q142 0 247 16q27 4 27 32.5t-29 24.5q-111 -17 -211 -17q-56 0 -108 5l-12 5q-8 11 6 42l26 59l131 281q53 113 203 436q6 10 15.5 25.5t13.5 23.5q10 20 16 35l56 100q25 51 43 97q10 34 10 56q0 17 -6 26 q-4 4 -13 8q-2 2 -4 2h-67q-84 0 -138 2q-207 0 -225 8q-5 1 -9 1q-25 0 -28 -21q-8 -33 19 -37q41 -10 237 -11h138q33 0 32 -8q0 -6 -4 -10q-14 -45 -90 -190q-10 -16 -18.5 -32t-12.5 -23l-4 -7q-55 -111 -217 -463l-131 -280l-41 -92l-4 -5q-17 -25 -17 -46q0 -8 3 -15z " />
<glyph unicode="{" horiz-adv-x="569" d="M-22.5 545.5q-0.5 -17.5 18.5 -25.5q8 -4 18 -4q25 0 72 10q80 12 121 11q2 -2 5 -5.5t8 -14.5t-1 -19q-18 -31 -53 -66l-41 -45q-113 -137 -57 -260q33 -74 80 -102.5t149 -42.5q31 -4 37 24q4 29 -23 33q-88 14 -126 35.5t-62 81.5q-31 76 4 135q16 27 80 104 q29 33 39 45q45 55 39 100.5t-64 53.5l-21 3q-9 7 24 28q3 2 5 4q43 25 39 67q0 12 -16 41q-70 90 -78 119q-55 129 57 217q115 84 261 84q27 0 30.5 28.5t-24.5 28.5q-78 0 -158 -24q-188 -57 -234 -195q-18 -78 -2.5 -126t68.5 -124l27 -43q6 -6 10 -14v-2q-4 -6 -21 -18 q-33 -25 -151 -72q-16 -6 -29 -12q-8 -2 -10 -4t-8 -7q-12 -10 -12.5 -27.5z" />
<glyph unicode="|" horiz-adv-x="270" d="M45 37q-2 -12 6 -20.5t21 -8.5q27 0 30 29q47 457 64 866q18 214 14 273q-4 27 -30 22q-29 -4 -29 -35q2 -41 -4 -141q-10 -106 -11 -123q-12 -401 -61 -862z" />
<glyph unicode="}" horiz-adv-x="462" d="M-65 -19.5q-15 23.5 10 42.5q133 88 219 190t57 164q-18 25 -76 67q-12 10 -27.5 23.5t-19.5 17.5q-27 31 -24 47q0 27 53 60q16 8 25 14l22 12q-90 2 -115 50q-10 23 11 51q0 2 8 10q4 6 20 31q18 28 62 86q129 186 127 252q-6 41 -64 49q-113 16 -180 -17 q-16 -8 -28.5 2.5t-10.5 27t21 24.5q88 45 199.5 23.5t119.5 -97.5q8 -90 -139 -295q-68 -94 -70 -100l-8 -13q-2 -4 0 -9t11 -10t22 -5h20q31 0 56 2q72 6 77 8q33 2 47 -16q10 -27 -14 -43l-16 -11l-27 -10q-96 -37 -129 -55q-33 -20 -33 -23q4 -2 18.5 -15t26.5 -23 l52 -43q33 -37 34 -43q45 -88 -50 -207t-245 -226q-27 -16 -42 7.5zM152 541l12 6z" />
<glyph unicode="~" horiz-adv-x="747" d="M-78 276q0 -29 27 -28q31 0 31 28q2 25 24 66q49 92 111 113q55 18 69 -39q12 -43 25 -56q53 -72 130 -72.5t148.5 48.5t133.5 131q12 16 6 30.5t-21.5 15.5t-30.5 -13q-84 -106 -168.5 -140t-148.5 37q-4 4 -16 41q-14 39 -35 56q-90 66 -195 -43q-80 -83 -90 -175z" />
<glyph unicode="&#xa1;" horiz-adv-x="186" d="M-102 -319q-4 -29 24.5 -29t32.5 29q45 426 63 530q2 6 5.5 19.5t7.5 36t8 40.5q18 102 20 115q21 137 9 209q-4 27 -33 22q-27 -4 -27 -35q4 -59 2 -98q-6 -82 -30 -205q-14 -80 -19 -100q-18 -106 -63 -534zM6 858q-27 -29 6 -45q27 -10 47 2q4 2 15 16l18 33q2 4 6 21 q2 16 -11 25.5t-28 0.5q-4 -2 -16 -10l-8 -10z" />
<glyph unicode="&#xa2;" horiz-adv-x="546" d="M-55 328q-35 -227 92 -326q29 -20 18 -53q-12 -31 -29.5 -82t-21.5 -62q-8 -31 19 -34q33 -4 38 22q37 109 48 135q10 33 49 33q92 0 211 74q16 10 16 27.5t-12.5 23.5t-30.5 -2q-86 -55 -154 -61q-33 -2 -37 10t9 35q78 194 90 223l74 182q3 8 11 29q25 65 32 64 q5 -1 6 -19v-31q-6 -43 -4 -49q-2 -12 7 -20.5t21 -6.5q12 0 21.5 9.5t7.5 21.5l6 45q4 72 -18 113q-16 29 -6 55l43 102q4 31 -19 37q-25 8 -39 -20l-28 -76q-14 -33 -54 -27q-33 4 -63 -2q-61 -12 -119.5 -49t-91.5 -86q-74 -100 -92 -235zM3 324.5q17 117.5 81 210.5 q25 37 74 67q70 43 131 39q33 -2 34.5 -10t-12.5 -39l-116 -285q-12 -29 -30 -75t-31 -79.5t-25.5 -60t-22.5 -34t-16.5 -3.5t-18.5 19q-20 33 -28 53q-37 80 -20 197.5z" />
<glyph unicode="&#xa3;" horiz-adv-x="831" d="M-90 502q2 -25 33 -21q63 20 194 37q41 4 43 -18q4 -6 4 -23q12 -160 -114 -313l-45 -53q-16 -18 -33 -33q-20 -18 -33 -33q-25 -25 -27 -45q-2 -18 12.5 -28.5t35.5 1.5q16 12 26 31l47 49q127 82 201 29q12 -6 55 -31q86 -51 164 -59h12h43q2 2 8.5 3t8.5 1l33 6l13 3 q13 3 21 7q8 2 17.5 5t13.5 3q12 4 21 15q16 27 -9 41q-10 4 -55 -8l-33 -9q-2 0 -13 -3t-17 -5h-37q-23 -2 -41 2q-43 8 -117 49l-57 33q-53 25 -103 25q-23 -2 -27.5 7t7.5 30q94 147 80 292q-8 43 41 46q37 2 120 14q29 4 29 32.5t-31 24.5q-2 0 -52 -6t-99 -10 q-33 -3 -49 22l-62 78q-23 23 -26 29q-43 51 -56 94q-14 49 15.5 137t79.5 144q68 76 129 84t96 -43q43 -49 54 -132t-15 -169q-8 -31 18 -35q33 -4 37 22q31 92 18 197q-14 100 -69 162.5t-133 54.5q-86 -8 -162 -88t-113 -199q-27 -96 -12.5 -154.5t68.5 -117.5 q31 -35 43 -51q14 -16 19 -23.5t-3 -17t-39 -13.5q-82 -10 -156 -32q-27 -10 -22 -37z" />
<glyph unicode="&#xa4;" horiz-adv-x="616" d="M-43 292q-4 13 6 30l17 22q10 14 16 21q29 35 20 38q-39 41 -42 102.5t26 115.5q27 53 72 98l-23 -21q31 29 6 58l-39 41q-12 12 -5 27.5t21.5 19.5t28.5 -6l45 -50q23 -23 56 -6q47 18 76 21q86 6 149 -45q29 -25 37 -17l12 9q8 8 20.5 17t35 18.5t30.5 -7.5 q12 -27 -10 -41l-51 -35q-27 -27 -23 -30q29 -127 -59 -242q-4 -6 -7 -13t-4 -12.5t-1 -10.5v-8v-3q4 -6 9 -15.5t9 -13.5l25 -26q12 -12 5 -28.5t-22.5 -20t-27.5 7.5l-25 26q-2 2 -7 7.5t-5 7.5q-6 6 -11 16q-10 16 -49 4q-59 -18 -125 -4q-6 2 -14 4t-14 3t-13 3 q-33 8 -57 -18q-12 -14 -37 -47q-12 -16 -29.5 -13t-21.5 16zM37 557q-29 -125 125 -156q80 -16 133 20.5t76 110.5q20 61 10 121q0 2 -1 5.5t-3 5.5q0 2 -2 6t-2 6q-10 25 -35 43t-41 20l-59 4q-66 -6 -126.5 -62t-74.5 -124z" />
<glyph unicode="&#xa5;" horiz-adv-x="606" d="M-35 520q-2 -12 6.5 -20t22.5 -6q63 6 180 2q41 0 37 -41q-18 -154 -35 -435q-2 -12 7.5 -20t21.5 -6q12 0 21.5 9t6.5 22q25 342 33 426q10 41 47 38q31 0 73 -1t54 -1q29 0 33 29q2 12 -6 20.5t-21 8.5q-18 0 -120 4q-45 4 -33 43q6 41 18 78q2 14 5 20t13.5 10.5 t28.5 4.5h95q29 0 32 28q2 12 -6 20.5t-20 8.5h-72q-18 2 -23.5 3t-12.5 7t1 21q0 4 4 13t6 13q33 74 97 178q86 145 102 185q14 27 -14 39q-25 10 -41 -19q-33 -74 -96 -178q-76 -129 -103 -184q-6 -14 -14 -40t-13.5 -36t-9.5 -6l-6 8q-57 104 -111.5 237.5t-64.5 202.5 q-6 27 -35 21q-25 -6 -24 -37q29 -145 139 -373q20 -31 17 -40t-50 -9q-92 0 -129 -2q-12 0 -21.5 -9t-9.5 -22q-2 -12 6.5 -20t22.5 -6q77 3 191 0h9h10q3 0 10 -1t10.5 -3.5t7.5 -6.5t7 -11t3 -15q-12 -40 -19 -80q-10 -39 -65 -37q-92 2 -174 -4q-29 0 -29 -31z" />
<glyph unicode="&#xa6;" horiz-adv-x="229" d="M-33 45q-4 -29 24.5 -29t33.5 29q6 65 36 258q27 178 31 262q2 12 -6 20.5t-20 8.5q-31 -4 -31 -33q-8 -121 -31 -254q-31 -201 -37 -262zM66 776q-2 -12 6 -20t20 -8q27 0 31 28q16 132 59 400q4 29 -24 32q-29 0 -33 -28q-55 -365 -59 -404z" />
<glyph unicode="&#xa7;" horiz-adv-x="579" d="M-102 152q10 -102 75.5 -151.5t156.5 -50.5t157 44q76 43 91 125t-54 162q-18 18 -19.5 25t23.5 32q94 88 121 143q37 78 2 132.5t-136 107.5q-18 12 -75 41q-45 20 -88 47q-21 10 -35 16l-35 15q-33 18 -41 37q-12 31 22 110q41 100 111 146.5t139 29.5 q68 -16 97.5 -85.5t3.5 -170.5q-8 -29 20 -33q31 -4 35 25q33 121 -7 210t-130 110q-92 23 -183.5 -35t-140.5 -180q-10 -23 -20 -72q-14 -55 -1 -88t64 -58l66 -30q10 -4 -8 -19q-8 -7 -27 -20q-78 -59 -98 -125q-35 -102 5 -161.5t154 -117.5q14 -6 66 -28q72 -39 90 -68 q29 -49 20 -102q-10 -43 -62 -74t-120 -33q-76 0 -126 40t-54 116q-4 27 -31 22q-29 -4 -28 -34zM26.5 530.5q-1.5 44.5 42.5 97t126 85.5l90 -43q82 -45 107.5 -82t2.5 -86q-35 -66 -153 -164q-4 -2 -33 12l-35 19q-92 43 -123 80q-23 37 -24.5 81.5z" />
<glyph unicode="&#xa8;" horiz-adv-x="456" d="M43 1147q-23 -47 25 -64q27 -8 47 4t26 37q2 8 8.5 23.5t10.5 28.5q0 18 -25 32q-8 2 -14 2t-9 1t-6.5 -1t-4.5 -2t-5 -3t-6 -5q-27 -19 -47 -53zM312.5 1171.5q-3.5 -14.5 2 -25.5t7.5 -13l20 -23q14 -8 31.5 -3t19.5 21q4 8 8.5 20.5t6.5 20.5q8 23 -2.5 33t-32.5 4 l-43 -14q-14 -6 -17.5 -20.5z" />
<glyph unicode="&#xa9;" horiz-adv-x="737" d="M-4 322q12 -76 63 -158q49 -88 120 -138.5t143 -31.5q164 35 262 403q47 184 63.5 348.5t-6.5 266.5q-37 78 -151.5 144.5t-198.5 47.5q-190 -41 -275 -340q-76 -266 -20 -542zM55 338q-51 266 17 514q76 264 225 295q135 26 278 -152q18 -18 19 -47q10 -172 -40 -418.5 t-126 -375.5q-98 -166 -223 -72q-51 41 -94 114.5t-56 141.5zM118 577.5q-5 -96.5 23.5 -180.5t91.5 -102q47 -14 72 -4t49 55q14 29 37 92q6 28 12 37q4 31 -18 37q-25 8 -39 -20q-2 -12 -18 -58q-12 -41 -24.5 -63.5t-15.5 -24.5t-32 6q-70 23 -76 162q-8 121 31 242 t94 166q43 41 78 -11q41 -53 37 -112q-2 -12 7 -20.5t22 -6.5q12 0 21 9.5t7 21.5q6 80 -45 145q-29 43 -72 49.5t-92 -30.5q-70 -57 -118 -211q-27 -82 -32 -178.5z" />
<glyph unicode="&#xaa;" horiz-adv-x="569" d="M14 1016q-4 -33 21 -35q31 -4 37 23q18 59 38.5 87.5t67.5 54t74 21.5q22 -3 31 -24q6 -20 12 -51q0 -10 -2 -17.5t-9.5 -13.5t-11.5 -9t-19 -11.5t-22 -10.5q-63 -37 -119.5 -107.5t-78.5 -140.5q-23 -72 0.5 -108.5t94.5 -30.5t175 64q6 2 10 6q14 -25 37 -33 q41 -18 105 10q16 8 18 24.5t-10 27t-29 1.5q-39 -16 -53 -11t-23 36q-12 43 -4 197q6 160 -18 206q-43 100 -184 25q-57 -31 -87.5 -70.5t-50.5 -109.5zM90 772q16 57 62.5 114.5t95.5 88.5q35 22 46 8q2 -2 1 -4v-18q-6 -96 -2 -164q2 -33 -4 -37l-8 -4q-135 -74 -183 -56 q-27 12 -8 72z" />
<glyph unicode="&#xab;" horiz-adv-x="632" d="M39 645q-10 -47 45 -141q27 -47 76 -117q18 -20 41.5 -0.5t7.5 41.5q-43 53 -72 109q-23 33 -33 65q-5 19 9 33l90 67q37 29 73 52q16 8 17.5 25.5t-11 24.5t-30.5 -1q-31 -16 -84 -58q-70 -55 -90 -61q-33 -12 -39 -39zM248.5 631q-21.5 -31 1.5 -88q15 -40 80 -148 q16 -23 41.5 -5t11.5 42q-66 102 -80 137q-10 29 2 41q8 8 72 49q102 64 155 107q16 12 13.5 28.5t-17 21.5t-28.5 -5q-45 -37 -150 -102q-80 -47 -101.5 -78z" />
<glyph unicode="&#xac;" horiz-adv-x="778" d="M-25 628.5q0 -12.5 8.5 -20.5t20.5 -6q20 2 132 11.5t192 15.5q55 4 119.5 9t76.5 5q8 0 21.5 1t17.5 1q45 0 47 -2q4 -4 4 -6q4 -25 -8 -76l-10 -47q-6 -25 -10 -41q-2 -12 5 -22.5t19 -10.5q27 -4 35 27q2 4 4 18.5t4 24.5q6 33 13 45q14 63 7 106.5t-40 40.5h-107 l-196 -16q-82 -6 -202 -16.5t-122 -10.5q-12 0 -21.5 -9t-9.5 -21.5z" />
<glyph unicode="&#xad;" horiz-adv-x="667" d="M-12.5 538.5q0.5 -28.5 30.5 -24.5q113 16 344 10q143 -4 160 -4q31 0 31 29q4 29 -25 29q-8 0 -155 4q-238 9 -357 -11q-29 -4 -28.5 -32.5z" />
<glyph unicode="&#xae;" horiz-adv-x="747" d="M-36 476q16 -247 147 -402q35 -45 100 -74q76 -43 142.5 -16.5t125.5 139.5q88 174 156 493q20 131 13 243t-30 173l-10 37q-6 29 -45 71t-82 58q-131 47 -225 -25.5t-197 -252.5q-111 -197 -95 -444zM23.5 485.5q-13.5 231.5 87.5 409.5q90 160 166.5 221.5t177.5 24.5 l41 -21q31 -14 59 -57q70 -211 23 -445q-63 -305 -152 -473q-53 -96 -90 -106q-35 -12 -90.5 12.5t-89.5 63.5q-119 139 -132.5 370.5zM150 420q0 -27 32 -23q29 4 25 35q-6 70 8 180q0 14 14 9q23 -4 29 -7q4 0 6 -2h2q18 -12 39 -69q27 -51 45.5 -72.5t61.5 -44.5 q16 -8 30.5 3t14.5 25.5t-15 24.5q-35 18 -48.5 33.5t-31.5 58.5l-22 45l-6 33q2 2 5 2t5 2q59 29 105.5 76t44.5 98q0 70 -42 100.5t-108 18.5q-51 -8 -103.5 -40t-82.5 -70q-18 -25 4 -41q10 -4 6 -35q-6 -96 -12 -148q-16 -121 -6 -192zM221 680q8 66 8 125q0 27 23 43 q45 33 96 41q41 6 60 -8q27 -16 25.5 -54.5t-34.5 -68.5q-59 -57 -133 -68q-43 -8 -45 -10z" />
<glyph unicode="&#xaf;" horiz-adv-x="450" d="M18 1176q-4 -29 25 -29q181 0 326 -6q27 -4 34 26q4 31 -24 31q-152 6 -330 6q-31 0 -31 -28z" />
<glyph unicode="&#xb0;" horiz-adv-x="491" d="M33 988.5q2 -66.5 28 -111.5q45 -74 124 -93.5t141 23.5q61 35 84 96t-2 139q-6 16 -17 48q-27 94 -115 139q-39 29 -100 18.5t-98 -63.5q-12 -15 -19 -31q-10 -23 -19 -60.5t-7 -104zM94 1016l4 33l4 30q0 29 11 56q16 29 24 36q45 35 104.5 6.5t86.5 -90.5 q63 -170 -29 -231q-41 -25 -92 -8.5t-92 61.5q-29 31 -21 107z" />
<glyph unicode="&#xb1;" horiz-adv-x="485" d="M-127 -23q-4 -12 3 -21t20 -9q82 -8 192 -4q39 4 102 6q16 0 37 1t34 2t22 1q12 0 21 9t9 21.5t-8 20.5t-20 6q-12 0 -129 -6q-94 -4 -103 -4h-26q-4 0 -121 4q-10 2 -20.5 -6t-12.5 -21zM-59.5 653.5q0.5 -28.5 28.5 -24.5q20 2 61.5 5t59.5 5h22q9 0 13 -6t5 -12.5 t1 -20.5q2 -27 7 -72t7 -55q9 -25 37 -18q23 6 23 34q-8 49 -12 103q-4 29 3 37t40 8q35 0 70 -1l36 -1q27 0 31 28.5t-25 28.5q-31 0 -49 2q-10 0 -34.5 1t-37.5 1q-27 0 -34 7.5t-5 31.5q4 88 11 133q2 12 -6.5 20.5t-20.5 8.5q-27 0 -31 -29q-4 -27 -6 -70.5t-4 -58.5 q0 -2 -1 -6q-3 -29 -16 -32q-8 -2 -28 -3q-45 0 -119 -12q-27 -4 -26.5 -32.5z" />
<glyph unicode="&#xb2;" horiz-adv-x="450" d="M6 1071q-14 -25 17 -37q10 -4 22 2t16 19q33 72 95 100q25 10 34 2q16 -10 23 -55q6 -47 -96 -178l-74 -93q-4 -4 -27 -34q-14 -27 -6 -45q8 -23 66 -35q45 -4 92 -4l90 4q16 0 32.5 1t25 2t10.5 1q29 0 32 29q2 12 -6 20t-20 8q-29 0 -66 -2q-78 -4 -94 -4q-43 0 -59 2 q-6 0 -12.5 1t-9.5 2t-6 1h-5h-8q2 4 8 10.5t8 10.5l74 92q117 158 108 223q-6 68 -43 92.5t-90 1.5q-39 -16 -75.5 -55t-55.5 -82z" />
<glyph unicode="&#xb3;" horiz-adv-x="385" d="M4 1104q-8 -29 16 -35q27 -6 39 18q10 31 37 59t56 38q53 18 63 -51q16 -88 -121 -166q-12 0 -24 -6q-33 -14 -35 -37q-2 -12 6 -25q21 -21 55 -6l21 8q58 6 80 -6q82 -43 24 -100q-27 -33 -74 -56.5t-92 -27.5q-12 0 -21 -9.5t-9 -21.5q-2 -12 7 -20.5t21 -6.5 q129 10 213 105q43 51 30 109.5t-69 80.5q-6 0 -11 3t-10 15.5t19 30.5q63 55 49 152q-25 127 -137 90q-43 -16 -80 -53t-53 -82z" />
<glyph unicode="&#xb4;" horiz-adv-x="342" d="M59.5 1007.5q3.5 -16.5 18 -19.5t28.5 7l177 160q14 12 11 28.5t-17.5 19.5t-28.5 -7l-178 -160q-14 -12 -10.5 -28.5z" />
<glyph unicode="&#xb5;" horiz-adv-x="638" d="M-248 -276q-10 -29 15.5 -38.5t39.5 17.5q31 68 132 305q10 25 16 29t39 -6q150 -76 274 53q16 20 20.5 21t8.5 -29q0 -27 12 -64q4 -18 20.5 -20t29 11t6.5 30q-12 49 -9 86q0 10 1 47t1 49v4l2 3q2 3 5.5 9.5t7.5 14.5q41 90 84 209q68 190 80 215q8 16 -1.5 29.5 t-25.5 11.5t-25 -21q-12 -23 -86 -221q-49 -145 -100 -244q-63 -113 -130 -145.5t-159 12.5q-29 18 -16 53l10 33q129 324 199 469q10 29 -15.5 38t-40.5 -17q-71 -157 -196 -473q-133 -336 -199 -471z" />
<glyph unicode="&#xb6;" horiz-adv-x="876" d="M20 780q20 -90 96.5 -134t153.5 -30q23 4 33 -3t8 -27l-67 -652q-4 -29 24.5 -28.5t32.5 28.5l25 242l28 264q25 240 64 488q12 84 16 137q0 14 1 28.5t4 29t3 20.5q2 37 43 43q8 2 22.5 3t22.5 1q41 4 41 -37q0 -10 -1 -34.5t-1 -37.5q-6 -53 -34 -223q-10 -55 -19 -113 q-20 -145 -47 -395q-28 -267 -49 -405q-4 -31 24 -31q29 -4 33 27q16 106 51 407q16 156 45 393q2 12 8.5 48t12.5 61q9 71 18 117q14 119 17 184q4 43 43 41q51 -2 125 -10q29 -4 34 24q8 29 -20 33q-254 37 -473 -22q-96 -35 -166 -95q-78 -70 -123 -162t-29 -180z" />
<glyph unicode="&#xb7;" horiz-adv-x="256" d="M6 559q-2 -27 23.5 -39t64.5 4q25 10 29 15q18 14 16 45.5t-22 56.5q-12 16 -29 12q-20 -2 -29 -10l-2 -2l-10 -8q-41 -27 -41 -74z" />
<glyph unicode="&#xb8;" horiz-adv-x="440" d="M-84 -133q-2 -41 27 -41l34 4q20 4 44 7t28 3q57 6 96 2q31 -4 41.5 -22.5t-6.5 -34.5q-25 -34 -80 -61q-14 -6 -18 -9l-25 -10q-33 -12 -20 -41q10 -23 35 -12l16 4l8 4l27 10q66 33 104 84q61 82 -24 131q-39 27 -154 13q-4 -2 -9 -2t-11 3t14 19q6 6 13 14.5t10 10.5 l10 10q12 14 7 29.5t-19.5 17.5t-28.5 -10l-12 -10l-23 -23l-25 -27q-6 -6 -15 -14t-14 -13t-7 -9q-20 -20 -23 -27z" />
<glyph unicode="&#xb9;" horiz-adv-x="415" d="M6 711q-4 -12 3 -21.5t20 -9.5q61 -4 258 -4q31 0 30 29q4 29 -24 28h-72q-41 0 -41 8l2 15q0 63 29 194q25 125 29 205l2 10l2 17q0 20 -8 32q-14 12 -33 9q-2 0 -10 -4l-5 -5q-4 -2 -8 -6l-12 -12l-33 -39q-14 -16 -25.5 -30.5t-19.5 -25.5t-10 -14q-12 -18 -2 -32.5 t28 -10.5q12 2 37 35q10 16 23 29l14 16q-2 -45 -28 -168q-29 -143 -27 -204q2 -16 -41 -17q-31 0 -45 2q-29 4 -33 -26z" />
<glyph unicode="&#xba;" horiz-adv-x="538" d="M-6 897q-8 -70 22.5 -131t94.5 -90q106 -45 198 9t135 171q29 70 23 146t-41 135q-29 45 -53 57q-88 45 -195 -10q-84 -41 -128 -122t-56 -165zM55 845q-14 85 31 165q41 84 91 110.5t136 16.5q70 -20 90.5 -97t-14.5 -168q-35 -94 -102.5 -136t-145.5 -7q-72 31 -86 116 z" />
<glyph unicode="&#xbb;" horiz-adv-x="749" d="M22 367.5q5 -15.5 20 -17.5t30 10l118 111q68 59 93 98q43 70 -11 109q-43 36 -172 61q-29 4 -37 -22q-8 -31 19 -35q119 -25 149 -49q16 -14 2 -37t-79 -82q-92 -83 -123 -117q-14 -14 -9 -29.5zM254 770q4 -12 31 -16q10 -1 16 -2q37 -8 64 -15q16 -4 67 -14 q49 -12 96 -25l19 -6l14 -6v-6q-2 -4 -18 -35q-35 -57 -181 -207q-68 -63 -69 -69q-12 -14 -7 -29.5t19 -18t29 10.5l69 69q147 150 191 217q39 68 20 105q-4 6 -28 20q-4 0 -15.5 4.5t-19.5 6.5q-29 10 -100 26q-37 7 -68 15l-64 12q-29 8 -30 8q-12 2 -23 -4 q-29 -14 -12 -41z" />
<glyph unicode="&#xbc;" horiz-adv-x="722" d="M-73 16.5q7 -12.5 23.5 -12.5t26.5 16l472 760q10 14 65 113q84 154 148 223q14 16 8 31.5t-20.5 16.5t-28.5 -11q-68 -78 -158 -238q-25 -45 -64 -106l-471 -764q-8 -16 -1 -28.5zM76 784q0 -29 30 -24q82 12 99 14q33 4 94 10q29 0 33 31q0 31 -31 27h-20q-41 -2 -41 2 v10l1 25q1 25 2 80t1 118q2 12 -6.5 21.5t-20.5 9.5q-33 0 -47 -14l-74 -82q-12 -14 -7 -29.5t19.5 -17.5t28.5 10q14 16 23.5 21t15.5 -4t6 -42q-2 -33 -2 -80q0 -27 2 -39q-20 -4 -44.5 -9t-33.5 -5q-12 0 -20 -10t-8 -23zM225 291q-8 -23 15 -37l18 -6q10 -2 35 -2 q33 -2 90 0q37 0 31 -43q-4 -18 -7.5 -39t-5.5 -40.5t-4 -27.5q-2 -12 6.5 -20t20.5 -8q27 0 31 28.5t18 114.5q6 37 37 41q20 0 27 2q12 0 21 10t11 23q0 10 -10 18t-20 6h-4h-9q-2 0 -9 1t-8 3t-6 7.5t-3 12.5t0 17q6 27 10 80q4 14 6 39q9 57 -17 53q-20 -4 -69 -49 q-31 -29 -91 -75t-75 -60l-26 -27q-4 -6 -9 -14q-4 -4 -4 -8zM326 317l12 17q6 4 18.5 14t18.5 14l20 15q29 23 40 22.5t5 -45.5v-10q-6 -39 -30 -39l-23 -2h-8q-54 0 -53 14z" />
<glyph unicode="&#xbd;" horiz-adv-x="804" d="M-75 7.5q9 -13.5 24.5 -13.5t27.5 14q33 53 97 135q23 31 38 52.5t25 35t23.5 38t19.5 33.5t27.5 50t34.5 62l82 139q70 133 155 254l80 115q82 121 191 237q12 14 7 29.5t-19.5 17.5t-28.5 -10q-121 -127 -199 -242l-80 -118q-31 -44 -86 -136l-72 -122 q-14 -23 -79 -140q-12 -23 -31 -55.5t-25 -42.5t-18.5 -31.5t-17.5 -30t-18 -27t-25.5 -34.5t-30.5 -41q-63 -82 -101 -139q-10 -16 -1 -29.5zM129 829q-4 -12 3 -21t20 -9q57 -4 163 -4q31 0 31 28q4 29 -24 29h-29q-33 0 -29 41l-4 -33q0 22 6 117q6 66 2 119q2 6 -2 14 q-12 18 -41 23q-12 0 -20 -7l-41 -26q-16 -10 -16.5 -27.5t12 -24t30.5 2.5q6 2 10.5 0t6.5 -11.5t2 -21.5q0 -29 -2 -45q0 -25 -1 -52.5t-2 -43t-1 -21.5q0 -2 -21 -2q-2 0 -10 1t-10 1q-29 4 -33 -27zM252 90q12 -18 59 -22q18 -2 76 -2q123 6 129 6q31 0 31 28 q4 29 -25 29q-23 0 -53.5 -2t-75.5 -2q-14 0 -15 7t9 15q16 16 25 27q61 68 98 146.5t6 128.5q-29 43 -70 32q-31 -4 -61.5 -33.5t-79.5 -99.5q-10 -16 -2 -30.5t24.5 -14.5t28.5 16q41 66 64 87q33 31 43 6q18 -23 -17 -95q-68 -125 -151 -163l-12 -7l-15 -6 q-35 -23 -16 -51z" />
<glyph unicode="&#xbe;" horiz-adv-x="757" d="M-102 8q94 203 366 590q98 139 174 256q41 61 78 109q111 154 139 233q12 27 39 21q25 -8 17 -37q-35 -98 -150 -252q-31 -42 -72 -103l-180 -260q-264 -375 -360 -577q-6 -16 -22.5 -19.5t-27 9t-1.5 30.5zM41 795q-6 16 5 28.5t27.5 12.5t22.5 -17q14 -35 36 -39 t39 10.5t26 32.5q10 23 4 56q-4 23 -2 24h-4l-5 -2h-20q-23 4 -27 26.5t15 37.5q6 6 18 12q4 0 12 4q35 35 41.5 74t-24.5 35q-39 -4 -45 -62q-4 -29 -31 -29q-12 0 -20.5 8.5t-6.5 20.5q4 49 33 82t68 39q41 6 66.5 -20.5t17.5 -73.5q-4 -39 -31 -76q-16 -27 -2 -57 q23 -68 -6 -119q-23 -45 -62 -67.5t-80 -8.5q-43 14 -65 68zM207 203q-55 35 20 98l48 40q36 30 48.5 41t37 29.5t41 28t30.5 15.5q22 10 23 -27q0 -12 -4 -63v-27q0 -19 -2 -27q-3 -47 2 -47q14 2 26 2q27 4 31 -26q-4 -16 -12 -21q-4 -6 -37 -14q-29 -6 -35 -39l-2 -12 q-10 -43 -14 -80q-4 -29 -31 -29q-12 0 -20.5 8t-6.5 20.5t6 41t6 45.5q4 16 -5 24.5t-31 5.5q-88 -8 -119 13zM258 252h5q5 0 14.5 -1t19.5 -1h21h20h4h10q6 0 9.5 1t7.5 2t6 3t5 7t4 12.5t3 17.5v4q2 27 -4 35t-17.5 4t-25.5 -17q-68 -55 -78 -63z" />
<glyph unicode="&#xbf;" horiz-adv-x="485" d="M-74 -59q-6 -68 24 -132.5t81 -101.5q51 -41 122.5 -24.5t133.5 90.5q12 14 5 29.5t-22.5 16.5t-29.5 -14q-84 -106 -172 -47q-39 27 -62.5 78t-21.5 109q12 205 92 235q18 6 76 13q61 10 84 40q14 18 20 78q20 148 20 316q2 12 -6 20t-20 8q-31 -4 -31 -32 q-4 -180 -22 -310q-4 -35 -7 -39q0 -6 -2 -10q-10 -10 -38 -12q-74 -10 -89 -16q-123 -46 -135 -295zM210 865q11 -21 42 -25q43 -2 90 39q29 16 18 39q-3 14 -34 22l-9 4q-53 18 -86 -12l-12 -17q-20 -29 -9 -50z" />
<glyph unicode="&#xc0;" horiz-adv-x="555" d="M-63 39q-2 -12 5 -21.5t19 -9.5q29 -4 33 27l65 307q10 53 24.5 123t25 117t16.5 77q0 4 35 13q41 14 145 28q20 4 30.5 -6t8.5 -30q0 -4 -4 -70t-6 -117q-20 -295 -6 -463q0 -27 32 -22q27 4 27 35q-16 141 6 452q25 317 21 463q-6 121 -15 170q-18 141 -73 160 q-100 43 -160 -103q-29 -74 -45 -174q-31 -236 -121 -655q-16 -80 -38.5 -187.5t-24.5 -113.5zM145 774q14 80 33 221q12 80 41 156q23 45 41 61q14 14 33.5 6t30.5 -36q6 -16 18 -84q14 -84 14 -293q-4 -39 -53 -45q-68 -11 -119 -23q-23 -4 -33 5.5t-6 31.5zM234.5 1490 q-3.5 -15 9.5 -28q23 -20 57 -51l57 -51q14 -12 31 -5t19.5 22.5t-9.5 27.5l-57 51q-53 47 -59 53q-14 10 -29.5 3t-19 -22z" />
<glyph unicode="&#xc1;" horiz-adv-x="632" d="M-53 39q-2 -12 5 -21.5t19 -9.5q29 -4 33 27q20 80 55 241q41 172 56 261q0 4 10 69q8 35 45 43q8 2 49 10q113 23 176 23q8 0 4 -41l2 27q-23 -530 9 -629q4 -16 20 -18.5t28.5 11t6.5 31.5q-27 96 -2 607q12 279 12 348q4 170 -20 201q-68 88 -183 -31 q-47 -47 -77.5 -99.5t-42 -86t-27.5 -93.5q-16 -53 -49 -252q-12 -83 -19 -116q-16 -80 -55 -260q-41 -176 -55 -242zM150 750q27 160 69 266q33 70 94 133q33 33 60 43q20 6 29.5 -6t11.5 -56q6 -35 2 -116q0 -39 -8 -232q0 -43 -46 -43h39q-78 1 -182 -22l-37 -6 q-20 -4 -28.5 6t-3.5 33zM251 1343.5q3 -16.5 17.5 -19.5t30.5 7q109 92 156 123q16 10 16 27.5t-13.5 23.5t-31.5 -2q-64 -43 -164 -131q-14 -12 -11 -28.5z" />
<glyph unicode="&#xc2;" horiz-adv-x="643" d="M-66 33q-4 -12 3.5 -21.5t19.5 -9.5q31 -4 35 27q14 102 47 221l51 223q4 12 23 109q6 37 41 43q59 10 196 26q8 2 15.5 2t12.5 -1t8 -2t4 -3t1 -4q0 -10 -2 -16l-2 -31q-29 -229 -23.5 -365.5t58.5 -216.5q8 -14 25.5 -11t24.5 17.5t-1 30.5q-43 68 -47 200t22 343 q20 193 26.5 274.5t-0.5 164.5t-36 136q-41 74 -93 81t-101 -48q-59 -68 -94 -173t-68 -288q-16 -94 -22.5 -134t-16.5 -88t-13 -61.5t-19.5 -81t-28.5 -118.5q-37 -166 -46 -225zM139 727v10q33 184 63.5 277.5t82.5 150.5q18 20 32.5 25.5t31 -7t36.5 -46.5 q47 -92 21 -381q-4 -41 -46 -41h37q-156 -16 -221 -27q-23 -2 -32 7t-5 32zM182 1352q-14 -27 17 -39q23 -10 39 18q31 74 49 105l5 5q3 3 8 10t10 11l5 4l7 -6q23 -27 51 -84q8 -14 23.5 -15t26.5 13.5t1 30.5q-33 76 -63.5 105.5t-69.5 13.5q-20 -8 -39 -34t-30 -49 t-40 -89z" />
<glyph unicode="&#xc3;" horiz-adv-x="645" d="M-82 10q37 139 98 465q55 311 113 469q41 127 80 195q31 66 72 96q63 43 102 -23q25 -39 25 -114q2 -43 -7 -107q0 -8 -1 -23.5t-2 -45t-1 -52.5q-14 -219 -14 -399q4 -379 82 -436q14 -10 10 -27.5t-18.5 -24t-30.5 2.5q-96 66 -100 479q2 25 2 78v82q2 20 -9.5 29.5 t-33.5 4.5q-51 -10 -140 -14q-39 0 -47 -39q-4 -23 -13 -68.5t-13 -66.5q-65 -356 -99 -473q-8 -27 -34 -23q-29 4 -21 35zM92 1260.5q-8 13.5 0 29.5q49 92 103.5 111.5t113.5 -12.5q43 -25 77 -13t77 84q10 16 27.5 16.5t24.5 -12t-1 -28.5q-57 -94 -113.5 -115t-117.5 12 q-43 25 -73 13.5t-67 -80.5q-10 -16 -26.5 -17.5t-24.5 12zM131 748q-6 -20 2 -33t29 -10q2 0 66.5 11t66.5 11q37 0 37 37q2 33 5 81t5 90t2 52q-2 6 2 51q10 102 -14 138q-8 14 -15 14q-4 0 -6 -2q-23 -16 -53 -72q-70 -143 -127 -368z" />
<glyph unicode="&#xc4;" d="M-84 14q23 98 74 459q43 285 102 465q16 45 30.5 81t37 79t44 69.5t49.5 51t56.5 23.5t63.5 -11q59 -25 67 -148q6 -33 2 -88q0 -4 -1 -16t-1 -21v-30q-6 -129 -10 -148q0 -10 -3 -30.5t-8 -58.5t-9 -68q-20 -133 -23 -160q-39 -285 8 -434q6 -18 -6 -30.5t-28.5 -11.5 t-22.5 17q-49 162 -10 461q2 12 16 123q9 43 6 43h-235q-39 -2 -47 -41q-6 -49 -19 -119q-55 -383 -76 -465q-4 -29 -36 -24q-12 0 -18.5 10t-2.5 22zM96 731q-10 -43 35 -43h188q37 0 48 41q16 127 16 195q-3 9 0 30v35q0 113 -14 154q-8 27 -25 35q-49 23 -102.5 -53 t-91.5 -199q-33 -94 -54 -195zM252 1438q4 29 31 28q12 0 20 -8q6 -6 6 -20q-3 -29 -30 -29q-12 0 -20.5 8t-6.5 21zM399 1448q0 29 31 29q13 -1 21 -9q6 -10 6 -20q-4 -29 -33 -29t-25 29z" />
<glyph unicode="&#xc5;" horiz-adv-x="610" d="M-72 61q-8 -16 1.5 -29.5t25.5 -11t25 20.5q41 82 67 229q14 86 16 95q8 39 27 123.5t27 119.5q10 35 43 43q12 4 65 17q14 2 107 12h8q20 2 30.5 -7t8.5 -28q0 -8 -4 -41q-8 -59 -13 -96q-31 -299 25 -469q4 -16 20.5 -18.5t29 11t5.5 31.5q-49 156 -20 445q4 47 14 115 q12 117 15 127q8 131 6 231q-11 187 -31 231q-25 49 -76 62q-39 8 -68.5 -4.5t-49 -35t-38 -66.5t-27.5 -80.5t-22 -96.5l-43 -196l-53 -230l-43 -192q0 -6 -7 -39t-11 -62q-23 -127 -60 -211zM152 756l51 227q31 133 45 160q35 84 79 74.5t60 -97.5q20 -127 8 -334 q-6 -41 -47 -45q-101 -15 -160 -24q-23 -4 -32.5 6t-3.5 33zM229 1485q0 -27 2 -33q0 -6 2 -8q14 -53 53.5 -74.5t75.5 -5.5q39 14 61.5 65.5t4.5 92.5q-20 43 -63 54t-82 -20q-4 -2 -9.5 -7t-9.5 -9q-4 -6 -13 -15t-13 -14q-6 -12 -7 -16q0 -6 -2 -10zM299 1442 q-12 25 0 51q14 33 47 25q49 -16 25 -70q-18 -43 -47 -27q-13 7 -25 21z" />
<glyph unicode="&#xc6;" horiz-adv-x="876" d="M-100 6q-8 -31 18 -35q31 -4 37 23q27 92 33 127q27 98 35 123l20 65q12 34 49 37h162q41 0 37 -41q-2 -31 -7 -80t-5 -67q0 -2 -5 -31q-8 -33 -8 -43q-10 -63 -2 -86q10 -33 80 -43q74 -10 242 0q20 0 40.5 1t31 2t14.5 1q29 0 33 29q0 29 -27 28q-4 0 -14.5 -1t-31 -2 t-40.5 -1l-123 -4q-71 0 -111 6q-27 4 -34 9q-2 0 -5 2q-4 23 15 98l2 35q6 45 20 219l15 182q0 39 43 43h207q29 0 32 29q0 29 -26 28h-207q-41 0 -37 41q18 233 51 463q6 39 10 39h7q41 4 108 0q197 -8 199 -8q29 0 33 29q2 12 -6.5 20t-20.5 8q-6 0 -17.5 1t-32 2 t-38.5 1l-109 7q-156 4 -205 -19q-45 -23 -102 -162q-27 -72 -61 -174q-37 -111 -117 -323q-82 -221 -117 -328q-6 -18 -33 -127q-12 -59 -32 -123zM92 449l45 118q61 156 117 328q37 111 61 168q20 53 41 90q2 -4 4 -9t5.5 -23.5t1.5 -37.5q-23 -170 -64 -637 q-4 -43 -45 -43h-135q-47 0 -31 46z" />
<glyph unicode="&#xc7;" horiz-adv-x="585" d="M-20 303q-27 160 32 447q41 205 86 317q78 199 201 223q68 12 118 -24.5t58 -110.5q2 -10 2 -33q-2 -6 -4 -20.5t-2 -20.5q-2 -6 -3 -12t-2 -9t-1 -5q0 -29 -31 -29q-27 0 -26 29q0 2 1 9t3 17.5t4 22.5t3 21.5t1 13.5t-2 4q-6 49 -39 73.5t-76 15.5t-76 -50 q-82 -92 -125 -279q-6 -25 -18 -82l-16 -76q-51 -297 -29 -426q10 -66 42 -140.5t71 -115.5q96 -96 190 62q14 27 27 78q0 12 8 45q10 43 10 47q6 27 39 22q27 -4 18 -34q-8 -18 -10 -41l-4 -20q-4 -19 -6 -25q-12 -66 -33 -97q-70 -117 -147 -133q-6 -2 -13 -2 q-12 0 -28 -28l-4 -7q-29 -43 22 -49q41 -4 64 -28q27 -31 2 -86q-12 -23 -31 -37l-16 -13l-13 -8q-16 -12 -88 -51q-18 -8 -31.5 1t-11.5 26.5t19 25.5q23 10 41 20.5t28.5 15.5t12.5 7q35 27 34 33q18 33 -24 35q-2 0 -55 4q-49 0 -54 29q-2 6 4 26l2 3q2 3 5 5 q4 10 16 31q2 4 6 10.5t6 10.5l2 4q23 31 -8 55q-2 2 -10 9t-12 11q-100 109 -129 283z" />
<glyph unicode="&#xc8;" horiz-adv-x="479" d="M-41 76l4 30l8 80q10 84 19 131q53 383 69 687q-6 31 -6 90q0 41 2 55q8 61 51 76q14 6 41 12q41 8 128 14t137 0q12 0 20 -9t6 -21q-8 -31 -37 -27q-61 4 -157 -4q-49 -2 -90 -10q-12 -2 -31 -9q-2 -2 -4 -2q-2 -4 -3 -10t-1 -10q-2 -16 2 -98v-43q0 -37 -17 -258 q-4 -23 7.5 -32t33.5 -7q40 9 74 18q18 6 28.5 -5t6.5 -27.5t-21 -20.5q-47 -16 -100 -25q-39 -6 -45 -45q-14 -139 -39 -293q-20 -166 -22 -202q0 -8 5 -16.5t9 -12.5l4 -4q29 -4 78 0q8 0 30.5 2t51 4t59.5 4q10 2 19.5 -6t9.5 -19q0 -12 -9.5 -22t-21.5 -10 q-172 -18 -229 -11q-47 4 -64 29q-4 8 -4 17q0 6 -2 10zM184 1468q-16 23 7.5 42.5t41.5 -1.5q8 -14 58 -63l39 -29l35 -31q14 -10 9 -26.5t-19.5 -22.5t-30.5 4q-2 0 -6.5 4.5t-12.5 10.5l-16 12l-37 33q-49 43 -68 67z" />
<glyph unicode="&#xc9;" horiz-adv-x="546" d="M-53 74q0 35 6 96q18 184 59 473q4 33 13.5 93.5t13.5 84.5q4 20 6 38t4 32t2 18l1 11q1 10 1 20q0 22 6 61q4 49 4 66l11 96l4 33v10v4l10 17l18 10q3 2 9 2h-13q8 0 24.5 1t25.5 1h16q18 -2 58 -3t61 -1q164 -4 196 -14q27 -10 17 -37q-8 -25 -39 -21q-10 4 -64 6 q-113 10 -225 11q-37 0 -39 -19l-10 -96q-4 -37 -4 -66q-2 -8 -8 -63l-2 -29q-6 -35 -23 -182q-4 -23 5 -34t30 -9q6 2 16 2q2 0 7.5 1t14.5 2t17 1q20 2 49 2q12 2 20.5 -6t8.5 -20.5t-9 -21.5t-22 -9q-68 -6 -88 -6q-12 0 -33 -4q-33 -2 -39 -41q-45 -342 -51 -412 q-8 -78 -8 -94v-14q0 -11 2 -13v-2q2 -2 4 -2q16 -4 31 -6q59 -8 209 -4q43 2 72 2q12 0 20 -8t6 -21q-4 -29 -32.5 -28.5t-71.5 -2t-111 -2.5q-53 0 -106 5q-59 12 -74 30q-9 22 -6 62zM317 1367.5q-16 21.5 7 41.5q63 51 137 102q16 12 30.5 4t14.5 -22t-14 -27 q-75 -51 -134 -102q-25 -18 -41 3.5z" />
<glyph unicode="&#xca;" horiz-adv-x="532" d="M-53 55l2 11q-4 10 0 26q10 84 16 125q2 4 2 12.5t2 12.5l6 47q0 4 3.5 33.5t7.5 56.5q0 10 14 186q9 114 18 197q8 86 27 282q8 78 12 95l2 26l2 11q2 2 2 4q0 4 3 6q0 10 20 20q9 6 18 6q2 0 18.5 3.5t27.5 5.5q193 27 315 16q29 0 24 -31q-8 -31 -34 -26 q-160 4 -303 -17q-18 -2 -33 -6q-2 -4 -2 -10q0 -4 -2 -14.5t-4 -20.5l-7 -68q-4 -31 -13 -125t-17 -157v-41q6 2 14 0q70 -12 139 -6q27 4 31 -27q-4 -31 -33 -31q-59 -8 -135 2q-25 -10 -27 -43q-31 -317 -30 -327l-2 -25q-2 -16 -6 -47q-4 -16 -15 -106q0 -8 6.5 -17.5 t12.5 -13.5l6 -4q256 -10 289 -10q29 0 24.5 -29t-31.5 -29q-156 0 -294 8q-6 0 -19.5 1t-19.5 3q-2 0 -7.5 1.5t-7.5 3.5l-6 4q-16 10 -16 26zM111.5 1335.5q-9.5 12.5 1.5 30.5q53 100 96 141t90 27q35 -10 78 -55l37 -37l47 -53q14 -12 8 -27.5t-21.5 -19.5t-27.5 6 l-51 49q-68 74 -90 80q-16 6 -37 -15q-33 -33 -78 -121q-8 -16 -25.5 -17t-27 11.5z" />
<glyph unicode="&#xcb;" d="M-29 37q-12 35 0 158q10 180 62 534q6 47 11 91t8 68.5t3 31.5v141q-4 115 13 145q14 27 88 39q66 8 260 8q45 -2 80 -2q31 4 30 -26q-4 -31 -32 -31q-12 -4 -84 0q-195 0 -252 -8q-4 0 -13.5 -1t-13.5 -3l-16 -37v-78q0 -137 -2 -147q0 -6 -21 -166q-2 -20 8.5 -31.5 t30.5 -7.5q29 2 94 2q27 0 27 -29q-4 -29 -33 -29q-57 0 -100 -6q-37 -4 -41 -43q-47 -381 -49 -415q0 -16 -1 -48t-3 -45q2 -18 2 -39q2 0 4 -2q20 -6 30 -8q55 -10 211 -6q45 2 72 2q29 0 25 -28.5t-31 -28.5t-72 -2q-158 -6 -221 6q-59 10 -74 41zM170 1431.5 q4 28.5 31 28.5q12 0 20 -8q6 -10 6 -20q-4 -29 -32.5 -29t-24.5 28.5zM346 1433.5q4 28.5 31 28.5q12 0 20 -8q6 -6 6 -20q-4 -29 -32.5 -29t-24.5 28.5z" />
<glyph unicode="&#xcc;" horiz-adv-x="411" d="M-82 45q-4 -29 25 -29q76 0 137 -2q119 -4 135 -4q27 0 31 29t-25 29h-19h-23h-21q-41 2 -37 43q10 537 88 1048q2 10 2 12.5t2 9.5t5 9t8 5t12.5 4t17.5 1q53 0 80 -2q27 -4 35 27q4 31 -25 30q-144 6 -276 0q-12 0 -21.5 -9t-9.5 -21q-2 -12 7 -20.5t22 -6.5 q14 2 44.5 2t36 -8t1.5 -35q-74 -485 -91 -1042q0 -34 -13 -39q-10 -3 -30 -2h-67q-31 0 -31 -29zM102 1502.5q-2 -15.5 11 -27.5q45 -39 51 -43q33 -31 53 -48q23 -16 42.5 7.5t-3.5 42.5q-14 10 -51 43q-39 35 -55 47q-14 10 -30 2t-18 -23.5z" />
<glyph unicode="&#xcd;" horiz-adv-x="432" d="M-27 18q4 29 35 25q45 -4 86 -6v47q-16 256 53 762l37 303q0 2 1 6q5 33 -4 34h-13q-14 -1 -23 -1h-4q-27 -4 -30 24q0 29 28 33q117 14 205 6q12 0 20.5 -9t6.5 -21q-8 -31 -37 -27q-53 4 -69.5 2t-18.5 -20q-2 -16 -7.5 -57.5t-14.5 -118t-19 -156.5q-68 -528 -49 -793 q2 -4 -2 -8q0 -8 41 -10q8 0 22 -1t21 -3q29 0 24 -31q-8 -31 -35 -27q-33 2 -114 6q-86 4 -119 9q-12 0 -18.5 10t-2.5 22zM229 1371.5q-16 21.5 7 41.5l7 6q7 6 22.5 17.5t31.5 25.5q24 18 57 51q23 20 42.5 1t-1.5 -41q-8 -6 -63 -54q-16 -12 -31.5 -25.5t-22 -19.5 t-8.5 -6q-25 -18 -41 3.5z" />
<glyph unicode="&#xce;" horiz-adv-x="548" d="M-23 -10q-10 25 25 37q57 18 117 20v29q-2 102 26 305q16 135 17 141q4 29 33 324q23 268 24 284q2 23 -3 32t-34 9q-61 0 -86 -2q-12 -2 -20 6.5t-6 20.5q-2 12 7 21.5t21 9.5q65 3 172 0q160 -6 170 -6q29 0 25 -29q0 -29 -31 -29q-61 0 -110 2h-18q-9 0 -14 -2t-8 -3 t-4 -6t-2.5 -7t-1.5 -11v-10q-2 -12 -24 -280q-29 -295 -33 -324q-2 -18 -16 -145q-31 -203 -25 -318l2 -6q0 -4 39 -4q6 0 23.5 -1t27.5 -1q78 -4 82 -4q12 0 20.5 -8t6.5 -21q-4 -29 -33 -28q-49 0 -84 2q-37 2 -88 2q-102 0 -162 -21q-27 -10 -35 21zM169 1308.5 q-7 12.5 1 28.5l57 99q29 43 60 43q23 0 53 -35q14 -14 27.5 -29.5t19.5 -24t10 -10.5q18 -20 -3 -41.5t-42 -3.5l-59 68l-10 12l-3 -4q-3 -4 -6 -6q-25 -41 -53 -92q-10 -16 -27.5 -16.5t-24.5 12z" />
<glyph unicode="&#xcf;" horiz-adv-x="555" d="M-47 -22.5q0 -28.5 31 -24.5q211 29 360 -2q31 -4 37 22q8 31 -19 35q-86 16 -141 17q-31 0 -36 10t1 31q0 66 -2 143.5t-1 108t8.5 99t23.5 177.5q18 158 27 289q0 8 1 25.5t2 50t1 61.5q0 78 6 127v10v9q0 3 1 7.5t4 6.5t8 4t12.5 3t19.5 1h59q29 0 33 29q0 29 -27 28 q-37 0 -69 2h-80q-84 0 -154 -14q-25 -4 -24 -35q0 -27 33 -22q29 6 88 10q20 0 28.5 -3t9.5 -10.5t-1 -18.5q-1 -5 0 -7q-10 -119 -11 -268q-8 -123 -26 -281q-47 -297 -35 -532q0 -14 -1 -19.5t-4 -12.5t-12.5 -10.5t-25.5 -3.5q-37 -2 -96 -10q-29 -4 -29 -32.5z M115 1419q-2 -12 6 -20t20 -8q27 0 31 28q0 15 -6 21q-8 8 -19 8q-29 0 -32 -29zM309 1427q0 -29 27 -28q31 0 31 28q1 11 -5 21q-8 8 -20 8q-29 0 -33 -29z" />
<glyph unicode="&#xd0;" horiz-adv-x="700" d="M-57 635q0 -27 32 -23q35 8 86 15q14 0 23.5 1t13.5 -8.5t2 -31.5q0 -18 -4 -47t-4 -37q-4 -51 -14 -119q-4 -25 -7 -49.5t-5.5 -48t-4.5 -33.5q-12 -143 -10 -250q2 -10 10 -18q14 -10 33 -2q10 6 21.5 21t21.5 22q164 117 305.5 304t155.5 335q25 242 -76 413 q-129 219 -368 150q-12 -4 -17 -15q-14 -18 -4 -30q2 -4 13.5 -17.5t9.5 -25.5l-13 -121q-10 -88 -18 -180q-6 -59 -12 -115q-2 -23 -10.5 -31t-34.5 -10q-66 -8 -99 -14q-27 -2 -26 -35zM111 139q14 154 24 232q4 33 9.5 77t5.5 56l8 84q0 4 1 10t1 9t1 7t4 7.5t8 5.5 t13.5 3t18.5 1q20 0 45.5 1t42 2t26.5 1q12 0 21.5 9t9.5 21.5t-8 20.5t-20 6l-109 -4q-18 0 -25.5 1t-11.5 11.5t-2 30.5q31 297 39 414q4 41 43 41q133 0 213 -139q96 -164 72 -381q-12 -121 -124 -277t-255 -272q-23 -16 -37 -10t-14 32z" />
<glyph unicode="&#xd1;" horiz-adv-x="636" d="M-51 61q2 14 6 47t12 95.5t17 115.5q68 471 75 644q6 152 -8 194q-6 16 5.5 29.5t26.5 12.5t23 -15l-6 14l25 -33q51 -84 170 -334q16 -37 48 -102t44 -92q24 -46 34 -47q15 -1 21 59v4q6 109 7 303q2 137 10 236q4 29 32.5 29t24.5 -29q-10 -104 -8 -229 q-2 -268 -21 -457q-31 -281 -18 -475q0 -29 -27 -33q-29 -4 -32 25q-8 141 10 397q0 10 -3 21.5t-7 17.5l-4 6q-18 33 -166 338l-76 155q-41 74 -47 9q-14 -225 -74 -648q-31 -206 -37 -258q0 -29 -31 -28q-27 0 -26 28zM94 1270q37 88 82 105.5t103 -15.5 q43 -27 81.5 -19.5t90.5 64.5q12 14 28.5 11t20.5 -17.5t-8 -30.5q-63 -74 -126 -85t-118 22q-39 23 -56.5 15.5t-39.5 -67.5q-12 -26 -39 -18q-23 6 -19 35z" />
<glyph unicode="&#xd2;" horiz-adv-x="600" d="M-12 588q-16 -236 24.5 -409t137.5 -220q70 -35 137 36t108 171q53 141 85 376.5t28 411.5q4 104 -10 168q-39 168 -181 168q-45 0 -63 -5t-47 -30q-86 -68 -144.5 -253t-74.5 -414zM47 590q16 213 69.5 389t121.5 231q20 16 30.5 19.5t42.5 3.5q98 0 129 -129 q11 -37 11 -70l4 -88l-4 -149q-18 -371 -111 -615q-29 -76 -77 -131t-83 -39q-76 37 -111.5 197t-21.5 381zM247.5 1529.5q-18.5 -26.5 8.5 -40.5q49 -33 57 -39q12 -10 33 -24.5t27 -18.5q14 -10 29.5 -1t17.5 24.5t-12 25.5l-58 43q-45 35 -61 43q-23 14 -41.5 -12.5z" />
<glyph unicode="&#xd3;" horiz-adv-x="600" d="M-23.5 455.5q-3.5 -144.5 41.5 -267t136 -165.5q100 -47 161 6q82 70 150 428q53 322 55 510q0 12 -1 35.5t-1 31.5t-1 25.5t-2 25t-3 19.5t-4 20.5t-6 19.5t-8 23q-31 84 -93.5 110t-152.5 -20q-186 -100 -248 -505q-20 -152 -23.5 -296.5zM36 469q3 135 21 279 q63 375 213 460q119 61 170 -67q20 -49 21.5 -177.5t-2.5 -136.5q-29 -238 -53 -364q-57 -330 -127 -393q-33 -25 -95 6q-74 37 -112.5 147.5t-35.5 245.5zM234 1394.5q4 -16.5 18 -19.5t29 7q68 61 135 107q16 10 14 26.5t-15.5 22.5t-31.5 -4q-67 -48 -139 -111 q-14 -12 -10 -28.5z" />
<glyph unicode="&#xd4;" horiz-adv-x="665" d="M-10 596q-31 -209 4 -350q39 -141 137 -217q57 -45 126 -38t130 72q78 80 134.5 386.5t58.5 447.5q10 90 -9 193q-14 90 -58 137t-99.5 48t-110.5 -21.5t-98 -63.5q-66 -68 -92 -121q-50 -100 -60 -133l-18 -66q-18 -59 -27 -137q-2 -14 -10 -76zM47 592q0 6 9.5 67.5 t11.5 71.5q0 6 10 64q9 52 12 67l21 62q8 39 22 63q12 22 31 55q20 45 82 107q63 63 135 65q70 2 106.5 -62.5t38.5 -170t-12 -236.5q-53 -526 -168 -645q-88 -90 -176 -22q-88 61 -117 188q-34 129 -6 326zM206 1332.5q9 -13.5 24.5 -13.5t27.5 14q57 96 74 115q4 2 8 5 t16.5 8t14.5 -1l14 -14q14 -14 35 -33l51 -49q14 -12 30.5 -5t19.5 22.5t-7 27.5l-51 49l-15 16l-16 15q-4 4 -13 12t-14.5 12.5t-13.5 8.5t-15 6t-16 2q-35 0 -59.5 -30t-93.5 -138q-10 -16 -1 -29.5z" />
<glyph unicode="&#xd5;" horiz-adv-x="708" d="M8 514q-12 -182 45.5 -314t190.5 -163q104 -23 159 12q102 68 162 357q31 147 56 385v17q0 17 1 43t2 53.5t1 53.5v43q-2 74 -25 127q-39 92 -103.5 124t-142.5 3q-63 -23 -123.5 -83t-101.5 -138q-102 -195 -121 -520zM66 518q14 295 114 492q80 150 191 192 q113 41 174 -102q12 -31 18 -72q12 -121 4 -197l-10 -98q-41 -354 -106 -524q-35 -86 -73 -109.5t-116 -5.5q-109 25 -158 142.5t-38 281.5zM177 1308.5q7 -12.5 24.5 -12.5t27.5 17q39 66 72 80t72 -4q61 -29 108 -23t94 68q12 16 5 30.5t-22 15.5t-30 -14q-27 -39 -52 -42 t-79 20q-55 25 -110.5 2t-108.5 -109q-8 -16 -1 -28.5z" />
<glyph unicode="&#xd6;" horiz-adv-x="677" d="M-16 567q-18 -199 17.5 -348t131.5 -213q90 -61 166 -41q141 41 227 402q63 268 64 438q8 236 -80 375q-68 98 -156 100t-178 -111q-70 -96 -122 -262t-70 -340zM43 567q16 168 66.5 327t113.5 243q41 59 82 75.5t76 -2t78 -65.5q67 -76 67 -416q-14 -172 -53 -339 t-86 -255q-45 -96 -98 -112q-43 -14 -119 32q-168 111 -127 512zM293 1442q-2 -12 6 -20.5t20 -8.5q27 0 31 29q2 12 -6 20q-6 8 -18 8q-29 0 -33 -28zM428 1450q-4 -29 24.5 -29t32.5 29q0 12 -6 20q-8 8 -20 9q-31 0 -31 -29z" />
<glyph unicode="&#xd7;" horiz-adv-x="555" d="M49 439.5q6 -15.5 20.5 -16.5t26.5 11l111 127q18 23 25.5 27t13.5 0t20 -27q51 -82 113 -143q20 -18 41.5 3t3.5 42q-47 47 -139 178q-2 6 20 35l98 110q18 25 -4 42.5t-43 -5.5l-77 -94q-27 -27 -32 -27t-26 25q-63 68 -90 90q-14 12 -30.5 5t-19.5 -22.5t9 -27.5 q23 -18 94 -98q21 -29 -4 -60l-125 -143q-12 -16 -6 -31.5z" />
<glyph unicode="&#xd8;" horiz-adv-x="661" d="M-25 401q0 -141 29 -223q59 -166 178 -201q139 -35 246 152q63 109 107 404t26 440l-6 51q-16 74 -41 113t-76 88q-125 106 -243 -25q-125 -135 -191 -502q-29 -156 -29 -297zM37 451q12 164 26 243q57 342 173 469q43 47 83 47q37 2 75 -30.5t63 -85.5q23 -47 27.5 -77 t4.5 -112q0 -6 -6 -16t-16 -23.5t-20.5 -25t-22.5 -25.5t-18 -20l-80 -99q-76 -94 -170 -188q-12 -12 -35 -35.5t-33 -36.5q-27 -31 -37 -38t-13 3.5t-1 49.5zM47 262q-6 29 10 53q47 63 156 172q84 84 156 175q55 69 90 106q14 16 26.5 22.5t20.5 -3t6 -37.5 q-47 -442 -135 -596q-80 -143 -174 -119q-43 9 -80 55q-57 66 -76 172z" />
<glyph unicode="&#xd9;" horiz-adv-x="552" d="M23.5 743.5q-25.5 -362.5 1.5 -495.5q20 -92 90 -176q106 -117 202 -27q43 47 80 217q25 131 49 348q2 29 8.5 97.5t12.5 133t10 130.5q12 166 21 243q0 29 -27 29q-31 0 -31 -29q-8 -78 -20 -243q-4 -66 -10.5 -130.5t-12.5 -133t-8 -97.5q-27 -225 -51 -342 q-15 -77 -31 -123q-14 -43 -31 -59q-49 -47 -114 27q-27 31 -50.5 77t-27.5 74q-25 125 -1 480.5t69 457.5q12 23 -15 37q-27 10 -41 -20q-47 -113 -72.5 -475.5zM229.5 1454q-6.5 -14 1.5 -31l6 -6q5 -6 14 -18.5t21 -26.5q10 -16 47 -53q12 -12 29 -5t21 21.5t-9 28.5 q-6 6 -38 47q-12 12 -22.5 25.5t-16 19.5t-7.5 8q-10 12 -25 8t-21.5 -18z" />
<glyph unicode="&#xda;" horiz-adv-x="544" d="M0 227q18 -90 53 -153q61 -104 150.5 -82t140.5 151q55 139 76 328q14 117 26 285q10 195 29 325q16 129 19 162q2 12 -6.5 20.5t-20.5 8.5q-27 0 -31 -29q0 -10 -3 -31.5t-8 -58.5t-9 -72q-20 -143 -29 -329q-8 -147 -8 -154q-16 -154 -43 -270q-37 -147 -62.5 -206 t-74.5 -71t-86 44.5t-54 148.5q-18 82 4.5 351t47.5 441q18 98 20 111q15 51 19 57q8 16 0.5 28.5t-24.5 12.5t-28 -16q-20 -41 -45 -189q-27 -172 -49 -446.5t-4 -366.5zM235 1332.5q7 -15.5 21 -16.5t29 13q41 51 161 144q16 12 13.5 28.5t-16 21.5t-29.5 -5 q-121 -90 -174 -156q-12 -14 -5 -29.5z" />
<glyph unicode="&#xdb;" horiz-adv-x="557" d="M29 563q-10 -156 14 -321q18 -129 66.5 -206t140.5 -48q39 16 67 59q29 45 60 174q4 29 12 64q23 111 35 182q6 35 51 418q12 72 23 166q10 102 6 161q0 29 -29 25t-29 -33q0 -76 -8 -153q-8 -72 -10 -86q-10 -66 -10 -80q-4 -20 -23 -180q-29 -246 -57 -388 q-8 -37 -8 -38q-4 -12 -4 -17q-2 -8 -5.5 -20.5t-3.5 -14.5q-20 -104 -51 -153q-16 -27 -30 -29q-49 -16 -84 45.5t-52 167.5q-20 139 -12 309q8 152 29 316q4 35 7 67.5t5 54t2 27.5q2 20 6 101q4 63 8 92q2 10 -4 20t-16 12q-33 0 -37 -28q-8 -51 -10 -103q-4 -92 -4 -94 q0 -6 -2 -26.5t-5.5 -53t-7.5 -67.5q-20 -160 -30 -322zM199 1356q-8 -29 20 -33q31 -4 35 25q14 55 29 79l6 3q10 -4 33 -29q16 -16 47 -62q10 -14 26.5 -11t23.5 17.5t-1 30.5l-49 66q-31 34 -56 43q-43 14 -75 -25q-23 -33 -39 -104z" />
<glyph unicode="&#xdc;" horiz-adv-x="540" d="M27 311q10 -86 32 -172q43 -135 121 -137q84 -8 148 129q33 76 53 172q39 190 53 311q29 244 45 592q2 12 -6 20.5t-20 8.5q-31 -4 -31 -33q-16 -242 -21 -305q-20 -307 -77 -586q-20 -96 -50 -161q-25 -51 -45 -70q-14 -20 -39 -21q-43 4 -71 103q-18 57 -33 162 q-41 378 59 890q4 29 -24 33q-29 0 -33 -28q-102 -539 -61 -908zM211 1419q-2 -12 6 -20t21 -8q27 0 30 28q0 15 -6 21q-8 8 -18 8q-29 0 -33 -29zM336 1427q0 -29 26 -28q31 0 31 28q2 11 -4 21q-8 8 -20 8q-29 0 -33 -29z" />
<glyph unicode="&#xdd;" horiz-adv-x="600" d="M8 -20q-8 -29 21 -33q31 -4 37 24q12 49 73 164q8 16 41 80l45 100l60 123l55 123q47 104 59 141l54 129q31 78 49 138q43 135 51 225q4 29 -24.5 29t-32.5 -29q-10 -127 -125 -420q-18 -44 -29 -43q-12 1 -31 33q-39 76 -82 184q-76 174 -129 262q-10 14 -25.5 13.5 t-25.5 -15t0 -30.5q51 -86 123 -258q70 -164 129 -263q2 -2 3 -6t2 -17t-3 -22q-39 -86 -178 -376l-37 -74q-61 -104 -80 -182zM334 1317q-8 -31 18 -35q14 0 21 4q8 4 12 9t8 16.5t6 15.5t8.5 15.5t10.5 17.5l16 24q4 6 21.5 28t21.5 28q12 16 5 30.5t-22.5 15.5t-27.5 -13 l-20 -27l-6 -10q-23 -27 -27 -33q-4 -8 -10 -14q-25 -43 -35 -72z" />
<glyph unicode="&#xde;" horiz-adv-x="673" d="M37 37q-2 -12 7 -20.5t22 -6.5q29 0 28 31q5 170 17 324q2 23 6 33t12 5q10 -4 21 0q20 6 88 25q94 25 104 27q132 40 190 104q41 45 35 123q-8 92 -62 134t-133 40t-177 -18q-41 -6 -41 36q10 188 4 316q0 29 -29 24.5t-29 -32.5q6 -205 -24 -570q-39 -414 -39 -575z M122 484q0 4 1 8q4 29 6 45q2 55 6 77q2 53 10 119q0 35 41 45q139 33 226.5 12.5t97.5 -120.5q2 -49 -18 -74q-43 -49 -162 -84q-25 -8 -99 -27q-70 -16 -96 -24l-8 -4q-7 -5 -5 27z" />
<glyph unicode="&#xdf;" horiz-adv-x="745" d="M-29 -6q-4 -29 25 -29t33 29q22 212 37 565q0 2 4 94q0 27 1 57.5t1 34.5l10 89q27 143 133.5 253.5t220.5 92.5q88 -16 117 -109.5t-21 -177.5q-23 -47 -72.5 -93t-99.5 -71q-28 -10 -61 -18l-27 -9q-6 -2 -14 -10q-10 -8 -12 -20.5t6 -20.5q25 -31 80 -16q20 4 26 6 q27 6 50 -2q55 -29 81 -66q63 -82 64 -206q0 -129 -77 -204t-243 -112q-27 -4 -26 -35q0 -27 33 -22q188 43 281 133t91 246q0 221 -151 307q-35 20 2 47q70 53 121 141q27 49 33 110.5t-9 113.5q-33 123 -153 145q-143 27 -271.5 -103t-158.5 -296q-8 -66 -13 -95 q-4 -57 -4 -188q-14 -352 -37 -561z" />
<glyph unicode="&#xe0;" horiz-adv-x="593" d="M-55 16q-4 -12 3 -21t19 -9q31 -4 35 26q10 51 49 326q29 227 37 276q6 41 49 37q72 -10 170 -10l4 -4q2 -2 6.5 -13.5t4.5 -25.5l-7 -47q-33 -229 -21.5 -376.5t81.5 -194.5q14 -10 30.5 -2t18.5 23t-10 28q-53 35 -61.5 168t20.5 354q48 435 46 508q-2 74 -28 137 q-23 51 -55.5 63.5t-64 -7t-64.5 -62.5q-63 -90 -94 -191q-66 -227 -123 -675q-33 -231 -45 -308zM108 726q1 7 5 32q25 123 55 229q29 94 86 172q23 29 35 39t23.5 4t21.5 -35q39 -96 4 -426q-2 -45 -10 -45q-151 3 -217 19h-2q-2 4 -1 11zM258 1460q39 -61 109 -104 q14 -10 29.5 -1t16.5 24.5t-14 25.5q-59 41 -88 88q-14 25 -40.5 7.5t-12.5 -40.5z" />
<glyph unicode="&#xe1;" d="M-49 6q-14 84 12 221q12 76 19 90q2 14 6 57.5t13 127.5t19 170q23 217 56 360q24 100 94 176q100 104 195 15q57 -63 67 -210t-18 -370q-44 -422 -39 -508q4 -57 20 -106q6 -18 -6 -30.5t-28.5 -11.5t-22.5 17q-18 59 -20.5 139t5 169t29.5 315q0 27 -41 20 q-102 -12 -192 -2q-41 4 -47 -39q-20 -219 -35 -293q-6 -43 -14 -92q-27 -133 -15 -198q4 -29 -22 -35q-29 -6 -35 18zM88 750q-2 -18 2 -27.5t9 -12.5t20 -5q90 -6 190 2q25 2 37 8t15.5 14.5t5.5 22.5q29 350 -48 426q-51 53 -108 -9q-59 -63 -78 -145q-35 -158 -45 -274z M208 1374.5q-15 22.5 9 40.5q20 18 53 41l64 47q31 22 55 43q25 18 41 -3t-6 -42q-14 -14 -55 -43l-64 -47l-55 -41q-27 -18 -42 4.5z" />
<glyph unicode="&#xe2;" horiz-adv-x="555" d="M-51 20q0 -27 33 -22q27 4 26 35q-2 49 2 90q0 20 17 92q12 51 16 98q12 82 41 291q10 41 49 41q70 -2 158 -2q43 0 37 -41q-16 -158 -22.5 -251t-1.5 -180t28 -144q6 -16 22.5 -17.5t27.5 12t5 29.5q-27 102 -24.5 213t30.5 404q29 227 27 362t-49 182q-53 49 -100.5 36 t-84.5 -77q-66 -102 -120 -356q-27 -123 -56 -338q-16 -125 -41 -254q-20 -97 -20 -203zM109 745q59 289 127 400q25 39 44 45t46 -19q55 -57 16 -426q-4 -41 -18 -40q-32 -3 -179 -3q-43 0 -36 43zM193 1398.5q8 -12.5 24 -12.5t27 17q27 45 47 61q18 8 31 0q10 -6 17 -12 t13 -16.5t8 -14.5q4 -4 11.5 -13t13.5 -15q16 -20 39.5 -1t9.5 42l-51 59q-33 29 -55 35q-63 12 -135 -101q-8 -16 0 -28.5z" />
<glyph unicode="&#xe3;" horiz-adv-x="563" d="M-76 29q-4 -12 3 -21.5t20 -9.5q12 -2 22.5 6t10.5 21q25 119 69 467q4 23 7 57.5t5 46.5q6 35 35 47q63 27 211 31q40 0 37 -43q-14 -162 -16 -195q-20 -238 6 -434q0 -27 35 -22q25 4 24 34q-31 231 10 633q20 209 23 297q14 309 -137 318q-152 10 -219 -299 q-43 -186 -78 -469q-43 -344 -68 -465zM84 745q57 291 94 371q47 90 100.5 87t75.5 -97q8 -31 10.5 -72t1.5 -67.5t-4.5 -96t-5.5 -96.5q-2 -29 -16 -35t-57 -8q-99 -6 -158 -20q-25 -8 -36 -4t-5 38zM105.5 1329.5q7.5 -12.5 24.5 -12.5t28 16q31 57 53 65.5t55 -20.5 q49 -41 93 -30.5t83 92.5q10 29 -15.5 38t-39.5 -18q-23 -51 -36 -54t-48 24q-117 80 -197 -72q-8 -16 -0.5 -28.5z" />
<glyph unicode="&#xe4;" horiz-adv-x="552" d="M-86 39q-14 -25 16 -37q10 -4 22.5 2t16.5 19q18 39 33 100q6 31 13.5 79t11.5 91t6 49t35 260q6 29 8 33l2 10q80 10 215 12q39 0 39 -26q0 -6 -2 -14.5t-2 -14.5q-3 -37 -6 -67q-4 -20 -9 -58q-37 -326 21 -432q8 -14 23.5 -15t25.5 13t2 31q-51 104 -14 401 q29 229 30 250q16 125 11 209v70q0 43 -4 88q-16 121 -78 145q-82 29 -153 -60.5t-99 -199.5q-41 -147 -76 -434q-2 -10 -27 -197q-6 -31 -12 -100q-16 -129 -49 -207zM90 750q16 106 45 219q23 84 74 155.5t94 55.5q49 -16 49 -183q0 -66 2 -71q4 -68 -8 -170 q-2 -29 -15.5 -35t-45.5 -6q-144 -4 -158 -6q-25 -2 -33 5t-4 36zM223 1419q-2 -12 6.5 -20t20.5 -8q27 0 31 28q-1 15 -7 21q-8 8 -18 8q-29 0 -33 -29zM350 1431.5q-4 -28.5 24.5 -28.5t33.5 29q-1 10 -7 20q-8 8 -20 8q-27 0 -31 -28.5z" />
<glyph unicode="&#xe5;" horiz-adv-x="614" d="M-74 4q0 -29 27 -29q31 0 31 29q14 92 30 160q31 154 60 330q10 76 18 120q6 39 45 41q14 0 89 1t134 1q9 0 11 2l-2 -18q-29 -186 -35 -229q-16 -109 -1 -220.5t60 -177.5q10 -14 26.5 -11t24 17.5t-1.5 30.5q-39 55 -51 156q-4 31 -5 65.5t0 57t6 69.5t8 64.5t13.5 84 t14.5 89.5q31 188 40 274t-1 168t-51 129q-53 57 -106.5 50t-104.5 -66q-45 -53 -76 -132t-40 -126t-26 -146q-49 -270 -75 -456q-8 -51 -33 -162q-14 -72 -29 -166zM117 756q23 152 51.5 245t81.5 156q66 74 121 10q43 -49 44 -157.5t-28 -251.5q-2 -33 -5 -38t-15 -5h-215 h-22q-9 0 -12 9t-1 32zM283 1452q-2 -6 2 -22q0 -16 10 -33q25 -41 78 -37q49 2 87 40t34 93q-2 47 -33 73.5t-72 22.5q-80 -12 -102 -110q-4 -17 -4 -23v-4zM342 1454v2q0 8 10 41q12 29 37 33q18 2 30.5 -10.5t14.5 -34.5q2 -29 -16.5 -47.5t-42.5 -20.5q-33 0 -33 37z " />
<glyph unicode="&#xe6;" horiz-adv-x="862" d="M-35 524q8 10 20.5 28.5t15.5 24t10 14.5t15.5 16t17.5 14.5t30 25.5q70 57 159 58q74 0 109 -48q20 -27 49 -4q47 37 111.5 59.5t130 17.5t98.5 -50q49 -72 -2 -180.5t-156 -163.5q-86 -47 -176 -29q-45 10 -51 -35q-35 -190 -4 -233q16 -29 85 -24t114 42q45 39 84 111 q14 30 41 17q24 -12 10 -38q-92 -180 -256 -190q-92 -8 -131 45q0 6 -2 8t-41 -18q-82 -49 -166 -29.5t-94 103.5q-12 80 35 178t120 149q92 63 164 10q2 0 2 -2q18 123 1 184.5t-81 61.5q-80 0 -155 -76q-16 -16 -33 -43q-39 -59 -66 -45q-25 16 -8 41zM42 82q9 -59 69 -66 q82 -6 151 58q2 2 4 2q2 12 2 35q0 18 4 67q6 47 27 164q-6 2 -13 5t-13 5l-5 2h-2q-39 29 -95 -10t-95 -121q-43 -82 -34 -141zM365 395q0 -18 30 -26q86 -23 162 20t115 123q45 86 6 133t-156 12q-102 -29 -135 -92q-12 -16 -12 -43q0 -66 -10 -127z" />
<glyph unicode="&#xe7;" d="M-37 383q-18 211 39 471q16 70 69.5 172t114.5 172q55 63 108.5 85t101.5 -8t79 -114q18 -53 21.5 -79.5t-4.5 -80.5q-2 -12 -13.5 -20t-21.5 -6q-12 0 -19.5 10t-3.5 21q10 51 -14 131q-37 96 -88 96q-41 0 -100.5 -66.5t-108.5 -165.5q-72 -139 -98 -376 q-29 -268 41 -437q23 -57 81 -106q35 -31 68 -39h8q25 0 35 6q8 6 25 23q33 43 84 190q6 27 39 23q25 -4 16 -35q-61 -170 -96 -211q-28 -37 -62 -49q-37 -12 -49 -33l-18 -27q-10 -33 26 -41q45 -12 66 -30q39 -29 22.5 -82t-86.5 -72q-20 -6 -92 -10q-14 -2 -22.5 6 t-6.5 20q0 31 29 31q92 6 111 21q6 6 7 16t-1 17l-2 8q-20 16 -96 28q-20 4 -21 4l-2 1q-2 1 -4 1q-14 0 -21 19q0 18 2 22l5 9q0 2 2 5t2 5q2 2 7 12t11 19q0 2 6 9t8 11q20 33 -10 55q-6 4 -15 11.5t-16 11.5q-72 61 -102.5 138t-40.5 208z" />
<glyph unicode="&#xe8;" horiz-adv-x="546" d="M-8 86q-4 -45 4 -63q18 -27 74 -31q53 -4 102 -4q23 0 104 4q41 2 70 2q31 0 31 29q4 29 -24.5 28.5t-69.5 -2.5t-105 -2q-51 0 -96 4q-6 0 -12.5 1t-11.5 2t-7 1q0 2 -2 2v2q0 16 2 29l8 82q0 10 2 23.5t4.5 32t4.5 30.5t4 23.5t3 18.5t2 12t1 7q14 174 16 332 q14 18 41 19h80q29 0 33 28q2 12 -6.5 20.5t-20.5 8.5h-88q-20 0 -29.5 8t-9.5 31q8 178 13 213q0 2 6 51q6 104 20 152q8 20 21 22l26 2q170 0 273 -16q31 -4 34 24q8 29 -20 33q-115 18 -283 19q-53 0 -75.5 -12.5t-34.5 -61.5q-14 -53 -21 -162q0 -14 -1 -26.5t-2 -18.5 l-1 -6q-10 -88 -16 -332q-2 -195 -12 -328q0 -4 -9.5 -62t-13.5 -83zM184 1483q12 -6 41 -29q25 -27 41 -35q35 -31 90 -53q16 -8 30.5 3t13.5 26.5t-17 23.5q-55 27 -80 47l-39 33q-35 31 -37 33q-23 16 -43 -7.5t0 -41.5z" />
<glyph unicode="&#xe9;" horiz-adv-x="552" d="M-37 25q16 -47 162 -48q43 0 65 3q51 4 74 6q35 0 47 12q10 6 11 20q0 12 -8.5 20.5t-20.5 6.5q-16 0 -37 -2q-117 -6 -125 -6q-53 0 -84 6q-6 0 -14 4q-6 2 -10 2l-3 2q-2 27 0 45l3 19q2 10 5 29.5t6 34t3 16.5q27 154 41 372q3 18 6 43q2 18 8 27.5t13.5 11.5t23.5 2 q37 0 55 2q27 0 31 31q0 12 -8 20.5t-21 6.5q-18 -2 -57 -2q-20 0 -28.5 7t-6.5 36q4 45 9.5 114.5t5.5 71.5q4 10 6 59q2 18 5 49t3 35q2 45 10 78q0 14 4 27l2 4l19 4q2 0 10 1t10 1q53 4 109 4h112q70 -2 82 0q10 0 21 10q10 8 10 21q0 29 -29 29q-12 -3 -80 0 q-115 0 -225 -5q-70 -12 -84 -28q-14 -18 -20 -64q-8 -37 -11 -84q-4 -27 -8 -82q0 -47 -4 -59q-6 -51 -31 -371q-16 -209 -40 -368q0 -16 -5 -35q-10 -43 -10 -47q-12 -72 -2 -92zM213.5 1379.5q15.5 -23.5 42.5 -7.5q8 8 63 45q2 2 11.5 8.5t15.5 10.5q31 18 66 32 q16 6 19 22.5t-9 28t-31 3.5q-43 -18 -74 -37q-18 -13 -30 -19l-31 -24q-25 -18 -33 -21q-25 -18 -9.5 -41.5z" />
<glyph unicode="&#xea;" horiz-adv-x="540" d="M-27 61l2 31q4 47 19 144q4 37 8 53l4 28q8 88 21 181q2 23 20 209q12 106 14 153q0 8 2.5 23.5t2.5 25.5v15v59q-4 78 2 143q8 84 51 103q12 4 45 12q84 12 309 2q29 0 25 -30.5t-35 -26.5q-180 4 -189 4q-76 -4 -106 -8q-4 0 -8 -1t-8 -1q-18 -2 -23 -41l-1 -4 q-1 -4 -1 -7q-6 -59 -2 -141q0 -80 -2 -98q-2 -29 -10 -139q-2 -12 -3 -22.5t-1 -14.5t2 -4h157q29 0 25 -29t-31 -29h-119q-41 0 -45 -41q-2 -16 -7 -57t-7 -59q-10 -82 -21 -177l-4 -30q-2 -39 -16 -111l-8 -82v-26l4 -2q6 -2 27 -7q25 -6 92 -10q70 -4 168 -4 q29 0 24.5 -28.5t-31.5 -28.5q-193 0 -270 12q-63 12 -69 33q-7 24 -7 28zM121 1345.5q-4 14.5 8 30.5l84 101q35 43 63 43q27 0 52 -43q33 -66 51 -88q10 -16 1 -32t-24.5 -17t-27.5 12q-29 51 -31 53l-4 8q-8 10 -17.5 17.5t-14.5 9.5l-5 2l-86 -103q-12 -14 -28.5 -11 t-20.5 17.5z" />
<glyph unicode="&#xeb;" horiz-adv-x="540" d="M-31 43l2 10q0 -6 2 -8l4 -14q16 -20 74 -25q156 -6 279 8q27 0 30 33q-4 29 -32 25q-123 -12 -267 -6q-4 2 -9 5t-12 14t-5 24v6q4 35 14 121t14 118q9 53 13 90l4 43q0 2 1 17.5t3 47.5t6 64q2 27 11.5 35t31.5 11q10 2 38 6t46 6q31 4 27 33q0 29 -29 24 q-12 -2 -37.5 -5t-36.5 -5q-23 -4 -32 4t-7 35q4 39 10.5 111.5t12.5 131t14 101.5q8 37 8 47q4 10 7.5 20.5t3.5 12.5q0 6 2 8q6 2 43 2q47 2 136 -5t114 -18q18 -4 31.5 7.5t12.5 28t-18 22.5q-31 12 -170 22.5t-176 -8.5q-18 -10 -35 -55q-4 -16 -16 -82 q-27 -141 -47 -465q-4 -39 -6 -77t-4 -55t-2 -22q0 -2 -1.5 -8t-2.5 -16t-1 -19q-6 -33 -12 -90q-2 -14 -6 -49t-8 -49l-15 -141q0 -4 -2 -12.5t-2 -10.5q-2 -10 -2 -25.5t-2 -23.5zM178 1419q-2 -12 6.5 -20t20.5 -8q27 0 31 28q-1 15 -7 21q-8 8 -18 8q-29 0 -33 -29z M342 1427q0 -29 27 -28q31 0 30 28q2 11 -4 21q-8 8 -20 8q-29 0 -33 -29z" />
<glyph unicode="&#xec;" horiz-adv-x="530" d="M-68 27q-4 -29 25 -29q66 0 317 12q27 0 31 31q0 12 -8.5 20.5t-20.5 6.5l-73 -5q-37 0 -41 3.5t0 17.5q8 88 41 334q8 84 21.5 194.5t17.5 137.5q0 6 2 29.5t4 49t4 54.5q4 121 37 258l8 37q102 -2 160 -2q27 0 30 28q2 12 -6 20.5t-20 8.5q-121 0 -191 4 q-125 0 -198 -8q-29 0 -29 -31q-2 -12 6 -20.5t21 -6.5q55 6 125 7q35 0 38 -3.5t-2 -27.5q0 -4 -9 -48t-18 -105.5t-11 -114.5q-2 -25 -4.5 -54.5t-3.5 -47t-1 -27.5q-2 -29 -15 -139.5t-24 -192.5q-33 -246 -41 -334q2 -25 -45 -27q-35 -2 -96 -2q-31 0 -31 -28z M185 1442.5q-3 -15.5 10 -27.5l28 -24q18 -14 25 -19l8 -4l33 -20q16 -8 31.5 2t16.5 25.5t-13 25.5l-35 18q-2 2 -8.5 4t-6.5 4.5t-10 8.5l-28 24q-14 12 -31 5t-20 -22.5z" />
<glyph unicode="&#xed;" horiz-adv-x="434" d="M-94 16q-4 -12 3 -21t19 -9q156 -14 312 8q29 4 28 33q-4 29 -30 24q-53 -8 -93 -10q-20 -2 -29.5 8t-9.5 33q18 240 31 352q4 33 19.5 165t27.5 230q33 274 41 355q4 41 45 41q63 4 97 8q29 4 28.5 32.5t-30.5 24.5q-66 -10 -136 -6h-73h-70q-31 0 -31 -29 q-4 -29 25 -28h49q43 -2 39 -41q-8 -90 -41 -357q-35 -274 -49 -395q-12 -113 -31 -352q0 -43 -45 -43q-10 2 -31.5 3t-31.5 1q-10 2 -20.5 -6t-12.5 -21zM206.5 1406.5q16.5 -21.5 41.5 -3.5l90 76q23 20 6.5 41.5t-43.5 3.5l-88 -76q-23 -20 -6.5 -41.5z" />
<glyph unicode="&#xee;" horiz-adv-x="559" d="M-41 53q-4 -12 3 -21t20 -9q181 -9 380 0q29 0 33 30q0 12 -9 19.5t-21 5.5h-127q-48 -1 -45 10q4 8 4 14q2 14 7 62.5t17 141.5t23 188q35 315 39 391q0 8 2 40.5t4 57.5q4 80 8 115q0 25 6 53q9 37 49 37h127q29 0 33 29q0 29 -27 28q-362 0 -391 -2q-12 0 -21.5 -9 t-9.5 -21.5t8.5 -20.5t20.5 -6q35 2 119 2q41 0 35 -43q-4 -16 -8 -53q-12 -100 -13 -207q-4 -76 -39 -391q-10 -94 -22 -187.5t-17.5 -141.5t-7.5 -63q-2 -2 -3 -5t-4 -5t-6 -5t-8 -4t-11.5 -3t-12.5 0h-102q-29 4 -33 -27zM154 1338q18 -14 36 3l103 101q2 2 7 6l3 2 l19 -27q45 -51 94 -90q12 -10 27.5 -2t18.5 22.5t-9 28.5q-47 35 -82 80l-19 27q-20 20 -24 22q-31 13 -74 -28l-100 -101q-24 -26 0 -44z" />
<glyph unicode="&#xef;" horiz-adv-x="520" d="M-68 49q-4 -29 25 -29q250 0 324 7q27 0 30 30q0 12 -8 20.5t-20 6.5q-10 -2 -31 -2t-31 -2q-41 2 -41 8v10q4 96 19 238q6 63 14 113q2 20 5 48.5t5 47t4 33.5q2 31 12.5 132t16.5 177q8 104 23 262q4 37 45 41q45 0 122 4q29 0 33 31q0 31 -30 26q-137 -6 -365 -6 q-31 0 -31 -28q-4 -29 25 -29h106q41 0 37 -41q-12 -137 -22 -262q-6 -70 -16.5 -172.5t-12.5 -134.5q0 -4 -6 -49.5t-10 -77.5q-4 -25 -6.5 -48.5t-4.5 -42t-2 -22.5q-18 -145 -18 -244q-16 -16 -47 -16h-113q-27 0 -31 -29zM119 1403q-2 -12 6 -20.5t20 -8.5q27 0 31 29 q2 12 -6 20q-6 8 -18 9q-29 0 -33 -29zM322 1419q-2 -12 6 -20t20 -8q27 0 31 28q0 15 -6 21q-8 8 -19 8q-29 0 -32 -29z" />
<glyph unicode="&#xf0;" horiz-adv-x="624" d="M-47 273.5q-2 -175.5 88 -283.5q102 -117 220 -85t173 163q74 178 51 493q-12 139 -45.5 245.5t-115.5 233.5l-5 4q-23 35 13 60q33 23 55 37q16 10 15 27.5t-13 23.5t-31 -2q-25 -16 -65 -45q-29 -23 -57 2q-72 74 -150 90q-33 4 -37 -23q-8 -31 19 -34q59 -12 118 -70 q27 -29 -4 -59q-49 -53 -69 -82q-12 -16 -5 -31.5t22 -15.5t28 14q29 37 57 70q35 35 57 -2q90 -139 125 -267q15 -47 15 -49v-47q-223 37 -353 -90q-104 -102 -106 -277.5zM12 272q-2 156 92.5 245t268.5 71l37 -4q12 -4 13 -8.5t3 -26.5q10 -123 0 -238 q-20 -303 -154 -342q-106 -37 -184 58.5t-76 244.5z" />
<glyph unicode="&#xf1;" horiz-adv-x="530" d="M-53 4q0 -29 26 -29q31 0 31 29q14 127 49 414q12 106 27.5 246.5t17.5 164.5q12 122 33 -10q1 -7 3 -20q2 -16 3 -21l-2 15q86 -428 90 -484q2 -43 27 -178l16 -82q4 -25 4 -26l4 -9q2 -2 3 -6l2 -4q4 -6 18 -10q51 -12 66 96q4 29 4 53q-2 6 -2 17q2 4 2 10q-2 2 -2 6 q4 45 12 127q14 190 16 236q2 23 4 51t3 44.5t1 24.5q6 139 21 234q2 14 7 50t9 58q8 82 41 232q8 29 -20.5 33t-34.5 -25q-16 -57 -25 -113q-20 -92 -34 -235q-14 -100 -21 -234l-8 -122q-2 -25 -4 -52.5t-3 -42t-1 -20.5q-6 -53 -21 -250l-1 5q-1 5 -3 14.5t-4 18.5 t-4 18.5t-2 13.5q-4 27 -10 80q-18 117 -92 487q-33 172 -50 274q-6 33 -8 107l2 16v23q2 8 -2 14q-4 10 -10 12q-18 8 -37 -4l-6 -12q-4 -6 -6 -33.5t-4 -63.5t-2 -40l-29 -273q-2 -25 -17.5 -165t-27.5 -246q-35 -287 -49 -414zM72 1366q-18 -25 3 -42t42 5 q41 51 67.5 56.5t65.5 -23.5q51 -35 113.5 -17.5t142.5 103.5q12 14 7 29.5t-20.5 17.5t-29.5 -10q-66 -74 -115 -84q-29 -6 -63 14q-53 35 -103.5 28t-109.5 -77z" />
<glyph unicode="&#xf2;" horiz-adv-x="563" d="M-27 623q-14 -283 13.5 -418t150.5 -187q104 -43 166 29q121 137 163 664q1 26 3 39q6 108 6 221q0 115 -6 131q-31 102 -90.5 137t-132.5 4q-61 -25 -115.5 -90.5t-85.5 -144.5q-61 -154 -72 -385zM33 307q-12 117 2 333t65 351q25 66 72 123q98 117 170 76 q49 -31 72 -109q4 -18 4 -75q-4 -57 -4 -66q0 -137 -2 -160q-7 -90 -13 -143l-16 -152q-39 -307 -121 -401q-20 -23 -40.5 -25t-53.5 13q-106 45 -135 235zM250 1495q-4 -14 6 -29q63 -61 119 -94q16 -8 30.5 2t15.5 25.5t-13 25.5q-39 18 -109 86q-12 12 -28.5 5t-20.5 -21 z" />
<glyph unicode="&#xf3;" horiz-adv-x="616" d="M-31 578q-12 -164 45 -373q25 -86 61 -138.5t90 -67.5t120 32q98 70 176 399q51 223 74 432l2 2v4q18 166 -29 274.5t-176 108.5q-61 0 -107 -28q-106 -70 -178 -269.5t-78 -375.5zM27 582q8 166 73.5 350t151.5 242q33 20 74 20q94 0 130.5 -91.5t22.5 -234.5v-4l-2 -2 q-16 -176 -74 -426q-74 -309 -151 -356q-117 -84 -180 147q-51 174 -45 355zM263 1371q12 -26 38 -9q25 12 88 53q68 45 86 53q16 10 15 27.5t-13 24t-31 -1.5q-22 -12 -86 -56q-23 -16 -81 -51q-28 -14 -16 -40z" />
<glyph unicode="&#xf4;" horiz-adv-x="583" d="M-43 197q12 -70 51 -123q39 -57 94.5 -80t122.5 2q137 51 209 348q61 267 51 535v10q0 2 -3 48t-8 97t-11 68q-51 125 -156 141q-115 23 -198 -110q-76 -125 -125.5 -448t-26.5 -488zM16 213q-25 152 24.5 464t119.5 427q57 92 133 82t113 -109q8 -16 16 -53 q2 -18 3 -65.5t2 -85.5l1 -37q4 -266 -53 -496q-37 -150 -100.5 -237t-145.5 -52q-43 16 -73.5 61.5t-39.5 100.5zM147 1358q4 -4 9.5 -6t9.5 -2t8 1t9 5t8.5 7t8.5 9t9 10t9 11.5t9 11.5t10.5 11t8.5 9q23 29 35 23q2 -2 3 -2q3 0 3 -2q15 -12 61 -62q20 -18 42 3.5t3 41.5 q-18 18 -40.5 40t-24.5 24q-55 45 -117 -23l-25 -26l-39 -43q-20 -20 0 -41z" />
<glyph unicode="&#xf5;" horiz-adv-x="653" d="M-10.5 382.5q18.5 -142.5 104.5 -278.5q113 -170 225 -86q86 63 150 265q51 156 78.5 351t13.5 271q-20 156 -74 240q-49 88 -120.5 105.5t-163.5 -52.5q-121 -102 -183 -401q-49 -272 -30.5 -414.5zM51 383q-27 168 31.5 429t155.5 341q119 102 198 -41 q31 -53 50.5 -169t17.5 -161q-4 -66 -15 -135q-29 -203 -83 -369.5t-117 -211.5q-31 -23 -58 -11q-40 15 -86 86q-72 104 -94 242zM118 1292.5q9 -12.5 26.5 -11.5t25.5 17q37 70 65.5 77t73.5 -25q61 -43 111.5 -18.5t87.5 141.5q8 31 -19 34q-33 4 -38 -22 q-31 -94 -56 -103q-14 -4 -51 19q-47 29 -81 35t-71.5 -19.5t-72.5 -93.5q-10 -18 -1 -30.5z" />
<glyph unicode="&#xf6;" horiz-adv-x="669" d="M-14 602q-27 -221 9 -387t136 -215q125 -59 227 63q72 82 136 281q43 139 69.5 307t26.5 262l-2 39q6 109 -47 209q-45 84 -120 104.5t-167 -36.5q-96 -63 -168 -237.5t-100 -389.5zM45 602q25 197 91.5 360.5t146.5 217.5q125 84 206 -52q45 -86 41 -215v-59 q0 -27 -16 -131q-29 -215 -83 -383t-118 -242q-70 -84 -151 -45q-80 41 -112 192.5t-5 356.5zM258 1442q-2 -12 6 -20.5t21 -8.5q27 0 30 29q2 12 -6 20q-6 8 -18 8q-29 0 -33 -28zM449 1450q-4 -29 24.5 -29t32.5 29q0 12 -6 20q-8 8 -21 9q-31 0 -30 -29z" />
<glyph unicode="&#xf7;" horiz-adv-x="716" d="M0 641q-2 -12 6 -20.5t21 -8.5q113 0 278 9q164 8 277 8q29 0 32 28q2 12 -6 20.5t-20 8.5q-113 0 -277 -8q-165 -8 -278 -8q-29 0 -33 -29zM225 469q-2 -12 6.5 -20.5t20.5 -8.5q27 0 31 29q1 12 -7 20q-6 8 -18 9q-29 0 -33 -29zM248 885q-4 -29 24.5 -29t32.5 29 q0 10 -6 20q-8 8 -20 8q-31 0 -31 -28z" />
<glyph unicode="&#xf8;" horiz-adv-x="606" d="M-23.5 242.5q31.5 -211.5 134.5 -252.5q74 -31 155 33q137 100 193 337q16 82 30 193q2 14 5.5 48t5.5 50q3 58 6 80q0 6 4 51q10 60 14 107v151q-2 8 -2 25q-18 150 -145 184q-137 37 -238.5 -123.5t-148.5 -429.5q-45 -242 -13.5 -453.5zM27 438q0 162 38.5 340 t104.5 295q55 92 121.5 114.5t114 -17t57.5 -117.5v-17v-17v-13q0 -7 -1 -9t-3 -5t-3 -4t-5.5 -4t-6.5 -5q-51 -57 -122 -174q-70 -109 -113 -170q-70 -88 -137 -203q-45 -74 -45 6zM31 258q0 2 41 64q68 133 182 280q41 53 117 176q4 6 18 28.5t21 33.5q34 48 55 59v-16 l-16 -152l-9 -82l-10 -96q-16 -129 -31 -184q-49 -213 -163 -301q-57 -39 -101 -25q-78 35 -104 215z" />
<glyph unicode="&#xf9;" horiz-adv-x="532" d="M12 285q-4 -82 7.5 -143.5t53.5 -106.5t111 -41q55 2 89 43t46.5 88t34.5 156q59 285 107 725q0 12 16 104q4 35 10 109q2 12 -7 20t-21 8q-12 -2 -21.5 -12t-7.5 -21q-4 -43 -12 -102q-4 -35 -9.5 -69.5t-5.5 -36.5q-47 -434 -106 -721q-31 -141 -50.5 -186.5 t-60.5 -47.5q-66 -2 -93 65t-23 173l20 481q20 338 72 455q14 25 -15 37q-27 10 -41 -21q-45 -106 -60 -263t-29 -566q-3 -83 -5 -127zM213 1448q0 -14 14 -25q16 -6 66 -30l61 -33q16 -8 30.5 3t14.5 25.5t-14 24.5l-63 33l-64 31q-16 8 -30.5 -3.5t-14.5 -25.5z" />
<glyph unicode="&#xfa;" horiz-adv-x="530" d="M14 313q-10 -170 8.5 -246.5t106.5 -95.5q123 -27 188 103q29 57 52 190q100 629 100 938q2 12 -7 20.5t-22 8.5q-12 -2 -21 -12.5t-7 -20.5q-4 -326 -101 -930q-23 -129 -47 -174q-39 -80 -117 -65q-55 12 -68 76.5t-5 211.5q4 123 39 461q35 380 39 441q2 12 -7.5 20 t-21.5 8q-12 -2 -21.5 -11t-7.5 -22q-6 -106 -41 -438q-29 -283 -39 -463zM219 1331.5q4 -16.5 18.5 -19.5t28.5 7q74 68 129 108q16 12 14.5 29t-15 22t-29.5 -5q-73 -56 -136 -113q-14 -12 -10 -28.5z" />
<glyph unicode="&#xfb;" horiz-adv-x="493" d="M8 211q-4 193 45 612q35 332 35 377q0 31 29 35q12 0 21 -7t7 -20q2 -74 -34 -387q-47 -403 -43 -602q2 -61 14 -121q8 -43 35.5 -66.5t58.5 -19.5q23 2 45 31q49 59 62 156q57 442 86 993q-1 29 30 33q29 0 29 -29q-31 -551 -88 -997q-15 -120 -74 -191 q-86 -109 -198 -14q-49 39 -60 217zM134 1348.5q-5 13.5 5 29.5l25 31l22 29q2 4 8.5 10t8.5 10q70 76 129 25q27 -20 65 -78q10 -14 2 -29.5t-23.5 -17.5t-27.5 10q-39 51 -55 66q-27 12 -47 -11q-2 -4 -9.5 -12t-7.5 -10l-20 -27l-25 -28q-12 -16 -28.5 -13.5t-21.5 16z " />
<glyph unicode="&#xfc;" horiz-adv-x="512" d="M6 264q6 -63 23.5 -121.5t54.5 -106.5t86 -48q43 -2 72.5 32.5t48.5 94.5q16 39 67 340q8 55 20.5 124.5t12.5 75.5l27 172q31 209 49 383q4 29 -24.5 29t-32.5 -29q-12 -127 -21 -180q-28 -209 -57 -371l-35 -200q-47 -283 -61 -332q-16 -47 -31 -64q-12 -18 -29 -18 q-39 2 -70.5 73.5t-42.5 157.5q-18 184 27 465q2 16 12.5 65.5t16.5 86.5q37 213 49 324q0 29 -27 28q-31 0 -30 -28q-8 -70 -52 -322q-6 -29 -11 -57.5t-9 -56t-6 -38.5q-49 -291 -27 -479zM225 1396.5q-4 -28.5 25 -28.5t33 29q-1 14 -7 20q-8 8 -20 8q-27 0 -31 -28.5z M342 1403q-2 -12 6 -20.5t21 -8.5q27 0 30 29q2 12 -6 20q-6 8 -18 9q-29 0 -33 -29z" />
<glyph unicode="&#xfd;" horiz-adv-x="616" d="M41 1219q14 -33 70 -172q96 -252 176 -353q18 -27 6 -55l-21 -47q-39 -80 -41 -88q-23 -39 -73 -168l-31 -80q-8 -23 -19.5 -53.5t-13.5 -38.5l-24 -78q-14 -41 -25 -88q-8 -29 21 -33q31 -4 36 25q23 90 62 194q49 141 153 371q16 37 43 94.5t35 75.5t24.5 60t30 85 t35.5 115q53 180 86 248q16 26 -9.5 37.5t-39.5 -17.5q-45 -90 -96 -256q-51 -178 -84 -249q-10 -10 -41 32q-63 100 -135 299q-51 129 -70 168q-8 16 -23.5 16.5t-26.5 -14t-5 -30.5zM261 1345.5q3 -16.5 17.5 -19.5t30.5 7q37 37 99 86q23 20 6.5 41.5t-43.5 3.5l-99 -90 q-14 -12 -11 -28.5z" />
<glyph unicode="&#xfe;" horiz-adv-x="700" d="M-23 -211q0 -29 27 -29q31 0 31 29q2 25 9 145.5t17 215.5q1 18 17 -9q15 -25 22 -35q33 -49 84 -73q78 -41 162 -16.5t143 104.5q111 145 68 467q-23 172 -92.5 241.5t-157.5 53.5q-76 -12 -143 -92q-28 -34 -31 -16q-3 19 4 71q29 244 29 330q0 27 -31 26 q-29 -4 -29 -35q-6 -178 -45 -438q-43 -262 -59 -584q-15 -273 -25 -356zM92 506v4l2 4q2 4 2 6v6q31 139 121 240q100 104 201 22q53 -47 76.5 -195.5t9.5 -277.5q-10 -94 -58.5 -159.5t-112 -84t-123.5 17.5t-97 124q-41 98 -21 293z" />
<glyph unicode="&#xff;" horiz-adv-x="571" d="M-10 4q-4 -31 20 -35q31 -4 37 23q150 422 318 862q8 23 88 188q55 113 77 199q8 29 -20 33q-31 4 -37 -25q-20 -76 -74 -186q-78 -156 -90 -193q-25 -63 -51 2q-6 16 -63.5 151.5t-85.5 209.5q-6 16 -22.5 17t-28 -12t-5.5 -30q102 -266 201 -475l2 -4zM217 1396.5 q-4 -28.5 24.5 -28.5t32.5 29q0 14 -6 20q-8 8 -20 8q-27 0 -31 -28.5zM342 1403q-2 -12 6 -20.5t21 -8.5q27 0 30 29q2 12 -6 20q-6 8 -18 9q-29 0 -33 -29z" />
<glyph unicode="&#x152;" horiz-adv-x="1111" d="M532 29v30q0 10 3 39t3 43q2 10 5 38t7 46q4 51 6 54l2 19q2 19 6.5 66.5t8.5 100.5q39 422 67 608q8 55 23 103q16 53 35 63q16 10 73 14h103q16 0 57 -2t71.5 -4t39.5 -2q27 0 26 -28q-4 -14 -10 -21q-10 -8 -22 -8q-25 0 -173 6q-30 2 -54 2t-42 -2h-22l-25 -29 q-14 -49 -20 -96q-16 -90 -39 -291l-2 -24q-2 -20 7 -30.5t30 -8.5q33 2 79 2q27 4 31 -27q-4 -31 -33 -31q-6 -2 -55 -2q-6 0 -18.5 -1t-16.5 -1q-35 0 -39 -41q-10 -98 -18 -190q-12 -133 -12 -145q-2 -2 -7 -54q-4 -18 -7 -45.5t-5 -38.5q0 -14 -3 -40.5t-3 -37.5 q2 -6 2 -18h12q4 0 15.5 -1t21.5 -1h66q57 0 98 2h62q29 0 24.5 -28.5t-31.5 -28.5q-25 0 -63 -2q-37 -2 -94 -2q-72 0 -95 2h-18q-27 0 -39 8q-2 0 -6 4q-12 12 -12 31zM-35 252q4 -122 56.5 -196t158.5 -74q94 0 158 59q39 37 70 160q69 295 98 655l2 10q2 36 2 68 q0 98 -18 168q-28 92 -96 128q-47 25 -95 25q-22 1 -44 -5q-71 -16 -120 -66q-147 -150 -172 -654q-2 -78 -2 -147.5t2 -130.5zM24 274q-2 49 -3 105q0 72 4 156q23 477 153 612q51 47 129 47q145 -2 145 -262q0 -20 -1 -41v-8q-8 -166 -54 -430q-25 -150 -49 -244 q-4 -12 -12 -43t-12 -43q-16 -33 -27 -41q-14 -18 -49 -30.5t-62 -12.5q-80 0 -118.5 62.5t-43.5 172.5z" />
<glyph unicode="&#x153;" horiz-adv-x="1058" d="M508 133q-1 -14 -1 -29q0 -30 3 -61q8 -51 30 -59q47 -19 139 -19h9q8 0 40.5 3t60.5 5t40 2q31 0 31 29q4 29 -25 29q-37 0 -67 -2q-84 -6 -127 -6q-26 0 -37 2q-31 6 -27 39q-1 -2 -2 -8q-3 -12 -4 -11l-1 4q-1 4 -1 6q-3 26 -3 53q0 13 1 27q6 172 55 473 q4 29 13.5 35t33.5 6q51 0 72 2q27 0 31 31q0 12 -8.5 20.5t-20.5 6.5q-16 -2 -63 -2q-25 0 -33 8t-4 37q6 47 12 172q4 180 20 256q0 6 5 14q2 12 6 24l2 5q0 2 2 4h6q6 2 31 2q43 0 94 -2q68 -2 143 -2q37 0 47 10q6 4 11 20q0 12 -9.5 20.5t-21.5 6.5q-2 0 -20.5 1 t-58.5 2t-83 1q-51 2 -98 2t-66 -10q-31 -18 -49 -92q-16 -80 -20 -266q-4 -121 -15 -181q-2 -18 -11 -74.5t-13 -95.5q-45 -293 -49 -438zM-32 486q7 -152 26 -267q25 -123 65 -184q38 -50 86 -50q33 0 72 23q72 45 121 174q75 213 104 682q8 96 8 164q0 76 -10 117 q-33 140 -140 140q-20 0 -42 -5q-45 -10 -92 -45t-74 -78q-74 -121 -102 -321q-23 -160 -23 -289q0 -31 1 -61zM28 495q-2 32 -2 65q0 122 21 270q27 188 94 298q20 33 56 61t67 34q13 3 25 3q71 0 94 -102q13 -46 13 -123q0 -19 -1 -40q-35 -403 -53 -515 q-51 -328 -154 -389q-19 -10 -35 -10q-26 0 -44 27q-33 45 -56 162q-17 113 -25 259z" />
<glyph unicode="&#x178;" horiz-adv-x="632" d="M411 1474q-23 -47 25 -64q27 -8 47 4t26 37q2 8 8.5 23.5t10.5 28.5q0 18 -25 32q-8 2 -14 2t-9 1t-6.5 -1t-4.5 -2t-5 -3t-6 -5q-27 -19 -47 -53zM680.5 1498.5q-3.5 -14.5 2 -25.5t7.5 -13l20 -23q14 -8 31.5 -3t19.5 21q4 8 8.5 20.5t6.5 20.5q8 23 -2.5 33t-32.5 4 l-43 -14q-14 -6 -17.5 -20.5zM49 1221q10 -119 55 -275l39 -143l31 -109q0 -2 6 -19.5t8 -31.5t0 -25q-31 -141 -47 -399q-6 -137 -12 -186q-4 -29 24.5 -29t32.5 29q2 20 7.5 85.5t9.5 106.5q10 156 20 242q10 104 25.5 154.5t60.5 136.5q193 371 279 481q8 10 8 20 q0 5 -3 11q-7 14 -23 15h-2q-14 0 -27 -13q-37 -47 -181 -301l-104 -191q-2 -2 -3 -6t-7 -9t-11.5 -6t-12.5 6t-13 28l-14 51l-39 139q-41 184 -50 250q0 27 -30 22q-27 -4 -27 -34z" />
<glyph unicode="&#x2c6;" horiz-adv-x="524" d="M-35 643.5q6 -14.5 21.5 -15.5t29.5 13q137 186 236 358l51 95l2 -31q12 -194 62 -387q4 -16 20 -18.5t28.5 9t10.5 29.5q-45 160 -61 351q0 8 -1.5 23t-1.5 26q4 59 -2 90q0 18 -8 31q-10 10 -20 12q-26 5 -46 -36q0 -1 -24 -50q-117 -231 -291 -469q-12 -16 -6 -30.5z " />
<glyph unicode="&#x2dc;" horiz-adv-x="614" d="M-322 150q0 -29 27 -28q31 0 31 28q2 25 24 66q49 92 111 113q55 18 69 -39q12 -43 25 -56q53 -72 130 -72.5t148.5 48.5t133.5 131q12 16 6 30.5t-21.5 15.5t-30.5 -13q-84 -106 -168.5 -140t-148.5 37q-4 4 -16 41q-14 39 -35 56q-90 66 -195 -43q-80 -83 -90 -175z " />
<glyph unicode="&#x2000;" horiz-adv-x="794" />
<glyph unicode="&#x2001;" horiz-adv-x="1589" />
<glyph unicode="&#x2002;" horiz-adv-x="794" />
<glyph unicode="&#x2003;" horiz-adv-x="1589" />
<glyph unicode="&#x2004;" horiz-adv-x="529" />
<glyph unicode="&#x2005;" horiz-adv-x="397" />
<glyph unicode="&#x2006;" horiz-adv-x="264" />
<glyph unicode="&#x2007;" horiz-adv-x="264" />
<glyph unicode="&#x2008;" horiz-adv-x="198" />
<glyph unicode="&#x2009;" horiz-adv-x="317" />
<glyph unicode="&#x200a;" horiz-adv-x="88" />
<glyph unicode="&#x2010;" horiz-adv-x="667" d="M-12.5 538.5q0.5 -28.5 30.5 -24.5q113 16 344 10q143 -4 160 -4q31 0 31 29q4 29 -25 29q-8 0 -155 4q-238 9 -357 -11q-29 -4 -28.5 -32.5z" />
<glyph unicode="&#x2011;" horiz-adv-x="667" d="M-12.5 538.5q0.5 -28.5 30.5 -24.5q113 16 344 10q143 -4 160 -4q31 0 31 29q4 29 -25 29q-8 0 -155 4q-238 9 -357 -11q-29 -4 -28.5 -32.5z" />
<glyph unicode="&#x2012;" horiz-adv-x="667" d="M-12.5 538.5q0.5 -28.5 30.5 -24.5q113 16 344 10q143 -4 160 -4q31 0 31 29q4 29 -25 29q-8 0 -155 4q-238 9 -357 -11q-29 -4 -28.5 -32.5z" />
<glyph unicode="&#x2013;" horiz-adv-x="684" d="M-78 463q-2 -12 6.5 -20.5t22.5 -6.5q33 2 182 17q266 23 404 22q27 0 30.5 28.5t-24.5 28.5q-170 0 -408 -22q-155 -14 -182 -16q-12 0 -21.5 -9.5t-9.5 -21.5z" />
<glyph unicode="&#x2014;" horiz-adv-x="1419" d="M-53 463q2 -25 33 -21q131 33 649 48.5t637 -13.5q31 -4 37 23q8 31 -19 35q-125 31 -650.5 16.5t-664.5 -51.5q-27 -10 -22 -37z" />
<glyph unicode="&#x2018;" horiz-adv-x="268" d="M20 1006q-8 -31 19 -35q31 -4 37 22q59 179 139 240q16 12 14 28.5t-15 21.5t-30 -5q-102 -78 -164 -272z" />
<glyph unicode="&#x2019;" horiz-adv-x="229" d="M66.5 1276q-5.5 -14 3.5 -29q74 -84 28 -262q-8 -29 21 -33q31 -4 35 25q55 211 -39 311q-10 12 -26.5 7t-22 -19z" />
<glyph unicode="&#x201a;" horiz-adv-x="278" d="M-70 119.5q0 -15.5 17 -23.5q33 -16 57 -41q20 -20 33.5 -46.5t8.5 -58.5t-38 -52q-16 -10 -16 -27.5t12 -24t31 1.5q49 29 65.5 80.5t-4.5 91.5q-33 93 -123 130q-16 8 -29.5 -3.5t-13.5 -27z" />
<glyph unicode="&#x201c;" horiz-adv-x="491" d="M70 922q-4 -12 3 -21.5t19 -9.5q29 -4 33 27q29 147 111 239q12 14 7 29.5t-20.5 17.5t-29.5 -10q-96 -111 -123 -272zM238 942q-10 -29 15.5 -38t39.5 18q27 66 39 88q47 88 102 139q20 23 1 42t-42 -1q-69 -74 -112 -158z" />
<glyph unicode="&#x201d;" horiz-adv-x="450" d="M96 1118.5q-6 -14.5 2 -28.5q18 -25 27 -46q10 -29 20 -98q0 -27 35 -22q27 4 23 34q-2 16 -4 38t-2 26q-17 61 -50 104q-10 14 -27.5 10.5t-23.5 -18zM255 1183.5q-7 -14.5 1 -30.5q35 -47 46 -100.5t13 -151.5q0 -12 9.5 -20.5t21.5 -6.5q10 0 19.5 10.5t9.5 20.5 q2 100 -12.5 164t-57.5 121q-10 14 -26.5 11t-23.5 -17.5z" />
<glyph unicode="&#x201e;" horiz-adv-x="399" d="M-29 -94q-4 -29 19 -35q27 -8 39 18q55 152 -6 269q-10 14 -25.5 13t-26 -15.5t-0.5 -30.5q47 -98 0 -219zM147 -66q-10 -29 15.5 -38t40.5 18q53 127 12 266q-4 18 -20.5 20.5t-28.5 -11t-6 -29.5q33 -125 -13 -226z" />
<glyph unicode="&#x2022;" horiz-adv-x="378" d="M70 647q2 -8 8 -21.5t10 -21.5l-4 14q31 -76 106 -36q38 20 46 24l-19 -8q18 8 35 23q35 35 26.5 79.5t-47 57t-77.5 -7.5l-17 -9q-6 -2 -12 -5t-13.5 -7t-11.5 -6q-35 -29 -30 -76z" />
<glyph unicode="&#x2026;" horiz-adv-x="722" d="M-87 35q1 -6 4 -12.5t5 -11.5t5 -10l3 -5l2 -4q2 -4 5 -4q8 -16 22 -15.5t23 13.5q46 53 30 82q-16 23 -30 22q-2 0 -52 -20q-8 -4 -12 -9.5t-5 -12.5t0 -13zM172 -2q8 -27 32.5 -30t59.5 22q0 2 8.5 9t15.5 15.5t13 20.5t6 24q0 20 -19 32.5t-42 8.5q-20 -2 -51 -12 q-47 -23 -23 -90zM455 6q8 -20 16 -20h6h12q16 2 33 2q27 0 31 28v13q-2 4 -3 15t-5 22q-18 27 -45 4q-16 -12 -27 -23l-10 -8q-2 -2 -4 -6q-10 -14 -4 -27z" />
<glyph unicode="&#x202f;" horiz-adv-x="317" />
<glyph unicode="&#x2039;" horiz-adv-x="366" d="M-63 461q-21 -28 10 -53l22 -15q80 -49 168 -82q18 -4 31.5 7.5t12.5 27.5t-17 23q-74 25 -158 73q-10 8 0 15q2 2 4 5t4 5q15 12 86 80q98 88 162 151q14 16 8 31.5t-20 17t-29 -11.5q-37 -37 -158 -147q-59 -53 -88 -82q-23 -23 -28 -31q-6 -6 -10 -14z" />
<glyph unicode="&#x203a;" horiz-adv-x="413" d="M-34 264.5q16 -22.5 42 -4.5q57 43 172 158q43 43 88 96q20 29 27 39q31 55 -43 84q-18 4 -57 20q-76 31 -111 84q-10 16 -27.5 13.5t-24.5 -16t1 -29.5q43 -70 135 -107l31 -10q2 0 2 -1t2 -1q41 -14 28 -31q-2 -4 -10 -12q-27 -37 -80 -90q-80 -80 -166 -152 q-25 -18 -9 -40.5z" />
<glyph unicode="&#x205f;" horiz-adv-x="397" />
<glyph unicode="&#x20ac;" horiz-adv-x="626" d="M-203 502q2 -25 33 -21q35 10 98 21q14 2 23.5 2t13.5 -10.5t2 -30.5q-10 -109 -4 -160t33 -115q63 -158 168 -190q66 -16 118 21.5t80 105.5q31 74 31 90q8 31 -16 35q-33 4 -39 -23l-2 -5q-2 -5 -5 -15t-7 -23l-17 -43q-18 -45 -43 -63q-78 -63 -155 37q-78 90 -86 198 q-4 72 4 160q2 20 9 30.5t13 11.5t23 3q63 4 237 4q63 -2 123 -2q31 0 31 29q4 29 -25 29q-57 0 -119 2q-131 2 -237 -5q-25 0 -33 5.5t-6 29.5q0 6 2 18.5t2 18.5l4 15q0 4 2 10t2 9t2 7t5.5 6t7.5 4t11 3t15 1q57 2 320 3q29 0 33 28q2 12 -6.5 20.5t-20.5 8.5h-309 q-33 -2 -38 5t5 40q27 113 56.5 167t80.5 103q109 104 182 70q82 -33 86 -174l4 -41q0 -14 1.5 -31.5t1.5 -21.5q0 -27 32 -23q27 4 27 35q-2 16 -4 51t0 41q-16 172 -117 219q-55 25 -123.5 -0.5t-126.5 -83.5q-61 -61 -97 -126.5t-67 -196.5q-5 -32 -18 -38q-9 -4 -27 -5 q-74 -8 -106 -15q-27 -4 -27 -32q4 -29 33 -25q25 4 82 12q20 2 30.5 -8t6.5 -33q-4 -12 -8 -45q-3 -40 -43 -43q-66 -10 -119 -24q-27 -10 -23 -37z" />
<glyph unicode="&#x2122;" horiz-adv-x="724" d="M-2 1241q-2 -12 6 -20.5t23 -6.5h67h37q-14 -311 -31 -399q-4 -12 3.5 -21.5t19.5 -9.5q31 -4 35 27q29 152 35 401q3 3 36 7h11q35 0 45 12q10 6 10 20q0 12 -8 20.5t-21 6.5q-29 -2 -123 -2q-20 0 -46.5 -1t-43 -2t-26.5 -1q-29 0 -29 -31zM279 825q-2 -12 6 -20t20 -6 q12 0 21.5 9t9.5 21q8 80 24 129l25 76q6 17 15 50q12 34 16 34q0 -12 -1 -45t-1 -61v-31q10 -33 45 -18q18 8 43 57q9 25 30 80q2 8 7.5 10t10.5 -2t5 -14q2 -4 6 -50l14 -122q4 -45 7 -64q4 -31 20 -41q16 -6 32.5 7.5t8.5 31.5q-4 25 -10 78l-12 123q-6 77 -19 117 q-8 35 -10 40q-12 29 -37 29q-16 0 -29 -12q-14 -23 -22 -41q-10 -29 -16.5 -37t-8.5 -7t-8 20.5t-8 27.5l-6 23q-10 23 -33 22q-20 0 -31 -8q-2 -2 -16 -27q-6 -16 -12 -39q-2 -6 -5.5 -19.5t-5.5 -17.5l-49 -157q-23 -70 -26 -146z" />
<glyph unicode="&#xe000;" horiz-adv-x="1255" d="M0 1255h1255v-1255h-1255v1255z" />
<glyph unicode="&#xfb01;" horiz-adv-x="798" d="M569 -7q0 -9 6 -15q8 -8 21 -9q27 0 30 29q6 59 19 274q6 123 24 271q62 418 80 686q2 12 -6 20t-20 8q-31 -4 -31 -32q-20 -295 -80 -678q-15 -89 -24 -277q-6 -101 -15 -217q-4 -50 -4 -60zM-23 20q-2 -12 7 -20q8 -6 17 -6h5q12 0 21.5 9t7.5 22q2 199 67 610 q2 14 5.5 22.5t11.5 12.5t11 4t17 2q78 6 84 6q29 0 33 31q0 12 -9 20t-22 6q-33 0 -59 -2h-12q-23 -4 -32 4.5t-5 34.5q2 10 4 31.5t4 32.5q12 70 31 319q0 41 38 41h7q31 -2 110 -2q94 0 168 -4q15 -2 26 6t11 25q0 8 -6 16q-8 10 -20 10q-55 6 -174 6q-96 1 -170 5 q-14 0 -19 -5q-16 -12 -22 -32q-2 -2 -2 -11q0 -6 -17 -188q-4 -41 -9 -102.5t-7 -79.5q-2 -6 -66 -416q-35 -258 -35 -408z" />
<glyph unicode="&#xfb02;" horiz-adv-x="1027" d="M516 141q0 -135 37 -151q36 -18 103 -18q18 0 38 1q43 3 72 3q39 0 53 -5q4 -1 8 -1q24 0 29 24q2 7 2 13q0 19 -21 22q-19 5 -76 5q-28 0 -65 -1q-13 -1 -27 -1q-28 0 -59 3q-27 6 -31 20q-4 8 -2 13q-2 14 -2 33.5t2 43.5q-2 6 13 148q14 119 28 293q6 57 12.5 118.5 t12.5 129t10 100.5q14 152 37 291q8 29 -23 32q-31 0 -34 -28q-16 -106 -39 -293q-6 -57 -16.5 -176t-16.5 -174q-15 -174 -29 -293zM-23 20q-2 -12 7 -20q8 -6 17 -6h5q12 0 21.5 9t7.5 22q2 199 67 610q2 14 5.5 22.5t11.5 12.5t11 4t17 2q78 6 84 6q29 0 33 31 q0 12 -9 20t-22 6q-33 0 -59 -2h-12q-23 -4 -32 4.5t-5 34.5q2 10 4 31.5t4 32.5q12 70 31 319q0 41 38 41h7q31 -2 110 -2q94 0 168 -4q15 -2 26 6t11 25q0 8 -6 16q-8 10 -20 10q-55 6 -174 6q-96 1 -170 5q-14 0 -19 -5q-16 -12 -22 -32q-2 -2 -2 -11q0 -6 -17 -188 q-4 -41 -9 -102.5t-7 -79.5q-2 -6 -66 -416q-35 -258 -35 -408z" />
<glyph unicode="&#xfb03;" horiz-adv-x="1363" d="M1134 -7q0 -9 6 -15q8 -8 21 -9q27 0 30 29q6 59 19 274q6 123 24 271q62 418 80 686q2 12 -6 20t-20 8q-31 -4 -31 -32q-20 -295 -80 -678q-15 -89 -24 -277q-6 -101 -15 -217q-4 -50 -4 -60zM542 20q-2 -12 7 -20q8 -6 17 -6h5q12 0 21.5 9t7.5 22q2 199 67 610 q2 14 5.5 22.5t11.5 12.5t11 4t17 2q78 6 84 6q29 0 33 31q0 12 -9 20t-22 6q-33 0 -59 -2h-12q-23 -4 -32 4.5t-5 34.5q2 10 4 31.5t4 32.5q12 70 31 319q0 41 38 41h7q31 -2 110 -2q94 0 168 -4q15 -2 26 6t11 25q0 8 -6 16q-8 10 -20 10q-55 6 -174 6q-96 1 -170 5 q-14 0 -19 -5q-16 -12 -22 -32q-2 -2 -2 -11q0 -6 -17 -188q-4 -41 -9 -102.5t-7 -79.5q-2 -6 -66 -416q-35 -258 -35 -408zM-23 20q-2 -12 7 -20q8 -6 17 -6h5q12 0 21.5 9t7.5 22q2 199 67 610q2 14 5.5 22.5t11.5 12.5t11 4t17 2q78 6 84 6q29 0 33 31q0 12 -9 20t-22 6 q-33 0 -59 -2h-12q-23 -4 -32 4.5t-5 34.5q2 10 4 31.5t4 32.5q12 70 31 319q0 41 38 41h7q31 -2 110 -2q94 0 168 -4q15 -2 26 6t11 25q0 8 -6 16q-8 10 -20 10q-55 6 -174 6q-96 1 -170 5q-14 0 -19 -5q-16 -12 -22 -32q-2 -2 -2 -11q0 -6 -17 -188q-4 -41 -9 -102.5 t-7 -79.5q-2 -6 -66 -416q-35 -258 -35 -408z" />
<glyph unicode="&#xfb04;" horiz-adv-x="1592" d="M1081 141q0 -135 37 -151q36 -18 103 -18q18 0 38 1q43 3 72 3q39 0 53 -5q4 -1 8 -1q24 0 29 24q2 7 2 13q0 19 -21 22q-19 5 -76 5q-28 0 -65 -1q-13 -1 -27 -1q-28 0 -59 3q-27 6 -31 20q-4 8 -2 13q-2 14 -2 33.5t2 43.5q-2 6 13 148q14 119 28 293q6 57 12.5 118.5 t12.5 129t10 100.5q14 152 37 291q8 29 -23 32q-31 0 -34 -28q-16 -106 -39 -293q-6 -57 -16.5 -176t-16.5 -174q-15 -174 -29 -293zM542 20q-2 -12 7 -20q8 -6 17 -6h5q12 0 21.5 9t7.5 22q2 199 67 610q2 14 5.5 22.5t11.5 12.5t11 4t17 2q78 6 84 6q29 0 33 31 q0 12 -9 20t-22 6q-33 0 -59 -2h-12q-23 -4 -32 4.5t-5 34.5q2 10 4 31.5t4 32.5q12 70 31 319q0 41 38 41h7q31 -2 110 -2q94 0 168 -4q15 -2 26 6t11 25q0 8 -6 16q-8 10 -20 10q-55 6 -174 6q-96 1 -170 5q-14 0 -19 -5q-16 -12 -22 -32q-2 -2 -2 -11q0 -6 -17 -188 q-4 -41 -9 -102.5t-7 -79.5q-2 -6 -66 -416q-35 -258 -35 -408zM-23 20q-2 -12 7 -20q8 -6 17 -6h5q12 0 21.5 9t7.5 22q2 199 67 610q2 14 5.5 22.5t11.5 12.5t11 4t17 2q78 6 84 6q29 0 33 31q0 12 -9 20t-22 6q-33 0 -59 -2h-12q-23 -4 -32 4.5t-5 34.5q2 10 4 31.5 t4 32.5q12 70 31 319q0 41 38 41h7q31 -2 110 -2q94 0 168 -4q15 -2 26 6t11 25q0 8 -6 16q-8 10 -20 10q-55 6 -174 6q-96 1 -170 5q-14 0 -19 -5q-16 -12 -22 -32q-2 -2 -2 -11q0 -6 -17 -188q-4 -41 -9 -102.5t-7 -79.5q-2 -6 -66 -416q-35 -258 -35 -408z" />
</font>
</defs>
</svg>
