<?xml version="1.0" standalone="no"?>
<!DOCTYPE svg PUBLIC "-//W3C//DTD SVG 1.1//EN" "http://www.w3.org/Graphics/SVG/1.1/DTD/svg11.dtd" >
<svg xmlns="http://www.w3.org/2000/svg">
<metadata>
This is a custom SVG webfont generated by Font Squirrel.
Copyright   : Mattox
Designer    : Mattox Shuler
</metadata>
<defs>
<font id="MathleteSkinny" horiz-adv-x="565" >
<font-face units-per-em="2048" ascent="1638" descent="-410" />
<missing-glyph horiz-adv-x="614" />
<glyph unicode=" "  horiz-adv-x="614" />
<glyph unicode="&#x09;" horiz-adv-x="614" />
<glyph unicode="&#xa0;" horiz-adv-x="614" />
<glyph unicode="!" horiz-adv-x="286" d="M76 55q-2 -18 9 -31.5t30 -13.5q35 0 53 18.5t21 36t1 25.5q0 12 -10 20.5t-20 6.5q-33 -2 -56.5 -19.5t-27.5 -42.5zM111 317q0 -29 28.5 -29t28.5 29v854q0 29 -28.5 29t-28.5 -29v-854z" />
<glyph unicode="&#x22;" horiz-adv-x="417" d="M68 1042q0 -37 2 -61v-55q0 -29 28.5 -29t28.5 29v114q0 76 6 109q4 29 -24.5 33t-32.5 -25q-8 -47 -8 -115zM262 1169q2 -55 2 -237q0 -29 29 -29t29 29q-1 182 -3 237q0 31 -28 31q-33 -4 -29 -31z" />
<glyph unicode="#" horiz-adv-x="790" d="M-47 580q-2 -12 6 -21.5t21 -9.5q49 -4 81 -4q49 -4 33 -47q-33 -90 -39 -150q-4 -29 25 -33t33 25q8 72 57 188q8 20 41 23q52 3 123 12q35 4 41 -2t-4 -43q-27 -80 -47 -162q-4 -31 22 -34q31 -4 35 22q37 131 59 201q10 35 45 37q76 8 125 12q29 0 29 31q-4 31 -33 26 q-34 -3 -80 -6q-37 -2 -42 7.5t8 37.5l47 127q0 2 34 2q18 0 41 1t35.5 2t20.5 1q29 0 28 31q-4 31 -32 27h-52q-35 0 -38 6t6 39q12 53 14 63q4 31 -25 35q-10 0 -20 -6q-8 -4 -11 -11.5t-4 -17.5t-4 -16q-4 -18 -22 -62q-10 -27 -20 -30q-9 -3 -27 -4h-56q-36 0 -53 -3 h-10q-27 -2 -35 6.5t0 39.5q4 18 21 59q8 29 -19.5 38t-38.5 -18q-12 -37 -30 -98q-6 -25 -14.5 -29t-30.5 -6q-92 -8 -146 -26q-27 -10 -17.5 -38t38.5 -20q27 12 88 19q31 4 40 -2t-1 -43l-6 -15q-16 -51 -39 -104q-16 -33 -56 -33q-72 -4 -114 2q-12 2 -21.5 -6t-9.5 -20 zM226 625.5q-9 13.5 1 36.5q10 27 23.5 66.5t15.5 47.5q4 10 7 16.5t5.5 10.5t7.5 6t7 3t9 1h9q16 2 54 3t59 1q29 2 35 -3t0 -42l-39 -110q-10 -24 -24 -30q-8 -3 -23 -5q-25 -4 -63 -7.5t-50 -5.5q-25 -2 -34 11.5z" />
<glyph unicode="$" horiz-adv-x="684" d="M-4 811q6 -74 53 -115q35 -29 74 -36t139 -13q14 0 14 -41q0 -96 3.5 -269t3.5 -239q0 -41 -14.5 -44t-35.5 14q-98 63 -116 192q-4 29 -33 25t-25 -33q10 -92 62.5 -160.5t130.5 -97.5q33 -12 35 -45q3 -68 6 -129q0 -12 9 -20.5t22 -6.5q12 0 20 9.5t6 21.5 q-2 18 -2 55t-2 55q-2 37 39 43q86 12 142.5 82t60.5 183q6 158 -46.5 285.5t-168.5 164.5h-2q-10 2 -23.5 15.5t-13.5 29.5q-2 238 -6 396q0 14 2 25t7 16.5t9 3.5q12 -4 19 -9q73 -35 108 -170q4 -27 37 -22q25 4 20 35q-39 158 -139 211q-4 2 -13 6t-16 6q-37 8 -38 43 q0 45 -5 123q0 29 -30 29q-31 -4 -27 -33q4 -78 4 -121q2 -35 -33 -47q-12 -4 -36 -17q-96 -51 -155.5 -165.5t-45.5 -235.5zM53 815q-10 106 40 203.5t132 142.5q4 4 11.5 8.5t20.5 -3t13 -38.5q4 -102 4 -380q0 -41 -10 -41q-63 2 -104 8q-96 12 -107 100zM334 592 q0 47 12 47q2 0 5 -2t5 -2q92 -27 135.5 -137.5t38.5 -251.5q-8 -182 -147 -207q-41 -10 -41 18q-4 146 -8 535z" />
<glyph unicode="%" horiz-adv-x="671" d="M6 25q-8 -29 19.5 -38.5t37.5 17.5q242 666 510 1170q8 16 -2 30.5t-25.5 14.5t-25.5 -17q-264 -481 -514 -1177zM47 1061q-12 -43 1 -85t50 -61q53 -23 93 -9t59 57q16 29 11 79t-28 78q-35 33 -45 35q-53 10 -91 -17.5t-50 -76.5zM104 997q-14 51 17 82q27 20 50.5 0 t29.5 -47q8 -35 -11.5 -60.5t-66.5 -2.5q-12 6 -19 28zM272.5 55q34.5 -49 112.5 -43q80 8 104.5 67.5t-36.5 143.5q-23 23 -39 27q-10 4 -49 -4q-35 -2 -76 -62q-51 -80 -16.5 -129zM322.5 87q-13.5 19 15.5 65l24 34l9 2h2q8 2 20.5 1t14.5 -3q39 -55 28.5 -82.5 t-55.5 -31.5t-58.5 15z" />
<glyph unicode="&#x26;" horiz-adv-x="679" d="M2 313.5q-4 141.5 43 227.5q25 39 47 63q25 27 0 53q-4 4 -24 35q-37 78 -27 184.5t57 213.5q90 207 217 167q47 -16 84 -65t50 -109q10 -63 -11 -108q-8 -16 -24.5 -16.5t-26.5 12t-2 28.5q14 27 5 72t-36 84q-57 80 -118 33q-45 -35 -85 -126t-51 -183q-8 -100 21 -158 q16 -35 45 -47q14 -6 49 -10h8q2 0 8.5 -1t8.5 -4q4 0 6 -2q4 -2 10 -8q12 -18 0 -37q-8 -6 -16 -10h-11h-20q-27 0 -41 -10q-47 -31 -70 -80q-41 -74 -38 -199t46 -194q58 -95 160 -68q98 27 152 133q41 82 28 232l-2 4q0 6 -41 2q-53 -8 -79 -14q-29 -4 -35 20 q-6 27 18 37q29 8 43 10l39 4q31 6 129 6q66 -2 66 -30.5t-29 -28.5h-10q-41 0 -41 -6q16 -170 -33 -264q-31 -57 -82 -101.5t-106 -60.5q-143 -39 -226 92q-51 86 -55 227.5z" />
<glyph unicode="'" horiz-adv-x="159" d="M0 1063q6 -92 6 -121t28.5 -29t28.5 29q0 8 -1 24.5t-2 46t-1 54.5q-4 92 -2 119q4 29 -26 33q-31 0 -31 -29q-4 -49 0 -127z" />
<glyph unicode="(" horiz-adv-x="473" d="M78 516q-2 -166 28.5 -269.5t157.5 -248.5q12 -14 28.5 -10t21.5 18t-5 29q-119 135 -146.5 228t-25.5 253q0 82 9.5 166t31 183.5t68 175t112.5 104.5q18 6 20.5 22.5t-11 27.5t-29.5 3q-170 -70 -236 -412q-25 -132 -24 -270z" />
<glyph unicode=")" horiz-adv-x="481" d="M29 1155q2 -16 20 -22q33 -12 62 -39q39 -33 98 -117q166 -231 98 -477q-4 -12 -11 -34t-9 -30q-27 -68 -62 -131l-37 -69l-36 -64l-46 -74l-43 -69q-10 -16 -0.5 -30.5t24.5 -13.5t26 15l43 68l45 71l37 66l41 74l32 65q35 70 51 139q76 273 -104 527l-53 71 q-57 78 -135 105q-16 8 -29.5 -3.5t-11.5 -27.5z" />
<glyph unicode="*" horiz-adv-x="587" d="M74 1059q-4 -33 22 -37q63 -14 105 -31q29 -10 32 -18t-12 -37l-20 -37l-37 -68q-8 -16 2 -30.5t25.5 -14t25.5 16.5l35 67q16 35 25.5 35t29.5 -35q6 -12 41 -63q10 -16 27.5 -13t24 16t-2.5 30q-18 29 -55 88q-23 41 55 73q8 4 35 15.5t41 17.5q16 4 19.5 20.5t-9 28 t-30.5 4.5q-55 -18 -82 -32q-33 -16 -41 -10t-6 45q4 39 12 71q10 25 -19 37q-27 10 -38 -20q-12 -39 -17 -101q-2 -31 -7 -35t-36 5q-16 4 -53 16t-57 16q-31 4 -35 -20z" />
<glyph unicode="+" horiz-adv-x="610" d="M-8 608q4 -27 35 -22q82 16 186 16q29 0 35 -6t8 -35q8 -186 12 -219q0 -12 10.5 -20.5t22.5 -6.5q10 0 18.5 10.5t6.5 20.5q-2 27 -5.5 97.5t-7.5 113.5q-2 33 2 38t39 5q39 0 84 -2t47 -2q29 0 29 28.5t-29 28.5q-57 0 -133 4q-27 2 -34 8.5t-7 34.5q0 70 -8 209 q0 29 -31 29q-31 -4 -26 -33q6 -104 6 -203q0 -29 -9.5 -36t-47.5 -7q-115 0 -181 -16q-27 -4 -22 -35z" />
<glyph unicode="," horiz-adv-x="237" d="M30 65.5q-1 -14.5 13 -28.5q39 -29 39 -76t-31 -135q-8 -29 19.5 -38t38.5 17q37 86 33.5 161t-66.5 120q-14 10 -29.5 2t-16.5 -22.5z" />
<glyph unicode="-" horiz-adv-x="667" d="M6 538.5q4 -28.5 33 -24.5q113 16 344 10q143 -4 160 -4q29 0 28.5 29t-28.5 29q-8 0 -156 4q-237 9 -356 -11q-29 -4 -25 -32.5z" />
<glyph unicode="." horiz-adv-x="262" d="M34.5 98q-24.5 -39 8.5 -80q29 -43 72 -32.5t51 75.5q2 11 -2 19l-5 16q-5 16 -12.5 25.5t-21.5 9.5q-66 6 -90.5 -33z" />
<glyph unicode="/" horiz-adv-x="575" d="M-31 -6q-2 -12 6.5 -21.5t20.5 -9.5q12 -2 21.5 6t9.5 21q8 82 43 182l39 94q27 63 34 90q207 547 334 824q8 16 -2 29.5t-26.5 12.5t-24.5 -18q-147 -326 -334 -827q-17 -37 -37 -88l-37 -96q-39 -102 -47 -199z" />
<glyph unicode="0" d="M-43 719q-6 -66 10 -219q41 -387 160 -498q47 -41 98 -41q66 2 123.5 55.5t85.5 176.5q35 145 35 446q0 102 -2 166q-2 45 -14 174q-6 111 -50 199q-41 88 -104 108.5t-143 -43.5q-174 -150 -199 -524zM14 715q25 352 179 483q98 82 157 -45q25 -51 40.5 -166t15.5 -156 q6 -242 2 -374q-16 -334 -105 -402q-45 -35 -78 -35q-29 0 -57 25q-55 53 -96 199q-31 111 -46.5 255t-11.5 216z" />
<glyph unicode="1" horiz-adv-x="483" d="M-31 -6q0 -29 29 -29q100 0 180 2t180 2q29 0 29 29t-29 29h-120q-45 -2 -45 8q4 274 20 565q6 104 -4 303q-14 207 -14 297q0 8 -2 10q-4 31 -33 31q-10 0 -21 -10q-77 -71 -129 -154q-10 -16 -2 -30.5t23.5 -15.5t27.5 13q12 20 29 41q27 37 39 34t14 -52l3 -63 q3 -63 6 -105q12 -184 6 -295q-18 -336 -19 -555q2 -25 -41 -26h-98q-29 0 -29 -29z" />
<glyph unicode="2" d="M-8 16q0 -20 18 -28l8 -1q8 -1 19.5 -3t19.5 -2h23q74 0 131 2q27 2 93.5 5t86.5 3h49q29 0 29 28.5t-29 28.5h-49q-23 -2 -90 -2q-16 0 -48 -1t-44 -3q-55 -2 -129 -2h-10l-9 2l31 76q39 96 58 131q14 47 47 110l77 138l72 125q133 252 92 415q-25 104 -100.5 158.5 t-161.5 36.5q-90 -20 -136 -110.5t-26 -223.5q4 -29 33 -24.5t25 32.5q-18 113 16.5 183.5t99.5 85.5q61 12 117.5 -28t75.5 -122q35 -143 -88 -375q-25 -46 -68 -123q-92 -156 -133 -258q0 -4 -53 -129l-33 -78l-10 -26l-4 -8v-13z" />
<glyph unicode="3" horiz-adv-x="512" d="M-82 223q6 -137 90 -209.5t193 -48.5q111 27 172 146.5t39 300.5q-8 80 -50.5 143t-109.5 96q-2 0 -6 1t-10.5 5.5t-7.5 9.5t5.5 14t24.5 19q98 57 131 160t-10 207q-47 117 -124 151.5t-149 -18.5q-66 -49 -100.5 -140t-19.5 -190q4 -29 32.5 -24.5t24.5 33.5 q-10 82 18.5 158.5t79.5 113.5q43 37 93.5 11.5t89.5 -118.5q39 -96 -5.5 -188t-146.5 -137l-18 -4l-11 -2q-43 -10 -51 -17q-25 -16 -21.5 -40.5t27.5 -28.5q20 -2 56 2q14 -2 73 -31q111 -51 127 -195q18 -160 -32 -260t-136 -120q-78 -18 -141 38t-70 166q0 29 -30 29 q-31 -4 -27 -33z" />
<glyph unicode="4" horiz-adv-x="563" d="M-53 641q-4 -25 16 -37q12 -4 14 -2h7q18 2 32 6q6 0 19 4q80 14 90 17q72 6 154 4q18 0 24 -1t11 -10.5t5 -31.5q-4 -113 -11 -246t-11 -211t-4 -119q0 -29 28.5 -28.5t28.5 28.5q0 127 29 576q2 16 3 22t10 11.5t30 5.5h14q29 -4 33 26q0 31 -29 31l-14 2 q-12 0 -17.5 1t-12.5 5t-8 13.5t-1 23.5q4 78 10 162q3 68 6 111q4 127 -8 208q-4 14 -10 21q-4 4 -18 4q-10 0 -33 -14q-6 -2 -8 -9l-226 -331l-108 -160l-33 -55q-4 -6 -8 -19zM43 690l107 160l145 211q49 72 49 -14v-23q0 -29 -6 -113t-6 -114q0 -10 -2 -32t-2 -32 q-2 -29 -11.5 -35t-31.5 -6q-72 2 -168 -6q-2 0 -7.5 -1t-9.5 -1q-47 -4 -49 9.5t19 35.5z" />
<glyph unicode="5" horiz-adv-x="595" d="M-14 231q0 -137 65.5 -212.5t167.5 -67.5q94 8 171 83t99 185q18 78 9 163t-35.5 155.5t-83.5 119t-135 52.5q-16 2 -109 -17l-8 -2q-39 -6 -43 8q0 10 1 24.5t1 22.5v27q0 2 -1 52t-1 79q-6 129 12 199q4 23 10 33l5 6q40 12 153 0q98 -16 172 -21q29 -4 33 27 q0 31 -29 31q-2 0 -29.5 3t-50.5 7q-20 4 -90 10q-125 14 -176 0q-41 -12 -55 -82q-10 -41 -14 -125v-90q0 -49 2 -76q2 -29 2 -53q0 -8 -2 -22q-4 -68 -2 -101q10 -35 32 -31h4q6 2 14.5 3.5t14.5 1.5l55 12q16 4 62 10l10 2q20 4 47 2q106 -23 151.5 -149.5t16.5 -268.5 q-18 -94 -80.5 -154.5t-138.5 -66.5q-74 -6 -122 51.5t-48 169.5q0 29 -28.5 29t-28.5 -29z" />
<glyph unicode="6" horiz-adv-x="569" d="M-16 502q25 -436 200 -498q158 -51 240 117q66 141 45 321q-18 199 -121 238q-121 49 -270 -182q-8 -16 -16.5 -26.5t-18.5 1.5q0 6 -1 16.5t-1 16.5q-10 158 12 315q37 293 203 355q80 29 133 -97q4 -16 8 -57v-49v-10q0 -20 13 -31q6 -6 20 -6q12 0 20.5 9t6.5 21v68 q-4 51 -15 76q-70 180 -204 131q-100 -33 -181 -172q-43 -70 -63.5 -227.5t-9.5 -329.5zM70 291v39q10 63 67.5 151t114.5 129q43 29 76 17q68 -33 84 -191q16 -172 -41 -289q-61 -125 -166 -86q-53 18 -91 95.5t-44 134.5z" />
<glyph unicode="7" d="M-18 1192q-10 -55 18 -160q10 -25 37 -18q25 6 20 35q-16 47 -18 88q0 2 -1 10t-1 10q0 18 2 29q2 8 10 8h39q63 0 115 -2q123 -6 157 -6h39q-6 -29 -32 -109l-62 -164q-33 -82 -80 -256q-55 -203 -68.5 -244.5t-72.5 -209.5q-39 -106 -66 -209q-4 -31 23 -35 q31 -4 35 23q27 96 63 200l72 205q23 74 72 256q37 141 75 250l64 164l35 100q2 6 5 18.5t5 16.5q4 20 4 22q-4 12 -8 19q-8 12 -23 14q-10 2 -40.5 0t-39.5 -2q-45 0 -75 2q-131 4 -197 4q-68 0 -72 -4q-25 -14 -34 -55z" />
<glyph unicode="8" horiz-adv-x="600" d="M-23 174q10 -125 92.5 -180t190.5 -29q104 27 176 111t68 190q0 111 -58 201q-37 59 -133 135l-43 31q-33 27 -8 57q10 14 26.5 39t20.5 31q20 31 46 99.5t41.5 119.5t15.5 53q14 106 -45.5 173t-145.5 59q-80 -8 -144.5 -76t-86.5 -170q-25 -117 11 -197t122 -151 q31 -25 6 -58q-41 -55 -68 -96q-100 -154 -84 -342zM35 178q-14 164 76 307q14 25 65 93q27 33 60 8l38 -31q86 -66 121 -119q49 -80 51 -170q2 -88 -56 -155.5t-144 -87.5q-84 -18 -142.5 21.5t-68.5 133.5zM47 1006q18 84 69.5 138t108.5 60q92 12 121 -100q4 -16 0 -51 q-37 -176 -86 -260q-29 -45 -45 -68q-27 -33 -57 -6q-74 59 -102.5 123.5t-8.5 163.5z" />
<glyph unicode="9" horiz-adv-x="546" d="M29 966.5q-35 -114.5 10 -198.5q74 -127 194 -72q82 37 136 121q15 22 18 25v-4q0 -4 1 -12.5t1 -18.5v-23v-22q0 -152 2 -270q2 -199 2 -455q0 -29 29 -29t29 29q0 281 -2 502q-2 219 -3 487v4l-12 57q-35 117 -114.5 137.5t-169.5 -65.5q-86 -78 -121 -192.5zM85 953.5 q32 95.5 105 164.5q61 63 113.5 50t77.5 -113q6 -19 6 -35q-27 -199 -176 -270q-76 -31 -123 47q-35 61 -3 156.5z" />
<glyph unicode=":" horiz-adv-x="327" d="M61 305q14 -45 58 -41q16 2 37 15q31 20 41 46.5t2.5 47t-23.5 24.5q-25 8 -76 -12q-25 -6 -37 -30.5t-2 -49.5zM80 805q-8 -41 51 -66q25 -10 51.5 -3t40.5 26q20 31 1 54.5t-64 31.5h-4h-2q-6 2 -11 0q-4 0 -6 -2q-2 0 -4 -2q-10 0 -16 -2q-34 -9 -37 -37z" />
<glyph unicode=";" horiz-adv-x="411" d="M112.5 772q-10.5 -37 18.5 -74q29 -31 56.5 -27.5t50.5 31.5q0 2 2 5.5t4 5.5q2 4 8 11t8 9q8 8 10 12q23 35 15 58q-12 43 -52 49t-75 -18.5t-45.5 -61.5zM116 312q-3 -40 19 -66q27 -33 66 -33q43 -4 43 -6v-31q-4 -25 -29 -82q-8 -16 2 -29.5t26.5 -12.5t24.5 18 q23 53 33 96q2 27 10 49q14 63 -4 117q-20 51 -92 65q-35 8 -47 6q-9 0 -18 -12q-31 -39 -34 -79z" />
<glyph unicode="&#x3c;" horiz-adv-x="417" d="M-14 352q18 -78 129 -207l43 -47l43 -49q35 -39 65 -84q8 -16 25.5 -15t25 14t-1.5 30q-20 39 -69 92l-45 51l-41 47q-102 117 -117 181q-2 8 4 26q4 14 23 51q23 41 86 140q4 6 11 16t18.5 26.5t19.5 28.5l49 76l39 59q12 18 18 31q16 31 8 45q-6 16 -25.5 17.5 t-27.5 -19.5q-18 -41 -59 -100l-51 -74q-34 -46 -50 -74q-55 -82 -88 -145q-43 -82 -32 -117z" />
<glyph unicode="=" horiz-adv-x="741" d="M-4 378.5q-2 -16.5 11 -27.5t32 -3q74 31 179.5 37t399.5 6q29 0 29 29t-29 29h-305q-215 -10 -299 -48q-16 -6 -18 -22.5zM26.5 725q0.5 -29 28.5 -29q156 0 281 2h280q29 0 29 29t-29 29h-280q-125 -2 -281 -2q-29 0 -28.5 -29z" />
<glyph unicode="&#x3e;" horiz-adv-x="604" d="M-15 813.5q1 17.5 14 25t30 -0.5q86 -49 161 -101l144 -94l28 -14l56 -29l53 -27q12 -8 18 -10q2 -2 4 -2q3 0 3 -2q2 -2 4 -2q6 -6 8 -10q12 -20 -10 -60q-10 -20 -41 -61q-37 -51 -133 -160l-97 -110l-98 -107q-10 -12 -19.5 -23.5t-16.5 -20.5t-9 -13 q-10 -16 -27.5 -13t-23.5 16t2 30q15 22 49 61l100 111q182 209 226 264q14 18 26 37q8 20 6 22l-51 27l-55 28q-18 10 -35 19l-141 92q-113 76 -160 102q-16 8 -15 25.5z" />
<glyph unicode="?" horiz-adv-x="559" d="M14 887q-2 -12 6.5 -21.5t20.5 -9.5q12 -2 21.5 6t9.5 21l4 86q2 111 35 166q18 29 61 42t95 -2.5t85 -62.5q51 -72 52.5 -169t-68.5 -171q-6 -6 -43 -37q-74 -61 -105 -114q-33 -55 -43 -148.5t-2 -167.5q-2 -27 13 -39q6 -6 20 -6q12 0 20.5 9.5t6.5 21.5 q-23 201 35 301q31 49 90 96l49 41q57 55 75.5 135t2 154t-55.5 129q-76 96 -184.5 94t-153.5 -78q-37 -57 -41 -139q-6 -123 -6 -137zM145 100q-16 -96 45 -96q31 4 36 35t-11 61q-4 6 -10 11q-13 8 -19 10l-6 2q-31 4 -35 -23z" />
<glyph unicode="@" horiz-adv-x="790" d="M-2 461q2 -113 42 -211t107 -152q61 -47 172 -64.5t185 5.5q27 8 90 39q59 31 82 41q18 6 20 22.5t-11 27.5t-30 3q-35 -12 -88 -41q-41 -23 -80 -35q-63 -20 -157 -3.5t-146 54.5q-86 61 -116.5 213t6.5 318q33 174 115.5 301t185.5 158q55 16 101 -12.5t74 -86t44 -113 t24 -110.5q37 -203 -51 -375q-12 -23 -30.5 -41t-30.5 -18q-9 0 -19 18q-12 22 -18 68q0 29 4 47q8 53 6 82q-14 119 -42.5 175t-82.5 69q-35 10 -58.5 -10.5t-57.5 -73.5q-59 -88 -84 -205t6 -199q29 -66 82 -82q94 -27 161 68q5 7 13 18l16 21q0 -2 2 -4q25 -49 72 -49 q59 0 118.5 118.5t65.5 219.5q12 166 -63 346q-100 233 -269 186q-129 -41 -217 -180q-147 -233 -143 -553zM212 542.5q24 106.5 75 182.5q22 34 43 49q2 0 3 2l3 2q23 12 41 -12q14 -20 29 -59q10 -38 10 -95l-8 -94l-7 -49q-8 -25 -12 -35q-25 -61 -59.5 -90t-71.5 -16 q-31 12 -45 45q-25 63 -1 169.5z" />
<glyph unicode="A" horiz-adv-x="512" d="M-14 25q0 -12 9 -20.5t21 -6.5q12 0 20.5 9t6.5 22q-4 95 -4 200q0 175 12 377q3 37 37 43q23 4 72 8q90 8 119 13q6 0 10 2q-2 -23 -2 -94q-2 -83 -2 -153q0 -151 9 -237q13 -126 71 -190q9 -11 21 -11q4 0 8 1q16 4 21 18q2 5 2 9q0 10 -7 20q-46 53 -58 170 q-9 87 -9 248q0 56 1 122q1 56 1 106q-1 195 -13 299q-16 130 -74 216q-51 60 -94 60h-10q-48 -8 -80 -76q-37 -80 -49 -195q-44 -411 -44 -743q0 -113 5 -217zM61 750q25 315 66 405q19 41 35 43h1q16 0 46 -39q76 -98 80 -391q0 -41 -8 -41h-11q-43 -6 -116 -10 q-19 -2 -52 -6h-7q-15 0 -25 7q-10 8 -9 25v7z" />
<glyph unicode="B" horiz-adv-x="526" d="M23 1010q0 -113 12 -211q5 -33 5 -157q0 -93 -3 -239q-8 -295 -8 -395q6 -25 6 -43v23q3 -24 27 -24q4 0 8 1q4 2 41 8q47 6 98 27q76 35 127 98q95 114 95 264q0 17 -1 35q-8 84 -66.5 176.5t-127.5 126.5q-3 4 -3 7l5 4q57 55 67 145q4 41 4 79q0 110 -30 200 q-53 140 -169 139q-29 0 -61 -8q-12 -4 -16 -15q-4 -8 -4 -14q0 -10 4 -26.5t2 -26.5q-12 -74 -12 -174zM82 1016q0 126 18 192v4q6 2 14 2q13 0 29 -6q51 -16 80 -94q28 -79 28 -183q0 -34 -3 -71q-6 -66 -51 -104q-14 -14 -47 -31q-2 0 -8.5 -4t-10.5 -4l-6 -2 q-2 -2 -4 -2l-2 -2q-2 0 -4 -2l-6 -7q-8 -10 -5 -26q13 -31 61 -31h11q14 2 25 2q8 2 10 0q55 -31 119 -131q44 -70 44 -152q0 -52 -18 -108q-46 -145 -172 -203q-10 -4 -51 -14q-7 -1 -12 -2q-14 0 -23 8q-12 10 -10 31q0 39 4 211q4 148 4 276.5t-4 239.5q0 4 -1 15t-2 35 t-1 48q-6 82 -6 115z" />
<glyph unicode="C" horiz-adv-x="507" d="M-14 868q-8 -69 -8 -153q0 -119 16 -267q28 -253 88 -360q37 -66 92 -86q24 -9 47 -9q30 0 58 15q47 23 79.5 72t40.5 106q4 29 -24.5 33t-32.5 -24q-6 -46 -31 -80q-21 -31 -47 -49q-18 -13 -42 -14q-10 0 -21 3q-37 8 -66 62q-55 96 -84 360q-14 137 -14 251 q0 264 76 405q41 78 110 96q11 3 20 3q47 0 81 -64q30 -57 30 -113q0 -20 -4 -39q-4 -31 23 -35q31 -4 35 23q5 23 5 48q0 70 -38 148q-42 92 -124 92q-21 0 -44 -6q-94 -27 -148 -125q-53 -102 -73 -293z" />
<glyph unicode="D" horiz-adv-x="540" d="M25 930v30q0 164 20 263l-2 22q0 29 29 29q211 0 302 -164q71 -129 71 -318q0 -52 -5 -108q-20 -223 -110 -425t-197 -255q-6 -4 -14 -4q-6 0 -15.5 -3t-19.5 -3q-3 -1 -7 -1q-7 0 -14 5q-9 6 -12 18q-14 89 -14 201v29q0 53 1 106.5t2 80t1 36.5q0 6 -6 127 q-10 203 -10 334zM84 930q0 -166 8 -328q6 -123 6 -129q1 -3 1 -30q0 -53 -3 -197v-34q0 -83 8 -157q2 0 5 2q88 45 170 233.5t102 399.5q6 60 6 114q-1 144 -45 242q-62 136 -199 162q-8 2 -15 2q-27 0 -32 -32q-12 -80 -12 -210v-38z" />
<glyph unicode="E" horiz-adv-x="524" d="M12 141q0 51 2 84v54q0 63 -2 186q-2 155 -2 280q0 207 6 328q2 51 11 103q12 53 28.5 63t71.5 14h102q18 0 59.5 -2t73 -4t37.5 -2q29 0 29 -28q0 -12 -8 -20.5t-21 -8.5q-25 0 -172 6q-30 2 -54.5 2t-41.5 -2h-22l-23 -29q-8 -41 -10 -96q-4 -82 -8 -291v-24 q0 -39 34 -39h7q33 2 79 2q29 4 33 -27q0 -31 -28 -31q-6 -2 -56 -2q-6 0 -18.5 -1t-16.5 -1q-35 0 -34 -41q0 -119 2 -190q2 -88 2 -145v-54q-2 -33 -2 -84q0 -59 2 -78q2 -6 2 -18h12q4 0 16.5 -1t22.5 -1h65q57 0 97 2h61q29 0 29 -28.5t-29 -28.5q-25 0 -61.5 -2 t-93.5 -2q-72 0 -95 2h-18q-29 0 -41 8q-2 0 -6 4q-12 10 -17 31q-2 8 -2 30q-2 20 -2 82z" />
<glyph unicode="F" horiz-adv-x="559" d="M2 494q14 -395 14 -457q0 -29 29 -29t29 29q0 35 -13 459q-2 41 -2 112q0 39 35 45q37 4 72 4q29 0 29 29t-29 29q-12 0 -33.5 -1t-30.5 -1q-5 -1 -10 -1q-33 0 -33 38q2 35 5.5 93t3.5 83q4 37 4 39t1 6t1 8q0 33 2 55q0 45 4 119q0 6 1 12t2 9.5t1 6.5v5v8q8 2 33 2 q238 8 317 8q29 0 29 29t-29 29q-141 0 -319 -7q-16 -2 -39 -2h-13h-4q-2 -2 -4 -2t-10 -4q-16 -12 -16 -26v-7q-2 -4 -3 -14t-1 -16q-8 -55 -9 -146q-2 -23 -2 -55q-2 -14 -2 -29q-12 -130 -12 -301q0 -75 2 -159z" />
<glyph unicode="G" horiz-adv-x="479" d="M-18 662q10 196 51 342q33 111 88 173t109 63h2q52 0 100 -48q49 -59 49 -143v-7q0 -12 -9.5 -20t-21.5 -6q-12 0 -20 9t-6 22v7q0 63 -36 102q-22 23 -49 23q-19 0 -40 -12q-66 -31 -108 -173t-50 -341q-2 -48 -2 -94q0 -136 17 -254q24 -158 71 -213q42 -50 78 -50 q53 0 94 112q31 82 31 168q0 37 -6 55q-12 27 -39 26q-8 -2 -28.5 -3t-31.5 -1q-14 -2 -35 -2q-29 0 -28.5 29t28.5 29q37 0 68 6h16q45 0 67 -9q26 -12 38 -53q10 -37 10 -77q0 -98 -39 -198.5t-98 -129.5q-28 -14 -55 -14q-53 0 -101 57q-71 86 -98 264q-18 119 -18 255 q0 51 2 106z" />
<glyph unicode="H" horiz-adv-x="483" d="M-4 1233q0 -340 2 -612.5t2 -612.5q0 -29 28 -29v1q28 0 29 28q0 330 -2 606q0 16 1 23.5t10.5 13.5t27.5 6q14 0 92 5q16 0 48 1t47 3q23 2 33 -5.5t10 -33.5q0 -154 -2.5 -354.5t-2.5 -245.5q0 -29 29 -29t29 29q0 203 6 608q4 536 4 604q0 29 -28.5 29t-28.5 -29 q0 -51 -2 -209t-2 -262q0 -29 -7.5 -36t-24.5 -7h-7q-41 -2 -103 -6q-37 -2 -88 -2h-10h-9q-1 0 -7.5 1t-7.5 4t-3 7t-3 11.5t-1 17.5q0 106 -1 264t-1 211q0 29 -28.5 29t-28.5 -29z" />
<glyph unicode="I" horiz-adv-x="466" d="M-29 12q-1 -12 9 -20q8 -6 17 -6h5q76 3 155.5 3t164.5 -3h6q23 0 26 26q0 31 -28 31q-20 2 -62 2q-12 0 -18 1t-11.5 1t-6.5 3t-2 5q-1 1 -1 9v12q-6 102 -7 172q0 18 1 33v94q0 115 2 205q2 88 2 192q0 227 -8 344q0 6 -2 15.5t-2 12.5t4 8t13.5 6t27.5 1h46 q20 0 31 -1l11 -1q29 0 29 28.5t-29 28.5q-47 0 -100 3h-40q-127 0 -200 -11q-29 -4 -24.5 -32.5t32.5 -24.5q16 2 53 5t48 5q39 4 42 -23v-8l1 -8q10 -160 10 -348q0 -104 -2 -192q-2 -90 -2 -205q0 -45 -2 -92q-1 -22 -1 -47q0 -37 2 -81q3 -73 3 -87q0 -20 -43 -21 q-20 -2 -61.5 -2t-61.5 -2q-12 0 -20.5 -9t-6.5 -22z" />
<glyph unicode="J" horiz-adv-x="563" d="M39 74q43 -53 95 -54q1 -1 3 -1q51 0 109 57q51 51 80 223q50 260 50 525q0 98 -7 196q-6 88 -19 149q-8 20 -3 32.5t40 12.5h51q29 0 29 29q0 12 -8.5 20.5t-20.5 6.5h-153q-26 -1 -51 -1q-51 0 -99 3h-4q-10 0 -17 -6q-10 -9 -10 -21q-2 -12 6.5 -21.5t20.5 -9.5 q31 -4 111 -4q29 0 35 -6t12 -28q14 -68 20 -160q7 -101 7 -200q0 -260 -48 -507q-14 -70 -30 -127q-14 -47 -33 -65q-35 -39 -66 -39q-29 0 -53 33q-55 68 -63 170q0 12 -9.5 20t-21.5 8q-12 -2 -20 -12q-7 -8 -7 -17q0 -58 21 -112.5t53 -93.5z" />
<glyph unicode="K" horiz-adv-x="546" d="M14 670q4 -297 23 -652q0 -12 9 -20q7 -6 17 -6h5q12 0 20 9t6 22q-20 410 -20 608q0 40 24 40q9 0 21 -5q28 -15 49 -50q45 -78 70 -309q2 -12 7 -52t7 -57.5t9 -50t13.5 -51t17.5 -40t23 -33.5q8 -12 23 -19q25 -12 45 -12q25 2 31 2h8q29 0 29 28.5t-29 28.5h-45l-8 4 q-16 12 -25 29q-23 41 -49 231l-14 119q-39 242 -140 285q-39 20 -20 51q156 287 287 410q12 12 8 27.5t-18.5 19.5t-30.5 -6q-115 -111 -246 -334q-8 -14 -15.5 -23.5t-14.5 -13.5t-11 8t-2 41q12 240 22 313q4 29 -24 33q-4 1 -7 1q-22 0 -26 -25q-29 -211 -29 -506v-45z " />
<glyph unicode="L" horiz-adv-x="440" d="M8 1182q20 -150 20 -435q0 -68 -1 -145q-3 -142 -3 -216q0 -37 1 -56v-35v-62q-2 -29 -2 -73q2 -43 2 -103v-12q0 -10 1 -25.5t1 -23.5v12q0 -4 2 -6q3 -9 6 -12q10 -16 61 -21q41 -4 84 -4h135q29 0 29 29t-29 29q-125 0 -135 2h-53q-31 4 -33 4q-6 0 -10 2v26 q-2 25 -2 103v170q-1 18 -1 54q0 72 3 216q3 102 3 192q0 250 -21 398q-3 25 -26 25q-3 -1 -7 -1q-25 -4 -25 -26v-6z" />
<glyph unicode="M" horiz-adv-x="745" d="M10 1198q0 -2 1 -5t3 -5l2 -6q2 -2 2 -4q10 -98 11 -226q0 -111 -6 -331q-8 -197 -9 -332q0 -33 -2 -78v-31q0 -113 13 -166q3 -23 27 -23q4 0 9 1q25 4 21 35q-12 59 -12 127q0 39 2 67v68q0 135 8 332q6 221 6 331q0 68 -2 97q0 82 7 82q3 0 7 -9q4 -6 17 -30 q57 -111 127 -193q20 -27 20 -32t-16.5 -27.5t-44 -63.5t-39.5 -59q-12 -16 -5 -31.5t22.5 -16.5t27.5 11q8 10 69 100q14 23 20.5 28t13.5 1t24 -27q53 -70 65 -88q10 -16 27.5 -13t24 16.5t-1.5 29.5q-4 6 -91 121q-21 28 -21 29q0 4 15 28l17 27q55 90 106 162 q33 37 51 34q0 -6 1 -14t1 -14q0 -31 9 -135q2 -98 12 -291q14 -420 43 -639q0 -12 10 -19.5t23 -5.5q12 0 19 10q5 8 5 18v5q-27 211 -43 633q-4 137 -12 293q-10 190 -14 217q0 4 -1 14t-4 14q-2 6 -2 13l-4 8q-6 10 -14 12q-10 6 -19 6q-20 0 -34 -28q-4 -8 -6 -11l-2 -4 q0 -2 -2 -2q-72 -82 -175 -247q-8 -14 -13 -21.5t-10 -7.5t-6 1t-9.5 12t-14.5 18q-47 59 -96 157q-29 51 -51 82q-4 6 -10.5 12.5t-9.5 10.5t-5 6q-2 4 -8 10q-18 17 -36 17q-10 0 -20 -6q-20 -11 -21 -35q0 -9 3 -19z" />
<glyph unicode="N" horiz-adv-x="620" d="M25 1206q15 -165 15 -415q0 -75 -1 -158q0 -10 -1 -42t-2 -92.5t-1 -119.5q-6 -211 -6 -324q0 -29 28.5 -28.5t28.5 28.5q0 113 6 324q6 236 6 555q0 56 13 56q12 0 34 -44l-6 12l291 -565q12 -23 14 -49q12 -221 23 -326q0 -12 9 -20q7 -6 17 -6h5q12 0 20 9q6 7 6 17v5 q-14 131 -20 313q-8 188 -15 420q0 16 5 147q3 62 3 116q0 126 -16 216q-3 23 -26 23q-4 0 -9 -1q-27 -4 -22 -34q13 -73 13 -189q0 -58 -3 -127t-3 -140t3 -144q1 -24 1 -42q0 -48 -6 -51q-4 -2 -12 13q-4 8 -14 31q-10 24 -16 36l-194 377l-33 60q-25 45 -33 65 q-35 74 -41 121q-3 25 -25 25q-4 0 -8 -1q-8 0 -16 -8q-6 -8 -9 -14t-3 -11v-7v-11z" />
<glyph unicode="O" horiz-adv-x="587" d="M-14 530q8 -133 19 -217t39 -168t81 -123.5t133 -39.5q92 0 152 59q35 37 51 160q32 234 32 531q0 61 -1 124v10q-6 143 -41 235.5t-108 128.5q-50 25 -98 25q-23 1 -45 -5q-70 -16 -112 -66q-108 -122 -108 -470q0 -85 6 -184zM43 535q-5 89 -5 167q0 335 95 445 q43 47 125 47q154 -2 174 -303v-8q3 -67 3 -143q0 -128 -9 -287q-10 -150 -25 -244q-12 -74 -16 -86q-8 -29 -20 -41q-12 -18 -46 -30.5t-61 -12.5q-59 0 -100 32.5t-63.5 105.5t-33 152t-18.5 206z" />
<glyph unicode="P" horiz-adv-x="430" d="M-23 1239q2 -10 10.5 -25.5t10.5 -27.5q6 -118 6 -312q0 -116 -2 -260q-1 -68 -1 -130q0 -301 24 -478q3 -25 25 -25q4 1 8 1q28 4 24 32q-24 186 -24 476q0 60 1 124q0 20 31 35q72 39 119 74q74 51 110 145q16 49 15 97q0 53 -18 103q-36 96 -124 154q-78 51 -169 51 q-10 0 -19 -1q-12 0 -20 -8t-8 -18q0 -4 1 -7zM59 1163v6q1 18 11 27q7 6 16 6q7 0 16 -4q96 -33 144 -122q29 -53 29 -109q0 -38 -13 -78q-28 -90 -149 -160q-14 -7 -25 -7q-6 0 -12 3q-15 8 -15 35q3 93 3 180q0 117 -5 223z" />
<glyph unicode="Q" horiz-adv-x="563" d="M0 201q12 -111 59 -191q35 -53 82 -71q20 -7 42 -7q32 0 67 16q59 27 92 97q14 33 22 34t33 -24l21 -20q12 -12 27.5 -8t19.5 18q1 4 1 8q0 11 -7 23l-53 59q-23 23 -17 53q25 117 25 402q0 73 -2 158v88l4 36q0 150 -25.5 218.5t-95.5 123.5q-55 49 -113 49 q-21 0 -43 -7q-82 -23 -125 -132q-53 -125 -53 -383q0 -222 39 -540zM57 209q-37 316 -37 532q0 246 48 363q35 82 86 96q12 3 24 3q40 0 80 -34q86 -68 96 -157q5 -23 5 -76q0 -26 -1 -60q-4 -100 -4 -128v-92q0 -263 -10 -375q-4 -45 -16.5 -47.5t-38.5 34.5 q-10 14 -28.5 39t-24.5 33q-10 16 -28 13t-24 -16t2 -30q45 -63 109 -139q25 -27 12 -55q-31 -80 -76 -107q-26 -14 -48 -14q-42 0 -72 49q-41 66 -54 168z" />
<glyph unicode="R" horiz-adv-x="577" d="M-41 1235q67 30 142 29h28q90 -6 166 -50q86 -46 128 -122q29 -53 29 -114q0 -28 -6 -58q-23 -121 -141 -195q-12 -8 -37 -20q-33 -18 -8 -52q59 -84 76 -252q3 -25 6 -86q4 -98 16 -159q12 -49 23 -70q8 -12 12 -16l2 -2q2 -2 2 -5q14 2 27 15l6 6q12 14 28.5 11 t21.5 -17q2 -5 2 -10q0 -10 -7 -21q-34 -44 -75 -44h-2q-42 1 -70 58q-29 55 -39 158q-4 37 -6 96.5t-7 81.5q-12 176 -83 242q-21 20 -56 8l-6 -2q-33 -12 -33 -49q-12 -514 -12 -569q0 -29 -28.5 -29t-28.5 29q0 141 6 391q2 78 5 200t4 178v42q0 46 -1 109q-2 95 -6 202 q-2 39 -28 39q-8 0 -19 -4q-2 0 -3 -1l-3 -1q-16 -8 -30 2q-13 9 -12 24q0 9 4 16t13 11zM96 1163q5 -122 4 -240q0 -89 -2 -175q0 -23 14 -32q8 -5 17 -5q8 0 18 4q111 43 168.5 90t73.5 127q4 23 4 45q0 118 -125 186q-61 35 -131 41h-6q-16 0 -25.5 -9t-9.5 -26v-6z" />
<glyph unicode="S" horiz-adv-x="604" d="M18 965q-4 -21 -4 -43q0 -27 6 -56q20 -88 82 -155q49 -55 131 -119q16 -16 23 -21l51 -43q29 -25 49 -45q47 -49 70 -98q25 -51 25 -119q0 -29 -11 -73q-10 -41 -50 -74t-93 -43q-27 -6 -51 -7q-77 0 -115 68q-4 6 -8 19l-6 18q-4 12 -6 21q0 4 -1 10t-4 10q-4 20 -4 43 v25q-2 10 -2 20v47q0 29 -28.5 29t-28.5 -29v-86q0 -27 2 -33q2 -4 3 -14t1 -16q3 -31 17 -62l12 -30q33 -59 98 -82q39 -13 81 -13q25 0 50 5q68 12 121 55q78 61 82 194q0 82 -31 144q-37 68 -82 112q-51 51 -104 94q-2 2 -8 7q-4 4 -9 6q-98 80 -151 145q-52 60 -53 139 q0 20 4 41q18 110 82 172q59 56 129 57q7 0 14 -1q78 -4 121 -76q30 -50 30 -122q0 -32 -6 -68q-4 -29 25 -33t33 24q7 41 7 78q1 93 -41 157q-58 92 -165 99q-10 1 -19 1q-91 0 -166 -70q-83 -76 -102 -209z" />
<glyph unicode="T" horiz-adv-x="555" d="M-18 1196q0 -12 9 -20.5t21 -6.5q37 2 123 2q41 0 41 -35v-6q-5 -165 -5 -437q0 -136 1 -298q2 -168 2 -346q0 -29 28.5 -29t28.5 29v346q-1 150 -1 277q0 287 6 461q4 38 43 38h153q29 0 29 29t-29 29q-389 0 -424 -2q-12 0 -20 -9.5t-6 -21.5z" />
<glyph unicode="U" horiz-adv-x="540" d="M35 1219q-17 -196 -17 -369q0 -303 52 -539q18 -90 51 -172q57 -135 135 -137h9q78 0 124 129q27 74 35 172q18 160 20 311q1 37 1 78q0 205 -17 514q0 29 -31 29q-31 -4 -26 -33q10 -197 12 -305q4 -92 4 -181q0 -208 -20 -405q-12 -102 -33 -161q-16 -49 -37 -70 q-14 -20 -37 -21q-43 4 -84 103q-27 61 -49 162q-51 239 -51 537q0 167 16 353q4 29 -26 33q-31 0 -31 -28z" />
<glyph unicode="V" horiz-adv-x="655" d="M8 1210q3 24 27 24q4 0 8 -1q27 -4 23 -35q-2 -2 2 -35q0 -4 14 -78q16 -92 49 -223l37 -153l37 -146q15 -58 18 -80l58 -239q12 -37 22 -37q9 0 16 28q3 13 7 33q4 18 12 60q25 100 63 331q33 211 50 291q18 82 26 117q18 72 25 113q4 28 32 24q25 -4 25 -26v-7 q-6 -43 -24 -118q-10 -41 -27 -115q-15 -74 -49 -289q-39 -229 -64 -334q-6 -29 -23.5 -115.5t-30.5 -141t-22 -58.5q-5 -4 -11 -4q-8 0 -17 6l-8 8q-2 2 -2 6l-5 4q0 2 -4 15l-12 47l-35 143q-16 63 -30.5 126t-21.5 89.5t-7 30.5q-2 16 -19 78l-36 147l-37 154 q-27 115 -49 223q-18 91 -18 124q0 8 1 13z" />
<glyph unicode="W" horiz-adv-x="923" d="M12 1266q28 0 29 -29q0 -72 28.5 -215t30.5 -168q0 -4 3 -23.5t8 -35.5l8 -62l8 -57q10 -66 20 -119q6 -37 13 -61l12 -56q6 -37 14 -59l17 -57q0 -2 37 -131l30 -48q6 37 13 93q4 33 4 36q2 25 8 50l51 321q2 29 -2 53q-63 295 -86 516q-2 10 6 20.5t21 12.5q12 0 21 -8 t9 -20q14 -145 35 -250q21 -109 25 -110.5t9 25.5q3 15 15 83l47 260q4 27 35 22q27 -4 23 -35q-68 -371 -90 -514q-2 -29 2 -51l76 -338q12 -59 57 -182l-17 47q22 -49 35 -47q31 135 60 338l32 209l33 180q17 103 37 205l41 182q3 24 29 24q4 0 8 -1q21 -3 21 -25 q0 -4 -1 -10l-41 -184q-16 -82 -69 -383l-33 -205l-29 -187q-12 -66 -30 -157q-14 -63 -21 -82q-2 -8 -8 -29l-1 -2q-1 -2 -1 -4l-2 -4l-4 -8q-10 -10 -25 -11q-9 0 -18 7l-4 4q-4 4 -4 6v2l-2 2l-3 6l-10 25l-28 82q-39 111 -60 190l-20 94q-25 112 -29 112q-4 -1 -20 -112 l-17 -102q0 -6 -6 -62q-16 -123 -25 -157q-10 -41 -12 -47q-2 0 -2 -4.5t-2 -4.5q-14 -25 -37 -24q-14 0 -22 8l-2 4l-2 4q-2 2 -7 10q0 2 -4 12.5t-6 16.5l-24 82q-12 39 -26.5 90t-18.5 64q-2 10 -6.5 25.5t-6.5 21.5q-8 29 -12 45l-16 63q-2 8 -7.5 32t-7.5 38l-12 65 q-3 22 -12 74q-2 14 -4 28.5t-4.5 23t-2.5 12.5t-6 47t-10 63q0 10 -2 24.5t-4 24.5q-4 14 -27 138q-28 151 -28 224q0 17 6 25.5t22 8.5z" />
<glyph unicode="X" horiz-adv-x="526" d="M-8 1180q15 -71 55 -191q39 -113 57 -184l60 -242q6 -27 -2 -53q-90 -289 -168 -485q-3 -7 -3 -13q0 -8 6 -16q10 -12 23 -12h4q16 2 23 20q72 172 125 344q16 55 23.5 55t27.5 -55q16 -45 59.5 -167t67.5 -177q8 -16 24.5 -17t27 12t1.5 30q-90 193 -165 481q-6 29 2 53 l79 268l29 111q37 158 78 229q5 8 5 17q0 7 -4 14q-8 14 -22 14h-3q-16 -2 -25 -16q-49 -78 -86 -246q-25 -98 -29 -106l-31 -107q-12 -45 -19 -56t-14.5 1t-17.5 57l-18 74q-8 39 -58 191q-40 120 -55 184q-4 27 -35 22q-23 -3 -23 -25q0 -4 1 -9z" />
<glyph unicode="Y" horiz-adv-x="632" d="M-4 1221q23 -109 84 -275l55 -143l41 -109q23 -61 23 -74q0 -22 -2 -56t-4.5 -72.5t-2.5 -72.5q0 -89 5 -200q6 -137 6 -186q0 -29 28.5 -29t28.5 29q0 8 -4 192q-4 114 -5 193q0 27 1 49q0 106 9 155.5t46 135.5q39 98 117 265t110 216q6 9 6 17q0 7 -4 14q-8 14 -23 15 h-2q-14 0 -26 -13q-35 -47 -149 -301l-84 -191q0 -2 -2 -6t-7 -9t-10.5 -6t-13.5 6t-16 28l-21 51l-53 139q-53 162 -74 250q-4 27 -35 22q-23 -3 -23 -25q0 -4 1 -9z" />
<glyph unicode="Z" horiz-adv-x="614" d="M-4 1220v-6q0 -22 24 -26q80 -12 163 -12q97 0 200 16q2 0 8 1t8 1q8 0 15.5 1t11.5 2t8 1l4 1l4 1q0 -8 -4 -33q-10 -51 -32 -116q-53 -150 -78 -199q-15 -28 -68 -160l-106 -274l-101 -262q-23 -57 -30 -88q0 -2 -3 -5q-8 -20 -8 -26v-6v-6q-2 -6 2 -15q4 -12 19 -18 q16 -6 49 -6q6 -2 24 -2q51 0 140 6l98 6q55 2 94 6q25 2 51 2q29 0 29 28.5t-29 28.5q-27 0 -51 -2q-45 -4 -96 -6q-129 -10 -236 -10q-29 -2 -28 6q9 31 31 86l98 262l108 273q37 92 66 157q33 63 69.5 170t45.5 158q5 26 5 45.5t-5 32.5q-6 14 -21 22q-2 2 -8 2 q-2 3 -8 3h-13q-4 0 -6 -3q-8 0 -22.5 -1t-22.5 -3q-4 -2 -10 -3t-10 -1q-99 -14 -193 -14q-79 0 -153 10q-29 3 -33 -25z" />
<glyph unicode="[" horiz-adv-x="491" d="M43 141q-9 -89 6 -129q18 -47 156 -59h160q29 0 28.5 28.5t-28.5 28.5q-143 0 -156 2q-60 5 -80 11l-18 6l-9 4q-10 29 0 100q14 106 15 121q4 145 -2 362q-6 233 -6 320q0 4 -1.5 12t-2.5 23.5t-1 27.5q-10 106 0 146q4 23 11.5 27t40.5 4q141 0 202 -19q31 -4 37 21 q6 27 -20 36q-80 20 -221 21q-49 -2 -73 -16.5t-34 -59.5q-12 -51 -2 -166q6 -45 6 -57q0 -86 6 -320q4 -289 2 -362l-2 -12q-2 -12 -6 -40t-8 -61z" />
<glyph unicode="\" horiz-adv-x="563" d="M-4 1206q10 -76 57 -223q8 -27 18.5 -61.5t10.5 -36.5q166 -588 332 -873q8 -16 25.5 -15t24.5 14.5t-1 29.5q-170 297 -324 860q-12 45 -30 100q-48 154 -56 213q-4 29 -32.5 25t-24.5 -33z" />
<glyph unicode="]" horiz-adv-x="428" d="M-33 1180q-2 12 6.5 21t20.5 9q82 8 160 9q61 0 94 -9q55 -10 67 -39q18 -45 11 -163q0 -18 -3.5 -52t-7.5 -67t-4 -41q-4 -117 23 -694q2 -41 2 -86v-33q0 -2 -1 -7t-3 -8q-10 -20 -62 -36q-61 -12 -133 -13q-18 -2 -53 -2h-29q-12 -2 -21 6.5t-9 20.5q-2 12 6 21.5 t20 9.5q4 2 31 2q39 0 104 4q4 0 68 8q23 8 22 27q0 39 -2 86q0 20 -2 56t-3 94t-3 108q-14 414 -12 440q0 15 6 74q14 182 2 219q0 2 -2 2q-9 3 -24 6q-31 6 -82 6q-68 0 -156 -6q-12 -2 -21.5 6t-9.5 21z" />
<glyph unicode="^" horiz-adv-x="524" d="M-26.5 643.5q8.5 -14.5 23.5 -15.5t28 13q111 174 196 358l43 95l4 -31q35 -205 103 -387q10 -27 37.5 -17.5t19.5 37.5q-61 160 -98 351q0 8 -2 23t-4 26q-4 57 -13 90q-2 20 -12 30.5t-20 12.5q-6 -2 -10.5 1t-8.5 -1t-6 -5t-6 -7.5t-6 -9.5t-5.5 -12t-5.5 -14 t-6 -17.5t-8 -20.5q-92 -231 -242 -469q-10 -16 -1.5 -30.5z" />
<glyph unicode="_" horiz-adv-x="905" d="M-31 -18q4 -27 35 -23q63 16 215 12q49 -2 100 -2q25 0 230 4q102 2 231 2q29 0 29 29t-29 29q-129 0 -231 -2q-205 -4 -230 -4q-6 0 -18 1t-34.5 2t-43.5 1q-153 5 -231 -15q-27 -4 -23 -34z" />
<glyph unicode="`" horiz-adv-x="360" d="M34 1185.5q1 -16.5 17 -24.5q49 -27 82 -59l43 -39l39 -39q23 -18 42 3.5t-1 41.5l-39 35l-45 43q-39 39 -96 67q-16 8 -29.5 -2t-12.5 -26.5z" />
<glyph unicode="a" horiz-adv-x="534" d="M-14 12v-7q0 -23 24 -26q28 -4 33 25q9 52 25 264q6 90 15 204t11 140q4 37 36 37h7q119 -4 176 -10q37 0 41 -39q27 -291 27 -596q0 -29 28.5 -29t28.5 29q0 473 -67 959l-1 5q-1 5 -2 15t-1 23q-10 98 -27 143q-32 111 -101 111q-27 0 -59 -17q-53 -29 -90 -209 q-35 -164 -72 -638q-6 -78 -10 -124q-14 -190 -22 -260zM106 752q6 98 41 270q16 84 33 121q8 20 15 28q12 25 36 27h3q14 0 26 -14q14 -16 24.5 -53t22.5 -130q31 -221 33 -260v-10q0 -22 -7 -27q-7 -4 -24 -5q-6 0 -12 1q-54 5 -152 9q-23 0 -32 8q-7 7 -7 26v9z" />
<glyph unicode="b" horiz-adv-x="612" d="M12 1208q-3 -33 -3 -71q0 -66 9 -144q4 -23 11 -102q0 -31 3 -116t5 -134q4 -328 4 -625q0 -28 27 -28h2q5 -1 14 -1q17 0 45 3q246 50 338 208q52 89 52 187q0 74 -30 152q-29 78 -77 129q-68 74 -156 84q-39 2 -18 34q29 41 57 107q23 58 23 113q0 78 -46 149 q-37 63 -100 93q-43 20 -91 20q-22 0 -46 -4q-24 -3 -24 -27q0 -4 1 -8v-19zM70 1200v4q7 2 17.5 2t23.5 -2q70 -12 112 -82q37 -57 37 -118q0 -43 -18 -89q-40 -92 -99 -159q-20 -23 -32 -23q-17 0 -19 43l-6 119q-6 76 -10 106q-9 74 -9 135q0 34 3 64zM96 569q0 29 17 52 q57 71 123 71q22 0 45 -8q102 -31 153 -168q25 -66 25 -128q-1 -85 -47 -162q-80 -134 -301 -181l-7 -2h-1q-5 0 -5 49q0 369 -2 477z" />
<glyph unicode="c" horiz-adv-x="571" d="M43 918q-29 -271 -29 -456q0 -220 41 -319q35 -84 93 -127q46 -34 95 -34q13 0 25 2q63 8 108.5 64t57.5 145q4 29 -24.5 32.5t-32.5 -24.5q-10 -70 -42 -112t-73 -46q-9 -1 -17 -1q-82 0 -136 122q-36 91 -37 298q0 180 28 447q14 121 68 205q52 80 110 98q16 5 31 6 q37 0 62 -34q47 -60 47 -201q0 -29 28.5 -29t28.5 29q-1 157 -59 235q-44 58 -106 59q-21 0 -44 -7q-82 -23 -145.5 -122t-77.5 -230z" />
<glyph unicode="d" horiz-adv-x="509" d="M33 625q-1 -54 -1 -106q0 -285 19 -488q0 -10 10 -21q6 -6 15 -6q6 0 45 4q6 0 16 10q199 229 260 533q19 95 19 180q0 227 -135 389q-53 63 -98.5 93t-108.5 32h-2q-29 0 -29 -26v-5q0 -45 -4 -319q-6 -206 -6 -270zM92 625q0 4 4 262q4 201 4 246q0 37 14 42q3 1 6 1 q12 0 27 -13q41 -23 89 -80q98 -121 114 -289q4 -40 4 -81q0 -128 -40 -255q-52 -167 -156 -319q-12 -16 -24 -22q-5 -2 -10 -2q-8 0 -14 6q-10 10 -10 35q-8 197 -9 391q1 39 1 78z" />
<glyph unicode="e" horiz-adv-x="530" d="M39 1188q-3 -26 -3 -68q0 -74 9 -198q6 -90 6 -152v-29q0 -10 -3 -70.5t-5 -99.5q-7 -151 -7 -267q0 -97 5 -171q2 -55 12 -90q12 -51 37 -59q47 -19 140 -19h10q133 10 139 10q29 0 29 29t-29 29q-37 0 -68 -2q-84 -6 -127 -6q-26 0 -37 2q-31 6 -30 39l-4 -19l-1 4 q-1 4 -1 6q-8 35 -11 80q-5 69 -5 166q0 129 9 307q2 29 10.5 35t32.5 6q51 0 72 2q29 0 29 31q-4 31 -33 27q-16 -2 -63 -2q-25 0 -34 8t-7 37v19q0 49 -7 153q-9 123 -9 193q0 40 3 63q0 4 1 8t1 6q1 13 6 25v4q1 2 3 4h6q6 2 30 2q43 0 95 -2q68 -2 143 -2q37 0 45 10 q8 6 8 20q-4 31 -33 27q-2 0 -20 1t-58 2t-83 1q-51 2 -98.5 2t-65.5 -10q-29 -18 -39 -92z" />
<glyph unicode="f" d="M43 428q-4 -89 -4 -166q0 -139 12 -242q0 -12 9 -20q8 -6 17 -6h5q12 0 20.5 9t6.5 22q-9 98 -9 240q0 158 11 370q0 20 6 28.5t11 9.5t24 3q80 6 84 6q29 0 28 31q-4 31 -33 26q-33 0 -59 -2h-12q-23 -4 -33 4.5t-8 34.5v32q0 23 2 32q2 42 2 97q0 92 -6 222 q-2 20 9 31.5t32 9.5q31 -2 110 -2q92 0 170 -4q10 -2 20.5 6t12.5 21q0 12 -8 21t-21 9q-59 6 -176 6q-96 1 -170 5q-14 0 -18 -5q-12 -10 -19 -32q-2 -2 -2 -11q0 -12 1 -36.5t2 -69.5t1 -82q3 -103 3 -149q0 -24 -1 -33q-8 -111 -20 -416z" />
<glyph unicode="g" horiz-adv-x="524" d="M2 643q6 -207 39 -373q37 -178 109 -252q46 -46 94 -46q28 0 57 16q55 31 89 119t38 190q1 14 1 28q0 74 -19 107q-23 39 -82 45h-39l-31 -2q-29 0 -29 -28.5t29 -28.5h33q10 1 18 1q39 0 49 -16q10 -15 10 -66q0 -18 -1 -41q-5 -87 -27 -157q-37 -103 -91 -103 q-31 0 -67 34q-49 47 -84 213q-33 162 -38 361q-1 32 -1 62q0 162 23 291q20 102 56 159.5t76 59.5h3q38 0 76 -38q41 -41 41 -89q0 -24 -10 -49q-8 -18 3 -31.5t27.5 -11.5t22.5 19q15 40 15 77q0 70 -56 126q-48 53 -106 53q-45 0 -97 -31q-76 -53 -108 -233 q-24 -131 -24 -295q0 -35 1 -70z" />
<glyph unicode="h" horiz-adv-x="585" d="M61 952q-3 -72 -3 -162q0 -168 10 -397q8 -215 8 -373q0 -29 28 -29v1q28 1 29 28q0 207 -8 437q-4 102 -6 159q0 14 2 22.5t7 12.5t11.5 5t18.5 1h211q16 0 23 -1t12.5 -10t5.5 -30q0 -72 -4 -157q-1 -50 -1 -95q0 -240 27 -344q4 -27 37 -22q21 3 21 25q0 4 -1 10 q-25 99 -25 320q0 50 1 106q0 77 6 233q4 209 4 217q0 37 2 70q2 31 2 80q0 84 -20 151q-10 27 -38 18t-20 -38q20 -55 21 -131q-4 -74 -4 -150q0 -84 -4 -153q-2 -41 -43 -41h-215q-16 0 -23.5 2t-12.5 11t-5 28q0 31 4 194q4 90 4 163q0 48 -2 89q0 29 -31 29 q-31 -4 -27 -33q1 -16 1 -49q0 -66 -3 -197z" />
<glyph unicode="i" horiz-adv-x="233" d="M66 547q-2 -30 -2 -76q0 -77 6 -201q10 -225 10 -272q0 -29 28.5 -29t28.5 29q0 39 -10 274q-5 97 -5 185q0 44 1 86q12 287 12 488q0 112 -4 198q0 28 -29 28h-2q-31 -4 -26 -32q4 -98 4 -212q0 -206 -12 -466z" />
<glyph unicode="j" horiz-adv-x="614" d="M-29 352v7q0 24 25 28q12 0 22 -6q10 -8 15 -45q0 -6 4 -31l6 -59q4 -47 27 -105q12 -29 20 -43q33 -51 62 -57q23 -4 43 16q55 49 75 154q31 145 31 494q0 88 -4 219q0 -18 -3 6q-20 160 -20 235q1 39 -38 39h-109q-29 0 -29 29t29 29q233 0 360 6h6q23 0 27 -27 q0 -31 -28 -31q-18 -2 -56.5 -3t-58.5 -1q-38 -4 -38 -36q0 -4 1 -9q20 -149 20 -416v-85q-4 -328 -32 -461q-27 -125 -95 -187q-32 -31 -70 -31q-13 0 -26 3q-53 14 -96 82q-33 49 -45 116q-10 51 -19 119q-6 43 -6 51z" />
<glyph unicode="k" horiz-adv-x="540" d="M33 854q0 -117 4 -452.5t4 -378.5q0 -29 28.5 -29t28.5 29v184q-2 63 -2 215q0 16 -1 44t-1 40q4 53 18.5 50t32.5 -36q43 -88 82 -188q12 -39 17 -47l18 -49l21 -48q14 -39 20 -49l21 -41q12 -29 22 -45q23 -45 45 -76q10 -13 23 -13h6q16 2 22 16q3 6 3 12q0 8 -5 18 q-14 16 -22 35l-21 37q-16 29 -22 41l-19 41q-14 35 -20 49l-17 43l-20 51l-18 45q-74 193 -136 281q-18 27 -4 55q39 70 72 143q117 242 205 349q12 14 5 29.5t-22.5 17.5t-27.5 -10q-92 -115 -203 -340q-4 -10 -14.5 -30t-14.5 -30q-26 -52 -40 -25q-9 16 -9 64 q0 154 8 371q4 29 -26 33q-31 0 -31 -29q-10 -199 -10 -377z" />
<glyph unicode="l" horiz-adv-x="462" d="M6 936q0 -92 4 -350q2 -129 2 -293v-152q12 -135 51 -151q37 -18 106 -18q18 0 38 1q43 3 72 3q39 0 53 -5q4 -1 8 -1q24 0 27 24q1 4 1 8q0 24 -24 27q-19 5 -76 5q-28 0 -65 -1q-13 -1 -27 -1q-28 0 -59 3q-29 6 -33 20q-4 8 -4 13q-4 20 -8 77q-2 12 -2 148 q0 164 -2 293t-2 348q0 152 6 291q4 29 -27 32q-31 0 -31 -28q-8 -123 -8 -293z" />
<glyph unicode="m" horiz-adv-x="694" d="M16 1167q0 -8 9 -184q0 -16 1 -36.5t2 -33t1 -18.5q3 -70 3 -180t-3 -260q-3 -132 -3 -232q0 -135 5 -215q0 -12 9 -20t21 -6q12 0 20.5 9t6.5 21q-4 79 -4 222q0 95 2 219q1 167 1 278.5t-1 167.5q0 12 -8 184q0 6 1 11.5t7 13.5t16 -12l25 -43l57 -111l47 -92 q23 -37 48 -107l18 -47q1 -3 2 -7l2 -7l2 -6l4 -4l6 -6q20 -20 43 6l4 4l2 6q0 2 5 14q2 6 7 21.5t7 23.5l45 144q8 23 22.5 67.5t20.5 65.5q22 63 43 86q0 -4 1 -12.5t1 -14.5q4 -119 4 -170v-147q-1 -60 -1 -100t1 -62q0 -76 2 -143q0 -123 2 -164q4 -164 19 -299 q0 -12 9 -20q7 -7 17 -7h4q13 -1 21 9q7 8 6 18q0 37 -5 92.5t-5 67.5l-6 143q-6 82 -7 305v307q0 190 -10 273q-3 22 -6 37q0 2 -1 7t-3 7q-7 18 -25 21h-6q-15 0 -30 -13q-8 -8 -11 -20q0 -1 -1 -5q-2 -5 -3 -10l-2 -4q-41 -82 -108 -297l-17 -55q-16 -47 -24.5 -47 t-28.5 45q-6 12 -24.5 51t-36.5 76q-82 160 -134 221l-3 4q-3 4 -7 9t-6 10q-27 29 -53 14q-14 -6 -17 -19v-6q-2 -2 -2 -12v-27z" />
<glyph unicode="n" horiz-adv-x="548" d="M4 258q0 -147 14 -246q3 -25 26 -25q3 1 7 1q29 4 25 32q-12 147 -14 252v31q0 98 8 246q6 184 6 264q0 33 6 137l8 92q10 -25 14 -47q2 -12 82 -344q49 -212 93 -344l53 -162l22 -75q2 -4 6.5 -11.5t4.5 -11.5l4 -10q0 -2 2 -4q2 0 2 -2t2 -4q9 -6 18 -7q16 -2 31 15 q4 8 6 14q4 14 6 33q4 41 4 86v162q0 18 -4 280q-4 119 -4 221q0 246 21 392v7q0 23 -25 26h-7q-23 0 -26 -25q-22 -159 -22 -403q0 -102 4 -220q6 -199 6 -278v-90q0 -24 -21 20q-16 34 -24 64l-2 4q-16 49 -39 134t-45.5 176t-42 171t-33.5 140.5t-14 62.5q-13 47 -29 88 l-33 110q-10 33 -32 41q-18 4 -29 -2q-13 -8 -13 -76q0 -34 3 -83q0 -45 -6 -138q-4 -123 -5 -139q0 -77 -6 -246q-8 -150 -8 -309z" />
<glyph unicode="o" horiz-adv-x="528" d="M-24 836q-2 -50 -1 -96q1 -142 17 -256q22 -152 55 -265q37 -123 84 -184q44 -50 92 -50q33 0 68 23q70 43 102 174q38 150 39 442q0 110 -6 240q-4 207 -31 281q-48 140 -154 140q-20 0 -42 -5q-43 -10 -87 -45t-67 -78q-61 -121 -69 -321zM35 830q6 188 63 298 q16 33 49 61t64 34q13 3 25 3q71 0 104 -102q23 -61 29 -163q6 -217 6 -352q0 -108 -4 -163q-16 -330 -113 -389q-17 -10 -33 -10q-26 0 -49 27q-37 41 -72 162q-31 111 -53 258q-17 116 -17 257q0 39 1 79z" />
<glyph unicode="p" horiz-adv-x="458" d="M-12 1233q-5 -11 -5 -20q0 -14 13 -21q0 -2 2 -2q25 -67 25 -214v-32q-2 -18 -7 -124q-3 -74 -3 -116q0 -18 1 -30q2 -66 19 -285q14 -203 14 -340q0 -29 28.5 -29t28.5 29q0 133 -14 336l-14 215q0 8 2 14.5t4 7.5t12 5l15 6q7 4 38 22l50 29q14 8 41 29q55 37 77 75 q41 63 47 136q1 14 1 27q0 121 -97 220q-51 51 -120 72q-37 11 -74 11q-33 0 -66 -9q-12 -3 -18 -12zM70 1147q-1 7 -1 13q0 14 6 22q8 10 24 10h5q51 -8 96.5 -42t69.5 -79q37 -67 37 -128q0 -64 -41 -122q-25 -33 -63 -61q-37 -27 -80 -51q-16 -8 -23 -13q-20 -10 -24 -14 h-1q-3 0 -3 51q0 10 1 32.5t1 35.5q6 125 6 143q2 33 2 63q0 80 -12 140z" />
<glyph unicode="q" horiz-adv-x="638" d="M45 790q-2 -52 -2 -100q0 -174 23 -303q6 -47 42.5 -139t77.5 -158q41 -63 85 -93q29 -20 59 -20q16 0 32 5q46 16 80 86l5 5q11 3 38 -34l7 -8q12 -14 28.5 -11t21.5 17q2 5 2 10q0 10 -7 21l-43 55q-20 25 -13 55q35 137 47 374q5 88 5 166q0 130 -13 232v4 q-33 188 -133 289q-50 56 -106 56q-19 0 -39 -7q-78 -26 -138 -153q-51 -111 -59 -349zM104 784q7 228 54 330q49 106 102 123q6 1 12 1q34 0 72 -36q86 -86 123 -289v-2q9 -93 9 -197q0 -67 -4 -139q-9 -184 -34 -317q0 -6 -2 -15.5t-3 -13.5t-3 -9t-5 -5t-10 3t-16 11 q-6 6 -11 10.5t-10 8.5t-9 6q-16 12 -31.5 5t-17 -22.5t11.5 -27.5q23 -14 53 -49q25 -25 14 -45q-2 -4 -5 -9.5t-5 -9.5q-29 -58 -60 -58h-9q-35 9 -84 85q-39 57 -73 143t-40 129q-21 127 -21 294q0 46 2 95z" />
<glyph unicode="r" horiz-adv-x="563" d="M41 1237q0 2 2 5t2 5q4 10 16 15q64 15 119 15q154 0 240 -118q49 -60 49 -145q0 -11 -1 -22q-7 -99 -75 -183q-79 -105 -198 -156l-5 -2v-14q63 -104 183 -401q37 -98 76 -170q8 -16 -2.5 -31t-25.5 -15t-26 17q-37 70 -78 176q-137 356 -184 403l-2 2q-2 2 -4 5 q-8 -57 -8 -64q0 -18 -1 -53t-3 -53q0 -8 -1 -20.5t-2 -36t-1 -42.5q-6 -100 -7 -207q0 -45 5 -106q2 -12 -6.5 -21.5t-20.5 -9.5h-4q-10 0 -18 6q-10 8 -9 21q-6 45 -6 108q0 113 6 213q3 74 6 99q7 166 7 318q0 220 -15 411q0 4 -5 22q-4 13 -4 23q0 3 1 6zM109 1174 q13 -151 13 -350q0 -40 -1 -81q0 -43 16 -43l31 7q23 8 27 12q90 45 149 123t64 153v11q0 70 -37 118q-63 96 -197 96q-14 0 -29 -1q-37 -2 -36 -45z" />
<glyph unicode="s" horiz-adv-x="583" d="M-4 999q-3 -24 -3 -47q0 -96 54 -170q51 -72 143 -155q90 -80 152 -154q74 -90 86 -211q2 -23 2 -45q0 -85 -38 -135q-43 -57 -109 -58q-7 0 -15 1q-82 6 -140 88t-58 217q0 29 -29 28.5t-29 -28.5q0 -156 71 -255.5t179 -109.5q9 -1 18 -1q96 0 156 78q52 67 52 172 q0 27 -3 56q-12 131 -98 238q-55 68 -156 162q-92 84 -135 145q-45 64 -45 142q0 17 2 34q12 92 76 149.5t143 57.5q78 -2 116 -64q23 -38 23 -96q0 -38 -10 -84q-4 -31 23 -34q31 -4 35 22q11 51 11 95q0 77 -34 132q-54 86 -164 88q-100 0 -181 -72.5t-95 -185.5z" />
<glyph unicode="t" horiz-adv-x="575" d="M-25 1208q0 -12 9.5 -20t21.5 -6q48 3 87 3q19 0 36 -1q41 0 41 -8l2 -11q9 -43 9 -125q0 -27 -1 -59q-2 -43 -2 -88q0 -74 -6 -256q-6 -148 -6 -266q0 -206 18 -320q3 -25 26 -25h7q29 4 25 33q-18 112 -18 325q0 111 5 249q6 180 7 260q0 6 1 16.5t2 31t1 36.5 q2 31 2 59q0 70 -11 119l-4 29q86 -4 151 -4q43 0 77 2q29 0 28 30q-4 31 -32 27q-12 -1 -40 -1q-57 0 -182 3q-66 3 -117 3q-68 0 -110 -5q-12 0 -20.5 -9t-6.5 -22z" />
<glyph unicode="u" horiz-adv-x="491" d="M10 739q10 -225 10 -369q0 -62 -2 -108q-3 -40 -3 -74q0 -77 16 -120q14 -53 55 -82q33 -23 82 -23q16 0 34 2q72 10 109 58q59 78 76 206q4 52 4 123v49q-2 39 -2 76q0 46 6 258q2 87 2 145q0 87 -4 111q0 39 -8 111q-8 63 -8 108q0 29 -29 29t-29 -29q0 -43 7 -112 q2 -23 4 -46.5t4 -41t2 -23.5q1 -22 1 -85.5t-1 -168.5q0 -57 -1 -118.5t-2 -93.5t-1 -44q0 -43 2 -80v-86q0 -84 -21 -151q-18 -63 -46.5 -96t-76.5 -41q-10 -1 -19 -1q-64 0 -85 62q-12 40 -12 114q0 28 2 60q3 58 3 140q0 138 -9 345q-8 159 -8 278.5t8 199.5 q4 29 -27 32q-31 0 -31 -28q-9 -96 -9 -228q0 -115 7 -258z" />
<glyph unicode="v" horiz-adv-x="552" d="M-16 1221q-1 4 -1 8q0 24 23 28q4 1 8 1q17 0 27 -21q29 -117 45 -258q12 -106 14 -116.5t12.5 -71t35 -194.5t49.5 -280q6 -33 18 -94q4 -13 11 -37l10 -28q8 39 40 342q16 152 48 354q29 186 75 352q10 27 37 21q22 -5 22 -29q0 -4 -1 -8q-51 -164 -76 -346l-25 -164 q-6 -41 -20 -184q-4 -33 -8 -72t-7.5 -62.5t-5.5 -35.5q-6 -43 -10 -84t-7 -64.5t-3 -27.5q-2 -8 -4 -20.5t-3 -22t-3 -15.5q-10 -43 -13 -49q-2 -2 -2 -3q0 -3 -2 -3q-2 -6 -10 -14q-10 -10 -24 -10q-4 0 -7 1q-8 0 -18 11v2l-2 4q-2 2 -2 4l-4 8l-6 25l-21 73 q-29 127 -35 164q-92 518 -96 549l-16 117q-25 178 -43 250z" />
<glyph unicode="w" horiz-adv-x="831" d="M12 1229q-1 -11 -1 -26q0 -57 18 -165q10 -57 12 -82l25 -239q55 -473 71 -553q4 -20 11.5 -58t11.5 -51q2 -8 5 -17t3 -13l4 -11q0 -2 2 -4t2 -4l8 -8q9 -6 17 -6q7 0 14 4q6 3 12 12q0 4 2 6t2 9q4 12 7 22q10 41 16 74l41 223q31 180 41 225q13 57 25 57t24 -57 q41 -193 147 -452q14 -39 33 -72q8 -16 15 -20q12 -10 28 -7q6 2 11.5 6.5t7.5 8.5l5 10q3 6 5 8q4 20 6 35q2 12 3 44t1 48q0 33 -4 160q-4 78 -4 155q0 382 96 709q1 4 1 8q0 24 -21 29q-27 6 -37 -20q-96 -337 -96 -731q0 -76 4 -154q2 -51 2 -154q0 -36 -28 27 q-8 18 -17 43q-84 229 -131 467q-2 8 -7.5 33.5t-5.5 31.5q-4 20 -6 29q-4 16 -8 20q-18 18 -47 9q-23 -12 -27 -56q-12 -92 -73 -430l-15 -69q-13 -66 -25 -66t-22 68q-4 31 -16 133l-35 307q-6 55 -12.5 111.5t-10.5 87t-4 41.5q-3 34 -12 86q-16 100 -16 161v13 q4 29 -27 32q-31 0 -31 -28z" />
<glyph unicode="x" horiz-adv-x="638" d="M-16 39q-1 -4 -1 -8q0 -22 21 -27q27 -6 37 19q12 41 63 155q74 160 119 273q15 40 28.5 40t24.5 -40l11 -37l20 -60q76 -246 144 -350q8 -13 22 -13h5q18 3 24 16t-2 30q-68 100 -135 334q-34 111 -50 159l-22 60q-12 27 0 55q154 414 246 563q5 8 5 16q0 6 -4 14 q-9 14 -23 14h-2q-15 -1 -26 -15q-90 -145 -210 -465q-18 -49 -25.5 -49t-30.5 51q-33 72 -60.5 140.5t-46 118.5t-29.5 86t-19.5 62.5t-8.5 28.5q-10 27 -37.5 18t-19.5 -38q49 -133 119 -316l90 -231q12 -26 0 -53l-88 -234q-43 -96 -72 -153q-45 -94 -67 -164z" />
<glyph unicode="y" horiz-adv-x="593" d="M-12 1200q35 -90 121 -264q92 -188 122 -260q8 -20 0 -43q-10 -31 -32.5 -106.5t-64.5 -216t-83 -275.5q-4 -29 21 -35q5 -1 10 -1q19 0 27 19l63 215l70 236q18 60 65 207l78 227q16 37 33 88q43 127 76 178q5 9 5 17q0 7 -3 14q-9 14 -24 15.5t-28 -13.5 q-41 -66 -84 -194q-18 -59 -28 -84q-6 -16 -20.5 -55.5t-20.5 -59.5q-10 -31 -20.5 -34t-32.5 32q-12 23 -39 78t-37 78q-76 152 -121 258q-6 18 -23 20h-4q-13 0 -23 -11q-6 -8 -6 -16q0 -7 3 -14z" />
<glyph unicode="z" horiz-adv-x="591" d="M2 1219q-1 -4 -1 -8q0 -25 24 -29q41 -10 239 -11h137q33 0 33 -8q0 -6 -2 -10q-8 -41 -72 -190q-27 -55 -26 -62q-29 -66 -170 -463l-101 -280l-32 -92l-2 -5q-18 -37 -9 -61q4 -8 13.5 -13t17.5 -7.5t25.5 -3.5t27.5 -3q44 -1 84 -1q142 0 246 16q29 4 25 32.5 t-33 24.5q-109 -17 -209 -17q-55 0 -108 5l-13 5q-9 11 2 42l21 59l100 281q129 356 158 436q4 8 11 23.5t11 25.5q2 4 7.5 16.5t7.5 18.5l43 100q27 74 32 97q6 26 6 45q0 24 -10 37q-4 4 -12 8q-2 2 -4 2h-68q-84 0 -137 2q-205 0 -227 8q-4 1 -8 1q-24 0 -27 -21z" />
<glyph unicode="{" horiz-adv-x="569" d="M-5 545.5q3 -17.5 21 -25.5q8 -4 19 -4q27 0 71 10q78 12 119 11l7 -7q4 -4 9 -14t1 -18q-14 -27 -45 -66l-37 -45q-98 -137 -31 -260q41 -74 92 -102.5t154 -42.5q29 -4 33 24.5t-25 32.5q-90 14 -130 35.5t-71 81.5q-39 74 -10 135q12 29 70 104q25 33 32 45 q39 55 29 100.5t-70 53.5l-20 3q-9 7 21 28l6 4q37 25 30 67q-2 16 -20 41q-76 86 -90 119q-70 127 35 217q104 84 249 84q29 0 29 28.5t-29 28.5q-77 0 -153 -24q-182 -57 -213 -195q-14 -66 8.5 -120t83.5 -130l31 -43q6 -6 10 -14l2 -2q-3 -6 -18 -18q-33 -25 -146 -72 q-14 -6 -26 -12q-10 -2 -10.5 -4t-4.5 -5l-4 -2q-12 -10 -9 -27.5z" />
<glyph unicode="|" horiz-adv-x="270" d="M74 1163q6 -37 10 -141q4 -121 4 -123q29 -418 29 -862q0 -29 28.5 -29t28.5 29q0 459 -29 866q0 201 -14 273q-4 27 -32.5 22.5t-24.5 -35.5z" />
<glyph unicode="}" horiz-adv-x="462" d="M-42 1159.5q1 16.5 17 24.5q84 45 198 23.5t130 -97.5q16 -90 -108 -295q-58 -92 -60 -100l-6 -13q-2 -4 1 -9t12.5 -10t21.5 -5h20q31 0 56 2q72 6 75 8q35 4 50 -16q12 -27 -9 -43l-16 -11l-25 -10q-92 -37 -125 -55q-16 -10 -23 -15.5t-5 -7.5t18.5 -15t30.5 -23 l55 -43q33 -33 39 -43q53 -88 -28.5 -207t-221.5 -226q-25 -16 -42 7.5t5 42.5q123 88 198 190t40 164q-18 23 -82 67l-51 41q-31 31 -31 47q-2 27 47 60q16 8 25 14l20 12q-90 2 -118 50q-12 23 4 51q0 2 2 5q3 3 4 5q2 4 8 14.5t10 16.5q23 41 51 86q111 188 101 252 q-9 40 -68 49q-115 16 -178 -17q-16 -8 -29.5 2.5t-12.5 27zM170 541l10 6q-2 -2 -10 -6z" />
<glyph unicode="~" horiz-adv-x="747" d="M-31 276q0 -29 29 -28.5t29 28.5q0 23 16 66q41 94 98 113q55 18 74 -39q18 -43 31 -56q61 -72 138 -72.5t143.5 48.5t119.5 131q10 16 2 30.5t-23.5 15.5t-27.5 -13q-74 -106 -153.5 -140t-153.5 37q-6 8 -21 41q-18 39 -41 56q-94 66 -188 -43q-72 -83 -72 -175z" />
<glyph unicode="&#xa1;" horiz-adv-x="186" d="M-8 858q-23 -29 10 -45q27 -10 47 2q6 2 12 16l15 33q4 8 4 21q0 16 -13.5 25.5t-27.5 0.5q-8 -4 -14 -10l-9 -10zM6 -319q0 -29 28.5 -29t28.5 29q0 426 9 530q0 4 3 36t7 60q2 20 3 42t3 43.5t2 29.5q6 139 -14 209q-4 27 -35 22q-27 -4 -23 -35q9 -43 13 -98 q2 -84 -8 -205q-2 -23 -4.5 -56.5t-4.5 -43.5q-8 -106 -8 -534z" />
<glyph unicode="&#xa2;" horiz-adv-x="546" d="M-14 328q-6 -113 29.5 -198t97.5 -128q31 -20 22 -53q-12 -43 -35 -144q-4 -31 23 -34q31 -4 35 22q29 119 32 135q8 33 48 33q92 0 202 74q16 10 13.5 27.5t-16 23.5t-29.5 -2q-80 -55 -146 -61q-33 -2 -39 10t4 35q62 205 68 223l55 182q3 8 9 30q17 64 24 63 q5 -5 8 -19q2 -8 2 -31q0 -43 2 -49q0 -12 9.5 -20.5t21.5 -6.5q12 0 20.5 9.5t6.5 21.5v45q0 66 -29 113q-18 29 -12 55l30 102q4 31 -20 37q-27 6 -37 -20l-23 -76q-8 -33 -49 -27q-33 4 -63 -2q-59 -12 -113.5 -49t-83.5 -86q-63 -100 -67 -235zM44 324.5 q5 117.5 58 210.5q22 37 68 67q63 43 127 39q31 -2 35 -10t-8 -39l-86 -285q-6 -23 -29 -101.5t-35 -113.5q-8 -27 -17.5 -34t-16.5 -3t-21 19q-25 33 -35 53q-45 80 -40 197.5z" />
<glyph unicode="&#xa3;" horiz-adv-x="831" d="M-68 502q6 -25 35 -21q59 18 191 37q39 4 45 -18q6 -10 6 -23q31 -158 -82 -313l-39 -53q-10 -14 -28.5 -33t-30.5 -33q-20 -25 -21 -45q0 -18 15.5 -28.5t33.5 1.5q12 9 25 31l41 49q117 82 199 29q4 -2 11 -6t20.5 -11.5t25.5 -13.5q94 -51 170 -59h12h43q2 2 8 3t9 1 l32 6q2 0 7.5 2t12.5 4t13 4t16.5 5t14.5 3q10 2 18 15q12 27 -12 41q-10 4 -55 -8l-31 -9q-2 0 -13.5 -3t-17.5 -5h-37q-23 -2 -41 2q-45 10 -120 49l-62 33q-55 25 -104 25q-23 -2 -29 7t4 30q78 147 49 292q-14 43 35 46q37 2 121 14q29 4 24.5 32.5t-32.5 24.5 q-4 0 -53.5 -6t-96.5 -10q-33 -3 -53 22l-70 78l-28 29q-47 47 -66 94q-18 49 2.5 137t63.5 144q59 76 118.5 84t102.5 -43q49 -49 68.5 -132t0.5 -169q-4 -31 23 -35q31 -4 35 22q20 94 -2 197q-25 100 -87.5 162.5t-140.5 54.5q-86 -8 -152.5 -88t-90.5 -199 q-18 -88 2 -149.5t82 -122.5q37 -37 49 -51q12 -12 16 -17.5t7 -14.5t-8 -14.5t-34 -7.5q-76 -10 -151 -32q-25 -10 -19 -37z" />
<glyph unicode="&#xa4;" horiz-adv-x="616" d="M-3.5 506q9.5 -62 52.5 -103q8 -6 -16 -38q-8 -14 -29 -43q-10 -16 -2 -31t23.5 -16t27.5 14q20 33 33 47q18 27 55 18l41 -10q68 -14 125 4q37 12 49 -4q6 -10 13 -16l14 -15l27 -26q20 -20 40.5 0t0.5 41l-27 26q-4 4 -11 14.5t-12 14.5q-6 27 9 47q33 51 42 115.5 t-10 126.5q-4 3 21 30l47 35q23 16 6 41q-25 31 -84 -28q-4 -4 -10 -9q-8 -8 -39 17q-70 51 -154 45q-31 -2 -73 -21q-33 -16 -58 6l-49 50q-14 12 -29.5 6t-18.5 -20.5t7 -26.5l43 -41q29 -29 0 -58l21 21q-40 -43 -62 -98q-23 -53 -13.5 -115zM53 557q8 68 62.5 124 t120.5 62q23 2 59 -4q16 -2 43 -20t39 -43l6 -12q2 -2 2 -5q2 -3 2 -6q16 -59 2 -121q-14 -74 -64.5 -110.5t-129.5 -20.5q-156 31 -142 156z" />
<glyph unicode="&#xa5;" horiz-adv-x="606" d="M-27 735q0 -12 9.5 -20t21.5 -6q77 3 191 0h9h10q3 0 10 -1t11.5 -3.5t8.5 -6.5t7 -11t5 -15q-8 -53 -10 -80q-4 -39 -62 -37q-92 2 -172 -4q-12 0 -20 -9.5t-6 -21.5q0 -12 9 -20t21 -6q63 6 181 2q41 0 41 -41q0 -135 12 -435q0 -12 9 -20t22 -6q12 0 20 9t6 22 q-12 295 -12 426q4 41 43 38q31 0 73 -1t54 -1q29 0 29 29t-29 29q-18 0 -121 4q-45 4 -39 43q2 31 10 78q2 14 4.5 20t12.5 10.5t28 4.5h33h35h27q29 0 28.5 28.5t-28.5 28.5h-72q-18 2 -25.5 3t-11.5 7t-2 21q0 4 4 13t4 13q27 76 78 178q66 133 82 185q10 27 -18 39 q-27 10 -39 -19q-27 -76 -78 -178q-66 -133 -82 -184q-6 -14 -11 -40t-9.5 -36t-8.5 -6l-8 8q-68 106 -135.5 239.5t-85.5 200.5q-10 27 -37 21q-25 -6 -20 -37q45 -147 178 -373q23 -31 20.5 -40t-49.5 -9q-92 0 -129 -2q-12 0 -20.5 -9t-6.5 -22z" />
<glyph unicode="&#xa6;" horiz-adv-x="229" d="M37 45q0 -29 28.5 -29t28.5 29q0 43 10 258q11 186 5 262q0 29 -31 29q-31 -4 -27 -33q4 -115 -4 -254q-10 -225 -10 -262zM59 776q0 -29 29 -28.5t29 28.5q0 52 16 400q4 29 -27 32q-31 0 -30 -28q-16 -350 -17 -404z" />
<glyph unicode="&#xa7;" horiz-adv-x="579" d="M-43 152q18 -102 92 -152q70 -49 161 -50t152 44q72 45 78 126t-71 161q-20 18 -21.5 25t19.5 32q84 84 106 143q29 76 -12 131.5t-146 108.5q-33 18 -79 41q-45 20 -95 47q-21 10 -37 16l-34 15q-37 20 -45 37q-6 12 -2 48t12 62q31 100 95.5 146.5t135.5 29.5 q70 -16 107 -85.5t20 -170.5q-4 -29 24.5 -33t33.5 25q20 121 -30 210t-142 110q-94 23 -179.5 -35t-122.5 -180q-8 -27 -12 -72q-6 -57 9.5 -89t68.5 -57l70 -30q11 -4 -10 -22q-7 -6 -21 -17q-72 -59 -86 -125q-25 -102 22.5 -162.5t167.5 -116.5q14 -6 27.5 -12t25 -10 t15.5 -6q74 -37 98 -68q33 -49 31 -102q-4 -43 -54 -74t-118 -33q-76 0 -130 40t-67 116q-4 27 -32.5 22.5t-24.5 -34.5zM46 529.5q-3 45.5 34 97t115 86.5l94 -43q88 -45 117.5 -82t11.5 -86q-29 -68 -137 -164q-2 -2 -33 12l-37 19q-96 43 -131 80q-31 35 -34 80.5z" />
<glyph unicode="&#xa8;" horiz-adv-x="456" d="M-2 1147q-16 -47 31 -64q29 -8 47 4t22 37q0 4 5.5 21.5t7.5 30.5q0 18 -27 32q-29 2 -30 2t-15 -10q-27 -21 -41 -53zM265.5 1171.5q-1.5 -14.5 4 -25.5t9.5 -13l22 -23q14 -8 30.5 -3t18.5 21q2 10 5 21.5t5 19.5q4 23 -6 33t-32 4q-41 -15 -41 -14q-14 -6 -15.5 -20.5 z" />
<glyph unicode="&#xa9;" horiz-adv-x="737" d="M0 864q-47 -262 37 -542q20 -74 80 -158q59 -88 134 -137.5t146 -32.5q162 35 219 403q64 414 -6 615q-45 78 -166.5 144.5t-203.5 47.5q-186 -41 -240 -340zM57 852q49 264 195 295q133 26 295 -152q18 -20 22 -47q29 -162 4.5 -413.5t-86.5 -380.5q-82 -166 -215 -72 q-55 41 -106 114.5t-72 141.5q-80 268 -37 514zM145 756q-29 -135 4 -283.5t130 -177.5q47 -14 71.5 -4t42.5 55q12 27 27 92q2 18 8 37q4 31 -20 37q-27 6 -37 -20q0 -4 -2 -11.5t-5.5 -22t-5.5 -24.5q-8 -41 -18 -63.5t-13 -24.5t-32 6q-74 23 -94 162q-20 121 5 242 t77 166q39 39 79 -11q46 -51 50 -112q0 -12 9 -20.5t21 -6.5q12 0 20.5 9.5t6.5 21.5q-4 78 -61 145q-33 43 -77 49.5t-89 -30.5q-61 -55 -97 -211z" />
<glyph unicode="&#xaa;" horiz-adv-x="569" d="M-16 1016q-4 -31 22 -35q31 -4 35 23q12 57 31 88q16 29 61 54t72 21q20 -2 33 -24q10 -20 18 -51q2 -10 1 -17.5t-8 -13.5t-11.5 -9t-18.5 -11.5t-20 -10.5q-61 -37 -109.5 -107.5t-62.5 -140.5q-25 -111 51 -135t227 60q4 2 8 6q16 -25 41 -33q43 -18 103 10 q16 8 17 24.5t-12 27t-30 1.5q-37 -16 -53.5 -11t-26.5 36q-15 40 -24 197q-10 158 -39 206q-55 100 -189 25q-53 -31 -78.5 -71.5t-37.5 -108.5zM84 772q10 57 50 114.5t87 88.5q12 8 23.5 11t17.5 1t6 -8v-18q6 -94 17 -164q6 -35 0 -37l-9 -4q-127 -74 -176 -56 q-29 12 -16 72z" />
<glyph unicode="&#xab;" horiz-adv-x="632" d="M47 645q-8 -45 59 -141q35 -51 89 -117q20 -20 41.5 -0.5t3.5 41.5q-49 53 -84 109q-25 33 -39 65q-8 19 4 33l84 67q35 29 67 52q16 8 15.5 25.5t-14 24.5t-29.5 -1q-31 -16 -78 -58q-68 -55 -84 -61q-33 -12 -35 -39zM251 594.5q3 -21.5 17 -51.5q16 -37 97 -148 q18 -23 41.5 -5t7.5 42q-76 100 -95 137q-12 29 -4 41q9 9 68 49q96 64 143 107q14 12 10 28.5t-18 21.5t-29 -5q-47 -43 -139 -102q-39 -25 -57.5 -39.5t-31.5 -34t-10 -41z" />
<glyph unicode="&#xac;" horiz-adv-x="778" d="M-14 629q0 -12 9 -20.5t21 -6.5q20 2 131 11.5t191 15.5q53 4 116.5 9t77.5 5q8 0 21.5 1t17.5 1q45 0 47 -2q4 -4 5 -6q6 -23 0 -76l-7 -47q0 -8 -1 -17.5t-2 -15.5t-1 -8q-2 -12 6.5 -22.5t20.5 -10.5q10 -2 20.5 6.5t12.5 20.5q0 2 4 43q4 33 6 45q6 70 -4 110t-43 37 h-107l-194 -16q-82 -6 -199 -16.5t-123 -10.5q-12 0 -20 -9t-6 -21z" />
<glyph unicode="&#xad;" horiz-adv-x="667" d="M6 538.5q4 -28.5 33 -24.5q113 16 344 10q143 -4 160 -4q29 0 28.5 29t-28.5 29q-8 0 -156 4q-237 9 -356 -11q-29 -4 -25 -32.5z" />
<glyph unicode="&#xae;" horiz-adv-x="747" d="M-11 476q40 -247 189 -402q43 -45 109 -74q80 -43 143.5 -16.5t110.5 139.5q74 178 104 493q10 113 -10 234t-49 182l-15 37q-10 29 -53 71t-88 58q-135 47 -221 -25.5t-170 -252.5q-90 -197 -50 -444zM47 485.5q-37 231.5 45 409.5q74 160 144.5 221.5t173.5 24.5 q35 -15 43 -21q35 -16 65 -57q92 -211 70 -445q-31 -305 -103 -473q-39 -94 -77 -106q-35 -12 -92.5 12.5t-96.5 63.5q-135 139 -172 370.5zM145 836q-16 -27 9 -41q10 -4 10 -35q4 -74 2 -148q-2 -113 14 -192q4 -27 35 -23q27 4 23 35q-16 66 -13 180q0 14 15 9 q23 -4 28 -7q4 0 6 -2h2q18 -10 48 -69q31 -51 52 -72.5t66 -44.5q16 -8 29.5 2t12.5 26.5t-17 24.5q-37 18 -51 33.5t-39 58.5l-27 45q-2 2 -3 5.5t-5 10.5t-4 11t2 6t5 2t5 2q57 29 97 76t34 98q-8 70 -53 100.5t-109 18.5q-49 -8 -99 -40t-75 -70zM219 805q-2 27 19 43 q41 33 92 41q41 6 61 -8q27 -18 30 -54t-26 -69q-55 -57 -127 -68q-41 -8 -43 -10q0 74 -6 125z" />
<glyph unicode="&#xaf;" horiz-adv-x="450" d="M-31 1175.5q0 -28.5 29 -28.5q181 0 326 -6q29 -4 32 26q0 31 -28 31q-152 6 -330 6q-29 0 -29 -28.5z" />
<glyph unicode="&#xb0;" horiz-adv-x="491" d="M2 1093q-6 -40 2 -105.5t41 -110.5q53 -74 134 -93.5t136 23.5q59 35 75 96t-17 139q-4 10 -11.5 25.5t-9.5 22.5q-37 92 -129 139q-43 29 -103.5 18.5t-90.5 -63.5q-12 -20 -15 -31q-6 -20 -12 -60zM63 1016v63q0 39 7 56q12 29 20 36q41 35 103.5 6.5t95.5 -90.5 q84 -168 -4 -231q-39 -25 -92.5 -8.5t-98.5 61.5q-31 31 -31 107z" />
<glyph unicode="&#xb1;" horiz-adv-x="485" d="M-53.5 653.5q4.5 -28.5 33.5 -24.5q18 2 60 5t58 5q14 0 22.5 1t13.5 -6t6 -13.5t3 -20.5q4 -27 29 -127q10 -25 37 -18q25 6 20 34q-14 47 -24 103q-6 27 0 36t39 9q35 0 70 -1l36 -1q29 0 29 28.5t-29 28.5q-31 0 -49 2q-10 0 -34.5 1t-37.5 1q-27 0 -34 7.5t-9 31.5 q-4 82 -4 133q0 29 -28.5 29t-28.5 -29q0 -25 2 -66.5t2 -62.5q0 -29 -5 -35t-36 -6q-47 0 -117 -12q-29 -4 -24.5 -32.5zM-49 -23q-2 -12 6 -21t20 -9q82 -8 193 -4q39 4 100 6q16 0 37 1t34 2t21 1q29 0 29 31q-4 31 -33 26q-14 0 -127 -6q-94 -4 -102 -4h-27q-3 0 -120 4 q-12 2 -21.5 -6t-9.5 -21z" />
<glyph unicode="&#xb2;" horiz-adv-x="450" d="M-31 1071q-10 -25 21 -37q25 -10 37 21q10 31 33.5 59.5t50.5 40.5q23 10 32 2q20 -10 29 -55q12 -45 -78 -178l-63 -93q-16 -25 -23 -34q-12 -29 -2 -45q10 -23 70 -35q45 -4 92 -4l90 4q16 0 32.5 1t25 2t10.5 1q29 0 28.5 28.5t-29 28.5t-65.5 -2q-78 -4 -94 -4 q-43 0 -60 2q-6 0 -12 1t-9 2t-6 1h-5h-8q8 13 14 21l63 92q102 158 86 223q-14 68 -54 92.5t-89 1.5q-37 -16 -69.5 -55t-47.5 -82z" />
<glyph unicode="&#xb3;" horiz-adv-x="385" d="M-37 1104q-4 -29 21 -35q27 -6 36 18q8 31 32 59t50 38q51 16 70 -51q25 -86 -104 -166q-12 0 -25 -6q-31 -14 -31 -37q0 -14 11 -25q21 -21 55 -6l20 8q55 6 80 -6q84 -43 35 -100q-23 -33 -68 -56.5t-90 -27.5q-12 0 -20 -9.5t-6 -21.5q0 -12 9 -20.5t21 -6.5 q129 10 203 105q37 51 18.5 109.5t-77.5 80.5q-6 0 -11.5 3t-11.5 15.5t17 30.5q57 57 32 152q-37 127 -147 90q-41 -16 -74 -53t-45 -82z" />
<glyph unicode="&#xb4;" horiz-adv-x="342" d="M37 1036q-20 -20 0.5 -40.5t40.5 -0.5l160 160q20 20 -0.5 41t-40.5 0z" />
<glyph unicode="&#xb5;" horiz-adv-x="638" d="M-143 -276q-8 -29 19.5 -38.5t37.5 17.5q41 117 98 305q8 25 14.5 29t39.5 -6q160 -76 268 53q14 20 18 21t13 -29q2 -29 18 -64q6 -18 22.5 -20t27.5 11t3 30q-16 53 -16 86q-2 22 -8 96v4q0 4 10 27q37 109 61 209q45 182 58 215q8 16 -3.5 29.5t-27.5 11.5t-23 -21 q-15 -37 -61 -221q-35 -145 -76 -244q-51 -113 -114.5 -145.5t-159.5 12.5q-33 18 -23 53l8 33q94 324 150 469q8 29 -19.5 38t-37.5 -17q-55 -157 -148 -473q-96 -332 -149 -471z" />
<glyph unicode="&#xb6;" horiz-adv-x="876" d="M14 780q29 -90 109 -134t158 -30q45 10 45 -30v-652q0 -29 28.5 -29t28.5 29v506q0 254 12 488q4 59 2 137v29v28v21q0 37 39 43q8 2 22.5 3t22.5 1q39 4 45 -37q2 -12 3 -35.5t1 -36.5q0 -66 -10 -223q-6 -70 -6 -113q-6 -127 -6 -395q0 -267 -6 -405q-2 -12 6 -21.5 t20 -9.5q12 -2 21.5 6t9.5 21q4 106 8 407q0 225 4 393q0 8 2 27.5t3.5 40t3.5 41.5q3 71 6 117q4 94 -2 184q-2 20 8 31.5t31 9.5q51 -2 125 -10q29 -4 32.5 24.5t-24.5 32.5q-258 37 -471 -22q-94 -35 -156 -95q-70 -70 -105.5 -162t-9.5 -180z" />
<glyph unicode="&#xb7;" horiz-adv-x="256" d="M23 559q2 -27 27.5 -39t64.5 4q20 8 26 15q18 14 12 45.5t-28 56.5q-16 14 -31 12q-18 -2 -26 -10l-2 -2l-11 -8q-37 -27 -32 -74z" />
<glyph unicode="&#xb8;" horiz-adv-x="440" d="M6 -133q0 -41 31 -41l35 4q20 4 42.5 7t26.5 3q57 6 97 2q29 -4 43 -22q12 -18 -2 -35q-22 -34 -74 -61q-14 -6 -19 -9l-22 -10q-18 -6 -20.5 -22.5t11 -27.5t29.5 -3q2 2 7.5 3t7.5 1l8 4l26 10q61 33 95 84q53 82 -37 131q-41 27 -156 13q-4 -2 -9 -2t-11 3t12 19 l20 25q4 6 9 10q12 14 5 29.5t-22.5 17.5t-27.5 -10l-11 -10q-12 -12 -20 -23l-23 -27q-6 -6 -13 -14t-12 -13t-7 -9q-18 -23 -19 -27z" />
<glyph unicode="&#xb9;" horiz-adv-x="415" d="M6 711q-2 -12 6 -21.5t21 -9.5q61 -4 258 -4q29 0 28.5 28.5t-28.5 28.5h-72q-41 0 -41 8v15q-6 74 8 194q12 131 9 205v27q-2 23 -13 32q-14 12 -32 9q-2 0 -11 -4l-4 -5l-6 -6l-12 -12l-29 -39q-25 -33 -47 -70q-12 -18 0 -32.5t31 -10.5q12 2 32 35q10 16 21 29l12 16 q2 -45 -10 -168q-14 -135 -6 -204v-6q0 -3 -10.5 -7t-28.5 -4q-31 0 -45 2q-12 2 -21.5 -6t-9.5 -20z" />
<glyph unicode="&#xba;" horiz-adv-x="538" d="M-25 897q-2 -70 36 -131t104 -90q111 -45 196.5 9t118.5 171q20 70 6 146t-55 135q-33 45 -57 57q-92 45 -195 -10q-80 -41 -116 -122t-38 -165zM41.5 845q-23.5 85 13.5 165q31 84 79 110.5t134 16.5q72 -20 100.5 -96t4.5 -169q-25 -94 -88.5 -136t-145.5 -7 q-74 31 -97.5 116z" />
<glyph unicode="&#xbb;" horiz-adv-x="749" d="M58.5 367.5q7.5 -15.5 22.5 -17.5t28 10q16 18 108 111q61 61 82 98q33 72 -23 109q-46 36 -178 61q-31 4 -35 -22q-4 -31 23 -35q120 -25 154 -49q18 -14 6 -37q-10 -20 -72 -82q-83 -83 -111 -117q-12 -14 -4.5 -29.5zM248 770q6 -10 49 -18q4 0 26.5 -5.5t38.5 -9.5 q25 -6 70 -14q65 -15 98 -25l19 -6l16 -6v-6q0 -4 -14 -35q-33 -61 -160 -207q-59 -66 -61 -69q-12 -14 -5 -29.5t22 -18t28 10.5l7 8q7 8 22.5 25.5t31.5 35.5q129 145 168 217q33 68 10 105q-4 4 -30 20q-4 0 -16.5 4.5t-20.5 6.5q-23 8 -103 26q-44 9 -69 15l-66 12 q-29 8 -30 8q-12 2 -23 -4q-25 -14 -8 -41z" />
<glyph unicode="&#xbc;" horiz-adv-x="722" d="M-2 45q-8 -16 2 -28.5t26.5 -12.5t24.5 16l391 760q8 14 26.5 55.5t27.5 57.5q68 150 125 223q12 16 4.5 31.5t-22.5 16.5t-28 -11q-59 -76 -133 -238q-24 -55 -53 -106zM61 982.5q7 -15.5 22 -17.5t28 10q43 55 47 -25q4 -55 6 -80l1 -12q1 -12 5 -27q-20 -4 -44 -9 t-32 -5q-12 0 -19 -10t-5 -23q0 -12 10 -19t22 -5q61 8 97 14q33 4 94 10q29 0 29 31q-4 31 -33 27h-21q-43 -2 -43 2v10q0 6 -18 223q0 12 -9.5 21.5t-21.5 9.5q-33 0 -45 -14l-65 -82q-12 -14 -5 -29.5zM270 291q-6 -23 19 -37l18 -6q10 -2 35 -2q33 -2 90 0q39 0 35 -43 q-4 -86 -4 -107q0 -29 28.5 -28.5t28.5 28.5q0 41 6 115q2 37 33 41q20 0 27 2q12 0 20 10t8 23q-2 10 -12 18t-20 6h-4h-8q-3 0 -9 1t-9 3t-7 7.5t-5 12.5t-1 17q2 29 2 80q0 2 1 14.5t1 24.5q2 31 -5.5 44t-21.5 8t-27.5 -16.5t-33.5 -31.5q-29 -29 -84.5 -75t-67.5 -60 q-14 -14 -22 -27q-4 -6 -9 -14l-1 -4zM368 318q1 6 11 16q6 4 16.5 14t16.5 14l18 15l2 2q37 31 44 11l3 -36v-10q-2 -39 -26 -39l-23 -2h-8q-55 0 -54 15z" />
<glyph unicode="&#xbd;" horiz-adv-x="804" d="M-2 37q-12 -27 13.5 -40t39.5 11q27 49 82 135q63 96 141 271l66 139q82 176 129 254l68 115q66 117 165 237q12 14 5 29.5t-22 17.5t-28 -10q-104 -127 -172 -242l-67 -118q-19 -30 -72 -136l-59 -122q-4 -8 -12.5 -25.5t-23.5 -51.5t-30 -63q-76 -170 -137 -262 q-63 -92 -86 -139zM110 1072.5q3 -17.5 16 -24t30 2.5q8 4 14 -4.5t8 -28.5q0 -6 1 -21.5t1 -23.5q8 -111 8 -117q0 -2 -20 -2q-4 0 -10 1t-11 1q-12 2 -21 -6t-9 -21q-2 -12 6 -21t20 -9q57 -4 164 -4q29 0 29 28.5t-29 28.5h-28q-33 0 -33 41v-33q-3 22 -6 117 q-2 61 -11 119q0 6 -4 14q-14 18 -43 23q-10 0 -20 -7l-39 -26q-16 -10 -13 -27.5zM317 90q14 -18 62 -22q18 -2 76 -2q123 6 129 6q29 0 28.5 28.5t-28.5 28.5q-23 0 -53.5 -2t-75.5 -2q-31 0 -9 22q6 6 23 27q33 41 57.5 88t34.5 100.5t-16 86.5q-35 41 -74 32 q-31 -4 -57.5 -33.5t-69.5 -99.5q-8 -16 2 -30.5t25.5 -14.5t25.5 16q34 65 56 87q31 31 43 6q20 -23 -9 -95q-55 -126 -133 -163l-24 -13q-35 -23 -13 -51z" />
<glyph unicode="&#xbe;" horiz-adv-x="757" d="M-29 8q78 211 305 590q98 166 148 256q45 76 65 109q94 147 115 233q12 27 37 20.5t21 -36.5q-25 -98 -123 -252q-42 -66 -62 -103l-151 -260q-225 -375 -301 -577q-4 -16 -20.5 -19.5t-28 9t-5.5 30.5zM33 795q-8 16 2 28.5t26.5 12.5t24.5 -17q18 -35 41 -39t38 10.5 t21 32.5q8 23 -2 56q-6 22 -6 24h-4l-2 -2h-20q-25 4 -31 26.5t10 37.5q6 6 19 12q6 0 10 4q31 35 35 74q0 39 -29 35q-39 -4 -39 -62q0 -29 -28.5 -29t-28.5 29q0 49 24.5 82t63.5 39t67.5 -20.5t26.5 -73.5q0 -37 -23 -76q-14 -29 2 -57q31 -63 9 -119 q-16 -45 -54.5 -67.5t-81.5 -8.5t-71 68zM260 203q-57 35 10 98q14 14 44 41t44.5 39t35 29.5t35.5 28t30 16.5q22 10 27 -27q2 -12 1 -63q0 -8 2.5 -25.5t2.5 -28.5q0 -50 6 -47q14 2 26 2q29 4 33 -26q0 -14 -8 -21q-6 -8 -37 -14q-27 -6 -31 -39v-12q-6 -49 -6 -80 q0 -29 -28.5 -29t-28.5 29q0 16 4 86q2 16 -8.5 24.5t-32.5 5.5q-88 -8 -121 13zM307 252h5q5 0 14.5 -1t19.5 -1h22h19h4h11q6 0 9 1t7 2t6 3t4 7t3 12.5t1 17.5v4q0 70 -51 22q-35 -31 -70 -63z" />
<glyph unicode="&#xbf;" horiz-adv-x="485" d="M8 -59q2 -70 38 -134.5t91 -99.5q53 -41 125 -24.5t123 90.5q10 14 2 29.5t-22.5 16.5t-28.5 -14q-76 -106 -168 -47q-41 27 -69.5 78t-32.5 109q-8 205 67 235q15 6 74 13q59 10 80 40q12 20 12 78q4 128 -12 316q0 29 -31 28q-31 -4 -27 -32q14 -170 11 -310 q0 -29 -2 -39q0 -6 -2 -10q-6 -9 -37 -12q-74 -10 -86 -16q-120 -46 -105 -295zM195 865q14 -21 45 -25q39 -2 86 39q25 16 14 39q-4 14 -37 22l-10 4q-55 18 -84 -12l-10 -17q-18 -29 -4 -50z" />
<glyph unicode="&#xc0;" horiz-adv-x="555" d="M8 39q-2 -12 6.5 -21.5t20.5 -9.5q12 -2 21.5 6.5t9.5 20.5l32 307q6 51 13.5 123t12.5 117t7 77q0 4 33 13q43 14 143 28q43 6 43 -36q0 -18 3 -80t5 -107q8 -293 43 -463q4 -27 35 -22q27 4 23 35q-31 145 -41 452q-8 317 -29 463q-16 111 -31 170q-33 139 -90 160 q-104 43 -149 -103q-23 -74 -27 -174q-8 -268 -53 -655q-22 -200 -31 -301zM139 774q8 141 11 221q2 84 24 156q16 45 35 61q14 14 32.5 6t32.5 -36q12 -27 27 -84q27 -92 45 -293q2 -18 -10 -30.5t-37 -14.5q-62 -9 -117 -23q-23 -4 -34 5.5t-9 31.5zM153 1490 q-1 -15 13 -28q6 -6 26.5 -22.5t34.5 -28.5l64 -51q16 -12 31.5 -5t16.5 22.5t-11 27.5l-64 51q-53 45 -65 53q-14 10 -29.5 3t-16.5 -22z" />
<glyph unicode="&#xc1;" horiz-adv-x="632" d="M18 39q-2 -12 6.5 -21.5t20.5 -9.5q12 -2 21.5 6.5t9.5 20.5q2 16 30 241q20 154 27 261q2 10 3 33.5t1 35.5q2 35 39 43q8 2 49 10q109 23 174 23q9 0 9 -41v27q31 -526 73 -629q6 -16 22.5 -18.5t28 11t3.5 31.5q-39 94 -68 607q-14 254 -23 348q-16 172 -43 201 q-74 88 -178 -31q-41 -47 -66.5 -98.5t-34.5 -87t-18 -93.5q-12 -68 -22 -252q-3 -83 -6 -116q-16 -162 -29 -260q-25 -195 -29 -242zM145 750q12 168 43 266q23 66 80 133q31 34 56 43q18 6 28 -6t19 -56q8 -33 14 -116q4 -41 16 -232q4 -43 -41 -43h39q-80 1 -180 -22 l-37 -6q-18 -4 -28.5 6t-8.5 33zM193 1331.5q20 -20.5 40 -0.5q98 92 144 123q16 10 13 27.5t-16.5 23.5t-29.5 -2q-59 -43 -151 -131q-20 -20 0 -40.5z" />
<glyph unicode="&#xc2;" horiz-adv-x="643" d="M6 33q-2 -12 6 -21.5t21 -9.5q12 -2 21 6t9 21q3 86 25 221l29 223q2 18 5 56t5 53q4 37 37 43q53 8 192 26q43 6 43 -8v-16v-31q0 -260 17.5 -381t79.5 -201q10 -14 26.5 -11t22.5 17.5t-4 30.5q-51 68 -67.5 189.5t-14.5 353.5q2 272 -9.5 386t-60.5 189 q-47 74 -102.5 81t-96.5 -48q-53 -68 -76.5 -174t-35.5 -287q-14 -236 -49 -483q-20 -150 -23 -225zM115 1352q-10 -27 20 -39q25 -10 37 18q27 80 39 105l27 30l6 -6q23 -23 59 -84q8 -16 25.5 -15t24.5 14.5t-1 29.5q-82 150 -145 119q-27 -12 -44 -48t-48 -124zM137 727 v10q12 184 32.5 277.5t68.5 150.5q20 31 44.5 27t57.5 -55q57 -88 61 -381q0 -41 -41 -41h37q-158 -18 -219 -27q-20 -2 -31.5 7t-9.5 32z" />
<glyph unicode="&#xc3;" horiz-adv-x="645" d="M-8 10q20 139 49 465q25 311 63 469q29 123 60 195q27 68 61 96q59 41 107 -23q29 -41 35 -114q6 -31 6 -107q0 -4 8 -121q12 -266 29 -399q43 -379 127 -436q16 -10 13 -27.5t-16.5 -24t-29.5 2.5q-106 66 -152 479q-2 16 -7 71.5t-7 88.5q-4 41 -47 34 q-51 -10 -137 -14q-41 0 -43 -39q-6 -58 -13 -135q-28 -356 -49 -473q-4 -27 -32.5 -22.5t-24.5 34.5zM33 1290q41 92 92 111.5t115 -12.5q45 -25 76.5 -12.5t68.5 83.5q8 16 24.5 16.5t26.5 -12t2 -28.5q-47 -94 -102 -115t-119 12q-45 25 -72.5 14t-58.5 -81 q-8 -16 -24.5 -17.5t-26.5 12t-2 29.5zM127 748q-2 -20 7 -33t30 -10l63 11q64 11 66 11q39 0 35 37q-2 47 -13 223l-4 51q0 102 -28 138q-8 14 -15 14q-4 0 -6 -2q-18 -14 -45 -72q-51 -127 -90 -368z" />
<glyph unicode="&#xc4;" d="M-10 14q10 84 26 459q12 285 54 465q10 45 21 81t28.5 79t36 69.5t45 51t54.5 23.5t64 -11q63 -25 82 -148q10 -37 13 -88q0 -23 2 -37t2 -30q6 -111 6 -148q0 -10 -1 -30.5t-2 -58.5t-1 -68q-6 -120 -6 -160q-8 -287 53 -434q8 -18 -3 -31.5t-27.5 -11.5t-22.5 18 q-68 162 -60 461q0 4 4 123q3 43 0 43h-235q-39 -2 -41 -41q-4 -55 -6 -119q-14 -365 -29 -465q0 -12 -10 -19t-23 -5q-12 0 -19 10t-5 22zM94 731q-4 -43 39 -43h189q39 0 43 41q4 133 -5 195q-2 6 -2 30q0 6 -1 18.5t-3 16.5q-10 111 -30 154q-12 29 -29 35 q-51 23 -95 -53t-73 -199q-18 -80 -33 -195zM176 1437.5q0 28.5 29 28.5q12 0 20 -8t8 -20q0 -29 -28.5 -29t-28.5 28.5zM322 1448q0 29 28 29q12 0 20.5 -8.5t8.5 -20.5q0 -29 -28.5 -29t-28.5 29z" />
<glyph unicode="&#xc5;" horiz-adv-x="610" d="M-2 61q-8 -16 3 -29.5t27.5 -11t22.5 20.5q31 82 43 229q2 78 6 95q2 16 12.5 102t16.5 141q3 34 37 43q12 4 65 17q18 2 105 12h8q43 4 43 -35v-41q-2 -41 -2 -96q0 -299 74 -469q6 -16 22.5 -18.5t27.5 11t3 31.5q-68 158 -68 445q0 59 2 115v127q-4 135 -18 231 q-28 185 -53 231q-30 49 -84 62q-39 8 -67.5 -4.5t-46 -35t-30 -67.5t-18.5 -80.5t-12 -95.5l-23 -196l-28 -230l-23 -192q-6 -49 -8 -101q-10 -129 -37 -211zM147 756l27 227q16 125 29 160q16 55 43.5 69.5t54.5 -10t43 -82.5q8 -27 23.5 -127t19.5 -207q0 -41 -41 -45 q-51 -8 -158 -24q-23 -4 -33 6t-8 33zM150 1485q4 -31 4 -33q0 -4 4 -8q20 -53 60 -74.5t77 -5.5q37 14 54.5 65.5t-5.5 92.5q-25 43 -70 54t-79 -20l-17 -16q-4 -6 -13 -15t-11 -14q-4 -8 -4 -16v-10zM217 1493q12 33 45 25q20 -6 30.5 -25.5t0.5 -44.5q-14 -45 -43 -27 q-17 7 -27 21q-14 25 -6 51z" />
<glyph unicode="&#xc6;" horiz-adv-x="876" d="M-27 6q-4 -31 23 -35q31 -4 35 23q12 61 20 127q14 96 21 123l14 65q10 35 45 37h162q41 0 41 -41q0 -27 1 -77t3 -70q0 -16 -2 -31q0 -10 -1 -20.5t-2 -15.5t-1 -7q-4 -61 8 -86q12 -31 84 -43q76 -10 242 0q20 0 40.5 1t31 2t14.5 1q29 0 28.5 28.5t-28.5 28.5 q-4 0 -14.5 -1t-31 -2t-40.5 -1l-123 -4q-71 0 -111 6q-27 4 -35 9q-2 0 -4 2q-8 23 2 98v35q0 27 -4 219l-4 182q-2 39 39 43h207q29 0 29 28.5t-29 28.5h-207q-41 0 -41 41q-6 227 2 463q4 39 6 39h6q41 4 109 0q197 -8 201 -8q29 0 28.5 28.5t-28.5 28.5q-6 0 -17.5 1 t-33.5 2t-40 1l-108 7q-156 4 -203 -19q-43 -23 -86 -162q-20 -68 -43 -174q-14 -68 -82 -323q-55 -201 -82 -328q-6 -27 -20 -127q-8 -66 -21 -123zM121 449l33 118q51 186 82 328q23 106 43 168q12 47 32 90q16 -29 17 -70q-6 -223 4 -637q0 -43 -41 -43h-135 q-23 0 -32 12.5t-3 33.5z" />
<glyph unicode="&#xc7;" horiz-adv-x="585" d="M8 750q20 209 53 317q59 199 179 223q68 12 121 -24.5t69 -110.5q4 -20 4 -33q0 -27 -2 -41t-2 -26q0 -29 -28.5 -29t-28.5 29q0 23 2 49q2 39 -2 39q-16 76 -83 89t-112 -50q-74 -94 -96 -279q-4 -25 -16 -158q-23 -289 14 -426q18 -66 58 -140.5t83 -115.5 q106 -96 182 62q12 29 19 78q0 29 4 45q4 31 6 47q4 27 35 22q27 -4 22 -34q-2 -14 -6 -41q0 -25 -4 -45q-6 -59 -22 -97q-57 -117 -135 -133q-4 -2 -11 -2q-12 0 -26 -28l-6 -13q-16 -37 30 -43q41 -4 66 -28q31 -31 12 -86q-8 -18 -27 -37l-16 -13l-10 -8q-20 -14 -84 -51 q-16 -8 -30.5 2t-14.5 25.5t16 25.5q61 33 76 43q33 27 33 33q14 33 -29 35q-2 0 -55 4q-49 0 -58 29q-2 10 2 26q2 0 2.5 4t2.5 4q2 6 14 31l10 21l2 4q18 33 -14 55q-16 12 -25 20q-51 49 -95 130t-64 153q-41 156 -15 447z" />
<glyph unicode="&#xc8;" horiz-adv-x="479" d="M10 1149q0 -10 4 -55q2 -33 15 -90q16 -311 2 -687q-2 -18 -3 -63t-1 -68v-110q2 -4 2 -10q4 -12 6 -17q18 -25 67 -29q57 -8 228 11q12 0 20 10t8 22q-2 10 -12 18.5t-20 6.5q-29 -2 -57.5 -4t-51 -4t-31.5 -2q-49 -4 -77 0q-23 18 -23 43v-15q-2 51 2 207q8 156 8 293 q0 39 39 45q55 9 98 25q16 4 19.5 20.5t-9 27.5t-30.5 5q-27 -8 -72 -18q-45 -6 -45 39q-4 176 -10 258q0 2 -4 43q-12 74 -12 98q0 14 2 20q2 0 4 2q20 6 28 9q41 8 91 10q92 8 157 4q29 -4 33 27q0 31 -29 30q-49 6 -136 0t-128 -14q-29 -8 -39 -12q-43 -14 -43 -76z M104 1468q27 -31 76 -67l41 -33q8 -6 17.5 -12t13.5 -10.5t6 -4.5q16 -12 31.5 -5t16.5 22.5t-11 27.5l-39 31l-41 29q-51 45 -65 63q-20 20 -42 1t-4 -42z" />
<glyph unicode="&#xc9;" horiz-adv-x="546" d="M10 170q0 227 10 473q2 43 5.5 108.5t3.5 69.5q2 45 2 88v31q-2 14 -2 61.5t-2 65.5v139v4l8 17l16 10q2 2 8 2h-12q10 0 24.5 1t24.5 1h17q18 -2 58 -3t60 -1q166 -4 199 -14q27 -10 21 -37q-6 -25 -37 -21q-10 4 -64 6q-117 10 -227 11q-37 0 -37 -19v-96q0 -41 2 -66 v-63v-29q0 -4 -1 -25.5t-2 -65.5t-1 -91q-2 -23 9 -34t32 -9q6 2 16 2q2 0 6.5 1t13.5 2t17 1q20 2 49 2q29 4 33 -26q0 -31 -29 -31q-68 -6 -86 -6q-12 0 -32 -4q-31 -2 -35 -41q-8 -254 -8 -412q0 -72 2 -94q0 -4 1 -13.5t3 -13.5v-2q2 -2 4 -2q14 -4 33 -6q59 -8 209 -4 q43 2 71.5 2t28.5 -28.5t-28.5 -28.5t-71.5 -2.5t-111 -2.5q-53 0 -107 5q-61 12 -77 30q-12 22 -13 62q-4 45 -4 96zM248.5 1367.5q-19.5 21.5 1.5 41.5q66 57 127 102q16 12 31.5 5t16.5 -22t-11 -28q-80 -59 -123 -102q-23 -18 -42.5 3.5z" />
<glyph unicode="&#xca;" horiz-adv-x="532" d="M10 1044q0 72 2 95v26v11q2 2 2 4q0 4 2 6q0 10 19 20q9 6 18 6q39 8 43 9q193 27 314 16q29 0 28 -31q-4 -31 -32 -26q-158 4 -302 -17q-18 -2 -32 -6v-10q0 -2 -1 -13.5t-1 -21.5v-68q0 -160 4 -282v-41q6 2 14 0q70 -12 139 -6q29 4 33 -27q0 -31 -29 -31 q-59 -8 -133 2q-25 -9 -24 -43q0 -92 1 -173t2 -116.5t1 -37.5v-25v-47q-4 -61 -4 -104q0 -10 7 -19.5t14 -13.5l7 -4q256 -10 289 -10q29 0 29 -29t-29 -29q-156 0 -295 8q-6 0 -19.5 1t-19.5 3q-2 0 -7 1.5t-7 3.5l-8 4q-16 10 -19 26v11q-2 6 -2 26q0 47 4 125v25l2 47 v90q-2 27 -3 90t-1 96q-2 76 -2 197q0 49 -1 147.5t-3 134.5zM45 1366q43 100 82 141t86 27q35 -10 84 -55q2 -2 7 -6.5t14.5 -13.5t19.5 -17l53 -53q14 -12 10 -27.5t-18.5 -19.5t-28.5 6l-57 49q-74 74 -98 80q-16 6 -35 -15q-29 -33 -66 -121q-6 -16 -22.5 -18 t-27.5 11.5t-3 31.5z" />
<glyph unicode="&#xcb;" d="M16 1206q12 27 84 39q63 8 258 8q47 -2 82 -2q29 4 33 -26q0 -31 -29 -31q-12 -4 -84 0q-195 0 -251 -8q-4 0 -13.5 -1t-13.5 -3l-12 -37q0 -4 3 -31t5 -47q14 -123 14 -147q0 -6 -1 -26t-2 -59.5t-1 -80.5q0 -45 43 -39q29 2 94 2q29 0 29 -29t-29 -29q-57 0 -100 -6 q-37 -2 -37 -43q-6 -346 -4 -415q3 -58 6 -93q4 -31 6 -39q2 0 4 -2q20 -6 31 -8q55 -10 211 -6q45 2 72 2q29 0 28.5 -28.5t-28.5 -28.5q-27 0 -72 -2q-156 -6 -221 6q-59 10 -78 41q-16 37 -16 158q-6 147 4 534q0 45 1 91t2 68.5t1 31.5l-2 15q-2 15 -6 51t-9 75 q-14 117 -2 145zM94 1431.5q0 28.5 29 28.5q12 0 20.5 -8t8.5 -20q0 -29 -29 -29t-29 28.5zM270 1433.5q0 28.5 29 28.5q12 0 20.5 -8t8.5 -20q0 -29 -29 -29t-29 28.5z" />
<glyph unicode="&#xcc;" horiz-adv-x="411" d="M-14 1225q0 -12 9 -20.5t21 -6.5q14 2 45 2t37 -9t4 -34q-23 -487 21 -1042q0 -14 1 -23.5t-8.5 -13.5t-31.5 -4h-68q-29 0 -28.5 -29t28.5 -29q76 0 138 -2q119 -4 135 -4q29 0 28.5 29t-28.5 29h-19h-23h-22q-41 2 -41 43q-45 528 -22 1048v5q2 29 20 34l23 2 q53 0 80 -2q29 -4 32 27q0 31 -28 30q-145 6 -277 0q-12 0 -20 -9t-6 -21zM19 1502.5q-1 -15.5 14 -27.5q22 -15 55 -43q35 -31 59 -48q14 -10 30 -1.5t17 22.5t-14 29q-18 12 -55 43q-39 33 -59 47q-16 10 -31 2t-16 -23.5z" />
<glyph unicode="&#xcd;" horiz-adv-x="432" d="M47 18q0 12 10.5 19.5t22.5 5.5q45 -4 86 -6q-4 33 -6 47q-41 258 -27 762l6 303q2 38 -5 40q3 -1 -38 -1h-4q-29 -4 -33 24.5t25 32.5q113 14 205 6q29 0 28 -30q-4 -31 -32 -27q-55 4 -71.5 2t-16.5 -20q0 -49 -7 -332q-12 -530 35 -793v-8q0 -8 41 -10q8 0 22.5 -1 t20.5 -3q29 0 29 -31q-4 -31 -33 -27q-33 2 -115 6q-86 4 -118 9q-12 0 -19.5 10t-5.5 22zM160.5 1371.5q-19.5 21.5 1.5 41.5l7 6q7 6 21.5 17.5t28.5 25.5q25 20 51 51q20 20 42 1t3 -41q-12 -12 -57 -54q-35 -31 -55 -51q-23 -18 -42.5 3.5z" />
<glyph unicode="&#xce;" horiz-adv-x="548" d="M18 1196q-2 12 6.5 21.5t20.5 9.5q65 3 172 0q160 -6 170 -6q29 0 29 -29t-29 -29q-61 0 -111 2q-12 0 -20 -1t-13 -2t-7.5 -6t-2.5 -7v-11v-12q0 -43 5 -280q2 -143 2 -324q0 -76 -2 -145q-6 -214 10 -318l2 -6q0 -4 39 -4q6 0 23.5 -1t27.5 -1q78 -4 84 -4 q29 0 29 -28.5t-29 -28.5q-49 0 -86 2t-88 2q-100 0 -160 -21q-25 -10 -37 21q-10 25 21 37q57 18 116 20q-2 4 -3 14.5t-1 14.5q-12 102 -6 305q2 70 2 141q0 180 -2 324q-4 238 -4 284q0 16 -1 22.5t-11 12.5t-29 6q-61 0 -86 -2q-12 -2 -21.5 6.5t-9.5 20.5zM104 1337 l48 99q25 43 55 43q23 0 57 -35l28 -28q17 -17 24.5 -25.5t11.5 -10.5q20 -20 0.5 -41.5t-41.5 -3.5l-66 68l-12 12q-2 -2 -6 -10q-4 -6 -45 -92q-8 -16 -24.5 -17.5t-27 12t-2.5 29.5z" />
<glyph unicode="&#xcf;" horiz-adv-x="555" d="M-16 1198q4 -27 34 -22q29 6 88 10q29 2 35 -5t7 -28q0 -2 -0.5 -3t-0.5 -3q2 -86 19 -268q6 -137 2 -281q-16 -295 20 -532q2 -14 2 -23.5t-9 -16t-29 -6.5q-37 -2 -97 -10q-29 -4 -24.5 -32.5t32.5 -24.5q207 29 361 -2q31 -4 35 22q4 31 -23 35q-86 16 -141 17 q-10 0 -18.5 2t-12.5 3t-6 6t-3 7t-1 11v12q-6 63 -16.5 143t-12.5 109.5t-3 98t5 177.5q4 152 -4 289q0 14 -10 137q-6 78 -6 127q0 4 -1 10t-1 9t1 7.5t3 6.5t7 4t12.5 3t19.5 1h59q29 0 29 28.5t-29 28.5q-37 0 -69 2h-80q-86 0 -152 -14q-27 -4 -22 -35zM41 1419.5 q0 -28.5 28.5 -28.5t28.5 28q0 13 -8 21t-20 8q-29 0 -29 -28.5zM235.5 1427.5q0.5 -28.5 29 -28.5t28.5 28q0 13 -8.5 21t-20.5 8q-29 0 -28.5 -28.5z" />
<glyph unicode="&#xd0;" horiz-adv-x="700" d="M-49 635q4 -27 35 -23q35 8 86 15q3 0 9 1q26 3 30 -15q3 -9 4 -25v-84q0 -66 -2 -119q-2 -55 -2 -131q0 -129 16 -250q3 -12 12 -18q14 -10 33 -2q10 6 19.5 21t17.5 22q152 117 273.5 304t121.5 335q0 240 -121 413q-150 221 -383 150q-12 -4 -16 -15q-10 -18 0 -30 q2 -4 14.5 -17.5t12.5 -25.5v-121q0 -115 2 -180v-115q0 -23 -7.5 -31t-33.5 -10q-66 -8 -99 -14q-27 -4 -22 -35zM168 1145q0 41 39 41q133 0 227 -139q113 -164 113 -381q0 -121 -96.5 -277t-225.5 -272q-20 -16 -35.5 -10t-17.5 32q-2 94 0 232v133v84v9v8v7q0 4 1 6.5 t4 5.5t8 4t11.5 2t16.5 1q20 0 46 1t42 2t27 1q29 0 28 31q-4 31 -32 26l-109 -4q-18 0 -24.5 1t-12.5 10.5t-6 31.5q0 287 -4 414z" />
<glyph unicode="&#xd1;" horiz-adv-x="636" d="M4 1157q-12 27 13.5 39.5t39.5 -12.5l-8 14l29 -33q66 -92 205 -334l63 -107q37 -65 49 -87q35 -54 45 -45q9 13 9 61q-2 72 -25 303q-14 145 -14 236q0 29 28.5 29t28.5 -29q0 -98 14 -229q27 -264 29 -457q0 -289 31 -475q4 -29 -23 -33q-31 -4 -35 25q-23 139 -32 397 q0 10 -4.5 21.5t-9.5 17.5l-5 6q-27 39 -201 338l-92 155q-48 69 -49 9q10 -213 -6 -648q-8 -182 -8 -258q0 -29 -29 -28.5t-29 28.5q0 52 7 258q18 455 8 644q-10 154 -29 194zM37 1270q27 88 70 105.5t104 -15.5q47 -27 85 -19.5t83 64.5q10 14 26.5 11t22.5 -17.5 t-4 -30.5q-57 -74 -118.5 -85t-119.5 22q-43 23 -58 15.5t-34 -67.5q-10 -24 -37 -18q-25 6 -20 35z" />
<glyph unicode="&#xd2;" horiz-adv-x="600" d="M2 588q8 -236 67.5 -409t159.5 -220q51 -25 99.5 8t77 86t47.5 113q39 139 46 384.5t-16 403.5q-8 106 -28 168q-55 168 -197 168q-45 0 -63.5 -5t-44.5 -30q-78 -68 -117 -253t-31 -414zM61 590q-8 215 27 390t98 230q20 16 29.5 19.5t42.5 3.5q98 0 141 -129 q13 -35 19 -70l12 -88l12 -149q10 -158 -3 -332t-44 -283q-20 -76 -62 -131t-79 -39q-80 37 -132 197t-61 381zM161.5 1529.5q-14.5 -26.5 12.5 -40.5q31 -16 62 -39q57 -39 65 -43q16 -10 30.5 -1t13.5 24.5t-15 25.5l-62 43q-49 33 -65 43q-27 14 -41.5 -12.5z" />
<glyph unicode="&#xd3;" horiz-adv-x="600" d="M-4 752q-14 -252 39 -460t192 -269q102 -47 160 6q76 72 105 428q20 315 2 510q-18 143 -48 200q-41 84 -105.5 110t-150.5 -20q-174 -100 -194 -505zM53 748q27 377 166 460q113 59 176 -67q25 -49 38 -159t13 -155q-4 -219 -14 -364q-23 -330 -86 -393q-29 -25 -94 6 q-115 53 -163 246.5t-36 425.5zM170 1382.5q20 -20.5 41 -0.5q59 59 123 107q14 10 11 26.5t-17.5 22.5t-30.5 -4q-64 -48 -127 -111q-20 -20 0 -40.5z" />
<glyph unicode="&#xd4;" horiz-adv-x="665" d="M2 596q-8 -209 41 -350q51 -139 160 -217q61 -45 129.5 -38t124.5 72q70 80 92 384.5t12 449.5q0 92 -29 193q-31 119 -104.5 159.5t-146 19t-125.5 -78.5q-57 -68 -80 -121q-37 -90 -45 -133l-13 -66q-12 -61 -12 -137q-4 -49 -4 -137zM59 592q0 96 7 139q0 2 1 10.5 t2 23.5t1 30q3 52 6 67l12 62q6 37 16 63q9 22 25 55q16 43 72 107q55 61 127 65q192 8 184 -469q0 -526 -100 -645q-80 -90 -174 -22q-94 61 -138 188q-47 131 -41 326zM139 1362q-12 -27 13.5 -40t40.5 11q47 96 61 115q2 2 7 5t16.5 8t15.5 -1q2 -2 7 -6t9 -8 q14 -14 37 -33l57 -49q14 -12 30 -5t17.5 22.5t-10.5 27.5l-55 49q-4 4 -15.5 13.5t-15.5 13.5l-12 12q-8 8 -13 11t-13.5 8.5t-13.5 7.5t-13 4t-15 2q-35 0 -57 -31t-78 -137z" />
<glyph unicode="&#xd5;" horiz-adv-x="708" d="M29 514q8 -182 78.5 -314t207.5 -163q104 -23 158 12q98 68 125 357q14 137 14 385q0 44 -18 210q-8 72 -37 127q-102 188 -260 127q-59 -23 -113.5 -83t-87.5 -138q-82 -199 -67 -520zM86 518q-14 299 64 492q63 150 169 192q109 41 185 -102q18 -37 26 -72 q25 -115 25 -197v-98q-2 -352 -51 -524q-27 -86 -61.5 -109.5t-114.5 -5.5q-111 25 -172.5 142.5t-69.5 281.5zM113 1337q-8 -16 2 -28.5t26.5 -12.5t24.5 17q33 66 64.5 80t72.5 -4q63 -31 110.5 -24t86.5 69q10 16 2 30.5t-23.5 15.5t-27.5 -14q-25 -39 -49.5 -42 t-79.5 20q-59 25 -111.5 2t-97.5 -109z" />
<glyph unicode="&#xd6;" horiz-adv-x="677" d="M0 567q4 -434 207 -561q98 -61 172 -41q137 43 184 402q37 274 17 438q-17 240 -119 375q-78 98 -166 100t-166 -111q-59 -96 -94 -261t-35 -341zM59 567q-2 168 32 327t87 243q35 59 74 75.5t77 -2t85 -65.5q81 -82 110 -416q6 -172 -16.5 -338t-58.5 -256 q-37 -96 -87 -112q-43 -14 -122 32q-180 111 -181 512zM217 1441.5q0 -28.5 28.5 -28.5t28.5 29q0 12 -8 20t-20 8q-29 0 -29 -28.5zM350 1450q0 -29 29 -29t29 29q0 12 -8.5 20.5t-20.5 8.5q-29 0 -29 -29z" />
<glyph unicode="&#xd7;" horiz-adv-x="555" d="M73 799.5q-1 -15.5 11 -27.5q25 -18 104 -98q22 -29 2 -60l-108 -143q-12 -16 -5 -31.5t22.5 -16.5t27.5 11l96 127q16 23 23.5 27t13.5 0t23 -27q59 -82 127 -143q23 -18 42 3t-1 42q-51 47 -158 178q-4 6 16 35l86 110q16 25 -7 42.5t-42 -5.5l-70 -94q-18 -25 -26 -26 t-23 16l-8 8q-57 57 -98 90q-16 12 -31.5 5t-16.5 -22.5z" />
<glyph unicode="&#xd8;" horiz-adv-x="661" d="M6 698q-25 -346 55 -520q76 -166 199 -201q141 -35 229 152q51 106 65 408.5t-19 435.5l-13 51q-23 74 -52.5 113t-84.5 88q-135 106 -242 -25q-113 -137 -137 -502zM66 451q-4 156 0 243q25 344 122 469q41 47 80 47q37 2 78 -30.5t72 -85.5q27 -47 35 -77t16 -112 q2 -16 -72 -110l-69 -99q-63 -90 -150 -188q-8 -10 -29.5 -34.5t-31.5 -37.5q-14 -18 -21.5 -26.5t-14.5 -13.5t-9 1t-4 18.5t-2 35.5zM94 262q-8 27 6 53q43 68 138 172q70 78 137 175q51 73 78 106q12 16 24 22.5t21.5 -3t9.5 -37.5q0 -444 -72 -596q-63 -143 -162 -119 q-43 9 -86 55q-68 70 -94 172z" />
<glyph unicode="&#xd9;" horiz-adv-x="552" d="M21.5 742.5q13.5 -353.5 52.5 -494.5q29 -92 108 -176q119 -119 205 -27q41 47 57 217q12 131 13 348q0 143 -6 361q-6 215 -6.5 243.5t-29 28.5t-28.5 -28.5t6 -243.5q6 -217 6 -361q0 -221 -14 -342q-6 -77 -18 -123q-8 -43 -25 -59q-43 -47 -117 27q-70 70 -94 151 q-39 133 -52.5 480t21.5 458q10 25 -18 37q-27 10 -39 -20q-35 -123 -21.5 -476.5zM151.5 1454q-4.5 -14 6.5 -31q2 -2 45 -51q18 -23 53 -53q12 -12 27.5 -5t18.5 21.5t-9 28.5q-10 8 -45 47q-12 12 -23.5 25.5t-17.5 19.5l-8 8q-12 12 -27.5 8t-20 -18z" />
<glyph unicode="&#xda;" horiz-adv-x="544" d="M16.5 621q8.5 -302 34.5 -394q27 -86 70 -153q72 -104 159 -82t123 151q39 139 43 328q2 127 -4 285q-10 176 -6 325q2 84 2 162q0 29 -28.5 29t-28.5 -29q0 -10 -1 -31.5t-2 -59.5t-1 -71q-4 -133 6 -329q2 -29 3 -64t3 -56.5t2 -33.5q0 -147 -14 -270 q-20 -145 -41 -205t-68 -72t-90 44.5t-69 148.5q-27 84 -34 381t3 411q4 78 8 111q6 41 12 57q8 16 -2 29.5t-26.5 12.5t-24.5 -17q-16 -35 -27 -189q-10 -117 -1.5 -419zM170 1332.5q8 -15.5 22.5 -16.5t28.5 13q37 53 146 144q14 12 11 28.5t-17.5 21.5t-30.5 -5 q-109 -88 -158 -156q-10 -14 -2 -29.5z" />
<glyph unicode="&#xdb;" horiz-adv-x="557" d="M35 1126q6 -74 6 -94v-147q-2 -186 4 -322q8 -164 47 -321q33 -129 89.5 -206t144.5 -48q39 16 61 59q27 49 41 174q6 49 6 64q12 115 17 182q6 123 6 418q6 68 6 166t-10 161q-4 29 -33 25t-25 -33q8 -66 8 -153q0 -47 -2 -86t-2 -80q-2 -27 -2 -180q-2 -248 -18 -388 q-4 -37 -4 -38q0 -4 -1 -8.5t-1 -8.5q0 -6 -1 -18.5t-3 -16.5q-10 -106 -35 -153q-12 -25 -29 -29q-47 -16 -88 46.5t-67 166.5q-37 145 -46 309q-8 131 -6 316v149q0 6 -1 19.5t-2 37t-1 44.5q-4 69 -2 92q2 10 -6 20t-18 12q-12 0 -22.5 -8t-10.5 -20q-2 -39 0 -103z M131 1356q-4 -29 24.5 -33t32.5 25q10 61 21 79q2 2 4 3q10 -2 37 -29q18 -18 53 -62q12 -14 28.5 -11t21.5 17.5t-5 30.5l-55 66q-33 33 -60 43q-45 14 -73 -25q-18 -31 -29 -104z" />
<glyph unicode="&#xdc;" horiz-adv-x="540" d="M35 1219q-47 -537 35 -908q18 -90 51 -172q57 -135 135 -137q84 -8 133 129q27 74 35 172q18 160 20 311q4 221 -16 592q0 29 -31 29q-31 -4 -26 -33q10 -197 12 -305q12 -305 -16 -586q-12 -102 -33 -161q-16 -49 -37 -70q-14 -20 -37 -21q-43 4 -84 103q-27 61 -49 162 q-80 374 -35 890q4 29 -26 33q-31 0 -31 -28zM137 1419.5q0 -28.5 29 -28.5t29 28q0 13 -8.5 21t-20.5 8q-29 0 -29 -28.5zM262 1427.5q0 -28.5 28.5 -28.5t28.5 28q0 13 -8 21t-20 8q-29 0 -29 -28.5z" />
<glyph unicode="&#xdd;" horiz-adv-x="600" d="M-2 1207.5q-6 -13.5 2 -29.5q53 -74 152 -258q90 -170 155 -263q2 -2 3 -6t4 -17t-1 -22q-51 -145 -137 -376q-9 -25 -31 -74q-49 -106 -59 -182q-4 -29 24.5 -33t32.5 24q8 49 58 164q10 23 32 80q0 2 35 100l45 123l43 123q29 84 45 141l39 129q27 88 35 138 q29 143 29 225q0 29 -29 29t-29 -29q0 -137 -81 -420q-13 -43 -23 -43q-12 0 -35 33q-41 63 -102 184q-96 178 -156 262q-10 16 -27.5 13.5t-23.5 -16zM270 1317q-4 -31 23 -35q14 0 20 4q8 4 23 41q8 21 14 33l15 24q23 37 36 56q10 16 2 30.5t-23 15.5t-28 -13l-16 -27 l-6 -10q-20 -31 -22.5 -33t-5.5 -7t-3 -7q-20 -43 -29 -72z" />
<glyph unicode="&#xde;" horiz-adv-x="673" d="M51 1182q29 -215 35 -570q6 -414 23 -575q0 -12 9 -20.5t21 -6.5q12 0 20.5 9.5t6.5 21.5q-13 131 -19 324q0 12 1.5 19t2.5 12t4 7.5t7 -0.5q10 -4 20 0q28 9 86 25q94 25 101 27q127 39 180 104q37 45 22 123q-18 92 -76.5 134t-137 40t-175.5 -18q-41 -6 -45 36 q-8 164 -28 316q-4 29 -33 24.5t-25 -32.5zM143 733q-2 37 37 45q135 33 224.5 12.5t109.5 -120.5q10 -47 -10 -74q-37 -49 -152 -84q-20 -6 -96 -27q-59 -14 -94 -24l-8 -4q-4 -4 -6 14l-1 21v45q-2 39 -2 77q-2 43 -2 119z" />
<glyph unicode="&#xdf;" horiz-adv-x="745" d="M10 743q0 -31 15 -188q23 -371 22 -561q0 -29 28.5 -29t28.5 29q0 195 -22 565q0 20 -6 94q-6 71 -6 92v89q12 143 106 253.5t211 92.5q88 -16 128 -109.5t-1 -177.5q-18 -47 -63 -93t-93 -71q-24 -10 -59 -18l-25 -9q-6 -2 -14 -10t-9 -20.5t7 -20.5q29 -31 82 -16 q20 4 27 6q27 6 49 -2q59 -27 88 -66q74 -84 86 -206q14 -129 -54.5 -204t-232.5 -112q-27 -4 -22 -35q4 -27 34 -22q184 43 267.5 133t66.5 246q-25 221 -184 307q-37 20 -4 47q68 55 106 141q23 55 23 111q0 63 -21 113q-45 123 -170 145q-147 27 -260.5 -103t-126.5 -296 q-2 -49 -2 -95z" />
<glyph unicode="&#xe0;" horiz-adv-x="593" d="M18 16q-2 -12 6.5 -21t20.5 -9q12 -2 21.5 6t9.5 20q8 92 14 326q4 199 8 276q2 41 45 37q76 -10 172 -10q19 -12 19 -43v-47q-4 -252 19.5 -388t99.5 -183q16 -10 30.5 -2t15.5 23t-14 28q-57 35 -76.5 158.5t-17.5 363.5q2 434 -9 511q-11 73 -42 134q-47 76 -94 68.5 t-88 -74.5q-55 -92 -76 -191q-41 -229 -51 -675q-6 -200 -13 -308zM109 715q-3 0 0 43q12 123 30 229q18 92 68 172q18 29 30.5 39t24.5 3t25 -34q49 -94 49 -426q0 -45 -6 -45q-151 3 -219 19h-2zM178 1490q-6 -13 2 -30q43 -59 119 -104q16 -10 30.5 -1t13.5 24.5 t-15 25.5q-62 39 -99 88q-12 16 -28.5 13t-22.5 -16z" />
<glyph unicode="&#xe1;" d="M14 227q6 84 9 90q2 35 2 355q0 217 18 360q12 100 76 176q90 104 192 15q66 -61 88.5 -197.5t22.5 -382.5q0 -332 6 -435.5t39 -178.5q8 -18 -3 -31.5t-27.5 -11.5t-22.5 18q-37 84 -44.5 196.5t-7.5 436.5v-27q0 23 -8 31t-35 6q-102 -12 -192 -2q-25 2 -34 -7t-9 -32 q0 -207 -4 -293q0 -25 -6 -92q-12 -131 8 -198q4 -29 -21 -35q-27 -6 -36 18q-23 84 -11 221zM84 750q0 -14 2 -22.5t7 -13.5t10.5 -6t17.5 -3q90 -6 190 2q33 2 42 12t9 33q-6 350 -92 426q-55 53 -106 -9q-55 -63 -64 -145q-16 -152 -16 -274zM133 1387.5q-2 15.5 10 27.5 q4 2 13.5 10.5t18.5 15.5t18 15l59 47q28 22 49 43q23 18 42 -3t-1 -42q-14 -14 -51 -43l-60 -47l-51 -41q-14 -12 -29.5 -5t-17.5 22.5z" />
<glyph unicode="&#xe2;" horiz-adv-x="555" d="M20 223q-9 -94 3 -203q4 -27 34 -22q27 4 23 35q-8 57 -8 90t8 92q6 68 6 98q8 213 10 291q4 41 45 41q70 -2 158 -2q41 0 41 -41q0 -238 12.5 -365.5t50.5 -209.5q8 -16 24.5 -17.5t27 12t2.5 29.5q-37 80 -47.5 203t-10.5 414q0 262 -14 379.5t-66 164.5 q-59 49 -104 36t-76 -77q-53 -96 -84 -356q-14 -137 -20 -338q-4 -123 -15 -254zM106 745q29 289 84 400q20 39 40 45t49 -19q35 -33 47 -133t14 -293q0 -41 -14 -40q-32 -3 -179 -3q-45 0 -41 43zM119 1427q-8 -16 2 -28.5t26.5 -12.5t24.5 17q20 45 41 61q16 8 31 0 q10 -4 43 -43q4 -4 12 -13t14 -15q20 -20 41.5 -1t3.5 42l-57 59q-37 29 -59 35q-63 12 -123 -101z" />
<glyph unicode="&#xe3;" horiz-adv-x="563" d="M-4 29q-2 -12 6 -21.5t21 -9.5q12 -2 21 6t9 21q10 117 21 467v104q4 37 30 47q59 27 207 31q41 0 41 -43q0 -35 1 -78t2 -70.5t1 -46.5q6 -240 54 -434q4 -27 36 -22q25 4 21 34q-55 231 -55 633q-4 221 -11 297q-18 309 -170 318q-150 10 -188 -299q-23 -186 -29 -469 q-6 -342 -18 -465zM39 1358q-8 -16 2 -29.5t26.5 -12.5t24.5 17q25 57 47.5 65.5t57.5 -20.5q53 -41 96 -30.5t74 92.5q8 29 -20 38t-38 -18q-18 -51 -31.5 -54t-50.5 24q-125 80 -188 -72zM82 745q25 293 55 371q35 90 89.5 87t86.5 -97q23 -63 37 -332q2 -29 -12 -35 t-57 -8q-97 -6 -156 -20q-23 -8 -34 -4t-9 38z" />
<glyph unicode="&#xe4;" horiz-adv-x="552" d="M-14 39q-10 -25 20 -37q25 -10 37 21q14 41 20 100q8 70 9 219q2 12 8 260q2 23 4 33l2 10q78 10 213 12q41 0 41 -26v-29v-67q-2 -20 -2 -58q-4 -322 65 -432q8 -16 25.5 -15t25 14t-0.5 30q-59 104 -58 401q6 147 6 250q0 143 -12 209q-2 4 -8 70q-6 57 -12 88 q-29 121 -95 145q-84 29 -145 -60.5t-78 -199.5q-27 -150 -31 -434q-3 -129 -6 -197q-2 -23 -2 -100q-2 -131 -26 -207zM86 750q6 115 23 219q14 84 57 155.5t88 55.5q49 -16 70 -183q6 -68 8 -71q10 -68 10 -170q0 -29 -12.5 -35t-44.5 -6q-144 -4 -158 -6q-23 -2 -33 5 t-8 36zM149.5 1419.5q0.5 -28.5 29 -28.5t28.5 28q0 13 -8.5 21t-20.5 8q-29 0 -28.5 -28.5zM274 1431.5q0 -28.5 29 -28.5t29 29q0 12 -8.5 20t-20.5 8q-29 0 -29 -28.5z" />
<glyph unicode="&#xe5;" horiz-adv-x="614" d="M2 4q0 -29 28.5 -29t28.5 29q0 61 13 160q14 150 24 330q4 76 6 120q2 39 41 41q14 0 89 1t135 1q8 0 10 2v-18q-8 -162 -10 -229q-10 -262 100 -398q12 -14 28.5 -11t21.5 17.5t-5 30.5q-45 57 -68 156q-6 27 -10 52.5t-6 57t-3 49t1 61.5t2 58.5t4 75t4 76.5 q18 231 7 367.5t-78 203.5q-59 57 -112.5 50t-96.5 -66q-39 -53 -61.5 -131t-28 -128t-11.5 -145q-20 -258 -26 -456q-8 -86 -17 -162q-10 -113 -10 -166zM113 756q6 152 24.5 245t65.5 156q57 74 121 10q47 -49 59 -157.5t0 -251.5q0 -33 -2 -38t-14 -5h-215h-22 q-9 0 -13 9t-4 32zM205 1452q0 -6 4 -22q2 -12 14 -33q29 -41 82 -37q49 2 83 40t24 93q-8 47 -41 73.5t-74 22.5q-78 -12 -90 -110q-2 -9 -2 -23v-4zM264 1454v2q0 14 6 41q8 29 33 33q41 4 51 -45q4 -29 -11 -47.5t-42 -20.5q-33 0 -37 37z" />
<glyph unicode="&#xe6;" horiz-adv-x="862" d="M-14 524q6 10 13 23.5t11 18.5t8.5 12.5t8.5 12.5t7 10t12 13.5t14.5 13.5t21.5 19q63 57 154 58q72 0 112 -48q25 -27 49 -4q43 37 105.5 59.5t129 17.5t103.5 -50q55 -74 16.5 -181.5t-137.5 -162.5q-82 -47 -174 -29q-47 10 -47 -35q-14 -190 21 -233q20 -29 86.5 -24 t109.5 42q41 39 72 111q6 18 22.5 20t27.5 -11t3 -30q-72 -180 -235 -190q-94 -8 -135 45q0 4 -5 8q-2 4 -38 -18q-78 -49 -164 -29.5t-105 103.5q-20 80 18 178t105 149q82 63 162 10q2 0 2 -2q4 129 -18.5 187.5t-85.5 58.5q-80 0 -150 -76q-12 -14 -27 -43 q-35 -59 -61.5 -44.5t-11.5 40.5zM109.5 82q15.5 -59 74.5 -66q83 -5 146 58q2 2 4 2q0 12 -2 35q-2 20 -2 67q0 41 8 164q-6 2 -14 5l-12 5l-5 2h-2q-43 29 -95 -10t-83 -121q-33 -82 -17.5 -141zM395 522q6 -59 4 -127q0 -18 33 -26q88 -23 160 20t102 123q33 90 -10 135 t-156 10q-98 -29 -125 -92q-10 -18 -8 -43z" />
<glyph unicode="&#xe7;" d="M-12 854q8 70 51 172t96 172q49 63 100.5 85t102.5 -8t90 -114q25 -53 32 -83.5t1 -76.5q0 -12 -10.5 -20t-20.5 -6q-12 0 -20.5 10t-6.5 21q6 53 -28 131q-47 96 -96 96q-41 0 -94.5 -66.5t-92.5 -165.5q-57 -141 -57 -376q-4 -266 86 -437q31 -57 94 -106 q39 -33 72 -39h8q23 0 33 6q12 8 22 23q27 37 64 190q4 27 37 23q25 -4 20 -35q-41 -166 -74 -211q-25 -37 -57 -49q-35 -15 -45 -33l-14 -23q-12 -31 28 -45q45 -12 70 -30q41 -29 30.5 -82t-77.5 -72q-20 -6 -92 -10q-12 -2 -21.5 6t-9.5 20q-2 12 6 21.5t21 9.5 q90 6 106 21q6 6 6 16t-3 17l-3 8q-20 16 -98 28l-21 4l-6 2q-16 0 -22 19q-4 14 -2 22l4 9q0 2 2 5t2 5q2 6 14 31q8 12 12 20q18 33 -16 55q-6 4 -17.5 12.5t-15.5 10.5q-78 61 -118 138t-62 208q-39 205 -10 471z" />
<glyph unicode="&#xe8;" horiz-adv-x="546" d="M23 1028q2 -33 2 -51q0 -114 18 -332q20 -231 20 -328q0 -16 -6 -145v-86q4 -49 13 -63q20 -27 75 -31q53 -4 103 -4q23 0 104 4q41 2 70 2t29 28.5t-29 28.5t-70 -2t-104 -2q-51 0 -96 4q-6 0 -12.5 1t-11.5 2t-7 1q0 2 -2 2v2q-2 6 -2 29v82q0 51 2 86t2 61 q0 147 -19 332q-2 12 6.5 15.5t28.5 3.5h6h80q29 0 29 28.5t-29 28.5h-88q-41 0 -43 39q-10 139 -10 213v51q-4 109 4 152q6 20 18 22l27 2q170 0 275 -16q29 -4 32.5 24.5t-24.5 32.5q-119 18 -285 19q-53 0 -74 -13q-25 -14 -28 -61q-8 -51 -4 -162zM99 1524.5 q-17 -23.5 5 -41.5q8 -4 43 -29q27 -25 46 -35q39 -31 96 -53q16 -8 29.5 3t11.5 27.5t-21 22.5q-59 27 -84 47l-43 33q-37 29 -41 33q-25 16 -42 -7.5z" />
<glyph unicode="&#xe9;" horiz-adv-x="552" d="M25 1079q0 -49 2 -82q2 -35 2 -59q0 -94 8 -371q4 -242 -2 -368q0 -16 -2 -35q-4 -37 -4 -47q-4 -72 8 -92q20 -47 166 -48q43 0 65 3q51 4 74 6q35 0 45 12q8 6 8 20q-4 31 -33 27q-16 0 -34 -2q-117 -6 -125 -6q-53 0 -84 6q-8 0 -17 4q-6 2 -10 2l-2 2q-4 27 -4 45v19 q6 74 6 80q8 133 2 372v43q0 18 5 27.5t12.5 11.5t23.5 2q37 0 55 2q29 0 29 31q-4 31 -33 27q-18 -2 -57 -2q-20 0 -29.5 7t-9.5 36q0 39 -2 101t-2 85v59q-2 33 -2 84q0 59 2 78q0 20 2 27l2 4l19 4q2 0 8 1t10 1q53 4 109 4h112q70 -2 82 0q10 0 21 10q8 8 8 21 q-4 29 -33 29q-12 -3 -80 0q-115 0 -225 -5q-68 -12 -80 -28q-10 -18 -14 -64q-2 -20 -2 -84zM144.5 1379.5q17.5 -23.5 41.5 -7.5q16 16 60 45q9 6 24 19q25 18 62 32q16 6 18 22.5t-11 28t-32 3.5q-39 -16 -69 -37q-6 -4 -16.5 -10.5t-12.5 -8.5l-29 -24q-27 -18 -30 -21 q-23 -18 -5.5 -41.5z" />
<glyph unicode="&#xea;" horiz-adv-x="540" d="M25 1126q0 84 41 103q15 6 43 12q84 12 309 2q29 0 28 -31q-4 -31 -32 -26q-180 4 -189 4q-76 -4 -106 -8q-4 0 -8.5 -1t-8.5 -1q-18 -2 -18 -41v-11q0 -47 12 -141q8 -63 8 -98q4 -86 5 -139q0 -41 2 -41h157q29 0 29 -29t-29 -29h-118q-41 0 -41 -41q0 -68 -3 -116 q-2 -76 -2 -177v-30q0 -45 -4 -111v-82q0 -20 2 -26l4 -2q8 -2 29 -7q25 -6 92 -10q70 -4 168 -4q29 0 29 -28.5t-29 -28.5q-195 0 -270 12q-66 12 -74 33q-8 22 -8 28l-2 31q0 57 4 144q0 39 2 53v28q0 102 2 181v209q0 106 -2 153q0 8 -1 24.5t-1 24.5q0 2 -1 6.5t-1 8.5 q-2 23 -6 59q-12 90 -12 143zM55 1345.5q-6 14.5 4 30.5l74 101q33 43 59.5 43t55.5 -43q47 -74 61 -88q16 -25 -7 -42.5t-42 5.5q-18 31 -35 53l-6 8q-8 10 -17 17.5t-16 9.5l-6 2l-76 -103q-10 -14 -26.5 -11t-22.5 17.5z" />
<glyph unicode="&#xeb;" horiz-adv-x="540" d="M39 92q0 -10 1 -24.5t1 -24.5v10q0 -6 2 -8l6 -14q18 -20 76 -25q160 -6 278 8q27 0 27 33q-4 29 -35 25q-119 -12 -266 -6q-31 16 -31 43v6q0 88 4 239q2 37 2 90v43l-1 17q-1 16 -2 47t-1 65q0 27 8.5 35t30.5 11q10 2 37 5t45 7q29 4 25 32.5t-33 24.5 q-14 -2 -37.5 -5t-34.5 -5q-23 -4 -33 4t-10 35v344q4 37 4 47q2 10 4.5 20.5t2.5 12.5q0 6 2 8q6 2 43 2q45 2 135 -5t117 -18q29 -8 38 20t-18 38q-33 12 -172 22q-141 10 -176 -8q-16 -10 -29 -55q-4 -25 -8 -82q-12 -158 2 -465q0 -39 1 -76t2 -55t1 -23v-43 q-2 -23 -2 -90q0 -16 -1 -50t-3 -48v-141q0 -4 -1 -12.5t-1 -10.5zM104 1419.5q0 -28.5 29 -28.5t29 28q0 13 -8.5 21t-20.5 8q-29 0 -29 -28.5zM268 1427.5q0 -28.5 29 -28.5t29 28q0 13 -8.5 21t-20.5 8q-29 0 -29 -28.5z" />
<glyph unicode="&#xec;" horiz-adv-x="530" d="M-8 1198q0 -12 9 -20.5t22 -6.5q52 6 122 7h9q32 0 33 -8v-11q0 -7 -1 -12q0 -4 -4 -52t-7 -98.5t1 -117.5q4 -127 4 -129q0 -37 -4 -332q-6 -225 -6 -334v-6q0 -4 -10 -12.5t-31 -8.5q-35 -2 -96 -2q-29 0 -29 -28.5t29 -28.5q66 0 315 12q29 0 29 31q-4 31 -33 27 l-72 -5h-21h-13q-7 0 -9 4l-2 3v6v8q0 109 6 334q4 295 5 332q0 6 -5 133q-6 117 11 258l4 37q102 -2 160 -2q29 0 28.5 28.5t-28.5 28.5q-123 0 -193 4q-125 0 -197 -8q-12 0 -20 -9.5t-6 -21.5zM110 1442.5q-1 -15.5 11 -27.5l31 -24q20 -14 26 -19q2 0 5 -2t5 -2l35 -20 q27 -12 40 13t-11 40l-37 18q-2 2 -8 4t-6 4l-13 9l-30 24q-16 12 -31.5 5t-16.5 -22.5z" />
<glyph unicode="&#xed;" horiz-adv-x="434" d="M-20 16q-2 -12 6 -21t20 -9q158 -14 309 8q29 4 25 32.5t-33 24.5q-55 -8 -90 -10q-39 -2 -43 41q-6 229 -6 352q0 43 4 395q4 303 4 355q0 41 41 41q63 4 96 8q29 4 25 32.5t-33 24.5q-66 -10 -135 -6h-74h-69q-29 0 -29 -28.5t29 -28.5h49q43 -2 43 -41q0 -53 -4 -357 q-6 -264 -6 -395q0 -123 6 -352q4 -43 -41 -43q-10 2 -32 3t-32 1q-12 2 -21 -6t-9 -21zM134 1406.5q19 -21.5 42 -3.5l82 76q20 20 1 41.5t-42 3.5l-82 -76q-20 -20 -1 -41.5z" />
<glyph unicode="&#xee;" horiz-adv-x="559" d="M12 1212q0 -12 9.5 -20t21.5 -6q35 2 119 2q43 0 39 -43q-2 -16 -2 -53q-2 -98 8 -207q4 -88 2 -391q0 -94 -1 -187.5t-2 -141.5t-1 -63q-2 -2 -4 -7t-13.5 -11t-25.5 -4h-103q-12 2 -21 -6t-9 -21q-2 -12 6 -21t20 -9q181 -9 381 0q29 0 29 30q-2 12 -11.5 19.5 t-21.5 5.5h-127q-51 -2 -47 10q4 8 4 14q0 14 1 62.5t2 141.5t1 188q2 303 -2 391q0 8 -4 98t-4 115q0 35 2 53q4 37 45 37h127q29 0 29 28.5t-29 28.5q-362 0 -391 -2q-12 0 -20.5 -9t-6.5 -22zM78 1352.5q6 -15.5 20.5 -18.5t26.5 7l92 101l8 8l23 -27q43 -47 102 -90 q14 -10 29.5 -2t16.5 22.5t-13 28.5q-55 39 -90 80l-23 27q-18 18 -26 22q-33 13 -70 -28l-90 -101q-12 -14 -6 -29.5z" />
<glyph unicode="&#xef;" horiz-adv-x="520" d="M0 1216.5q0 -28.5 29 -28.5h106q41 0 41 -41t4 -262q4 -270 4 -307q0 -72 -2 -127.5t-2 -112.5q-2 -127 8 -244q-14 -16 -45 -16h-112q-29 0 -29 -29t29 -29q252 0 321 7q29 0 29 30q-4 31 -33 27q-10 -2 -29.5 -3t-29.5 -1h-19q-8 0 -14 1t-8 3t-2 4v10q-10 96 -6 238 q0 57 2 113v129q0 35 -4 309q-4 221 -5 262q0 37 41 41q45 0 123 4q29 0 29 31q-4 31 -33 26q-139 -6 -364 -6q-29 0 -29 -28.5zM47 1403q0 -29 28.5 -29t28.5 29q0 12 -8 20.5t-20 8.5q-29 0 -29 -29zM247.5 1419.5q0.5 -28.5 29 -28.5t28.5 28q0 13 -8 21t-21 8 q-29 0 -28.5 -28.5z" />
<glyph unicode="&#xf0;" horiz-adv-x="624" d="M-4 1214q-4 -31 22 -34q59 -12 127 -70q31 -27 2 -59q-37 -43 -61 -82q-10 -16 -1 -31.5t24.5 -15.5t25.5 14q18 33 49 70q31 35 58 -2q102 -133 153 -267l17 -49l8 -47q-227 37 -342 -90q-94 -111 -79 -279t118 -282q72 -80 153.5 -90.5t143 38t88.5 130.5q57 178 0 493 q-27 139 -72 245.5t-141 233.5l-4 4q-25 35 6 60q2 0 21.5 14.5t29.5 22.5q16 10 13 27.5t-16 23.5t-30 -2q-53 -39 -61 -45q-27 -23 -58 2q-82 76 -159 90q-31 4 -35 -23zM59 272q-18 156 67 245t261 71l37 -4q14 -4 20 -35q20 -123 25 -238q10 -303 -119 -342 q-100 -37 -188 58.5t-103 244.5z" />
<glyph unicode="&#xf1;" horiz-adv-x="530" d="M4 1366q53 70 101.5 77t105.5 -28q39 -20 65 -14q47 10 107 84q12 14 28.5 11t21.5 -17.5t-5 -30.5q-70 -86 -130 -103.5t-116 17.5q-43 29 -67.5 23.5t-61.5 -56.5q-18 -23 -41.5 -5.5t-7.5 42.5zM23 4q0 45 4 414q2 182 2 411v273q0 6 -2 43t-2 58.5t2 35.5l6 12 q16 12 35 4q9 -3 12 -12q4 -4 4 -14q0 -12 2 -23v-16q8 -72 18 -107q18 -74 78 -274q139 -463 144 -487q6 -31 18 -80q2 -6 7 -23.5t10 -32.5l6 -14q-6 172 -7 250q0 2 -4 115l-4 122q-8 143 -4 234q0 141 10 235q2 57 13 113q4 29 32.5 25t24.5 -33q-18 -133 -18 -232 q0 -18 -1 -55t-3 -53q-4 -88 4 -234q0 -2 4 -120q6 -121 8 -236q0 -98 2 -127q0 -4 2 -6v-10q0 -10 2 -17q2 -20 2 -53q0 -109 -55 -96q-14 4 -19 10l-4 4q0 4 -2 6l-4 9q0 2 -3 11l-5 15l-25 82q-39 137 -45 178q-4 27 -139 477q-26 100 -34.5 102.5t-8.5 -59.5 q0 -229 -2 -411q-4 -369 -4 -414q0 -29 -28.5 -29t-28.5 29z" />
<glyph unicode="&#xf2;" horiz-adv-x="563" d="M-16 623q8 -143 17 -225.5t32.5 -167.5t66.5 -135t111 -77q109 -43 162 29q51 68 74.5 198t20.5 256t-3 249q-2 47 -6 100t-7 86t-3 35q0 10 -7.5 63t-13.5 68q-41 102 -103.5 137t-134.5 4q-57 -25 -104 -89t-72 -146q-47 -160 -30 -385zM43 615.5q-8 191.5 29 375.5 q18 66 59 123q84 117 162 76q49 -31 82 -109q8 -27 12 -75q0 -10 1 -34t3 -32q12 -121 15 -160q2 -61 2 -143v-152q-8 -309 -80 -401q-29 -37 -92 -12q-113 45 -160 235q-25 117 -33 308.5zM169 1495q-3 -14 9 -29q72 -63 127 -94q27 -12 40 13.5t-11 39.5q-43 20 -119 86 q-12 12 -27.5 5t-18.5 -21z" />
<glyph unicode="&#xf3;" horiz-adv-x="616" d="M-16 578q2 -59 26.5 -171t57.5 -202q35 -86 76.5 -138.5t96 -67.5t115.5 32q88 68 136 399q28 233 28 432v6q0 166 -57 274.5t-187 108.5q-63 0 -104 -28q-98 -70 -149.5 -269.5t-38.5 -375.5zM41 582q-8 166 38 350t126 242q29 20 71 20q94 0 140.5 -91.5t46.5 -234.5 v-6q0 -199 -31 -426q-41 -307 -113 -356q-106 -84 -196 147q-66 170 -82 355zM189.5 1385.5q0.5 -17.5 14 -24.5t29.5 1q23 12 82 53q68 47 80 53q16 10 13.5 27.5t-16 24t-30.5 -1.5q-22 -12 -79 -56q-33 -25 -78 -51q-16 -8 -15.5 -25.5z" />
<glyph unicode="&#xf4;" horiz-adv-x="583" d="M-13 679q-16 -329 25 -482q18 -70 64 -123q100 -129 225 -78q133 51 172 348q35 265 -4 535l-2 10l-8 47q-8 47 -18.5 98t-18.5 68q-63 125 -170 141q-119 23 -186 -110q-63 -125 -79 -454zM45 673.5q16 317.5 74 430.5q49 92 124.5 82t125.5 -109q8 -16 20 -53 q4 -18 10.5 -65.5t11.5 -85.5l5 -37q31 -262 -2 -496q-20 -150 -74.5 -237t-140.5 -52q-43 16 -79 61.5t-50 100.5q-41 143 -25 460.5zM76 1399q-18 -23 4 -41q6 -6 12 -7t12.5 0t10.5 4t10 9t9 11t10.5 15.5t11.5 14.5q12 16 16 20q20 29 31 23l8 -4q15 -12 68 -62 q23 -18 42 3.5t-2 41.5q-37 33 -73 64q-59 45 -115 -23l-20 -26z" />
<glyph unicode="&#xf5;" horiz-adv-x="653" d="M12 797q-25 -252 10 -404.5t136 -288.5q131 -170 235 -86q78 61 121 265q35 156 42.5 356t-15.5 266q-37 154 -99 240q-59 88 -132.5 105.5t-157.5 -52.5q-109 -102 -140 -401zM55 1323q-8 -18 3.5 -31.5t27.5 -11.5t23 18q29 70 57.5 77t77.5 -25q66 -43 112.5 -18.5 t71.5 141.5q4 31 -22 34q-31 4 -35 -22q-23 -94 -45 -103q-12 -4 -54 19q-49 29 -83.5 35t-70.5 -19.5t-63 -93.5zM71.5 805q30.5 268 121.5 348q106 100 202 -41q37 -53 69 -169t34 -161q2 -59 0 -135q-6 -203 -44 -369.5t-98 -211.5q-29 -23 -55 -11q-41 14 -94 86 q-86 109 -121 242q-45 154 -14.5 422z" />
<glyph unicode="&#xf6;" horiz-adv-x="669" d="M-2 602q-4 -221 49 -387t160 -215q129 -59 221 63q63 88 104 281q27 139 37 315t0 254l-6 39q-6 113 -69 209q-53 84 -130 104.5t-163 -36.5q-90 -63 -143.5 -237.5t-59.5 -389.5zM57 602q4 197 53.5 360.5t122.5 217.5q117 86 213 -52q56 -88 64 -215l6 -59 q2 -41 -2 -131q-6 -215 -43 -383t-92 -242q-59 -84 -148 -45q-84 41 -131 192.5t-43 356.5zM182 1441.5q0 -28.5 29 -28.5t29 29q0 12 -8.5 20t-20.5 8q-29 0 -29 -28.5zM370.5 1450q0.5 -29 29 -29t28.5 29q0 12 -8 20.5t-21 8.5q-29 0 -28.5 -29z" />
<glyph unicode="&#xf7;" horiz-adv-x="716" d="M8 641q0 -29 29 -29q113 0 278 9q164 8 277 8q29 0 29 28.5t-29 28.5q-113 0 -277 -8q-165 -8 -278 -8q-29 0 -29 -29zM229 884.5q0 -28.5 29 -28.5t29 29q0 12 -8.5 20t-20.5 8q-29 0 -29 -28.5zM252 469q0 -29 28.5 -29t28.5 29q0 12 -8 20.5t-20 8.5q-29 0 -29 -29z " />
<glyph unicode="&#xf8;" horiz-adv-x="606" d="M-8 696q-14 -258 37 -461.5t157 -244.5q78 -31 154 33q125 100 156 337q10 98 10 193v98q-2 39 -2 80v51q2 37 2 107l-6 74l-11 77q-2 4 -2 12.5t-2 12.5q-33 150 -163 184q-96 25 -168 -47t-111 -202t-51 -304zM55 438q-16 162 3.5 340t74.5 295q45 92 109.5 114.5 t116 -17t69.5 -117.5l2 -17q2 -39 1 -42t-13 -15q-45 -53 -107 -174q-59 -115 -94 -170q-57 -84 -115 -203q-10 -20 -19 -28.5t-17.5 -1t-10.5 35.5zM80 258q0 4 33 64q57 137 153 280q35 53 99 176q6 10 16 30.5t16 31.5q29 49 49 59v-16v-330q0 -113 -10 -184 q-29 -213 -133 -301q-51 -39 -96 -25q-84 35 -127 215z" />
<glyph unicode="&#xf9;" horiz-adv-x="532" d="M21 1058.5q-5 -106.5 2.5 -258t28.5 -435.5q3 -53 5 -80q8 -129 55.5 -213t147.5 -78q29 2 49.5 10t34.5 29.5t22.5 39t15.5 59.5t9 65.5t8 83.5q31 295 31 725q0 18 6 104q2 47 -2 109q0 12 -9 20t-22 8q-12 -2 -20 -12t-6 -21q4 -41 0 -102q0 -23 -1 -48.5t-2 -38.5 t-1 -19q0 -426 -31 -721q-8 -76 -13 -109t-14.5 -67.5t-22.5 -46t-36 -11.5q-66 -2 -100.5 65t-40.5 173l-31 481q-12 341 25 455q10 25 -19 37q-27 10 -39 -21q-25 -76 -30 -182.5zM136 1448q1 -16 18 -25q25 -9 67 -30l66 -33q16 -8 29.5 2t12.5 26.5t-18 24.5l-65 33 l-68 31q-16 8 -29.5 -2.5t-12.5 -26.5z" />
<glyph unicode="&#xfa;" horiz-adv-x="530" d="M41 1214q6 -137 6 -438q0 -285 10 -463q4 -86 9.5 -131t19.5 -97t44 -77.5t77 -36.5q127 -27 178 103q25 61 31 190q33 629 2 938q0 12 -9.5 20.5t-21.5 8.5q-12 -2 -20.5 -12.5t-6.5 -20.5q31 -326 -2 -930q-10 -129 -28 -174q-29 -80 -111 -65q-57 12 -76.5 75.5 t-27.5 212.5q-8 139 -9 461q-4 332 -8 441q0 29 -30 28q-31 -4 -27 -33zM162 1319q20 -21 41 0q70 70 119 108q14 12 11 29t-17.5 22t-30.5 -5q-66 -56 -123 -113q-20 -20 0 -41z" />
<glyph unicode="&#xfb;" horiz-adv-x="493" d="M37 1200q-4 31 24 35q33 0 33 -27q10 -82 6 -387q-6 -408 21 -602q8 -63 26 -121q14 -43 43 -66.5t60 -19.5q25 3 43 31q41 57 45 156q10 442 -19 993q-4 29 27 33q31 0 31 -29q27 -537 18 -997q-3 -120 -55 -191q-74 -109 -197 -14q-55 41 -82 217q-25 186 -18 612 q0 313 -6 377zM67.5 1348.5q-6.5 13.5 2.5 29.5l20 31l21 29q6 8 14 20q61 76 127 25q33 -25 74 -78q12 -14 5 -29.5t-22.5 -17.5t-27.5 10q-29 33 -62 66q-29 12 -47 -11q-2 -4 -14 -22l-19 -27l-20 -28q-10 -16 -27.5 -13.5t-24 16z" />
<glyph unicode="&#xfc;" horiz-adv-x="512" d="M31 743q-18 -291 22 -479q23 -106 73 -190t120 -86q45 -2 70.5 32.5t37.5 94.5q12 41 31 340q8 137 12 200l9 172q10 186 10 383q0 29 -29 29t-29 -29q0 -121 -2 -180q-8 -234 -18 -371l-14 -200q-16 -281 -27 -332q-10 -45 -22.5 -63.5t-28.5 -18.5q-39 2 -78 73.5 t-57 157.5q-39 174 -23 465q2 47 12 152q14 229 15 324q0 29 -29 28.5t-29 -28.5q0 -59 -16 -322q-4 -39 -10 -152zM153.5 1396.5q0.5 -28.5 29 -28.5t28.5 29q0 12 -8 20t-21 8q-29 0 -28.5 -28.5zM270 1403q0 -29 29 -29t29 29q0 12 -8.5 20.5t-20.5 8.5q-29 0 -29 -29z " />
<glyph unicode="&#xfd;" horiz-adv-x="616" d="M-12 1219q23 -37 88 -172q123 -252 213 -353q20 -27 12 -55l-16 -47q-18 -51 -31 -88q-29 -66 -55 -168l-23 -80q-15 -58 -24 -92l-17 -78q-4 -16 -14 -88q-4 -29 24.5 -33t32.5 25q12 80 41 194q39 150 115 371q12 37 32.5 94.5t26.5 75.5t18.5 60t21.5 85t24 115 q35 178 61 248q8 16 -3 29.5t-27.5 11.5t-22.5 -21q-33 -84 -68 -256q-33 -178 -59 -249q-4 -14 -37 25q-3 4 -6 7q-72 98 -168 299q-51 104 -86 168q-10 16 -25.5 16.5t-25.5 -14t-2 -30.5zM203 1333.5q20 -20.5 41 -0.5q41 45 90 86q20 20 1 41.5t-42 3.5l-90 -90 q-20 -20 0 -40.5z" />
<glyph unicode="&#xfe;" horiz-adv-x="700" d="M59 729q-14 -279 2 -584q14 -256 15 -356q0 -29 28.5 -29t28.5 29q0 25 -6 145.5t-6 215.5q0 18 19 -10q1 -2 3 -5q13 -19 21 -29q40 -49 92 -73q82 -41 163 -16.5t134 104.5q96 145 18 467q-41 172 -117.5 241.5t-164.5 53.5q-74 -12 -133 -92q-23 -35 -29 -16 q-5 19 -4 71q4 252 -6 330q0 27 -33 26q-29 -4 -25 -35q10 -170 9.5 -217t-9.5 -221zM115 506v4l1 4q1 4 1 6v6q14 137 94 240q90 102 199 22q59 -47 98 -195.5t39 -277.5q-2 -94 -43 -159.5t-102.5 -84t-126 17.5t-109.5 124q-51 98 -51 293z" />
<glyph unicode="&#xff;" horiz-adv-x="571" d="M2 1208q127 -264 250 -475l2 -4l-188 -725q-4 -31 22 -35q31 -4 35 23q117 465 227 862q14 45 68 188q45 117 57 199q4 29 -24.5 33t-32.5 -25q-12 -74 -56 -186q-55 -141 -69 -193q-16 -63 -51 2q-184 356 -187 361q-8 16 -24.5 17t-26.5 -12t-2 -30zM145 1396.5 q0 -28.5 29 -28.5t29 29q0 12 -8.5 20t-20.5 8q-29 0 -29 -28.5zM270 1403q0 -29 29 -29t29 29q0 12 -8.5 20.5t-20.5 8.5q-29 0 -29 -29z" />
<glyph unicode="&#x152;" horiz-adv-x="1111" d="M599 141q0 51 2 84v54q0 63 -2 186q-2 155 -2 280q0 207 6 328q2 51 11 103q12 53 28.5 63t71.5 14h102q18 0 59.5 -2t73 -4t37.5 -2q29 0 29 -28q0 -12 -8 -20.5t-21 -8.5q-25 0 -172 6q-30 2 -54.5 2t-41.5 -2h-22l-23 -29q-8 -41 -10 -96q-4 -82 -8 -291v-24 q0 -39 34 -39h7q33 2 79 2q29 4 33 -27q0 -31 -28 -31q-6 -2 -56 -2q-6 0 -18.5 -1t-16.5 -1q-35 0 -34 -41q0 -119 2 -190q2 -88 2 -145v-54q-2 -33 -2 -84q0 -59 2 -78q2 -6 2 -18h12q4 0 16.5 -1t22.5 -1h65q57 0 97 2h61q29 0 29 -28.5t-29 -28.5q-25 0 -61.5 -2 t-93.5 -2q-72 0 -95 2h-18q-29 0 -41 8q-2 0 -6 4q-12 10 -17 31q-2 8 -2 30q-2 20 -2 82zM-14 530q8 -133 19 -217t39 -168t81 -123.5t133 -39.5q92 0 152 59q35 37 51 160q32 234 32 531q0 61 -1 124v10q-6 143 -41 235.5t-108 128.5q-50 25 -98 25q-23 1 -45 -5 q-70 -16 -112 -66q-108 -122 -108 -470q0 -85 6 -184zM43 535q-5 89 -5 167q0 335 95 445q43 47 125 47q154 -2 174 -303v-8q3 -67 3 -143q0 -128 -9 -287q-10 -150 -25 -244q-12 -74 -16 -86q-8 -29 -20 -41q-12 -18 -46 -30.5t-61 -12.5q-59 0 -100 32.5t-63.5 105.5 t-33 152t-18.5 206z" />
<glyph unicode="&#x153;" horiz-adv-x="1058" d="M567 1188q-3 -26 -3 -68q0 -74 9 -198q6 -90 6 -152v-29q0 -10 -3 -70.5t-5 -99.5q-7 -151 -7 -267q0 -97 5 -171q2 -55 12 -90q12 -51 37 -59q47 -19 140 -19h10q133 10 139 10q29 0 29 29t-29 29q-37 0 -68 -2q-84 -6 -127 -6q-26 0 -37 2q-31 6 -30 39l-4 -19l-1 4 q-1 4 -1 6q-8 35 -11 80q-5 69 -5 166q0 129 9 307q2 29 10.5 35t32.5 6q51 0 72 2q29 0 29 31q-4 31 -33 27q-16 -2 -63 -2q-25 0 -34 8t-7 37v19q0 49 -7 153q-9 123 -9 193q0 40 3 63q0 4 1 8t1 6q1 13 6 25v4q1 2 3 4h6q6 2 30 2q43 0 95 -2q68 -2 143 -2q37 0 45 10 q8 6 8 20q-4 31 -33 27q-2 0 -20 1t-58 2t-83 1q-51 2 -98.5 2t-65.5 -10q-29 -18 -39 -92zM-24 836q-2 -50 -1 -96q1 -142 17 -256q22 -152 55 -265q37 -123 84 -184q44 -50 92 -50q33 0 68 23q70 43 102 174q38 150 39 442q0 110 -6 240q-4 207 -31 281q-48 140 -154 140 q-20 0 -42 -5q-43 -10 -87 -45t-67 -78q-61 -121 -69 -321zM35 830q6 188 63 298q16 33 49 61t64 34q13 3 25 3q71 0 104 -102q23 -61 29 -163q6 -217 6 -352q0 -108 -4 -163q-16 -330 -113 -389q-17 -10 -33 -10q-26 0 -49 27q-37 41 -72 162q-31 111 -53 258 q-17 116 -17 257q0 39 1 79z" />
<glyph unicode="&#x178;" horiz-adv-x="632" d="M330 1474q-16 -47 31 -64q29 -8 47 4t22 37q0 4 5.5 21.5t7.5 30.5q0 18 -27 32q-29 2 -30 2t-15 -10q-27 -21 -41 -53zM597.5 1498.5q-1.5 -14.5 4 -25.5t9.5 -13l22 -23q14 -8 30.5 -3t18.5 21q2 10 5 21.5t5 19.5q4 23 -6 33t-32 4q-41 -15 -41 -14 q-14 -6 -15.5 -20.5zM-4 1221q23 -109 84 -275l55 -143l41 -109q23 -61 23 -74q0 -22 -2 -56t-4.5 -72.5t-2.5 -72.5q0 -89 5 -200q6 -137 6 -186q0 -29 28.5 -29t28.5 29q0 8 -4 192q-4 114 -5 193q0 27 1 49q0 106 9 155.5t46 135.5q39 98 117 265t110 216q6 9 6 17 q0 7 -4 14q-8 14 -23 15h-2q-14 0 -26 -13q-35 -47 -149 -301l-84 -191q0 -2 -2 -6t-7 -9t-10.5 -6t-13.5 6t-16 28l-21 51l-53 139q-53 162 -74 250q-4 27 -35 22q-23 -3 -23 -25q0 -4 1 -9z" />
<glyph unicode="&#x2c6;" horiz-adv-x="524" d="M-26.5 643.5q8.5 -14.5 23.5 -15.5t28 13q111 174 196 358l43 95l4 -31q35 -205 103 -387q10 -27 37.5 -17.5t19.5 37.5q-61 160 -98 351q0 8 -2 23t-4 26q-4 57 -13 90q-2 20 -12 30.5t-20 12.5q-6 -2 -10.5 1t-8.5 -1t-6 -5t-6 -7.5t-6 -9.5t-5.5 -12t-5.5 -14 t-6 -17.5t-8 -20.5q-92 -231 -242 -469q-10 -16 -1.5 -30.5z" />
<glyph unicode="&#x2dc;" horiz-adv-x="614" d="M-342 151q0 -29 29 -28.5t29 28.5q0 23 16 66q41 94 98 113q55 18 74 -39q18 -43 31 -56q61 -72 138 -72.5t143.5 48.5t119.5 131q10 16 2 30.5t-23.5 15.5t-27.5 -13q-74 -106 -153.5 -140t-153.5 37q-6 8 -21 41q-18 39 -41 56q-94 66 -188 -43q-72 -83 -72 -175z" />
<glyph unicode="&#x2000;" horiz-adv-x="794" />
<glyph unicode="&#x2001;" horiz-adv-x="1589" />
<glyph unicode="&#x2002;" horiz-adv-x="794" />
<glyph unicode="&#x2003;" horiz-adv-x="1589" />
<glyph unicode="&#x2004;" horiz-adv-x="529" />
<glyph unicode="&#x2005;" horiz-adv-x="397" />
<glyph unicode="&#x2006;" horiz-adv-x="264" />
<glyph unicode="&#x2007;" horiz-adv-x="264" />
<glyph unicode="&#x2008;" horiz-adv-x="198" />
<glyph unicode="&#x2009;" horiz-adv-x="317" />
<glyph unicode="&#x200a;" horiz-adv-x="88" />
<glyph unicode="&#x2010;" horiz-adv-x="667" d="M6 538.5q4 -28.5 33 -24.5q113 16 344 10q143 -4 160 -4q29 0 28.5 29t-28.5 29q-8 0 -156 4q-237 9 -356 -11q-29 -4 -25 -32.5z" />
<glyph unicode="&#x2011;" horiz-adv-x="667" d="M6 538.5q4 -28.5 33 -24.5q113 16 344 10q143 -4 160 -4q29 0 28.5 29t-28.5 29q-8 0 -156 4q-237 9 -356 -11q-29 -4 -25 -32.5z" />
<glyph unicode="&#x2012;" horiz-adv-x="667" d="M6 538.5q4 -28.5 33 -24.5q113 16 344 10q143 -4 160 -4q29 0 28.5 29t-28.5 29q-8 0 -156 4q-237 9 -356 -11q-29 -4 -25 -32.5z" />
<glyph unicode="&#x2013;" horiz-adv-x="684" d="M-51 463q0 -12 9 -20.5t22 -6.5q33 2 182 17q264 23 399 22q29 0 29 28.5t-29 28.5q-170 0 -403 -22q-156 -14 -183 -16q-12 0 -20 -9.5t-6 -21.5z" />
<glyph unicode="&#x2014;" horiz-adv-x="1419" d="M-27 463q6 -25 35 -21q127 33 644 48.5t638 -13.5q31 -4 35 23q4 31 -22 35q-129 31 -652.5 16.5t-658.5 -51.5q-25 -10 -19 -37z" />
<glyph unicode="&#x2018;" horiz-adv-x="268" d="M-10 1006q-4 -31 22 -35q31 -4 35 22q41 179 115 240q14 12 11 28.5t-17.5 21.5t-30.5 -5q-92 -76 -135 -272z" />
<glyph unicode="&#x2019;" horiz-adv-x="229" d="M14 1247q82 -82 56 -262q-4 -29 24.5 -33t32.5 25q34 209 -72 311q-20 20 -40.5 0t-0.5 -41z" />
<glyph unicode="&#x201a;" horiz-adv-x="278" d="M-8 118.5q2 -16.5 20 -22.5q35 -18 62 -41q23 -20 39 -46.5t14 -58.5t-33 -52q-16 -10 -13 -27.5t16.5 -24t29.5 1.5q45 29 56.5 80.5t-13.5 91.5q-43 93 -137 130q-16 8 -29.5 -3.5t-11.5 -28z" />
<glyph unicode="&#x201c;" horiz-adv-x="491" d="M47 922q-2 -12 6 -21.5t21 -9.5q12 -2 21 6t9 21q10 145 84 239q12 14 5 29.5t-22 17.5t-28 -10q-84 -109 -96 -272zM213 942q-8 -29 19.5 -38t37.5 18q16 53 31 88q37 88 88 139q18 23 -3 42t-42 -1q-61 -70 -96 -158z" />
<glyph unicode="&#x201d;" horiz-adv-x="450" d="M54 1118.5q-5 -14.5 5 -28.5q14 -16 31 -46q12 -25 31 -98q4 -27 37 -22q25 4 20 34q-4 18 -9 40t-5 24q-23 63 -60 104q-12 14 -28.5 10.5t-21.5 -18zM206 1183.5q-5 -14.5 5 -30.5q41 -47 57.5 -101.5t28.5 -150.5q0 -12 10 -20.5t23 -6.5q10 0 18 10.5t6 20.5 q-14 187 -98 285q-12 14 -28.5 11t-21.5 -17.5z" />
<glyph unicode="&#x201e;" horiz-adv-x="399" d="M31 154.5q-6 -13.5 2 -29.5q57 -94 24 -219q-4 -29 21 -35q27 -6 37 18q41 152 -33 269q-10 16 -27.5 13t-23.5 -16.5zM219 160q47 -127 10 -226q-8 -29 19.5 -38t38.5 18q40 123 -15 266q-6 18 -22.5 20.5t-27.5 -11t-3 -29.5z" />
<glyph unicode="&#x2022;" horiz-adv-x="378" d="M78 647q2 -8 6 -14t8 -14.5t8 -14.5l-6 14q39 -74 111 -36q25 16 43 24l-19 -8q12 6 33 23q31 34 19 79t-53.5 57.5t-77.5 -7.5q-2 0 -6.5 -3.5t-8.5 -5.5q-14 -6 -35 -18q-35 -31 -22 -76z" />
<glyph unicode="&#x2026;" horiz-adv-x="722" d="M-15 38q3 -9 7 -17.5t9 -16.5l5 -8q2 0 4 -4l2 -4q12 -16 25.5 -15.5t21.5 13.5q39 53 21 82q-18 23 -33 22q-2 0 -49 -20q-10 -6 -13 -14.5t0 -17.5zM248 -2q10 -27 35.5 -30t56.5 22l7 8q7 8 14.5 16.5t12.5 20.5t3 24q-2 20 -24 32.5t-42 8.5q-20 -2 -51 -12 q-43 -23 -12 -90zM528 6q10 -20 21 -20h6h12q14 2 31 2q29 0 29 28q0 8 -2 13q-2 2 -4.5 14t-8.5 23q-20 29 -45 4q-2 -2 -10 -9.5t-14 -13.5l-8 -8q-2 -2 -5 -6q-8 -16 -2 -27z" />
<glyph unicode="&#x202f;" horiz-adv-x="317" />
<glyph unicode="&#x2039;" horiz-adv-x="366" d="M-37 461q-16 -28 17 -53l24 -15q84 -49 176 -82q29 -8 38 19.5t-17 38.5q-74 25 -166 73q-10 6 -2 15q0 2 4 5t4 5q35 35 78 80q115 115 145 151q12 16 5 31.5t-22.5 17t-27.5 -11.5q-12 -15 -141 -147q-43 -41 -80 -82q-14 -14 -27 -31q-4 -6 -8 -14z" />
<glyph unicode="&#x203a;" horiz-adv-x="413" d="M7 276.5q3 -16.5 17.5 -21.5t30.5 5q51 41 156 158q49 55 78 96q16 23 22 39q25 55 -51 84q-23 4 -59 20q-78 31 -119 84q-12 16 -28.5 13.5t-22.5 -16t2 -29.5q51 -70 147 -107l31 -10l6 -2q43 -14 31 -31q-4 -8 -8 -12q-20 -33 -72 -90q-80 -90 -150 -152 q-14 -12 -11 -28.5z" />
<glyph unicode="&#x205f;" horiz-adv-x="397" />
<glyph unicode="&#x20ac;" horiz-adv-x="626" d="M-180 502q6 -25 35 -21q39 10 96 21q14 2 23.5 2t14.5 -10.5t5 -30.5q0 -100 12 -155.5t45 -119.5q82 -158 189 -190q68 -16 115.5 21.5t68.5 105.5q23 68 22 90q4 31 -20 35q-33 4 -37 -23l-1 -5q-1 -5 -4 -16t-5 -22l-10 -43q-14 -45 -37 -63q-72 -63 -160 37 q-86 90 -106 198q-12 78 -13 160q0 20 5 30.5t11.5 11.5t22.5 3q63 4 238 4q63 -2 123 -2q29 0 28.5 29t-28.5 29q-57 0 -119 2q-131 2 -238 -5q-25 0 -34 5.5t-9 29.5q0 6 1 18.5t1 18.5l2 15v9q0 7 1 8t2 6t2 6t4.5 4t7.5 4t10 2t14 1q57 2 320 3q29 0 28.5 28.5 t-28.5 28.5h-309q-33 -2 -38 5t-1 40q16 113 39.5 167t70.5 103q96 106 174 70q84 -33 105 -174q2 -2 8 -41q2 -20 8 -53q4 -27 35 -23q27 4 22 35q-14 53 -14 92q-33 172 -139 219q-59 25 -124 -0.5t-118 -83.5q-55 -61 -83.5 -126.5t-45.5 -196.5v-9q0 -8 -1 -9t-2 -6 t-2 -6l-4 -4q-3 -3 -7 -4t-10.5 -3t-14.5 -2q-70 -8 -104 -15q-27 -4 -23 -32.5t35 -24.5q37 6 80 12q23 2 33 -9t8 -32q-2 -14 -2 -45q0 -41 -39 -43q-61 -9 -117 -24q-25 -10 -18 -37z" />
<glyph unicode="&#x2122;" horiz-adv-x="724" d="M-57 1241q0 -12 9 -20.5t21 -6.5h68h37q18 -307 12 -399q-2 -12 6 -21.5t21 -9.5q12 -2 21 6.5t9 20.5q12 143 -6 401q0 2 35 7h10q35 0 45 12q8 6 9 20q-4 31 -33 27q-29 -2 -123 -2q-20 0 -47 -1t-42 -2t-26 -1q-12 0 -20 -9.5t-6 -21.5zM266 825q0 -12 9.5 -20 t21.5 -6q12 0 20.5 9t6.5 21q0 80 12 129l16 76q3 16 9 47q9 37 12 37q2 -12 5 -45t5 -61.5t2 -30.5q14 -33 47 -18q20 10 37 57q2 4 23 80q5 19 17 8q5 -5 7 -14q2 -8 5 -25.5t5 -24.5l27 -122q2 -10 5 -24.5t5 -24t4 -15.5q8 -33 25 -41q16 -6 30.5 7.5t6.5 31.5 q-6 14 -19 78l-24 123q-15 77 -31 117q-10 31 -16 40q-12 29 -39 29q-16 0 -27 -12q-12 -23 -18 -41q-8 -29 -13.5 -37t-7.5 -7t-9 20.5t-11 27.5l-11 23q-10 23 -34 22q-20 0 -29 -8q-6 -6 -14 -27l-3 -14q-3 -14 -6 -25q-3 -15 -6 -37l-32 -157q-14 -76 -13 -146z" />
<glyph unicode="&#xe000;" horiz-adv-x="1250" d="M0 1250h1250v-1250h-1250v1250z" />
<glyph unicode="&#xfb01;" horiz-adv-x="798" d="M631 547q-2 -30 -2 -76q0 -77 6 -201q10 -225 10 -272q0 -29 28.5 -29t28.5 29q0 39 -10 274q-5 97 -5 185q0 44 1 86q12 287 12 488q0 112 -4 198q0 28 -29 28h-2q-31 -4 -26 -32q4 -98 4 -212q0 -206 -12 -466zM43 428q-4 -89 -4 -166q0 -139 12 -242q0 -12 9 -20 q8 -6 17 -6h5q12 0 20.5 9t6.5 22q-9 98 -9 240q0 158 11 370q0 20 6 28.5t11 9.5t24 3q80 6 84 6q29 0 28 31q-4 31 -33 26q-33 0 -59 -2h-12q-23 -4 -33 4.5t-8 34.5v32q0 23 2 32q2 42 2 97q0 92 -6 222q-2 20 9 31.5t32 9.5q31 -2 110 -2q92 0 170 -4q10 -2 20.5 6 t12.5 21q0 12 -8 21t-21 9q-59 6 -176 6q-96 1 -170 5q-14 0 -18 -5q-12 -10 -19 -32q-2 -2 -2 -11q0 -12 1 -36.5t2 -69.5t1 -82q3 -103 3 -149q0 -24 -1 -33q-8 -111 -20 -416z" />
<glyph unicode="&#xfb02;" horiz-adv-x="1027" d="M571 936q0 -92 4 -350q2 -129 2 -293v-152q12 -135 51 -151q37 -18 106 -18q18 0 38 1q43 3 72 3q39 0 53 -5q4 -1 8 -1q24 0 27 24q1 4 1 8q0 24 -24 27q-19 5 -76 5q-28 0 -65 -1q-13 -1 -27 -1q-28 0 -59 3q-29 6 -33 20q-4 8 -4 13q-4 20 -8 77q-2 12 -2 148 q0 164 -2 293t-2 348q0 152 6 291q4 29 -27 32q-31 0 -31 -28q-8 -123 -8 -293zM43 428q-4 -89 -4 -166q0 -139 12 -242q0 -12 9 -20q8 -6 17 -6h5q12 0 20.5 9t6.5 22q-9 98 -9 240q0 158 11 370q0 20 6 28.5t11 9.5t24 3q80 6 84 6q29 0 28 31q-4 31 -33 26q-33 0 -59 -2 h-12q-23 -4 -33 4.5t-8 34.5v32q0 23 2 32q2 42 2 97q0 92 -6 222q-2 20 9 31.5t32 9.5q31 -2 110 -2q92 0 170 -4q10 -2 20.5 6t12.5 21q0 12 -8 21t-21 9q-59 6 -176 6q-96 1 -170 5q-14 0 -18 -5q-12 -10 -19 -32q-2 -2 -2 -11q0 -12 1 -36.5t2 -69.5t1 -82 q3 -103 3 -149q0 -24 -1 -33q-8 -111 -20 -416z" />
<glyph unicode="&#xfb03;" horiz-adv-x="1363" d="M1196 547q-2 -30 -2 -76q0 -77 6 -201q10 -225 10 -272q0 -29 28.5 -29t28.5 29q0 39 -10 274q-5 97 -5 185q0 44 1 86q12 287 12 488q0 112 -4 198q0 28 -29 28h-2q-31 -4 -26 -32q4 -98 4 -212q0 -206 -12 -466zM608 428q-4 -89 -4 -166q0 -139 12 -242q0 -12 9 -20 q8 -6 17 -6h5q12 0 20.5 9t6.5 22q-9 98 -9 240q0 158 11 370q0 20 6 28.5t11 9.5t24 3q80 6 84 6q29 0 28 31q-4 31 -33 26q-33 0 -59 -2h-12q-23 -4 -33 4.5t-8 34.5v32q0 23 2 32q2 42 2 97q0 92 -6 222q-2 20 9 31.5t32 9.5q31 -2 110 -2q92 0 170 -4q10 -2 20.5 6 t12.5 21q0 12 -8 21t-21 9q-59 6 -176 6q-96 1 -170 5q-14 0 -18 -5q-12 -10 -19 -32q-2 -2 -2 -11q0 -12 1 -36.5t2 -69.5t1 -82q3 -103 3 -149q0 -24 -1 -33q-8 -111 -20 -416zM43 428q-4 -89 -4 -166q0 -139 12 -242q0 -12 9 -20q8 -6 17 -6h5q12 0 20.5 9t6.5 22 q-9 98 -9 240q0 158 11 370q0 20 6 28.5t11 9.5t24 3q80 6 84 6q29 0 28 31q-4 31 -33 26q-33 0 -59 -2h-12q-23 -4 -33 4.5t-8 34.5v32q0 23 2 32q2 42 2 97q0 92 -6 222q-2 20 9 31.5t32 9.5q31 -2 110 -2q92 0 170 -4q10 -2 20.5 6t12.5 21q0 12 -8 21t-21 9 q-59 6 -176 6q-96 1 -170 5q-14 0 -18 -5q-12 -10 -19 -32q-2 -2 -2 -11q0 -12 1 -36.5t2 -69.5t1 -82q3 -103 3 -149q0 -24 -1 -33q-8 -111 -20 -416z" />
<glyph unicode="&#xfb04;" horiz-adv-x="1592" d="M1136 936q0 -92 4 -350q2 -129 2 -293v-152q12 -135 51 -151q37 -18 106 -18q18 0 38 1q43 3 72 3q39 0 53 -5q4 -1 8 -1q24 0 27 24q1 4 1 8q0 24 -24 27q-19 5 -76 5q-28 0 -65 -1q-13 -1 -27 -1q-28 0 -59 3q-29 6 -33 20q-4 8 -4 13q-4 20 -8 77q-2 12 -2 148 q0 164 -2 293t-2 348q0 152 6 291q4 29 -27 32q-31 0 -31 -28q-8 -123 -8 -293zM608 428q-4 -89 -4 -166q0 -139 12 -242q0 -12 9 -20q8 -6 17 -6h5q12 0 20.5 9t6.5 22q-9 98 -9 240q0 158 11 370q0 20 6 28.5t11 9.5t24 3q80 6 84 6q29 0 28 31q-4 31 -33 26q-33 0 -59 -2 h-12q-23 -4 -33 4.5t-8 34.5v32q0 23 2 32q2 42 2 97q0 92 -6 222q-2 20 9 31.5t32 9.5q31 -2 110 -2q92 0 170 -4q10 -2 20.5 6t12.5 21q0 12 -8 21t-21 9q-59 6 -176 6q-96 1 -170 5q-14 0 -18 -5q-12 -10 -19 -32q-2 -2 -2 -11q0 -12 1 -36.5t2 -69.5t1 -82 q3 -103 3 -149q0 -24 -1 -33q-8 -111 -20 -416zM43 428q-4 -89 -4 -166q0 -139 12 -242q0 -12 9 -20q8 -6 17 -6h5q12 0 20.5 9t6.5 22q-9 98 -9 240q0 158 11 370q0 20 6 28.5t11 9.5t24 3q80 6 84 6q29 0 28 31q-4 31 -33 26q-33 0 -59 -2h-12q-23 -4 -33 4.5t-8 34.5v32 q0 23 2 32q2 42 2 97q0 92 -6 222q-2 20 9 31.5t32 9.5q31 -2 110 -2q92 0 170 -4q10 -2 20.5 6t12.5 21q0 12 -8 21t-21 9q-59 6 -176 6q-96 1 -170 5q-14 0 -18 -5q-12 -10 -19 -32q-2 -2 -2 -11q0 -12 1 -36.5t2 -69.5t1 -82q3 -103 3 -149q0 -24 -1 -33 q-8 -111 -20 -416z" />
</font>
</defs>
</svg>
